<svg width="408" height="352" viewBox="0 0 408 352" fill="none" xmlns="http://www.w3.org/2000/svg">
<path d="M34.6159 38.1259H36.699L39.1898 42.6301H39.2892L41.78 38.1259H43.8631L40.1592 44.5094V48.3077H38.3198V44.5094L34.6159 38.1259ZM53.1932 43.2168C53.1932 44.3138 52.9877 45.2535 52.5767 46.0357C52.169 46.8145 51.6122 47.4111 50.9062 47.8254C50.2036 48.2397 49.4065 48.4469 48.5149 48.4469C47.6233 48.4469 46.8245 48.2397 46.1186 47.8254C45.4159 47.4078 44.8591 46.8096 44.4481 46.0307C44.0405 45.2485 43.8366 44.3105 43.8366 43.2168C43.8366 42.1197 44.0405 41.1817 44.4481 40.4028C44.8591 39.6207 45.4159 39.0224 46.1186 38.6081C46.8245 38.1938 47.6233 37.9867 48.5149 37.9867C49.4065 37.9867 50.2036 38.1938 50.9062 38.6081C51.6122 39.0224 52.169 39.6207 52.5767 40.4028C52.9877 41.1817 53.1932 42.1197 53.1932 43.2168ZM51.3388 43.2168C51.3388 42.4445 51.2178 41.7932 50.9758 41.2629C50.7372 40.7293 50.4057 40.3266 49.9815 40.0548C49.5573 39.7797 49.0684 39.6422 48.5149 39.6422C47.9614 39.6422 47.4725 39.7797 47.0483 40.0548C46.624 40.3266 46.2909 40.7293 46.049 41.2629C45.8103 41.7932 45.691 42.4445 45.691 43.2168C45.691 43.989 45.8103 44.642 46.049 45.1756C46.2909 45.7059 46.624 46.1086 47.0483 46.3837C47.4725 46.6555 47.9614 46.7913 48.5149 46.7913C49.0684 46.7913 49.5573 46.6555 49.9815 46.3837C50.4057 46.1086 50.7372 45.7059 50.9758 45.1756C51.2178 44.642 51.3388 43.989 51.3388 43.2168ZM60.8553 38.1259H62.6997V44.7778C62.6997 45.507 62.5274 46.1484 62.1827 46.7019C61.8413 47.2554 61.3607 47.6879 60.7409 47.9994C60.1211 48.3077 59.3969 48.4618 58.5683 48.4618C57.7364 48.4618 57.0106 48.3077 56.3908 47.9994C55.771 47.6879 55.2904 47.2554 54.949 46.7019C54.6076 46.1484 54.4369 45.507 54.4369 44.7778V38.1259H56.2814V44.6237C56.2814 45.048 56.3742 45.4258 56.5598 45.7573C56.7487 46.0887 57.0139 46.3489 57.3553 46.5378C57.6966 46.7234 58.101 46.8162 58.5683 46.8162C59.0357 46.8162 59.44 46.7234 59.7814 46.5378C60.1261 46.3489 60.3912 46.0887 60.5769 45.7573C60.7625 45.4258 60.8553 45.048 60.8553 44.6237V38.1259ZM64.2045 48.3077V38.1259H68.0227C68.8049 38.1259 69.4611 38.2617 69.9914 38.5335C70.5251 38.8053 70.9278 39.1865 71.1995 39.677C71.4746 40.1642 71.6122 40.7326 71.6122 41.3823C71.6122 42.0352 71.473 42.6019 71.1946 43.0825C70.9195 43.5598 70.5135 43.9294 69.9765 44.1912C69.4396 44.4497 68.78 44.579 67.9978 44.579H65.2784V43.0477H67.7493C68.2066 43.0477 68.5812 42.9848 68.8728 42.8588C69.1645 42.7296 69.3799 42.5423 69.5191 42.297C69.6617 42.0484 69.7329 41.7435 69.7329 41.3823C69.7329 41.021 69.6617 40.7127 69.5191 40.4575C69.3766 40.199 69.1595 40.0035 68.8679 39.8709C68.5762 39.735 68.2 39.6671 67.7393 39.6671H66.049V48.3077H64.2045ZM69.4645 43.694L71.9851 48.3077H69.9268L67.451 43.694H69.4645ZM84.4978 41.5612H82.6385C82.5854 41.2563 82.4877 40.9862 82.3451 40.7509C82.2026 40.5122 82.0253 40.31 81.8132 40.1443C81.6011 39.9786 81.3591 39.8543 81.0873 39.7715C80.8189 39.6853 80.5289 39.6422 80.2173 39.6422C79.6638 39.6422 79.1733 39.7814 78.7457 40.0598C78.3182 40.3349 77.9834 40.7393 77.7414 41.2729C77.4995 41.8032 77.3785 42.4511 77.3785 43.2168C77.3785 43.9957 77.4995 44.6519 77.7414 45.1855C77.9867 45.7158 78.3215 46.1169 78.7457 46.3886C79.1733 46.6571 79.6621 46.7913 80.2123 46.7913C80.5173 46.7913 80.8023 46.7516 81.0674 46.672C81.3359 46.5892 81.5762 46.4682 81.7883 46.3091C82.0038 46.15 82.1844 45.9545 82.3302 45.7225C82.4794 45.4904 82.5821 45.2253 82.6385 44.927L84.4978 44.9369C84.4282 45.4208 84.2774 45.8749 84.0454 46.2992C83.8167 46.7234 83.5168 47.0979 83.1456 47.4227C82.7744 47.7442 82.3402 47.9961 81.843 48.1784C81.3459 48.3574 80.794 48.4469 80.1875 48.4469C79.2926 48.4469 78.4938 48.2397 77.7912 47.8254C77.0885 47.4111 76.535 46.8129 76.1307 46.0307C75.7263 45.2485 75.5241 44.3105 75.5241 43.2168C75.5241 42.1197 75.728 41.1817 76.1356 40.4028C76.5433 39.6207 77.0985 39.0224 77.8011 38.6081C78.5038 38.1938 79.2992 37.9867 80.1875 37.9867C80.7542 37.9867 81.2812 38.0662 81.7684 38.2253C82.2557 38.3844 82.6898 38.618 83.071 38.9263C83.4522 39.2312 83.7654 39.6057 84.0106 40.0499C84.2592 40.4907 84.4216 40.9945 84.4978 41.5612ZM85.6869 48.3077V38.1259H89.5051C90.2873 38.1259 90.9436 38.2617 91.4739 38.5335C92.0075 38.8053 92.4102 39.1865 92.682 39.677C92.9571 40.1642 93.0946 40.7326 93.0946 41.3823C93.0946 42.0352 92.9554 42.6019 92.677 43.0825C92.4019 43.5598 91.9959 43.9294 91.459 44.1912C90.922 44.4497 90.2625 44.579 89.4803 44.579H86.7608V43.0477H89.2317C89.6891 43.0477 90.0636 42.9848 90.3553 42.8588C90.6469 42.7296 90.8624 42.5423 91.0016 42.297C91.1441 42.0484 91.2153 41.7435 91.2153 41.3823C91.2153 41.021 91.1441 40.7127 91.0016 40.4575C90.8591 40.199 90.642 40.0035 90.3503 39.8709C90.0586 39.735 89.6824 39.6671 89.2217 39.6671H87.5314V48.3077H85.6869ZM90.9469 43.694L93.4675 48.3077H91.4092L88.9334 43.694H90.9469ZM94.2924 48.3077V38.1259H100.915V39.672H96.1369V42.4362H100.572V43.9824H96.1369V46.7615H100.954V48.3077H94.2924ZM105.747 48.3077H102.296V38.1259H105.816C106.827 38.1259 107.695 38.3297 108.421 38.7374C109.15 39.1417 109.711 39.7234 110.102 40.4824C110.493 41.2414 110.688 42.1495 110.688 43.2068C110.688 44.2674 110.491 45.1789 110.097 45.9412C109.706 46.7035 109.141 47.2885 108.401 47.6962C107.666 48.1038 106.781 48.3077 105.747 48.3077ZM104.141 46.7118H105.657C106.366 46.7118 106.958 46.5825 107.432 46.324C107.906 46.0622 108.262 45.6727 108.501 45.1557C108.739 44.6353 108.859 43.9857 108.859 43.2068C108.859 42.4279 108.739 41.7816 108.501 41.2679C108.262 40.7509 107.909 40.3647 107.442 40.1095C106.978 39.851 106.401 39.7217 105.712 39.7217H104.141V46.7118ZM113.785 38.1259V48.3077H111.941V38.1259H113.785ZM114.835 39.672V38.1259H122.959V39.672H119.812V48.3077H117.982V39.672H114.835ZM132.531 40.9249C132.484 40.4907 132.289 40.1526 131.944 39.9107C131.603 39.6687 131.159 39.5477 130.612 39.5477C130.227 39.5477 129.898 39.6057 129.622 39.7217C129.347 39.8377 129.137 39.9952 128.991 40.194C128.845 40.3929 128.771 40.6199 128.767 40.8751C128.767 41.0873 128.815 41.2712 128.912 41.427C129.011 41.5828 129.145 41.7153 129.314 41.8247C129.483 41.9308 129.671 42.0203 129.876 42.0932C130.082 42.1661 130.289 42.2274 130.497 42.2771L131.452 42.5158C131.837 42.6053 132.206 42.7262 132.561 42.8787C132.919 43.0312 133.238 43.2234 133.52 43.4554C133.805 43.6874 134.031 43.9675 134.196 44.2956C134.362 44.6237 134.445 45.0082 134.445 45.449C134.445 46.0456 134.292 46.5709 133.988 47.025C133.683 47.4758 133.242 47.8287 132.665 48.084C132.092 48.3359 131.397 48.4618 130.582 48.4618C129.79 48.4618 129.102 48.3392 128.519 48.0939C127.939 47.8486 127.485 47.4907 127.157 47.02C126.832 46.5494 126.656 45.976 126.63 45.2999H128.444C128.471 45.6545 128.58 45.9495 128.772 46.1848C128.965 46.4201 129.215 46.5958 129.523 46.7118C129.835 46.8278 130.183 46.8858 130.567 46.8858C130.968 46.8858 131.319 46.8261 131.621 46.7068C131.926 46.5842 132.165 46.4152 132.337 46.1997C132.509 45.981 132.597 45.7258 132.6 45.4341C132.597 45.1689 132.519 44.9502 132.367 44.7778C132.214 44.6022 132.001 44.4564 131.725 44.3403C131.454 44.221 131.136 44.115 130.771 44.0222L129.613 43.7239C128.774 43.5084 128.111 43.182 127.624 42.7445C127.14 42.3037 126.898 41.7187 126.898 40.9895C126.898 40.3896 127.06 39.8643 127.385 39.4135C127.713 38.9627 128.159 38.6131 128.723 38.3645C129.286 38.1126 129.924 37.9867 130.637 37.9867C131.359 37.9867 131.992 38.1126 132.536 38.3645C133.083 38.6131 133.512 38.9594 133.823 39.4036C134.135 39.8444 134.296 40.3515 134.306 40.9249H132.531ZM144.304 41.5612H142.445C142.392 41.2563 142.294 40.9862 142.152 40.7509C142.009 40.5122 141.832 40.31 141.62 40.1443C141.408 39.9786 141.166 39.8543 140.894 39.7715C140.626 39.6853 140.335 39.6422 140.024 39.6422C139.47 39.6422 138.98 39.7814 138.552 40.0598C138.125 40.3349 137.79 40.7393 137.548 41.2729C137.306 41.8032 137.185 42.4511 137.185 43.2168C137.185 43.9957 137.306 44.6519 137.548 45.1855C137.793 45.7158 138.128 46.1169 138.552 46.3886C138.98 46.6571 139.469 46.7913 140.019 46.7913C140.324 46.7913 140.609 46.7516 140.874 46.672C141.143 46.5892 141.383 46.4682 141.595 46.3091C141.81 46.15 141.991 45.9545 142.137 45.7225C142.286 45.4904 142.389 45.2253 142.445 44.927L144.304 44.9369C144.235 45.4208 144.084 45.8749 143.852 46.2992C143.623 46.7234 143.323 47.0979 142.952 47.4227C142.581 47.7442 142.147 47.9961 141.65 48.1784C141.152 48.3574 140.601 48.4469 139.994 48.4469C139.099 48.4469 138.3 48.2397 137.598 47.8254C136.895 47.4111 136.342 46.8129 135.937 46.0307C135.533 45.2485 135.331 44.3105 135.331 43.2168C135.331 42.1197 135.535 41.1817 135.942 40.4028C136.35 39.6207 136.905 39.0224 137.608 38.6081C138.31 38.1938 139.106 37.9867 139.994 37.9867C140.561 37.9867 141.088 38.0662 141.575 38.2253C142.062 38.3844 142.496 38.618 142.878 38.9263C143.259 39.2312 143.572 39.6057 143.817 40.0499C144.066 40.4907 144.228 40.9945 144.304 41.5612ZM154.592 43.2168C154.592 44.3138 154.386 45.2535 153.975 46.0357C153.567 46.8145 153.011 47.4111 152.305 47.8254C151.602 48.2397 150.805 48.4469 149.913 48.4469C149.022 48.4469 148.223 48.2397 147.517 47.8254C146.814 47.4078 146.258 46.8096 145.847 46.0307C145.439 45.2485 145.235 44.3105 145.235 43.2168C145.235 42.1197 145.439 41.1817 145.847 40.4028C146.258 39.6207 146.814 39.0224 147.517 38.6081C148.223 38.1938 149.022 37.9867 149.913 37.9867C150.805 37.9867 151.602 38.1938 152.305 38.6081C153.011 39.0224 153.567 39.6207 153.975 40.4028C154.386 41.1817 154.592 42.1197 154.592 43.2168ZM152.737 43.2168C152.737 42.4445 152.616 41.7932 152.374 41.2629C152.136 40.7293 151.804 40.3266 151.38 40.0548C150.956 39.7797 150.467 39.6422 149.913 39.6422C149.36 39.6422 148.871 39.7797 148.447 40.0548C148.022 40.3266 147.689 40.7293 147.447 41.2629C147.209 41.7932 147.089 42.4445 147.089 43.2168C147.089 43.989 147.209 44.642 147.447 45.1756C147.689 45.7059 148.022 46.1086 148.447 46.3837C148.871 46.6555 149.36 46.7913 149.913 46.7913C150.467 46.7913 150.956 46.6555 151.38 46.3837C151.804 46.1086 152.136 45.7059 152.374 45.1756C152.616 44.642 152.737 43.989 152.737 43.2168ZM155.835 48.3077V38.1259H159.654C160.436 38.1259 161.092 38.2617 161.622 38.5335C162.156 38.8053 162.559 39.1865 162.83 39.677C163.106 40.1642 163.243 40.7326 163.243 41.3823C163.243 42.0352 163.104 42.6019 162.825 43.0825C162.55 43.5598 162.144 43.9294 161.607 44.1912C161.07 44.4497 160.411 44.579 159.629 44.579H156.909V43.0477H159.38C159.838 43.0477 160.212 42.9848 160.504 42.8588C160.795 42.7296 161.011 42.5423 161.15 42.297C161.293 42.0484 161.364 41.7435 161.364 41.3823C161.364 41.021 161.293 40.7127 161.15 40.4575C161.007 40.199 160.79 40.0035 160.499 39.8709C160.207 39.735 159.831 39.6671 159.37 39.6671H157.68V48.3077H155.835ZM161.095 43.694L163.616 48.3077H161.558L159.082 43.694H161.095ZM164.441 48.3077V38.1259H171.063V39.672H166.285V42.4362H170.72V43.9824H166.285V46.7615H171.103V48.3077H164.441Z" fill="#7A7A7A"/>
<g filter="url(#filter0_f_6001_14300)">
<ellipse cx="317.532" cy="156.667" rx="17.5" ry="14.5" transform="rotate(1.07834 317.532 156.667)" fill="#FFA7C5"/>
</g>
<path d="M91.5449 221.745C90.7739 227.038 90.3582 232.407 90.3122 237.818L90.8122 237.822C90.8093 238.157 90.8079 238.492 90.8079 238.827H91.7283C91.7283 238.495 91.7297 238.163 91.7325 237.831L92.2325 237.835C92.2777 232.516 92.6864 227.237 93.4443 222.034L92.9495 221.962C93.0453 221.305 93.1466 220.648 93.2534 219.994L93.7469 220.074C94.6012 214.837 95.8101 209.681 97.3593 204.643L96.8814 204.496C97.0765 203.862 97.2769 203.229 97.4828 202.598L97.9581 202.753C99.6004 197.72 101.584 192.81 103.895 188.059L103.446 187.841C103.736 187.244 104.031 186.649 104.332 186.058L104.778 186.284C107.17 181.575 109.887 177.029 112.914 172.684L112.504 172.398C112.883 171.854 113.267 171.312 113.656 170.774L114.061 171.067C117.147 166.798 120.538 162.731 124.219 158.903L123.858 158.556C124.088 158.317 124.319 158.079 124.552 157.841C124.781 157.607 125.011 157.374 125.242 157.142L125.597 157.494C129.303 153.771 133.237 150.339 137.366 147.211L137.064 146.813C137.587 146.417 138.112 146.026 138.64 145.64L138.935 146.044C143.165 142.955 147.589 140.181 152.173 137.735L151.938 137.294C152.515 136.986 153.096 136.683 153.678 136.385L153.906 136.83C158.556 134.454 163.363 132.413 168.292 130.721L168.129 130.248C168.748 130.036 169.37 129.829 169.993 129.627L170.146 130.103C175.1 128.501 180.171 127.25 185.322 126.366L185.237 125.873C185.882 125.762 186.529 125.657 187.176 125.558L187.252 126.052C192.381 125.265 197.585 124.841 202.83 124.794L202.825 124.294C203.153 124.292 203.48 124.29 203.808 124.29C204.136 124.29 204.463 124.292 204.791 124.294L204.786 124.794C210.031 124.841 215.235 125.265 220.364 126.052L220.44 125.558C221.087 125.657 221.734 125.762 222.379 125.873L222.294 126.366C227.445 127.25 232.516 128.501 237.469 130.103L237.623 129.627C238.246 129.829 238.867 130.036 239.487 130.248L239.324 130.721C244.253 132.413 249.06 134.454 253.71 136.83L253.938 136.385C254.52 136.683 255.101 136.986 255.678 137.294L255.443 137.735C260.027 140.181 264.451 142.955 268.681 146.044L268.975 145.64C269.504 146.026 270.029 146.417 270.552 146.813L270.25 147.211C274.379 150.339 278.313 153.772 282.019 157.494L282.374 157.142C282.605 157.374 282.835 157.607 283.064 157.841C283.296 158.079 283.528 158.317 283.758 158.556L283.397 158.903C287.078 162.731 290.469 166.798 293.554 171.067L293.96 170.774C294.349 171.312 294.733 171.854 295.112 172.398L294.702 172.684C297.729 177.029 300.446 181.575 302.838 186.284L303.284 186.058C303.584 186.649 303.88 187.244 304.17 187.841L303.721 188.059C306.031 192.81 308.015 197.72 309.658 202.753L310.133 202.598C310.339 203.229 310.539 203.862 310.734 204.496L310.257 204.643C311.806 209.682 313.015 214.837 313.869 220.074L314.362 219.994C314.469 220.648 314.571 221.305 314.666 221.962L314.172 222.034C314.929 227.237 315.338 232.516 315.383 237.835L315.883 237.831C315.886 238.163 315.888 238.495 315.888 238.827H316.808C316.808 238.492 316.807 238.157 316.804 237.822L317.304 237.818C317.258 232.407 316.842 227.038 316.071 221.745L315.576 221.817C315.48 221.154 315.377 220.492 315.27 219.832L315.763 219.751C314.894 214.424 313.664 209.18 312.089 204.055L311.611 204.202C311.414 203.562 311.212 202.924 311.004 202.288L311.48 202.132C309.809 197.013 307.791 192.018 305.44 187.186L304.99 187.404C304.698 186.802 304.4 186.203 304.097 185.606L304.542 185.38C302.109 180.589 299.346 175.966 296.266 171.546L295.856 171.831C295.473 171.282 295.086 170.736 294.694 170.194L295.099 169.901C291.96 165.558 288.511 161.422 284.767 157.527L284.407 157.874C284.175 157.633 283.941 157.392 283.707 157.153C283.476 156.916 283.244 156.681 283.011 156.447L283.365 156.095C279.595 152.308 275.593 148.816 271.393 145.635L271.091 146.033C270.565 145.634 270.035 145.24 269.502 144.851L269.797 144.447C265.495 141.305 260.994 138.483 256.332 135.995L256.096 136.437C255.514 136.126 254.929 135.82 254.341 135.52L254.569 135.075C249.839 132.658 244.949 130.581 239.936 128.861L239.773 129.334C239.149 129.119 238.523 128.911 237.895 128.708L238.049 128.232C233.01 126.602 227.852 125.33 222.612 124.43L222.528 124.923C221.877 124.811 221.226 124.705 220.573 124.605L220.649 124.111C215.432 123.311 210.138 122.88 204.803 122.832L204.799 123.332C204.469 123.329 204.138 123.327 203.808 123.327C203.478 123.327 203.147 123.329 202.817 123.332L202.813 122.832C197.478 122.88 192.184 123.311 186.967 124.111L187.043 124.605C186.39 124.705 185.738 124.811 185.088 124.923L185.004 124.43C179.764 125.33 174.606 126.602 169.567 128.232L169.721 128.708C169.093 128.911 168.467 129.119 167.843 129.334L167.68 128.861C162.667 130.581 157.777 132.658 153.047 135.075L153.275 135.52C152.687 135.82 152.102 136.126 151.52 136.437L151.284 135.995C146.621 138.483 142.121 141.305 137.819 144.447L138.114 144.851C137.581 145.24 137.051 145.634 136.525 146.033L136.223 145.635C132.023 148.816 128.021 152.308 124.251 156.095L124.605 156.447C124.372 156.681 124.14 156.916 123.909 157.153C123.674 157.392 123.441 157.632 123.209 157.874L122.849 157.527C119.105 161.422 115.656 165.558 112.517 169.901L112.922 170.194C112.53 170.736 112.142 171.282 111.76 171.831L111.35 171.546C108.27 175.966 105.507 180.589 103.073 185.38L103.519 185.606C103.216 186.203 102.918 186.802 102.625 187.404L102.176 187.186C99.8251 192.018 97.8069 197.013 96.1363 202.132L96.6117 202.288C96.4041 202.924 96.2019 203.562 96.0052 204.202L95.5272 204.055C93.9514 209.18 92.7216 214.424 91.8527 219.751L92.3461 219.832C92.2384 220.492 92.1362 221.154 92.0397 221.817L91.5449 221.745Z" stroke="white" stroke-dasharray="2 16"/>
<path d="M70.5801 245.848C66.1708 246.13 62.344 242.781 62.3115 238.363C62.0563 203.696 74.5484 170.029 97.5706 143.861C120.593 117.693 152.394 101.015 186.811 96.8517C191.198 96.3212 195.006 99.6903 195.288 104.1L195.307 104.404C195.589 108.813 192.237 112.59 187.855 113.153C157.755 117.018 129.977 131.711 109.812 154.631C89.6469 177.552 78.6126 206.975 78.6125 237.322C78.6125 241.74 75.2935 245.546 70.8842 245.828L70.5801 245.848Z" fill="url(#paint0_linear_6001_14300)"/>
<path d="M198.155 103.947C197.968 99.5328 201.397 95.7789 205.815 95.8415C232.623 96.2213 258.778 104.213 281.221 118.881C284.919 121.298 285.665 126.328 283.043 129.884L282.862 130.129C280.239 133.685 275.244 134.418 271.528 132.028C252.103 119.535 229.595 112.658 206.505 112.161C202.088 112.066 198.355 108.666 198.168 104.252L198.155 103.947Z" fill="url(#paint1_linear_6001_14300)"/>
<path d="M285.58 131.802C288.286 128.309 293.328 127.655 296.662 130.555C309.335 141.576 319.945 154.766 327.995 169.506C330.113 173.383 328.394 178.168 324.403 180.063L324.127 180.194C320.136 182.089 315.387 180.375 313.241 176.513C306.323 164.066 297.332 152.889 286.656 143.465C283.343 140.541 282.687 135.535 285.393 132.043L285.58 131.802Z" fill="url(#paint2_linear_6001_14300)"/>
<path d="M324.984 181.305C328.995 179.45 333.771 181.191 335.396 185.3C342.076 202.195 345.44 220.219 345.304 238.386C345.271 242.804 341.444 246.151 337.034 245.868L336.73 245.849C332.321 245.566 329.003 241.761 329.003 237.342C329.005 221.888 326.145 206.566 320.569 192.154C318.975 188.033 320.697 183.287 324.708 181.432L324.984 181.305Z" fill="url(#paint3_linear_6001_14300)"/>
<circle cx="310.308" cy="156.841" r="10" fill="black" fill-opacity="0.71" stroke="white" stroke-width="8"/>
<path d="M174.194 234.318C172.524 234.307 170.893 234.017 169.302 233.449C167.711 232.869 166.279 231.932 165.007 230.636C163.734 229.329 162.722 227.596 161.972 225.437C161.222 223.267 160.853 220.579 160.864 217.375C160.864 214.386 161.183 211.721 161.819 209.38C162.455 207.04 163.37 205.062 164.563 203.449C165.757 201.824 167.194 200.585 168.876 199.733C170.569 198.88 172.461 198.454 174.552 198.454C176.745 198.454 178.688 198.886 180.382 199.75C182.086 200.613 183.461 201.795 184.507 203.295C185.552 204.784 186.2 206.466 186.45 208.341H180.228C179.91 207 179.257 205.932 178.268 205.136C177.291 204.329 176.052 203.926 174.552 203.926C172.132 203.926 170.268 204.977 168.961 207.079C167.666 209.182 167.012 212.068 167.001 215.738H167.239C167.796 214.738 168.518 213.88 169.404 213.165C170.291 212.449 171.291 211.898 172.404 211.511C173.529 211.113 174.717 210.915 175.967 210.915C178.012 210.915 179.847 211.403 181.472 212.38C183.109 213.358 184.404 214.704 185.359 216.42C186.313 218.125 186.785 220.079 186.774 222.284C186.785 224.579 186.262 226.642 185.205 228.471C184.149 230.29 182.677 231.721 180.791 232.767C178.904 233.812 176.705 234.329 174.194 234.318ZM174.16 229.204C175.399 229.204 176.507 228.903 177.484 228.301C178.461 227.699 179.234 226.886 179.802 225.863C180.37 224.841 180.649 223.693 180.637 222.42C180.649 221.17 180.376 220.04 179.819 219.028C179.274 218.017 178.518 217.216 177.552 216.625C176.586 216.034 175.484 215.738 174.245 215.738C173.325 215.738 172.467 215.915 171.671 216.267C170.876 216.619 170.183 217.108 169.592 217.733C169.001 218.346 168.535 219.062 168.194 219.88C167.864 220.687 167.694 221.551 167.683 222.471C167.694 223.687 167.978 224.807 168.535 225.829C169.092 226.852 169.859 227.67 170.836 228.284C171.813 228.898 172.921 229.204 174.16 229.204ZM203.319 234.318C201.649 234.307 200.018 234.017 198.427 233.449C196.836 232.869 195.404 231.932 194.132 230.636C192.859 229.329 191.847 227.596 191.097 225.437C190.347 223.267 189.978 220.579 189.989 217.375C189.989 214.386 190.308 211.721 190.944 209.38C191.58 207.04 192.495 205.062 193.688 203.449C194.882 201.824 196.319 200.585 198.001 199.733C199.694 198.88 201.586 198.454 203.677 198.454C205.87 198.454 207.813 198.886 209.507 199.75C211.211 200.613 212.586 201.795 213.632 203.295C214.677 204.784 215.325 206.466 215.575 208.341H209.353C209.035 207 208.382 205.932 207.393 205.136C206.416 204.329 205.177 203.926 203.677 203.926C201.257 203.926 199.393 204.977 198.086 207.079C196.791 209.182 196.137 212.068 196.126 215.738H196.364C196.921 214.738 197.643 213.88 198.529 213.165C199.416 212.449 200.416 211.898 201.529 211.511C202.654 211.113 203.842 210.915 205.092 210.915C207.137 210.915 208.972 211.403 210.597 212.38C212.234 213.358 213.529 214.704 214.484 216.42C215.438 218.125 215.91 220.079 215.899 222.284C215.91 224.579 215.387 226.642 214.33 228.471C213.274 230.29 211.802 231.721 209.916 232.767C208.029 233.812 205.83 234.329 203.319 234.318ZM203.285 229.204C204.524 229.204 205.632 228.903 206.609 228.301C207.586 227.699 208.359 226.886 208.927 225.863C209.495 224.841 209.774 223.693 209.762 222.42C209.774 221.17 209.501 220.04 208.944 219.028C208.399 218.017 207.643 217.216 206.677 216.625C205.711 216.034 204.609 215.738 203.37 215.738C202.45 215.738 201.592 215.915 200.796 216.267C200.001 216.619 199.308 217.108 198.717 217.733C198.126 218.346 197.66 219.062 197.319 219.88C196.989 220.687 196.819 221.551 196.808 222.471C196.819 223.687 197.103 224.807 197.66 225.829C198.217 226.852 198.984 227.67 199.961 228.284C200.938 228.898 202.046 229.204 203.285 229.204ZM232.563 234.505C229.757 234.505 227.347 233.795 225.336 232.375C223.336 230.943 221.796 228.88 220.717 226.187C219.649 223.483 219.114 220.227 219.114 216.42C219.126 212.613 219.666 209.375 220.734 206.704C221.813 204.023 223.353 201.977 225.353 200.568C227.364 199.159 229.768 198.454 232.563 198.454C235.359 198.454 237.762 199.159 239.774 200.568C241.785 201.977 243.325 204.023 244.393 206.704C245.472 209.386 246.012 212.625 246.012 216.42C246.012 220.238 245.472 223.5 244.393 226.204C243.325 228.898 241.785 230.954 239.774 232.375C237.774 233.795 235.37 234.505 232.563 234.505ZM232.563 229.17C234.745 229.17 236.467 228.096 237.728 225.949C239.001 223.79 239.637 220.613 239.637 216.42C239.637 213.648 239.347 211.318 238.768 209.432C238.188 207.545 237.37 206.125 236.313 205.17C235.257 204.204 234.007 203.721 232.563 203.721C230.393 203.721 228.677 204.801 227.416 206.96C226.154 209.108 225.518 212.261 225.507 216.42C225.495 219.204 225.774 221.545 226.342 223.443C226.921 225.341 227.739 226.773 228.796 227.738C229.853 228.693 231.109 229.17 232.563 229.17Z" fill="white"/>
<path d="M101.16 264.204H103.541L106.387 269.352H106.501L109.348 264.204H111.728L107.495 271.5V275.841H105.393V271.5L101.16 264.204ZM114.812 276.011C113.96 276.011 113.221 275.824 112.596 275.449C111.971 275.074 111.486 274.549 111.142 273.875C110.801 273.201 110.63 272.413 110.63 271.511C110.63 270.61 110.801 269.82 111.142 269.142C111.486 268.464 111.971 267.937 112.596 267.562C113.221 267.187 113.96 267 114.812 267C115.664 267 116.403 267.187 117.028 267.562C117.653 267.937 118.136 268.464 118.477 269.142C118.822 269.82 118.994 270.61 118.994 271.511C118.994 272.413 118.822 273.201 118.477 273.875C118.136 274.549 117.653 275.074 117.028 275.449C116.403 275.824 115.664 276.011 114.812 276.011ZM114.823 274.363C115.286 274.363 115.672 274.237 115.983 273.983C116.293 273.725 116.524 273.38 116.676 272.949C116.831 272.517 116.909 272.036 116.909 271.505C116.909 270.971 116.831 270.488 116.676 270.057C116.524 269.621 116.293 269.274 115.983 269.017C115.672 268.759 115.286 268.63 114.823 268.63C114.35 268.63 113.956 268.759 113.642 269.017C113.331 269.274 113.098 269.621 112.943 270.057C112.791 270.488 112.715 270.971 112.715 271.505C112.715 272.036 112.791 272.517 112.943 272.949C113.098 273.38 113.331 273.725 113.642 273.983C113.956 274.237 114.35 274.363 114.823 274.363ZM125.802 272.17V267.113H127.859V275.841H125.865V274.29H125.774C125.577 274.778 125.253 275.178 124.802 275.488C124.355 275.799 123.804 275.954 123.149 275.954C122.577 275.954 122.071 275.827 121.632 275.574C121.196 275.316 120.855 274.943 120.609 274.454C120.363 273.962 120.24 273.367 120.24 272.67V267.113H122.296V272.352C122.296 272.905 122.448 273.344 122.751 273.67C123.054 273.996 123.452 274.159 123.944 274.159C124.247 274.159 124.541 274.085 124.825 273.937C125.109 273.79 125.342 273.57 125.524 273.278C125.709 272.983 125.802 272.613 125.802 272.17ZM129.474 275.841V267.113H131.468V268.568H131.559C131.718 268.064 131.991 267.676 132.377 267.403C132.768 267.127 133.213 266.988 133.713 266.988C133.826 266.988 133.953 266.994 134.093 267.005C134.237 267.013 134.357 267.026 134.451 267.045V268.937C134.364 268.907 134.226 268.88 134.036 268.858C133.851 268.831 133.671 268.818 133.497 268.818C133.122 268.818 132.785 268.899 132.485 269.062C132.19 269.221 131.957 269.443 131.786 269.727C131.616 270.011 131.531 270.339 131.531 270.71V275.841H129.474ZM148.838 268.13H146.713C146.652 267.782 146.54 267.473 146.377 267.204C146.215 266.932 146.012 266.701 145.769 266.511C145.527 266.322 145.251 266.18 144.94 266.085C144.633 265.987 144.302 265.937 143.946 265.937C143.313 265.937 142.752 266.096 142.264 266.415C141.775 266.729 141.393 267.191 141.116 267.801C140.84 268.407 140.701 269.148 140.701 270.023C140.701 270.913 140.84 271.663 141.116 272.273C141.396 272.879 141.779 273.337 142.264 273.648C142.752 273.954 143.311 274.108 143.94 274.108C144.288 274.108 144.614 274.062 144.917 273.971C145.224 273.877 145.499 273.738 145.741 273.557C145.987 273.375 146.194 273.151 146.36 272.886C146.531 272.621 146.648 272.318 146.713 271.977L148.838 271.988C148.758 272.541 148.586 273.06 148.321 273.545C148.059 274.03 147.716 274.458 147.292 274.829C146.868 275.197 146.372 275.485 145.804 275.693C145.235 275.898 144.605 276 143.911 276C142.889 276 141.976 275.763 141.173 275.29C140.37 274.816 139.737 274.132 139.275 273.238C138.813 272.344 138.582 271.273 138.582 270.023C138.582 268.769 138.815 267.697 139.281 266.807C139.747 265.913 140.381 265.229 141.184 264.755C141.987 264.282 142.896 264.045 143.911 264.045C144.559 264.045 145.161 264.136 145.718 264.318C146.275 264.5 146.771 264.767 147.207 265.119C147.643 265.468 148.001 265.896 148.281 266.403C148.565 266.907 148.751 267.483 148.838 268.13ZM150.177 275.841V267.113H152.171V268.568H152.262C152.421 268.064 152.694 267.676 153.081 267.403C153.471 267.127 153.916 266.988 154.416 266.988C154.529 266.988 154.656 266.994 154.796 267.005C154.94 267.013 155.06 267.026 155.154 267.045V268.937C155.067 268.907 154.929 268.88 154.74 268.858C154.554 268.831 154.374 268.818 154.2 268.818C153.825 268.818 153.488 268.899 153.188 269.062C152.893 269.221 152.66 269.443 152.49 269.727C152.319 270.011 152.234 270.339 152.234 270.71V275.841H150.177ZM159.525 276.011C158.65 276.011 157.894 275.829 157.258 275.466C156.626 275.098 156.139 274.579 155.798 273.909C155.457 273.235 155.286 272.441 155.286 271.528C155.286 270.63 155.457 269.843 155.798 269.165C156.143 268.483 156.624 267.952 157.241 267.574C157.858 267.191 158.584 267 159.417 267C159.955 267 160.463 267.087 160.94 267.261C161.421 267.432 161.845 267.697 162.213 268.057C162.584 268.416 162.876 268.875 163.088 269.432C163.3 269.985 163.406 270.644 163.406 271.409V272.04H156.252V270.653H161.434C161.43 270.259 161.345 269.909 161.179 269.602C161.012 269.291 160.779 269.047 160.48 268.869C160.184 268.691 159.84 268.602 159.446 268.602C159.025 268.602 158.656 268.704 158.338 268.909C158.019 269.11 157.771 269.375 157.593 269.704C157.419 270.03 157.33 270.388 157.326 270.778V271.988C157.326 272.496 157.419 272.932 157.605 273.295C157.79 273.655 158.05 273.932 158.383 274.125C158.716 274.314 159.107 274.409 159.554 274.409C159.853 274.409 160.124 274.367 160.366 274.284C160.608 274.197 160.819 274.07 160.997 273.903C161.175 273.737 161.309 273.53 161.4 273.284L163.321 273.5C163.199 274.007 162.968 274.451 162.627 274.829C162.29 275.204 161.858 275.496 161.332 275.704C160.805 275.909 160.203 276.011 159.525 276.011ZM167.885 275.994C167.199 275.994 166.585 275.818 166.044 275.466C165.502 275.113 165.074 274.602 164.76 273.932C164.445 273.261 164.288 272.447 164.288 271.488C164.288 270.519 164.447 269.701 164.765 269.034C165.087 268.363 165.521 267.858 166.066 267.517C166.612 267.172 167.22 267 167.89 267C168.402 267 168.822 267.087 169.152 267.261C169.481 267.432 169.742 267.638 169.936 267.88C170.129 268.119 170.278 268.344 170.385 268.557H170.47V264.204H172.532V275.841H170.51V274.466H170.385C170.278 274.678 170.125 274.903 169.924 275.142C169.724 275.377 169.458 275.577 169.129 275.744C168.799 275.911 168.385 275.994 167.885 275.994ZM168.458 274.307C168.894 274.307 169.265 274.189 169.572 273.954C169.879 273.716 170.112 273.384 170.271 272.96C170.43 272.536 170.51 272.041 170.51 271.477C170.51 270.913 170.43 270.422 170.271 270.005C170.116 269.589 169.885 269.265 169.578 269.034C169.275 268.803 168.902 268.687 168.458 268.687C168 268.687 167.617 268.807 167.311 269.045C167.004 269.284 166.773 269.613 166.617 270.034C166.462 270.454 166.385 270.935 166.385 271.477C166.385 272.023 166.462 272.509 166.617 272.937C166.777 273.362 167.01 273.697 167.316 273.943C167.627 274.185 168.008 274.307 168.458 274.307ZM174.224 275.841V267.113H176.281V275.841H174.224ZM175.258 265.875C174.932 265.875 174.652 265.767 174.417 265.551C174.182 265.331 174.065 265.068 174.065 264.761C174.065 264.451 174.182 264.187 174.417 263.971C174.652 263.752 174.932 263.642 175.258 263.642C175.588 263.642 175.868 263.752 176.099 263.971C176.334 264.187 176.451 264.451 176.451 264.761C176.451 265.068 176.334 265.331 176.099 265.551C175.868 265.767 175.588 265.875 175.258 265.875ZM182.254 267.113V268.704H177.237V267.113H182.254ZM178.475 265.023H180.532V273.216C180.532 273.492 180.574 273.704 180.657 273.852C180.744 273.996 180.858 274.094 180.998 274.148C181.138 274.201 181.294 274.227 181.464 274.227C181.593 274.227 181.71 274.218 181.816 274.199C181.926 274.18 182.01 274.163 182.066 274.148L182.413 275.755C182.303 275.793 182.146 275.835 181.941 275.88C181.741 275.926 181.494 275.952 181.203 275.96C180.688 275.975 180.224 275.898 179.811 275.727C179.398 275.553 179.07 275.284 178.828 274.92C178.589 274.557 178.472 274.102 178.475 273.557V265.023ZM193.358 267.403C193.304 266.907 193.081 266.521 192.687 266.244C192.297 265.968 191.789 265.829 191.164 265.829C190.725 265.829 190.348 265.896 190.034 266.028C189.719 266.161 189.479 266.341 189.312 266.568C189.145 266.795 189.06 267.055 189.056 267.346C189.056 267.589 189.111 267.799 189.221 267.977C189.335 268.155 189.488 268.307 189.681 268.432C189.875 268.553 190.089 268.655 190.323 268.738C190.558 268.822 190.795 268.892 191.034 268.949L192.125 269.221C192.564 269.324 192.986 269.462 193.392 269.636C193.801 269.81 194.166 270.03 194.488 270.295C194.814 270.56 195.072 270.88 195.261 271.255C195.45 271.63 195.545 272.07 195.545 272.574C195.545 273.255 195.371 273.856 195.022 274.375C194.674 274.89 194.17 275.293 193.511 275.585C192.856 275.873 192.062 276.017 191.13 276.017C190.225 276.017 189.439 275.877 188.772 275.596C188.109 275.316 187.59 274.907 187.215 274.369C186.844 273.831 186.644 273.176 186.613 272.403H188.687C188.717 272.809 188.842 273.146 189.062 273.415C189.282 273.684 189.568 273.884 189.92 274.017C190.276 274.149 190.674 274.216 191.113 274.216C191.572 274.216 191.973 274.148 192.318 274.011C192.666 273.871 192.939 273.678 193.136 273.432C193.333 273.182 193.433 272.89 193.437 272.557C193.433 272.254 193.344 272.004 193.17 271.807C192.996 271.606 192.751 271.439 192.437 271.307C192.126 271.17 191.763 271.049 191.346 270.943L190.022 270.602C189.064 270.356 188.306 269.983 187.75 269.483C187.197 268.979 186.92 268.31 186.92 267.477C186.92 266.791 187.106 266.191 187.477 265.676C187.852 265.161 188.361 264.761 189.005 264.477C189.649 264.189 190.378 264.045 191.193 264.045C192.019 264.045 192.742 264.189 193.363 264.477C193.988 264.761 194.479 265.157 194.835 265.665C195.191 266.168 195.375 266.748 195.386 267.403H193.358ZM200.64 276.011C199.769 276.011 199.021 275.82 198.396 275.437C197.775 275.055 197.295 274.526 196.958 273.852C196.625 273.174 196.458 272.394 196.458 271.511C196.458 270.625 196.629 269.843 196.97 269.165C197.311 268.483 197.792 267.952 198.413 267.574C199.038 267.191 199.777 267 200.629 267C201.337 267 201.964 267.13 202.51 267.392C203.059 267.649 203.496 268.015 203.822 268.488C204.148 268.958 204.333 269.507 204.379 270.136H202.413C202.333 269.716 202.144 269.365 201.845 269.085C201.549 268.801 201.153 268.659 200.657 268.659C200.237 268.659 199.867 268.773 199.549 269C199.231 269.223 198.983 269.545 198.805 269.966C198.631 270.386 198.544 270.89 198.544 271.477C198.544 272.072 198.631 272.583 198.805 273.011C198.979 273.435 199.224 273.763 199.538 273.994C199.856 274.221 200.229 274.335 200.657 274.335C200.96 274.335 201.231 274.278 201.47 274.165C201.712 274.047 201.915 273.879 202.078 273.659C202.241 273.439 202.352 273.172 202.413 272.858H204.379C204.33 273.475 204.148 274.023 203.833 274.5C203.519 274.973 203.091 275.344 202.549 275.613C202.008 275.879 201.371 276.011 200.64 276.011ZM209.375 276.011C208.522 276.011 207.784 275.824 207.159 275.449C206.534 275.074 206.049 274.549 205.704 273.875C205.363 273.201 205.193 272.413 205.193 271.511C205.193 270.61 205.363 269.82 205.704 269.142C206.049 268.464 206.534 267.937 207.159 267.562C207.784 267.187 208.522 267 209.375 267C210.227 267 210.965 267.187 211.59 267.562C212.215 267.937 212.698 268.464 213.039 269.142C213.384 269.82 213.556 270.61 213.556 271.511C213.556 272.413 213.384 273.201 213.039 273.875C212.698 274.549 212.215 275.074 211.59 275.449C210.965 275.824 210.227 276.011 209.375 276.011ZM209.386 274.363C209.848 274.363 210.234 274.237 210.545 273.983C210.856 273.725 211.087 273.38 211.238 272.949C211.394 272.517 211.471 272.036 211.471 271.505C211.471 270.971 211.394 270.488 211.238 270.057C211.087 269.621 210.856 269.274 210.545 269.017C210.234 268.759 209.848 268.63 209.386 268.63C208.912 268.63 208.519 268.759 208.204 269.017C207.894 269.274 207.661 269.621 207.505 270.057C207.354 270.488 207.278 270.971 207.278 271.505C207.278 272.036 207.354 272.517 207.505 272.949C207.661 273.38 207.894 273.725 208.204 273.983C208.519 274.237 208.912 274.363 209.386 274.363ZM214.802 275.841V267.113H216.796V268.568H216.887C217.046 268.064 217.319 267.676 217.706 267.403C218.096 267.127 218.541 266.988 219.041 266.988C219.154 266.988 219.281 266.994 219.421 267.005C219.565 267.013 219.685 267.026 219.779 267.045V268.937C219.692 268.907 219.554 268.88 219.365 268.858C219.179 268.831 218.999 268.818 218.825 268.818C218.45 268.818 218.113 268.899 217.813 269.062C217.518 269.221 217.285 269.443 217.115 269.727C216.944 270.011 216.859 270.339 216.859 270.71V275.841H214.802ZM224.15 276.011C223.275 276.011 222.519 275.829 221.883 275.466C221.251 275.098 220.764 274.579 220.423 273.909C220.082 273.235 219.911 272.441 219.911 271.528C219.911 270.63 220.082 269.843 220.423 269.165C220.768 268.483 221.249 267.952 221.866 267.574C222.483 267.191 223.209 267 224.042 267C224.58 267 225.088 267.087 225.565 267.261C226.046 267.432 226.47 267.697 226.838 268.057C227.209 268.416 227.501 268.875 227.713 269.432C227.925 269.985 228.031 270.644 228.031 271.409V272.04H220.877V270.653H226.059C226.055 270.259 225.97 269.909 225.804 269.602C225.637 269.291 225.404 269.047 225.105 268.869C224.809 268.691 224.465 268.602 224.071 268.602C223.65 268.602 223.281 268.704 222.963 268.909C222.644 269.11 222.396 269.375 222.218 269.704C222.044 270.03 221.955 270.388 221.951 270.778V271.988C221.951 272.496 222.044 272.932 222.23 273.295C222.415 273.655 222.675 273.932 223.008 274.125C223.341 274.314 223.732 274.409 224.179 274.409C224.478 274.409 224.749 274.367 224.991 274.284C225.233 274.197 225.444 274.07 225.622 273.903C225.8 273.737 225.934 273.53 226.025 273.284L227.946 273.5C227.824 274.007 227.593 274.451 227.252 274.829C226.915 275.204 226.483 275.496 225.957 275.704C225.43 275.909 224.828 276.011 224.15 276.011ZM232.74 275.841V267.113H234.796V275.841H232.74ZM233.774 265.875C233.448 265.875 233.168 265.767 232.933 265.551C232.698 265.331 232.581 265.068 232.581 264.761C232.581 264.451 232.698 264.187 232.933 263.971C233.168 263.752 233.448 263.642 233.774 263.642C234.103 263.642 234.384 263.752 234.615 263.971C234.849 264.187 234.967 264.451 234.967 264.761C234.967 265.068 234.849 265.331 234.615 265.551C234.384 265.767 234.103 265.875 233.774 265.875ZM243.309 269.42L241.434 269.625C241.381 269.435 241.288 269.257 241.156 269.091C241.027 268.924 240.853 268.79 240.633 268.687C240.413 268.585 240.144 268.534 239.826 268.534C239.398 268.534 239.038 268.627 238.747 268.812C238.459 268.998 238.317 269.238 238.321 269.534C238.317 269.788 238.41 269.994 238.599 270.153C238.792 270.312 239.11 270.443 239.554 270.545L241.042 270.863C241.868 271.041 242.482 271.324 242.883 271.71C243.288 272.096 243.493 272.602 243.497 273.227C243.493 273.776 243.332 274.261 243.014 274.682C242.699 275.098 242.262 275.424 241.701 275.659C241.141 275.894 240.497 276.011 239.769 276.011C238.701 276.011 237.841 275.788 237.19 275.341C236.538 274.89 236.15 274.263 236.025 273.46L238.031 273.267C238.122 273.661 238.315 273.958 238.61 274.159C238.906 274.36 239.29 274.46 239.764 274.46C240.252 274.46 240.644 274.36 240.94 274.159C241.239 273.958 241.389 273.71 241.389 273.415C241.389 273.165 241.292 272.958 241.099 272.795C240.91 272.632 240.614 272.507 240.213 272.42L238.724 272.108C237.887 271.934 237.268 271.64 236.866 271.227C236.465 270.81 236.266 270.284 236.269 269.648C236.266 269.11 236.411 268.644 236.707 268.25C237.006 267.852 237.421 267.545 237.951 267.329C238.485 267.11 239.101 267 239.798 267C240.821 267 241.626 267.218 242.213 267.653C242.804 268.089 243.169 268.678 243.309 269.42ZM250.673 276.017C250.12 276.017 249.622 275.918 249.179 275.721C248.739 275.521 248.391 275.225 248.133 274.835C247.879 274.445 247.752 273.964 247.752 273.392C247.752 272.899 247.843 272.492 248.025 272.17C248.207 271.848 248.455 271.591 248.769 271.398C249.084 271.204 249.438 271.059 249.832 270.96C250.23 270.858 250.641 270.784 251.065 270.738C251.576 270.685 251.991 270.638 252.309 270.596C252.627 270.551 252.858 270.483 253.002 270.392C253.15 270.297 253.224 270.151 253.224 269.954V269.92C253.224 269.492 253.097 269.161 252.843 268.926C252.59 268.691 252.224 268.574 251.747 268.574C251.243 268.574 250.843 268.684 250.548 268.903C250.256 269.123 250.059 269.382 249.957 269.682L248.036 269.409C248.188 268.879 248.438 268.435 248.786 268.079C249.135 267.719 249.561 267.451 250.065 267.273C250.569 267.091 251.126 267 251.735 267C252.156 267 252.574 267.049 252.991 267.148C253.408 267.246 253.788 267.409 254.133 267.636C254.478 267.86 254.754 268.165 254.963 268.551C255.175 268.937 255.281 269.42 255.281 270V275.841H253.304V274.642H253.235C253.11 274.884 252.934 275.112 252.707 275.324C252.483 275.532 252.201 275.701 251.86 275.829C251.523 275.954 251.127 276.017 250.673 276.017ZM251.207 274.505C251.62 274.505 251.978 274.424 252.281 274.261C252.584 274.094 252.817 273.875 252.98 273.602C253.146 273.329 253.23 273.032 253.23 272.71V271.682C253.165 271.735 253.055 271.784 252.9 271.829C252.749 271.875 252.578 271.915 252.389 271.949C252.199 271.983 252.012 272.013 251.826 272.04C251.641 272.066 251.48 272.089 251.343 272.108C251.036 272.149 250.762 272.218 250.519 272.312C250.277 272.407 250.086 272.54 249.946 272.71C249.805 272.877 249.735 273.093 249.735 273.358C249.735 273.737 249.874 274.023 250.15 274.216C250.427 274.409 250.779 274.505 251.207 274.505ZM264.332 267.113L261.224 275.841H258.951L255.843 267.113H258.036L260.042 273.596H260.133L262.144 267.113H264.332ZM268.822 276.011C267.947 276.011 267.191 275.829 266.555 275.466C265.922 275.098 265.436 274.579 265.095 273.909C264.754 273.235 264.583 272.441 264.583 271.528C264.583 270.63 264.754 269.843 265.095 269.165C265.439 268.483 265.92 267.952 266.538 267.574C267.155 267.191 267.881 267 268.714 267C269.252 267 269.76 267.087 270.237 267.261C270.718 267.432 271.142 267.697 271.51 268.057C271.881 268.416 272.172 268.875 272.385 269.432C272.597 269.985 272.703 270.644 272.703 271.409V272.04H265.549V270.653H270.731C270.727 270.259 270.642 269.909 270.475 269.602C270.309 269.291 270.076 269.047 269.777 268.869C269.481 268.691 269.136 268.602 268.742 268.602C268.322 268.602 267.953 268.704 267.635 268.909C267.316 269.11 267.068 269.375 266.89 269.704C266.716 270.03 266.627 270.388 266.623 270.778V271.988C266.623 272.496 266.716 272.932 266.902 273.295C267.087 273.655 267.347 273.932 267.68 274.125C268.013 274.314 268.403 274.409 268.85 274.409C269.15 274.409 269.42 274.367 269.663 274.284C269.905 274.197 270.116 274.07 270.294 273.903C270.472 273.737 270.606 273.53 270.697 273.284L272.617 273.5C272.496 274.007 272.265 274.451 271.924 274.829C271.587 275.204 271.155 275.496 270.629 275.704C270.102 275.909 269.5 276.011 268.822 276.011ZM273.943 275.841V267.113H275.937V268.568H276.028C276.187 268.064 276.46 267.676 276.846 267.403C277.236 267.127 277.681 266.988 278.181 266.988C278.295 266.988 278.422 266.994 278.562 267.005C278.706 267.013 278.825 267.026 278.92 267.045V268.937C278.833 268.907 278.695 268.88 278.505 268.858C278.32 268.831 278.14 268.818 277.965 268.818C277.59 268.818 277.253 268.899 276.954 269.062C276.659 269.221 276.426 269.443 276.255 269.727C276.085 270.011 276 270.339 276 270.71V275.841H273.943ZM282.142 276.017C281.589 276.017 281.09 275.918 280.647 275.721C280.208 275.521 279.859 275.225 279.602 274.835C279.348 274.445 279.221 273.964 279.221 273.392C279.221 272.899 279.312 272.492 279.494 272.17C279.676 271.848 279.924 271.591 280.238 271.398C280.553 271.204 280.907 271.059 281.301 270.96C281.698 270.858 282.109 270.784 282.534 270.738C283.045 270.685 283.46 270.638 283.778 270.596C284.096 270.551 284.327 270.483 284.471 270.392C284.619 270.297 284.693 270.151 284.693 269.954V269.92C284.693 269.492 284.566 269.161 284.312 268.926C284.058 268.691 283.693 268.574 283.215 268.574C282.712 268.574 282.312 268.684 282.017 268.903C281.725 269.123 281.528 269.382 281.426 269.682L279.505 269.409C279.657 268.879 279.907 268.435 280.255 268.079C280.604 267.719 281.03 267.451 281.534 267.273C282.037 267.091 282.594 267 283.204 267C283.625 267 284.043 267.049 284.46 267.148C284.876 267.246 285.257 267.409 285.602 267.636C285.947 267.86 286.223 268.165 286.431 268.551C286.644 268.937 286.75 269.42 286.75 270V275.841H284.772V274.642H284.704C284.579 274.884 284.403 275.112 284.176 275.324C283.952 275.532 283.67 275.701 283.329 275.829C282.992 275.954 282.596 276.017 282.142 276.017ZM282.676 274.505C283.089 274.505 283.447 274.424 283.75 274.261C284.053 274.094 284.286 273.875 284.448 273.602C284.615 273.329 284.698 273.032 284.698 272.71V271.682C284.634 271.735 284.524 271.784 284.369 271.829C284.217 271.875 284.047 271.915 283.858 271.949C283.668 271.983 283.481 272.013 283.295 272.04C283.109 272.066 282.948 272.089 282.812 272.108C282.505 272.149 282.231 272.218 281.988 272.312C281.746 272.407 281.554 272.54 281.414 272.71C281.274 272.877 281.204 273.093 281.204 273.358C281.204 273.737 281.342 274.023 281.619 274.216C281.895 274.409 282.248 274.505 282.676 274.505ZM292.113 279.295C291.375 279.295 290.74 279.195 290.21 278.994C289.679 278.797 289.253 278.532 288.931 278.199C288.609 277.865 288.386 277.496 288.261 277.091L290.113 276.642C290.197 276.812 290.318 276.981 290.477 277.148C290.636 277.318 290.85 277.458 291.119 277.568C291.392 277.682 291.734 277.738 292.147 277.738C292.731 277.738 293.214 277.596 293.596 277.312C293.979 277.032 294.17 276.57 294.17 275.926V274.273H294.068C293.962 274.485 293.806 274.702 293.602 274.926C293.401 275.149 293.134 275.337 292.801 275.488C292.471 275.64 292.056 275.716 291.556 275.716C290.886 275.716 290.278 275.559 289.733 275.244C289.191 274.926 288.759 274.452 288.437 273.824C288.119 273.191 287.96 272.399 287.96 271.449C287.96 270.49 288.119 269.682 288.437 269.023C288.759 268.36 289.193 267.858 289.738 267.517C290.284 267.172 290.892 267 291.562 267C292.073 267 292.494 267.087 292.823 267.261C293.157 267.432 293.422 267.638 293.619 267.88C293.816 268.119 293.965 268.344 294.068 268.557H294.181V267.113H296.21V275.983C296.21 276.729 296.032 277.346 295.676 277.835C295.32 278.324 294.833 278.689 294.215 278.932C293.598 279.174 292.897 279.295 292.113 279.295ZM292.13 274.102C292.566 274.102 292.937 273.996 293.244 273.784C293.551 273.572 293.784 273.267 293.943 272.869C294.102 272.471 294.181 271.994 294.181 271.437C294.181 270.888 294.102 270.407 293.943 269.994C293.787 269.581 293.556 269.261 293.25 269.034C292.947 268.803 292.573 268.687 292.13 268.687C291.672 268.687 291.289 268.807 290.983 269.045C290.676 269.284 290.445 269.612 290.289 270.028C290.134 270.441 290.056 270.911 290.056 271.437C290.056 271.971 290.134 272.439 290.289 272.841C290.448 273.238 290.681 273.549 290.988 273.773C291.299 273.992 291.679 274.102 292.13 274.102ZM301.681 276.011C300.806 276.011 300.051 275.829 299.414 275.466C298.782 275.098 298.295 274.579 297.954 273.909C297.613 273.235 297.443 272.441 297.443 271.528C297.443 270.63 297.613 269.843 297.954 269.165C298.299 268.483 298.78 267.952 299.397 267.574C300.015 267.191 300.74 267 301.573 267C302.111 267 302.619 267.087 303.096 267.261C303.577 267.432 304.001 267.697 304.369 268.057C304.74 268.416 305.032 268.875 305.244 269.432C305.456 269.985 305.562 270.644 305.562 271.409V272.04H298.409V270.653H303.59C303.587 270.259 303.501 269.909 303.335 269.602C303.168 269.291 302.935 269.047 302.636 268.869C302.34 268.691 301.996 268.602 301.602 268.602C301.181 268.602 300.812 268.704 300.494 268.909C300.176 269.11 299.928 269.375 299.75 269.704C299.575 270.03 299.486 270.388 299.483 270.778V271.988C299.483 272.496 299.575 272.932 299.761 273.295C299.947 273.655 300.206 273.932 300.539 274.125C300.873 274.314 301.263 274.409 301.71 274.409C302.009 274.409 302.28 274.367 302.522 274.284C302.765 274.197 302.975 274.07 303.153 273.903C303.331 273.737 303.465 273.53 303.556 273.284L305.477 273.5C305.356 274.007 305.125 274.451 304.784 274.829C304.447 275.204 304.015 275.496 303.488 275.704C302.962 275.909 302.359 276.011 301.681 276.011Z" fill="white"/>
<path d="M138.426 297.841V287.659H139.963V296.518H144.576V297.841H138.426ZM147.932 298.01C147.448 298.01 147.01 297.92 146.619 297.741C146.228 297.559 145.918 297.295 145.69 296.951C145.464 296.606 145.351 296.184 145.351 295.683C145.351 295.252 145.434 294.898 145.6 294.619C145.766 294.341 145.99 294.12 146.271 293.958C146.553 293.795 146.868 293.673 147.216 293.59C147.564 293.507 147.918 293.444 148.28 293.401C148.737 293.348 149.108 293.305 149.393 293.272C149.678 293.235 149.886 293.177 150.015 293.098C150.144 293.018 150.209 292.889 150.209 292.71V292.675C150.209 292.241 150.086 291.905 149.841 291.666C149.599 291.427 149.238 291.308 148.757 291.308C148.257 291.308 147.862 291.419 147.574 291.641C147.289 291.86 147.092 292.103 146.982 292.372L145.585 292.054C145.751 291.59 145.993 291.215 146.311 290.93C146.632 290.642 147.002 290.433 147.42 290.304C147.837 290.171 148.276 290.105 148.737 290.105C149.042 290.105 149.365 290.141 149.707 290.214C150.051 290.284 150.373 290.413 150.671 290.602C150.973 290.791 151.22 291.061 151.412 291.412C151.604 291.76 151.7 292.213 151.7 292.77V297.841H150.248V296.797H150.189C150.093 296.989 149.949 297.178 149.756 297.363C149.564 297.549 149.317 297.703 149.016 297.826C148.714 297.948 148.353 298.01 147.932 298.01ZM148.255 296.817C148.666 296.817 149.017 296.735 149.309 296.573C149.604 296.411 149.828 296.198 149.98 295.937C150.136 295.671 150.214 295.388 150.214 295.086V294.102C150.161 294.155 150.058 294.205 149.905 294.251C149.756 294.294 149.586 294.332 149.393 294.366C149.201 294.395 149.014 294.424 148.832 294.45C148.649 294.473 148.497 294.493 148.374 294.51C148.086 294.546 147.822 294.608 147.584 294.694C147.348 294.78 147.159 294.904 147.017 295.067C146.878 295.226 146.808 295.438 146.808 295.703C146.808 296.071 146.944 296.349 147.216 296.538C147.488 296.724 147.834 296.817 148.255 296.817ZM158.902 292.069L157.555 292.307C157.499 292.135 157.409 291.971 157.287 291.815C157.167 291.659 157.005 291.532 156.799 291.432C156.594 291.333 156.337 291.283 156.029 291.283C155.608 291.283 155.257 291.378 154.975 291.567C154.693 291.752 154.552 291.992 154.552 292.287C154.552 292.543 154.647 292.748 154.836 292.904C155.025 293.06 155.33 293.187 155.75 293.287L156.964 293.565C157.666 293.728 158.19 293.978 158.535 294.316C158.879 294.654 159.052 295.093 159.052 295.633C159.052 296.091 158.919 296.498 158.654 296.856C158.392 297.211 158.026 297.489 157.555 297.692C157.088 297.894 156.546 297.995 155.929 297.995C155.074 297.995 154.377 297.813 153.836 297.448C153.296 297.08 152.965 296.558 152.842 295.882L154.279 295.663C154.368 296.038 154.552 296.321 154.831 296.513C155.109 296.702 155.472 296.797 155.919 296.797C156.407 296.797 156.796 296.696 157.088 296.493C157.379 296.288 157.525 296.038 157.525 295.743C157.525 295.504 157.436 295.304 157.257 295.141C157.081 294.979 156.811 294.856 156.446 294.773L155.154 294.49C154.441 294.327 153.914 294.069 153.573 293.714C153.235 293.36 153.066 292.911 153.066 292.367C153.066 291.916 153.192 291.522 153.444 291.184C153.696 290.846 154.044 290.582 154.488 290.393C154.932 290.201 155.441 290.105 156.014 290.105C156.839 290.105 157.489 290.284 157.963 290.642C158.437 290.996 158.75 291.472 158.902 292.069ZM163.751 290.204V291.398H159.579V290.204H163.751ZM160.698 288.375H162.185V295.599C162.185 295.887 162.228 296.104 162.314 296.25C162.4 296.392 162.511 296.49 162.647 296.543C162.786 296.593 162.937 296.618 163.099 296.618C163.219 296.618 163.323 296.609 163.413 296.593C163.502 296.576 163.572 296.563 163.621 296.553L163.89 297.781C163.804 297.814 163.681 297.847 163.522 297.88C163.363 297.917 163.164 297.937 162.925 297.94C162.534 297.947 162.17 297.877 161.832 297.731C161.494 297.585 161.22 297.36 161.011 297.055C160.802 296.75 160.698 296.367 160.698 295.907V288.375ZM176.676 290.97H175.125C175.065 290.639 174.954 290.347 174.792 290.095C174.629 289.843 174.431 289.629 174.195 289.454C173.96 289.278 173.696 289.145 173.405 289.056C173.116 288.966 172.81 288.922 172.485 288.922C171.898 288.922 171.373 289.069 170.909 289.364C170.448 289.659 170.084 290.092 169.815 290.662C169.55 291.232 169.418 291.928 169.418 292.75C169.418 293.578 169.55 294.278 169.815 294.848C170.084 295.418 170.45 295.849 170.914 296.14C171.378 296.432 171.9 296.578 172.48 296.578C172.802 296.578 173.106 296.535 173.395 296.449C173.686 296.359 173.95 296.228 174.185 296.056C174.421 295.884 174.619 295.673 174.782 295.425C174.948 295.173 175.062 294.884 175.125 294.559L176.676 294.564C176.593 295.065 176.432 295.526 176.194 295.947C175.958 296.364 175.655 296.725 175.284 297.03C174.916 297.332 174.495 297.566 174.021 297.731C173.547 297.897 173.03 297.98 172.47 297.98C171.588 297.98 170.803 297.771 170.114 297.353C169.424 296.933 168.881 296.331 168.483 295.549C168.088 294.767 167.891 293.834 167.891 292.75C167.891 291.663 168.09 290.73 168.488 289.951C168.886 289.169 169.429 288.569 170.119 288.151C170.808 287.73 171.592 287.52 172.47 287.52C173.01 287.52 173.514 287.598 173.981 287.753C174.452 287.906 174.875 288.131 175.249 288.429C175.624 288.724 175.934 289.086 176.179 289.513C176.424 289.938 176.59 290.423 176.676 290.97ZM179.381 293.307V297.841H177.895V287.659H179.362V291.447H179.456C179.635 291.036 179.908 290.71 180.276 290.468C180.644 290.226 181.125 290.105 181.718 290.105C182.242 290.105 182.699 290.213 183.09 290.428C183.485 290.643 183.79 290.965 184.005 291.393C184.224 291.817 184.333 292.347 184.333 292.983V297.841H182.847V293.162C182.847 292.602 182.703 292.168 182.414 291.86C182.126 291.548 181.725 291.393 181.211 291.393C180.86 291.393 180.545 291.467 180.266 291.616C179.991 291.765 179.774 291.984 179.615 292.273C179.459 292.558 179.381 292.902 179.381 293.307ZM189.108 297.995C188.356 297.995 187.708 297.834 187.164 297.513C186.624 297.188 186.206 296.732 185.911 296.145C185.62 295.555 185.474 294.864 185.474 294.072C185.474 293.29 185.62 292.601 185.911 292.004C186.206 291.407 186.617 290.942 187.144 290.607C187.675 290.272 188.294 290.105 189.004 290.105C189.435 290.105 189.852 290.176 190.256 290.319C190.661 290.461 191.024 290.685 191.345 290.99C191.667 291.295 191.92 291.691 192.106 292.178C192.292 292.662 192.384 293.25 192.384 293.943V294.47H186.314V293.356H190.928C190.928 292.965 190.848 292.619 190.689 292.317C190.53 292.012 190.306 291.772 190.018 291.596C189.733 291.421 189.398 291.333 189.014 291.333C188.596 291.333 188.231 291.436 187.92 291.641C187.612 291.843 187.373 292.108 187.204 292.437C187.038 292.761 186.955 293.114 186.955 293.496V294.366C186.955 294.876 187.045 295.31 187.224 295.668C187.406 296.026 187.66 296.3 187.984 296.488C188.309 296.674 188.689 296.767 189.123 296.767C189.405 296.767 189.662 296.727 189.894 296.648C190.126 296.565 190.326 296.442 190.495 296.28C190.664 296.117 190.793 295.917 190.883 295.678L192.29 295.932C192.177 296.346 191.975 296.709 191.683 297.02C191.395 297.329 191.032 297.569 190.595 297.741C190.16 297.91 189.665 297.995 189.108 297.995ZM196.75 297.995C196.011 297.995 195.375 297.827 194.841 297.493C194.311 297.155 193.903 296.689 193.618 296.096C193.333 295.502 193.191 294.823 193.191 294.057C193.191 293.282 193.336 292.597 193.628 292.004C193.92 291.407 194.331 290.942 194.861 290.607C195.391 290.272 196.016 290.105 196.735 290.105C197.315 290.105 197.832 290.213 198.286 290.428C198.741 290.64 199.107 290.938 199.385 291.323C199.667 291.707 199.834 292.157 199.887 292.67H198.441C198.361 292.312 198.179 292.004 197.894 291.746C197.612 291.487 197.234 291.358 196.76 291.358C196.346 291.358 195.983 291.467 195.671 291.686C195.363 291.901 195.123 292.21 194.951 292.611C194.778 293.008 194.692 293.479 194.692 294.023C194.692 294.579 194.777 295.06 194.946 295.464C195.115 295.869 195.353 296.182 195.661 296.404C195.973 296.626 196.339 296.737 196.76 296.737C197.042 296.737 197.297 296.686 197.526 296.583C197.758 296.477 197.952 296.326 198.108 296.13C198.267 295.935 198.378 295.7 198.441 295.425H199.887C199.834 295.918 199.674 296.359 199.405 296.747C199.137 297.135 198.777 297.44 198.326 297.662C197.879 297.884 197.353 297.995 196.75 297.995ZM202.344 295.25L202.334 293.436H202.593L205.635 290.204H207.415L203.945 293.883H203.711L202.344 295.25ZM200.977 297.841V287.659H202.464V297.841H200.977ZM205.799 297.841L203.065 294.211L204.089 293.172L207.624 297.841H205.799ZM214.692 297.995C213.976 297.995 213.351 297.831 212.817 297.503C212.284 297.175 211.869 296.715 211.574 296.125C211.28 295.536 211.132 294.846 211.132 294.057C211.132 293.265 211.28 292.572 211.574 291.979C211.869 291.386 212.284 290.925 212.817 290.597C213.351 290.269 213.976 290.105 214.692 290.105C215.408 290.105 216.032 290.269 216.566 290.597C217.1 290.925 217.514 291.386 217.809 291.979C218.104 292.572 218.251 293.265 218.251 294.057C218.251 294.846 218.104 295.536 217.809 296.125C217.514 296.715 217.1 297.175 216.566 297.503C216.032 297.831 215.408 297.995 214.692 297.995ZM214.697 296.747C215.161 296.747 215.545 296.624 215.85 296.379C216.155 296.134 216.38 295.807 216.526 295.4C216.675 294.992 216.75 294.543 216.75 294.052C216.75 293.565 216.675 293.118 216.526 292.71C216.38 292.299 216.155 291.969 215.85 291.721C215.545 291.472 215.161 291.348 214.697 291.348C214.229 291.348 213.842 291.472 213.533 291.721C213.228 291.969 213.001 292.299 212.852 292.71C212.706 293.118 212.633 293.565 212.633 294.052C212.633 294.543 212.706 294.992 212.852 295.4C213.001 295.807 213.228 296.134 213.533 296.379C213.842 296.624 214.229 296.747 214.697 296.747ZM220.897 293.307V297.841H219.411V290.204H220.837V291.447H220.932C221.108 291.043 221.383 290.718 221.757 290.473C222.135 290.228 222.611 290.105 223.184 290.105C223.704 290.105 224.16 290.214 224.551 290.433C224.942 290.648 225.246 290.97 225.461 291.398C225.676 291.825 225.784 292.354 225.784 292.983V297.841H224.298V293.162C224.298 292.609 224.154 292.176 223.865 291.865C223.577 291.55 223.181 291.393 222.677 291.393C222.332 291.393 222.026 291.467 221.757 291.616C221.492 291.765 221.282 291.984 221.126 292.273C220.973 292.558 220.897 292.902 220.897 293.307ZM230.463 297.841V296.727L233.908 293.157C234.276 292.77 234.579 292.43 234.818 292.138C235.06 291.843 235.241 291.563 235.36 291.298C235.479 291.033 235.539 290.751 235.539 290.453C235.539 290.115 235.459 289.823 235.3 289.578C235.141 289.329 234.924 289.139 234.649 289.006C234.374 288.87 234.064 288.802 233.719 288.802C233.355 288.802 233.037 288.877 232.765 289.026C232.493 289.175 232.284 289.386 232.138 289.657C231.993 289.929 231.92 290.247 231.92 290.612H230.453C230.453 289.992 230.596 289.45 230.881 288.986C231.166 288.522 231.557 288.163 232.054 287.907C232.551 287.649 233.116 287.52 233.749 287.52C234.389 287.52 234.952 287.647 235.44 287.902C235.93 288.154 236.313 288.499 236.588 288.937C236.863 289.371 237.001 289.861 237.001 290.408C237.001 290.786 236.929 291.156 236.787 291.517C236.648 291.878 236.404 292.281 236.056 292.725C235.708 293.166 235.224 293.701 234.604 294.331L232.581 296.449V296.523H237.165V297.841H230.463ZM242.412 287.659V297.841H240.871V289.2H240.811L238.375 290.791V289.319L240.915 287.659H242.412ZM248.87 297.841H247.24L250.904 287.659H252.679L256.343 297.841H254.712L251.834 289.508H251.754L248.87 297.841ZM249.144 293.853H254.434V295.146H249.144V293.853ZM257.194 300.704V290.204H258.646V291.442H258.77C258.856 291.283 258.98 291.099 259.143 290.89C259.305 290.682 259.53 290.499 259.819 290.344C260.107 290.184 260.488 290.105 260.962 290.105C261.579 290.105 262.129 290.261 262.613 290.572C263.097 290.884 263.476 291.333 263.751 291.92C264.03 292.506 264.169 293.212 264.169 294.037C264.169 294.863 264.031 295.57 263.756 296.16C263.481 296.747 263.103 297.199 262.623 297.518C262.142 297.832 261.594 297.99 260.977 297.99C260.513 297.99 260.134 297.912 259.839 297.756C259.547 297.6 259.318 297.418 259.153 297.209C258.987 297 258.859 296.815 258.77 296.652H258.68V300.704H257.194ZM258.65 294.023C258.65 294.559 258.728 295.03 258.884 295.434C259.04 295.839 259.265 296.155 259.56 296.384C259.855 296.609 260.217 296.722 260.644 296.722C261.088 296.722 261.459 296.604 261.758 296.369C262.056 296.13 262.281 295.807 262.434 295.4C262.59 294.992 262.668 294.533 262.668 294.023C262.668 293.519 262.591 293.066 262.439 292.665C262.29 292.264 262.064 291.948 261.763 291.716C261.464 291.484 261.092 291.368 260.644 291.368C260.213 291.368 259.849 291.479 259.55 291.701C259.255 291.923 259.032 292.233 258.879 292.63C258.727 293.028 258.65 293.492 258.65 294.023ZM265.334 297.841V290.204H266.771V291.417H266.851C266.99 291.006 267.235 290.683 267.587 290.448C267.941 290.209 268.342 290.09 268.79 290.09C268.882 290.09 268.992 290.093 269.118 290.1C269.247 290.107 269.348 290.115 269.421 290.125V291.547C269.361 291.53 269.255 291.512 269.103 291.492C268.95 291.469 268.798 291.457 268.646 291.457C268.294 291.457 267.981 291.532 267.706 291.681C267.434 291.827 267.219 292.031 267.06 292.292C266.9 292.551 266.821 292.846 266.821 293.177V297.841H265.334Z" fill="#7A7A7A"/>
<defs>
<filter id="filter0_f_6001_14300" x="230.033" y="72.1663" width="174.998" height="169.002" filterUnits="userSpaceOnUse" color-interpolation-filters="sRGB">
<feFlood flood-opacity="0" result="BackgroundImageFix"/>
<feBlend mode="normal" in="SourceGraphic" in2="BackgroundImageFix" result="shape"/>
<feGaussianBlur stdDeviation="35" result="effect1_foregroundBlur_6001_14300"/>
</filter>
<linearGradient id="paint0_linear_6001_14300" x1="83.1599" y1="34.1365" x2="247.575" y2="88.8512" gradientUnits="userSpaceOnUse">
<stop stop-color="#FEECE3"/>
<stop offset="0.25" stop-color="#FCD5BF"/>
<stop offset="0.5" stop-color="#FEAFAE"/>
<stop offset="0.75" stop-color="#FFA4BD"/>
<stop offset="1" stop-color="#FFA9CC"/>
</linearGradient>
<linearGradient id="paint1_linear_6001_14300" x1="211.7" y1="80.0455" x2="280.064" y2="138.703" gradientUnits="userSpaceOnUse">
<stop stop-color="#FEECE3"/>
<stop offset="0.25" stop-color="#FCD5BF"/>
<stop offset="0.5" stop-color="#FEAFAE"/>
<stop offset="0.75" stop-color="#FFA4BD"/>
<stop offset="1" stop-color="#FFA9CC"/>
</linearGradient>
<linearGradient id="paint2_linear_6001_14300" x1="290.796" y1="106.769" x2="346.998" y2="124.904" gradientUnits="userSpaceOnUse">
<stop stop-color="#FEECE3"/>
<stop offset="0.25" stop-color="#FCD5BF"/>
<stop offset="0.5" stop-color="#FEAFAE"/>
<stop offset="0.75" stop-color="#FFA4BD"/>
<stop offset="1" stop-color="#FFA9CC"/>
</linearGradient>
<linearGradient id="paint3_linear_6001_14300" x1="323.95" y1="153.108" x2="358.012" y2="158.034" gradientUnits="userSpaceOnUse">
<stop stop-color="#FEECE3"/>
<stop offset="0.25" stop-color="#FCD5BF"/>
<stop offset="0.5" stop-color="#FEAFAE"/>
<stop offset="0.75" stop-color="#FFA4BD"/>
<stop offset="1" stop-color="#FFA9CC"/>
</linearGradient>
</defs>
</svg>
