<svg width="328" height="97" viewBox="0 0 328 97" fill="none" xmlns="http://www.w3.org/2000/svg">
<path d="M27.4226 19.8282H29.267V26.4802C29.267 27.2093 29.0947 27.8507 28.75 28.4042C28.4086 28.9577 27.928 29.3902 27.3082 29.7018C26.6884 30.01 25.9643 30.1641 25.1357 30.1641C24.3037 30.1641 23.5779 30.01 22.9581 29.7018C22.3383 29.3902 21.8577 28.9577 21.5163 28.4042C21.175 27.8507 21.0043 27.2093 21.0043 26.4802V19.8282H22.8487V26.3261C22.8487 26.7503 22.9415 27.1281 23.1271 27.4596C23.3161 27.791 23.5812 28.0512 23.9226 28.2401C24.264 28.4257 24.6683 28.5185 25.1357 28.5185C25.603 28.5185 26.0073 28.4257 26.3487 28.2401C26.6934 28.0512 26.9586 27.791 27.1442 27.4596C27.3298 27.1281 27.4226 26.7503 27.4226 26.3261V19.8282ZM36.7278 24.3921L35.0872 24.5711C35.0408 24.4054 34.9596 24.2496 34.8436 24.1038C34.7309 23.9579 34.5784 23.8403 34.3862 23.7508C34.194 23.6613 33.9586 23.6165 33.6802 23.6165C33.3057 23.6165 32.9908 23.6977 32.7356 23.8602C32.4837 24.0226 32.3594 24.233 32.3627 24.4915C32.3594 24.7136 32.4406 24.8942 32.6064 25.0334C32.7754 25.1727 33.0538 25.287 33.4416 25.3765L34.7441 25.6549C35.4667 25.8107 36.0036 26.0576 36.3549 26.3957C36.7096 26.7337 36.8886 27.1762 36.8919 27.7231C36.8886 28.2037 36.7477 28.6279 36.4693 28.9958C36.1942 29.3604 35.8114 29.6454 35.3208 29.8509C34.8303 30.0564 34.2669 30.1592 33.6305 30.1592C32.6958 30.1592 31.9435 29.9636 31.3734 29.5725C30.8033 29.1781 30.4636 28.6296 30.3542 27.9269L32.1092 27.7579C32.1887 28.1026 32.3578 28.3628 32.6163 28.5384C32.8748 28.7141 33.2112 28.8019 33.6255 28.8019C34.0531 28.8019 34.3961 28.7141 34.6547 28.5384C34.9165 28.3628 35.0474 28.1457 35.0474 27.8871C35.0474 27.6684 34.9629 27.4878 34.7939 27.3452C34.6281 27.2027 34.3696 27.0933 34.0183 27.0171L32.7157 26.7437C31.9833 26.5912 31.4413 26.3343 31.09 25.9731C30.7387 25.6085 30.5647 25.1478 30.568 24.591C30.5647 24.1203 30.6923 23.7127 30.9508 23.368C31.2127 23.02 31.5756 22.7515 32.0396 22.5626C32.5069 22.3703 33.0455 22.2742 33.6554 22.2742C34.5502 22.2742 35.2546 22.4648 35.7683 22.8459C36.2853 23.2271 36.6052 23.7425 36.7278 24.3921ZM40.0733 30.1641C39.5894 30.1641 39.1536 30.078 38.7658 29.9056C38.3813 29.7299 38.0764 29.4714 37.851 29.13C37.629 28.7887 37.5179 28.3677 37.5179 27.8673C37.5179 27.4364 37.5975 27.0801 37.7566 26.7984C37.9157 26.5166 38.1328 26.2913 38.4078 26.1222C38.6829 25.9532 38.9928 25.8256 39.3375 25.7394C39.6855 25.6499 40.0452 25.5853 40.4164 25.5455C40.8638 25.4991 41.2267 25.4577 41.5051 25.4212C41.7836 25.3815 41.9857 25.3218 42.1117 25.2423C42.2409 25.1594 42.3056 25.0318 42.3056 24.8594V24.8296C42.3056 24.4551 42.1945 24.1651 41.9725 23.9596C41.7504 23.7541 41.4306 23.6513 41.013 23.6513C40.5721 23.6513 40.2225 23.7475 39.964 23.9397C39.7087 24.1319 39.5364 24.359 39.4469 24.6208L37.7665 24.3822C37.8991 23.9182 38.1178 23.5304 38.4228 23.2188C38.7277 22.9039 39.1006 22.6686 39.5414 22.5129C39.9822 22.3538 40.4694 22.2742 41.003 22.2742C41.3709 22.2742 41.7372 22.3173 42.1017 22.4035C42.4663 22.4896 42.7994 22.6322 43.101 22.831C43.4026 23.0266 43.6446 23.2934 43.8269 23.6315C44.0125 23.9695 44.1053 24.3921 44.1053 24.8992V30.01H42.3752V28.961H42.3155C42.2061 29.1731 42.052 29.372 41.8532 29.5576C41.6576 29.7399 41.4107 29.8874 41.1124 30.0001C40.8174 30.1094 40.4711 30.1641 40.0733 30.1641ZM40.5407 28.8417C40.9019 28.8417 41.2151 28.7704 41.4803 28.6279C41.7454 28.4821 41.9493 28.2898 42.0918 28.0512C42.2376 27.8126 42.3105 27.5524 42.3105 27.2707V26.3708C42.2542 26.4172 42.1581 26.4603 42.0222 26.5001C41.8896 26.5398 41.7405 26.5746 41.5748 26.6045C41.409 26.6343 41.245 26.6608 41.0826 26.684C40.9202 26.7072 40.7793 26.7271 40.66 26.7437C40.3915 26.7801 40.1512 26.8398 39.9391 26.9227C39.727 27.0055 39.5596 27.1215 39.437 27.2707C39.3143 27.4165 39.253 27.6054 39.253 27.8374C39.253 28.1689 39.374 28.4191 39.6159 28.5881C39.8579 28.7572 40.1661 28.8417 40.5407 28.8417ZM48.736 33.0327C48.0897 33.0327 47.5345 32.9449 47.0705 32.7692C46.6065 32.5969 46.2336 32.3649 45.9519 32.0732C45.6702 31.7816 45.4746 31.4584 45.3652 31.1038L46.986 30.711C47.0589 30.8602 47.165 31.0076 47.3042 31.1535C47.4434 31.3026 47.6306 31.4253 47.8659 31.5214C48.1046 31.6208 48.4045 31.6705 48.7658 31.6705C49.2762 31.6705 49.6988 31.5462 50.0336 31.2977C50.3683 31.0524 50.5357 30.648 50.5357 30.0846V28.6379H50.4462C50.3534 28.8235 50.2175 29.014 50.0385 29.2096C49.8629 29.4051 49.6292 29.5692 49.3375 29.7018C49.0492 29.8343 48.6863 29.9006 48.2488 29.9006C47.6621 29.9006 47.1301 29.7631 46.6529 29.488C46.1789 29.2096 45.8011 28.7953 45.5194 28.2451C45.2409 27.6916 45.1017 26.9989 45.1017 26.167C45.1017 25.3284 45.2409 24.6208 45.5194 24.0441C45.8011 23.4641 46.1806 23.0249 46.6578 22.7266C47.1351 22.425 47.6671 22.2742 48.2537 22.2742C48.7012 22.2742 49.0691 22.3504 49.3574 22.5029C49.6491 22.6521 49.8811 22.8327 50.0534 23.0448C50.2258 23.2536 50.3567 23.4508 50.4462 23.6364H50.5456V22.3736H52.3205V30.1343C52.3205 30.7872 52.1647 31.3275 51.8532 31.755C51.5416 32.1826 51.1157 32.5024 50.5755 32.7146C50.0352 32.9267 49.4221 33.0327 48.736 33.0327ZM48.7509 28.4887C49.132 28.4887 49.4569 28.3959 49.7253 28.2103C49.9938 28.0247 50.1976 27.7579 50.3368 27.4099C50.476 27.0619 50.5456 26.6442 50.5456 26.157C50.5456 25.6764 50.476 25.2555 50.3368 24.8942C50.2009 24.533 49.9988 24.2529 49.7303 24.054C49.4651 23.8519 49.1387 23.7508 48.7509 23.7508C48.3498 23.7508 48.0151 23.8552 47.7466 24.064C47.4782 24.2728 47.276 24.5595 47.1401 24.9241C47.0042 25.2853 46.9363 25.6963 46.9363 26.157C46.9363 26.6244 47.0042 27.0337 47.1401 27.385C47.2793 27.733 47.4831 28.0048 47.7516 28.2004C48.0234 28.3926 48.3565 28.4887 48.7509 28.4887ZM57.0456 30.1592C56.28 30.1592 55.6188 30.0001 55.062 29.6819C54.5085 29.3604 54.0826 28.9063 53.7843 28.3197C53.486 27.7297 53.3368 27.0353 53.3368 26.2366C53.3368 25.4511 53.486 24.7617 53.7843 24.1684C54.0859 23.5718 54.5068 23.1078 55.0471 22.7763C55.5873 22.4416 56.222 22.2742 56.9512 22.2742C57.4218 22.2742 57.8659 22.3504 58.2836 22.5029C58.7045 22.6521 59.0757 22.8841 59.3972 23.1989C59.722 23.5138 59.9772 23.9148 60.1628 24.4021C60.3484 24.886 60.4412 25.4627 60.4412 26.1322V26.684H54.182V25.4709H58.7161C58.7128 25.1263 58.6382 24.8197 58.4924 24.5512C58.3465 24.2794 58.1427 24.0656 57.8809 23.9099C57.6223 23.7541 57.3207 23.6762 56.976 23.6762C56.6081 23.6762 56.285 23.7657 56.0066 23.9447C55.7282 24.1203 55.5111 24.3523 55.3553 24.6407C55.2028 24.9257 55.1249 25.2389 55.1216 25.5803V26.6393C55.1216 27.0834 55.2028 27.4646 55.3652 27.7827C55.5276 28.0976 55.7547 28.3396 56.0463 28.5086C56.338 28.6743 56.6794 28.7572 57.0705 28.7572C57.3323 28.7572 57.5693 28.7207 57.7814 28.6478C57.9935 28.5716 58.1775 28.4605 58.3333 28.3147C58.4891 28.1689 58.6067 27.9882 58.6863 27.7728L60.3667 27.9617C60.2606 28.4058 60.0584 28.7936 59.7601 29.1251C59.4651 29.4532 59.0873 29.7084 58.6266 29.8907C58.1659 30.0697 57.6389 30.1592 57.0456 30.1592Z" fill="white"/>
<path d="M23.6989 73.1293C23.1136 73.1293 22.5966 73.0256 22.1477 72.8182C21.7017 72.608 21.3537 72.3197 21.1037 71.9532C20.8537 71.5839 20.7301 71.1634 20.733 70.6918C20.7301 70.3225 20.8026 69.9816 20.9503 69.6691C21.098 69.3538 21.2997 69.091 21.5554 68.8807C21.8139 68.6677 22.1023 68.5327 22.4205 68.4759V68.4248C22.0028 68.3168 21.6705 68.0825 21.4233 67.7217C21.1761 67.358 21.054 66.9447 21.0568 66.4816C21.054 66.0384 21.1662 65.6421 21.3935 65.2927C21.6207 64.9432 21.9332 64.6677 22.331 64.466C22.7315 64.2643 23.1875 64.1634 23.6989 64.1634C24.2045 64.1634 24.6563 64.2643 25.054 64.466C25.4517 64.6677 25.7642 64.9432 25.9915 65.2927C26.2216 65.6421 26.3381 66.0384 26.3409 66.4816C26.3381 66.9447 26.2116 67.358 25.9616 67.7217C25.7145 68.0825 25.3864 68.3168 24.9773 68.4248V68.4759C25.2926 68.5327 25.5767 68.6677 25.8295 68.8807C26.0824 69.091 26.2841 69.3538 26.4347 69.6691C26.5852 69.9816 26.6619 70.3225 26.6648 70.6918C26.6619 71.1634 26.5341 71.5839 26.2812 71.9532C26.0312 72.3197 25.6832 72.608 25.2372 72.8182C24.794 73.0256 24.2813 73.1293 23.6989 73.1293ZM23.6989 72.1918C24.0938 72.1918 24.4347 72.1279 24.7216 72.0001C25.0085 71.8722 25.2301 71.6918 25.3864 71.4589C25.5426 71.2259 25.6222 70.9532 25.625 70.6407C25.6222 70.3111 25.5369 70.02 25.3693 69.7671C25.2017 69.5143 24.973 69.3154 24.6832 69.1705C24.3963 69.0256 24.0682 68.9532 23.6989 68.9532C23.3267 68.9532 22.9943 69.0256 22.7017 69.1705C22.4119 69.3154 22.1832 69.5143 22.0156 69.7671C21.8509 70.02 21.7699 70.3111 21.7727 70.6407C21.7699 70.9532 21.8452 71.2259 21.9986 71.4589C22.1548 71.6918 22.3778 71.8722 22.6676 72.0001C22.9574 72.1279 23.3011 72.1918 23.6989 72.1918ZM23.6989 68.0498C24.0114 68.0498 24.2884 67.9873 24.5298 67.8623C24.7741 67.7373 24.9659 67.5626 25.1051 67.3381C25.2443 67.1137 25.3153 66.8509 25.3182 66.5498C25.3153 66.2543 25.2457 65.9972 25.1094 65.7785C24.973 65.5569 24.7841 65.3864 24.5426 65.2671C24.3011 65.145 24.0199 65.0839 23.6989 65.0839C23.3722 65.0839 23.0866 65.145 22.8423 65.2671C22.598 65.3864 22.4091 65.5569 22.2756 65.7785C22.142 65.9972 22.0767 66.2543 22.0795 66.5498C22.0767 66.8509 22.1435 67.1137 22.2798 67.3381C22.419 67.5626 22.6108 67.7373 22.8551 67.8623C23.0994 67.9873 23.3807 68.0498 23.6989 68.0498ZM30.6445 73.1293C30.0025 73.1293 29.4556 72.9546 29.0039 72.6052C28.5522 72.2529 28.207 71.743 27.9684 71.0754C27.7298 70.4049 27.6104 69.5952 27.6104 68.6464C27.6104 67.7032 27.7298 66.8978 27.9684 66.2302C28.2099 65.5597 28.5565 65.0484 29.0082 64.6961C29.4627 64.341 30.0082 64.1634 30.6445 64.1634C31.2809 64.1634 31.8249 64.341 32.2766 64.6961C32.7312 65.0484 33.0778 65.5597 33.3164 66.2302C33.5579 66.8978 33.6786 67.7032 33.6786 68.6464C33.6786 69.5952 33.5593 70.4049 33.3207 71.0754C33.082 71.743 32.7369 72.2529 32.2852 72.6052C31.8335 72.9546 31.2866 73.1293 30.6445 73.1293ZM30.6445 72.1918C31.2809 72.1918 31.7752 71.885 32.1275 71.2714C32.4798 70.6577 32.6559 69.7827 32.6559 68.6464C32.6559 67.8907 32.5749 67.2472 32.413 66.716C32.2539 66.1847 32.0238 65.7799 31.7227 65.5015C31.4244 65.2231 31.065 65.0839 30.6445 65.0839C30.0138 65.0839 29.521 65.395 29.1658 66.0171C28.8107 66.6364 28.6332 67.5129 28.6332 68.6464C28.6332 69.4021 28.7127 70.0441 28.8718 70.5725C29.0309 71.1009 29.2596 71.5029 29.5579 71.7785C29.859 72.054 30.2212 72.1918 30.6445 72.1918ZM43.7923 67.01C43.6985 66.7231 43.5749 66.466 43.4215 66.2387C43.271 66.0086 43.0906 65.8126 42.8803 65.6506C42.6729 65.4887 42.4371 65.3651 42.1729 65.2799C41.9087 65.1947 41.619 65.1521 41.3036 65.1521C40.7866 65.1521 40.3164 65.2856 39.8931 65.5526C39.4698 65.8197 39.1332 66.2131 38.8832 66.733C38.6332 67.2529 38.5082 67.8907 38.5082 68.6464C38.5082 69.4021 38.6346 70.0398 38.8874 70.5597C39.1403 71.0796 39.4826 71.4731 39.9144 71.7401C40.3462 72.0072 40.832 72.1407 41.3718 72.1407C41.8718 72.1407 42.3121 72.0342 42.6928 71.8211C43.0763 71.6052 43.3746 71.3012 43.5877 70.9092C43.8036 70.5143 43.9116 70.0498 43.9116 69.5157L44.2354 69.5839H41.6104V68.6464H44.9343V69.5839C44.9343 70.3026 44.7809 70.9276 44.4741 71.4589C44.1701 71.9901 43.7496 72.4021 43.2127 72.6947C42.6786 72.9844 42.065 73.1293 41.3718 73.1293C40.5991 73.1293 39.9201 72.9475 39.3349 72.5839C38.7525 72.2202 38.2979 71.7032 37.9712 71.0327C37.6474 70.3623 37.4854 69.5668 37.4854 68.6464C37.4854 67.956 37.5778 67.3353 37.7624 66.7842C37.9499 66.2302 38.2141 65.7586 38.555 65.3694C38.896 64.9802 39.2994 64.6819 39.7653 64.4745C40.2312 64.2671 40.744 64.1634 41.3036 64.1634C41.7638 64.1634 42.1928 64.233 42.5906 64.3722C42.9911 64.5086 43.3477 64.7032 43.6602 64.956C43.9755 65.206 44.2383 65.5057 44.4485 65.8552C44.6587 66.2018 44.8036 66.5867 44.8832 67.01H43.7923ZM46.2443 73.01V64.2827H49.2955C49.9034 64.2827 50.4048 64.3879 50.7997 64.5981C51.1946 64.8055 51.4886 65.0853 51.6818 65.4376C51.875 65.787 51.9716 66.1748 51.9716 66.6009C51.9716 66.9759 51.9048 67.2856 51.7713 67.5299C51.6406 67.7742 51.4673 67.9674 51.2514 68.1094C51.0384 68.2515 50.8068 68.3566 50.5568 68.4248V68.51C50.8239 68.5271 51.0923 68.6208 51.3622 68.7913C51.6321 68.9617 51.858 69.206 52.0398 69.5242C52.2216 69.8424 52.3125 70.2316 52.3125 70.6918C52.3125 71.1293 52.2131 71.5228 52.0142 71.8722C51.8153 72.2217 51.5014 72.4986 51.0724 72.7032C50.6435 72.9077 50.0852 73.01 49.3977 73.01H46.2443ZM47.3011 72.0725H49.3977C50.0881 72.0725 50.5781 71.939 50.8679 71.6719C51.1605 71.4021 51.3068 71.0754 51.3068 70.6918C51.3068 70.3964 51.2315 70.1236 51.081 69.8736C50.9304 69.6208 50.7159 69.4191 50.4375 69.2685C50.1591 69.1151 49.8295 69.0384 49.4489 69.0384H47.3011V72.0725ZM47.3011 68.118H49.2614C49.5795 68.118 49.8665 68.0555 50.1222 67.9305C50.3807 67.8055 50.5852 67.6293 50.7358 67.4021C50.8892 67.1748 50.9659 66.9077 50.9659 66.6009C50.9659 66.2174 50.8324 65.8921 50.5653 65.6251C50.2983 65.3552 49.875 65.2202 49.2955 65.2202H47.3011V68.118ZM58.9467 73.1464C58.3558 73.1464 57.8374 73.0057 57.3913 72.7245C56.9482 72.4432 56.6016 72.0498 56.3516 71.5441C56.1044 71.0384 55.9808 70.4475 55.9808 69.7714C55.9808 69.0896 56.1044 68.4944 56.3516 67.9859C56.6016 67.4773 56.9482 67.0825 57.3913 66.8012C57.8374 66.52 58.3558 66.3793 58.9467 66.3793C59.5376 66.3793 60.0547 66.52 60.4979 66.8012C60.9439 67.0825 61.2905 67.4773 61.5376 67.9859C61.7876 68.4944 61.9126 69.0896 61.9126 69.7714C61.9126 70.4475 61.7876 71.0384 61.5376 71.5441C61.2905 72.0498 60.9439 72.4432 60.4979 72.7245C60.0547 73.0057 59.5376 73.1464 58.9467 73.1464ZM58.9467 72.243C59.3956 72.243 59.7649 72.1279 60.0547 71.8978C60.3445 71.6677 60.5589 71.3651 60.6982 70.9901C60.8374 70.6151 60.907 70.2089 60.907 69.7714C60.907 69.3339 60.8374 68.9262 60.6982 68.5484C60.5589 68.1705 60.3445 67.8651 60.0547 67.6322C59.7649 67.3992 59.3956 67.2827 58.9467 67.2827C58.4979 67.2827 58.1286 67.3992 57.8388 67.6322C57.549 67.8651 57.3345 68.1705 57.1953 68.5484C57.0561 68.9262 56.9865 69.3339 56.9865 69.7714C56.9865 70.2089 57.0561 70.6151 57.1953 70.9901C57.3345 71.3651 57.549 71.6677 57.8388 71.8978C58.1286 72.1279 58.4979 72.243 58.9467 72.243ZM67.0728 70.3339V66.4646H68.0785V73.01H67.0728V71.9021H67.0046C66.8512 72.2344 66.6126 72.5171 66.2887 72.7501C65.9648 72.9802 65.5558 73.0952 65.0614 73.0952C64.6523 73.0952 64.2887 73.0057 63.9705 72.8268C63.6523 72.645 63.4023 72.3722 63.2205 72.0086C63.0387 71.6421 62.9478 71.1805 62.9478 70.6236V66.4646H63.9535V70.5555C63.9535 71.0327 64.087 71.4134 64.354 71.6975C64.6239 71.9816 64.9677 72.1236 65.3853 72.1236C65.6353 72.1236 65.8896 72.0597 66.1481 71.9319C66.4094 71.804 66.6282 71.608 66.8043 71.3438C66.9833 71.0796 67.0728 70.743 67.0728 70.3339ZM72.267 66.4646V67.3168H68.875V66.4646H72.267ZM69.8636 64.8964H70.8693V71.135C70.8693 71.4191 70.9105 71.6322 70.9929 71.7742C71.0781 71.9134 71.1861 72.0072 71.3168 72.0555C71.4503 72.1009 71.5909 72.1236 71.7386 72.1236C71.8494 72.1236 71.9403 72.118 72.0114 72.1066C72.0824 72.0924 72.1392 72.081 72.1818 72.0725L72.3864 72.9759C72.3182 73.0015 72.223 73.0271 72.1009 73.0526C71.9787 73.081 71.8239 73.0952 71.6364 73.0952C71.3523 73.0952 71.0739 73.0342 70.8011 72.912C70.5313 72.7898 70.3068 72.6038 70.1278 72.3538C69.9517 72.1038 69.8636 71.7884 69.8636 71.4077V64.8964ZM78.8139 73.1464C78.223 73.1464 77.7045 73.0057 77.2585 72.7245C76.8153 72.4432 76.4688 72.0498 76.2188 71.5441C75.9716 71.0384 75.848 70.4475 75.848 69.7714C75.848 69.0896 75.9716 68.4944 76.2188 67.9859C76.4688 67.4773 76.8153 67.0825 77.2585 66.8012C77.7045 66.52 78.223 66.3793 78.8139 66.3793C79.4048 66.3793 79.9219 66.52 80.3651 66.8012C80.8111 67.0825 81.1577 67.4773 81.4048 67.9859C81.6548 68.4944 81.7798 69.0896 81.7798 69.7714C81.7798 70.4475 81.6548 71.0384 81.4048 71.5441C81.1577 72.0498 80.8111 72.4432 80.3651 72.7245C79.9219 73.0057 79.4048 73.1464 78.8139 73.1464ZM78.8139 72.243C79.2628 72.243 79.6321 72.1279 79.9219 71.8978C80.2116 71.6677 80.4261 71.3651 80.5653 70.9901C80.7045 70.6151 80.7741 70.2089 80.7741 69.7714C80.7741 69.3339 80.7045 68.9262 80.5653 68.5484C80.4261 68.1705 80.2116 67.8651 79.9219 67.6322C79.6321 67.3992 79.2628 67.2827 78.8139 67.2827C78.3651 67.2827 77.9957 67.3992 77.706 67.6322C77.4162 67.8651 77.2017 68.1705 77.0625 68.5484C76.9233 68.9262 76.8537 69.3339 76.8537 69.7714C76.8537 70.2089 76.9233 70.6151 77.0625 70.9901C77.2017 71.3651 77.4162 71.6677 77.706 71.8978C77.9957 72.1279 78.3651 72.243 78.8139 72.243ZM85.7298 66.4646V67.3168H82.2013V66.4646H85.7298ZM83.2582 73.01V65.5611C83.2582 65.1861 83.3462 64.8736 83.5224 64.6236C83.6985 64.3736 83.9272 64.1861 84.2085 64.0611C84.4897 63.9361 84.7866 63.8736 85.0991 63.8736C85.3462 63.8736 85.5479 63.8935 85.7042 63.9333C85.8604 63.9731 85.9769 64.01 86.0536 64.0441L85.7638 64.9134C85.7127 64.8964 85.6417 64.8751 85.5508 64.8495C85.4627 64.8239 85.3462 64.8111 85.2013 64.8111C84.869 64.8111 84.6289 64.895 84.4812 65.0626C84.3363 65.2302 84.2638 65.4759 84.2638 65.7998V73.01H83.2582ZM92.5653 64.2827V73.01H91.5085V65.3907H91.4574L89.3267 66.8055V65.7316L91.5085 64.2827H92.5653ZM97.4219 73.1293C96.7798 73.1293 96.233 72.9546 95.7812 72.6052C95.3295 72.2529 94.9844 71.743 94.7457 71.0754C94.5071 70.4049 94.3878 69.5952 94.3878 68.6464C94.3878 67.7032 94.5071 66.8978 94.7457 66.2302C94.9872 65.5597 95.3338 65.0484 95.7855 64.6961C96.2401 64.341 96.7855 64.1634 97.4219 64.1634C98.0582 64.1634 98.6023 64.341 99.054 64.6961C99.5085 65.0484 99.8551 65.5597 100.094 66.2302C100.335 66.8978 100.456 67.7032 100.456 68.6464C100.456 69.5952 100.337 70.4049 100.098 71.0754C99.8594 71.743 99.5142 72.2529 99.0625 72.6052C98.6108 72.9546 98.0639 73.1293 97.4219 73.1293ZM97.4219 72.1918C98.0582 72.1918 98.5526 71.885 98.9048 71.2714C99.2571 70.6577 99.4332 69.7827 99.4332 68.6464C99.4332 67.8907 99.3523 67.2472 99.1903 66.716C99.0313 66.1847 98.8011 65.7799 98.5 65.5015C98.2017 65.2231 97.8423 65.0839 97.4219 65.0839C96.7912 65.0839 96.2983 65.395 95.9432 66.0171C95.5881 66.6364 95.4105 67.5129 95.4105 68.6464C95.4105 69.4021 95.4901 70.0441 95.6491 70.5725C95.8082 71.1009 96.0369 71.5029 96.3352 71.7785C96.6364 72.054 96.9986 72.1918 97.4219 72.1918ZM104.422 73.1293C103.78 73.1293 103.233 72.9546 102.781 72.6052C102.33 72.2529 101.984 71.743 101.746 71.0754C101.507 70.4049 101.388 69.5952 101.388 68.6464C101.388 67.7032 101.507 66.8978 101.746 66.2302C101.987 65.5597 102.334 65.0484 102.786 64.6961C103.24 64.341 103.786 64.1634 104.422 64.1634C105.058 64.1634 105.602 64.341 106.054 64.6961C106.509 65.0484 106.855 65.5597 107.094 66.2302C107.335 66.8978 107.456 67.7032 107.456 68.6464C107.456 69.5952 107.337 70.4049 107.098 71.0754C106.859 71.743 106.514 72.2529 106.062 72.6052C105.611 72.9546 105.064 73.1293 104.422 73.1293ZM104.422 72.1918C105.058 72.1918 105.553 71.885 105.905 71.2714C106.257 70.6577 106.433 69.7827 106.433 68.6464C106.433 67.8907 106.352 67.2472 106.19 66.716C106.031 66.1847 105.801 65.7799 105.5 65.5015C105.202 65.2231 104.842 65.0839 104.422 65.0839C103.791 65.0839 103.298 65.395 102.943 66.0171C102.588 66.6364 102.411 67.5129 102.411 68.6464C102.411 69.4021 102.49 70.0441 102.649 70.5725C102.808 71.1009 103.037 71.5029 103.335 71.7785C103.636 72.054 103.999 72.1918 104.422 72.1918ZM117.57 67.01C117.476 66.7231 117.352 66.466 117.199 66.2387C117.048 66.0086 116.868 65.8126 116.658 65.6506C116.45 65.4887 116.214 65.3651 115.95 65.2799C115.686 65.1947 115.396 65.1521 115.081 65.1521C114.564 65.1521 114.094 65.2856 113.67 65.5526C113.247 65.8197 112.911 66.2131 112.661 66.733C112.411 67.2529 112.286 67.8907 112.286 68.6464C112.286 69.4021 112.412 70.0398 112.665 70.5597C112.918 71.0796 113.26 71.4731 113.692 71.7401C114.124 72.0072 114.609 72.1407 115.149 72.1407C115.649 72.1407 116.089 72.0342 116.47 71.8211C116.854 71.6052 117.152 71.3012 117.365 70.9092C117.581 70.5143 117.689 70.0498 117.689 69.5157L118.013 69.5839H115.388V68.6464H118.712V69.5839C118.712 70.3026 118.558 70.9276 118.251 71.4589C117.947 71.9901 117.527 72.4021 116.99 72.6947C116.456 72.9844 115.842 73.1293 115.149 73.1293C114.376 73.1293 113.697 72.9475 113.112 72.5839C112.53 72.2202 112.075 71.7032 111.749 71.0327C111.425 70.3623 111.263 69.5668 111.263 68.6464C111.263 67.956 111.355 67.3353 111.54 66.7842C111.727 66.2302 111.991 65.7586 112.332 65.3694C112.673 64.9802 113.077 64.6819 113.543 64.4745C114.009 64.2671 114.521 64.1634 115.081 64.1634C115.541 64.1634 115.97 64.233 116.368 64.3722C116.768 64.5086 117.125 64.7032 117.438 64.956C117.753 65.206 118.016 65.5057 118.226 65.8552C118.436 66.2018 118.581 66.5867 118.661 67.01H117.57ZM120.022 73.01V64.2827H123.073C123.681 64.2827 124.182 64.3879 124.577 64.5981C124.972 64.8055 125.266 65.0853 125.459 65.4376C125.652 65.787 125.749 66.1748 125.749 66.6009C125.749 66.9759 125.682 67.2856 125.549 67.5299C125.418 67.7742 125.245 67.9674 125.029 68.1094C124.816 68.2515 124.584 68.3566 124.334 68.4248V68.51C124.601 68.5271 124.87 68.6208 125.14 68.7913C125.409 68.9617 125.635 69.206 125.817 69.5242C125.999 69.8424 126.09 70.2316 126.09 70.6918C126.09 71.1293 125.99 71.5228 125.792 71.8722C125.593 72.2217 125.279 72.4986 124.85 72.7032C124.421 72.9077 123.863 73.01 123.175 73.01H120.022ZM121.078 72.0725H123.175C123.865 72.0725 124.355 71.939 124.645 71.6719C124.938 71.4021 125.084 71.0754 125.084 70.6918C125.084 70.3964 125.009 70.1236 124.858 69.8736C124.708 69.6208 124.493 69.4191 124.215 69.2685C123.936 69.1151 123.607 69.0384 123.226 69.0384H121.078V72.0725ZM121.078 68.118H123.039C123.357 68.118 123.644 68.0555 123.9 67.9305C124.158 67.8055 124.363 67.6293 124.513 67.4021C124.667 67.1748 124.743 66.9077 124.743 66.6009C124.743 66.2174 124.61 65.8921 124.343 65.6251C124.076 65.3552 123.652 65.2202 123.073 65.2202H121.078V68.118ZM134.19 70.3339V66.4646H135.196V73.01H134.19V71.9021H134.122C133.968 72.2344 133.73 72.5171 133.406 72.7501C133.082 72.9802 132.673 73.0952 132.179 73.0952C131.77 73.0952 131.406 73.0057 131.088 72.8268C130.77 72.645 130.52 72.3722 130.338 72.0086C130.156 71.6421 130.065 71.1805 130.065 70.6236V66.4646H131.071V70.5555C131.071 71.0327 131.204 71.4134 131.471 71.6975C131.741 71.9816 132.085 72.1236 132.502 72.1236C132.752 72.1236 133.007 72.0597 133.265 71.9319C133.527 71.804 133.745 71.608 133.922 71.3438C134.1 71.0796 134.19 70.743 134.19 70.3339ZM141.174 67.9305L140.271 68.1861C140.214 68.0356 140.13 67.8893 140.019 67.7472C139.911 67.6023 139.763 67.483 139.576 67.3893C139.388 67.2955 139.148 67.2486 138.856 67.2486C138.455 67.2486 138.121 67.341 137.854 67.5256C137.59 67.7075 137.458 67.939 137.458 68.2202C137.458 68.4702 137.549 68.6677 137.731 68.8126C137.913 68.9575 138.197 69.0782 138.583 69.1748L139.555 69.4134C140.14 69.5555 140.576 69.7728 140.863 70.0654C141.15 70.3552 141.293 70.7288 141.293 71.1861C141.293 71.5611 141.185 71.8964 140.969 72.1918C140.756 72.4873 140.458 72.7202 140.075 72.8907C139.691 73.0611 139.245 73.1464 138.737 73.1464C138.069 73.1464 137.516 73.0015 137.079 72.7117C136.641 72.4219 136.364 71.9986 136.248 71.4418L137.202 71.2032C137.293 71.5555 137.465 71.8197 137.718 71.9958C137.974 72.1719 138.308 72.26 138.719 72.26C139.188 72.26 139.56 72.1606 139.836 71.9617C140.114 71.76 140.254 71.5185 140.254 71.2373C140.254 71.01 140.174 70.8197 140.015 70.6663C139.856 70.51 139.612 70.3935 139.282 70.3168L138.191 70.0611C137.592 69.9191 137.151 69.6989 136.87 69.4006C136.592 69.0995 136.452 68.7231 136.452 68.2714C136.452 67.9021 136.556 67.5754 136.763 67.2913C136.974 67.0072 137.259 66.7842 137.62 66.6222C137.984 66.4603 138.396 66.3793 138.856 66.3793C139.504 66.3793 140.012 66.5214 140.381 66.8055C140.754 67.0896 141.018 67.4646 141.174 67.9305ZM145.051 73.1464C144.421 73.1464 143.877 73.0072 143.419 72.7288C142.965 72.4475 142.614 72.0555 142.367 71.5526C142.123 71.0469 142 70.4589 142 69.7884C142 69.118 142.123 68.5271 142.367 68.0157C142.614 67.5015 142.958 67.1009 143.398 66.814C143.841 66.5242 144.358 66.3793 144.949 66.3793C145.29 66.3793 145.627 66.4361 145.959 66.5498C146.292 66.6634 146.594 66.8481 146.867 67.1038C147.14 67.3566 147.357 67.6918 147.519 68.1094C147.681 68.5271 147.762 69.0413 147.762 69.6521V70.0782H142.716V69.2089H146.739C146.739 68.8396 146.665 68.51 146.517 68.2202C146.373 67.9305 146.165 67.7018 145.895 67.5342C145.628 67.3665 145.313 67.2827 144.949 67.2827C144.549 67.2827 144.202 67.3822 143.909 67.581C143.62 67.7771 143.397 68.0327 143.24 68.3481C143.084 68.6634 143.006 69.0015 143.006 69.3623V69.9418C143.006 70.4361 143.091 70.8552 143.262 71.1989C143.435 71.5398 143.675 71.7998 143.982 71.9788C144.289 72.1549 144.645 72.243 145.051 72.243C145.316 72.243 145.554 72.206 145.767 72.1322C145.983 72.0555 146.169 71.9418 146.326 71.7913C146.482 71.6379 146.603 71.4475 146.688 71.2202L147.659 71.493C147.557 71.8225 147.385 72.1123 147.144 72.3623C146.902 72.6094 146.604 72.8026 146.249 72.9418C145.894 73.0782 145.495 73.1464 145.051 73.1464ZM151.263 73.1464C150.718 73.1464 150.236 73.0086 149.819 72.733C149.401 72.4546 149.074 72.0626 148.838 71.5569C148.603 71.0484 148.485 70.4475 148.485 69.7543C148.485 69.0668 148.603 68.4702 148.838 67.9646C149.074 67.4589 149.402 67.0682 149.823 66.7927C150.243 66.5171 150.729 66.3793 151.28 66.3793C151.706 66.3793 152.043 66.4504 152.29 66.5924C152.54 66.7316 152.73 66.8907 152.861 67.0697C152.995 67.2458 153.098 67.3907 153.172 67.5043H153.257V64.2827H154.263V73.01H153.292V72.0043H153.172C153.098 72.1236 152.993 72.2742 152.857 72.456C152.721 72.635 152.526 72.7955 152.273 72.9376C152.02 73.0768 151.684 73.1464 151.263 73.1464ZM151.4 72.243C151.803 72.243 152.144 72.1379 152.422 71.9276C152.701 71.7146 152.912 71.4205 153.057 71.0455C153.202 70.6677 153.275 70.2316 153.275 69.7373C153.275 69.2486 153.203 68.8211 153.061 68.4546C152.919 68.0853 152.709 67.7984 152.431 67.5938C152.152 67.3864 151.809 67.2827 151.4 67.2827C150.973 67.2827 150.618 67.3921 150.334 67.6109C150.053 67.8268 149.841 68.1208 149.699 68.493C149.56 68.8623 149.49 69.2771 149.49 69.7373C149.49 70.2032 149.561 70.6265 149.703 71.0072C149.848 71.385 150.061 71.6861 150.343 71.9106C150.627 72.1322 150.979 72.243 151.4 72.243Z" fill="white" fill-opacity="0.6"/>
<rect x="20" y="45.01" width="288" height="11" rx="5.5" fill="white" fill-opacity="0.17"/>
<rect x="20" y="45.01" width="171" height="11" rx="5.5" fill="url(#paint0_linear_6001_13118)"/>
<defs>
<linearGradient id="paint0_linear_6001_13118" x1="46.8068" y1="40.3862" x2="53.5899" y2="79.7115" gradientUnits="userSpaceOnUse">
<stop stop-color="#FEECE3"/>
<stop offset="0.25" stop-color="#FCD5BF"/>
<stop offset="0.5" stop-color="#FEAFAE"/>
<stop offset="0.75" stop-color="#FFA4BD"/>
<stop offset="1" stop-color="#FFA9CC"/>
</linearGradient>
</defs>
</svg>
