<svg width="360" height="429" viewBox="0 0 360 429" fill="none" xmlns="http://www.w3.org/2000/svg">
<rect x="16" y="312.01" width="328" height="97" rx="8" fill="url(#paint0_linear_6001_13117)" fill-opacity="0.7"/>
<rect x="16" y="312.01" width="328" height="97" rx="8" fill="url(#paint1_linear_6001_13117)" fill-opacity="0.5"/>
<rect x="16.5" y="312.51" width="327" height="96" rx="7.5" stroke="white" stroke-opacity="0.06"/>
<path d="M43.4226 331.828H45.267V338.48C45.267 339.209 45.0947 339.851 44.75 340.404C44.4086 340.958 43.928 341.39 43.3082 341.702C42.6884 342.01 41.9643 342.164 41.1357 342.164C40.3037 342.164 39.5779 342.01 38.9581 341.702C38.3383 341.39 37.8577 340.958 37.5163 340.404C37.175 339.851 37.0043 339.209 37.0043 338.48V331.828H38.8487V338.326C38.8487 338.75 38.9415 339.128 39.1271 339.46C39.3161 339.791 39.5812 340.051 39.9226 340.24C40.264 340.426 40.6683 340.519 41.1357 340.519C41.603 340.519 42.0073 340.426 42.3487 340.24C42.6934 340.051 42.9586 339.791 43.1442 339.46C43.3298 339.128 43.4226 338.75 43.4226 338.326V331.828ZM52.7278 336.392L51.0872 336.571C51.0408 336.405 50.9596 336.25 50.8436 336.104C50.7309 335.958 50.5784 335.84 50.3862 335.751C50.194 335.661 49.9586 335.617 49.6802 335.617C49.3057 335.617 48.9908 335.698 48.7356 335.86C48.4837 336.023 48.3594 336.233 48.3627 336.492C48.3594 336.714 48.4406 336.894 48.6064 337.033C48.7754 337.173 49.0538 337.287 49.4416 337.376L50.7441 337.655C51.4667 337.811 52.0036 338.058 52.3549 338.396C52.7096 338.734 52.8886 339.176 52.8919 339.723C52.8886 340.204 52.7477 340.628 52.4693 340.996C52.1942 341.36 51.8114 341.645 51.3208 341.851C50.8303 342.056 50.2669 342.159 49.6305 342.159C48.6958 342.159 47.9435 341.964 47.3734 341.573C46.8033 341.178 46.4636 340.63 46.3542 339.927L48.1092 339.758C48.1887 340.103 48.3578 340.363 48.6163 340.538C48.8748 340.714 49.2112 340.802 49.6255 340.802C50.0531 340.802 50.3961 340.714 50.6547 340.538C50.9165 340.363 51.0474 340.146 51.0474 339.887C51.0474 339.668 50.9629 339.488 50.7939 339.345C50.6281 339.203 50.3696 339.093 50.0183 339.017L48.7157 338.744C47.9833 338.591 47.4413 338.334 47.09 337.973C46.7387 337.608 46.5647 337.148 46.568 336.591C46.5647 336.12 46.6923 335.713 46.9508 335.368C47.2127 335.02 47.5756 334.751 48.0396 334.563C48.5069 334.37 49.0455 334.274 49.6554 334.274C50.5502 334.274 51.2546 334.465 51.7683 334.846C52.2853 335.227 52.6052 335.742 52.7278 336.392ZM56.0733 342.164C55.5894 342.164 55.1536 342.078 54.7658 341.906C54.3813 341.73 54.0764 341.471 53.851 341.13C53.629 340.789 53.5179 340.368 53.5179 339.867C53.5179 339.436 53.5975 339.08 53.7566 338.798C53.9157 338.517 54.1328 338.291 54.4078 338.122C54.6829 337.953 54.9928 337.826 55.3375 337.739C55.6855 337.65 56.0452 337.585 56.4164 337.546C56.8638 337.499 57.2267 337.458 57.5051 337.421C57.7836 337.381 57.9857 337.322 58.1117 337.242C58.2409 337.159 58.3056 337.032 58.3056 336.859V336.83C58.3056 336.455 58.1945 336.165 57.9725 335.96C57.7504 335.754 57.4306 335.651 57.013 335.651C56.5721 335.651 56.2225 335.747 55.964 335.94C55.7087 336.132 55.5364 336.359 55.4469 336.621L53.7665 336.382C53.8991 335.918 54.1178 335.53 54.4228 335.219C54.7277 334.904 55.1006 334.669 55.5414 334.513C55.9822 334.354 56.4694 334.274 57.003 334.274C57.3709 334.274 57.7372 334.317 58.1017 334.403C58.4663 334.49 58.7994 334.632 59.101 334.831C59.4026 335.027 59.6446 335.293 59.8269 335.631C60.0125 335.97 60.1053 336.392 60.1053 336.899V342.01H58.3752V340.961H58.3155C58.2061 341.173 58.052 341.372 57.8532 341.558C57.6576 341.74 57.4107 341.887 57.1124 342C56.8174 342.109 56.4711 342.164 56.0733 342.164ZM56.5407 340.842C56.9019 340.842 57.2151 340.77 57.4803 340.628C57.7454 340.482 57.9493 340.29 58.0918 340.051C58.2376 339.813 58.3105 339.552 58.3105 339.271V338.371C58.2542 338.417 58.1581 338.46 58.0222 338.5C57.8896 338.54 57.7405 338.575 57.5748 338.604C57.409 338.634 57.245 338.661 57.0826 338.684C56.9202 338.707 56.7793 338.727 56.66 338.744C56.3915 338.78 56.1512 338.84 55.9391 338.923C55.727 339.006 55.5596 339.122 55.437 339.271C55.3143 339.416 55.253 339.605 55.253 339.837C55.253 340.169 55.374 340.419 55.6159 340.588C55.8579 340.757 56.1661 340.842 56.5407 340.842ZM64.736 345.033C64.0897 345.033 63.5345 344.945 63.0705 344.769C62.6065 344.597 62.2336 344.365 61.9519 344.073C61.6702 343.782 61.4746 343.458 61.3652 343.104L62.986 342.711C63.0589 342.86 63.165 343.008 63.3042 343.153C63.4434 343.303 63.6306 343.425 63.8659 343.521C64.1046 343.621 64.4045 343.671 64.7658 343.671C65.2762 343.671 65.6988 343.546 66.0336 343.298C66.3683 343.052 66.5357 342.648 66.5357 342.085V340.638H66.4462C66.3534 340.823 66.2175 341.014 66.0385 341.21C65.8629 341.405 65.6292 341.569 65.3375 341.702C65.0492 341.834 64.6863 341.901 64.2488 341.901C63.6621 341.901 63.1301 341.763 62.6529 341.488C62.1789 341.21 61.8011 340.795 61.5194 340.245C61.2409 339.692 61.1017 338.999 61.1017 338.167C61.1017 337.328 61.2409 336.621 61.5194 336.044C61.8011 335.464 62.1806 335.025 62.6578 334.727C63.1351 334.425 63.6671 334.274 64.2537 334.274C64.7012 334.274 65.0691 334.35 65.3574 334.503C65.6491 334.652 65.8811 334.833 66.0534 335.045C66.2258 335.254 66.3567 335.451 66.4462 335.636H66.5456V334.374H68.3205V342.134C68.3205 342.787 68.1647 343.327 67.8532 343.755C67.5416 344.183 67.1157 344.502 66.5755 344.715C66.0352 344.927 65.4221 345.033 64.736 345.033ZM64.7509 340.489C65.132 340.489 65.4569 340.396 65.7253 340.21C65.9938 340.025 66.1976 339.758 66.3368 339.41C66.476 339.062 66.5456 338.644 66.5456 338.157C66.5456 337.676 66.476 337.256 66.3368 336.894C66.2009 336.533 65.9988 336.253 65.7303 336.054C65.4651 335.852 65.1387 335.751 64.7509 335.751C64.3498 335.751 64.0151 335.855 63.7466 336.064C63.4782 336.273 63.276 336.559 63.1401 336.924C63.0042 337.285 62.9363 337.696 62.9363 338.157C62.9363 338.624 63.0042 339.034 63.1401 339.385C63.2793 339.733 63.4831 340.005 63.7516 340.2C64.0234 340.393 64.3565 340.489 64.7509 340.489ZM73.0456 342.159C72.28 342.159 71.6188 342 71.062 341.682C70.5085 341.36 70.0826 340.906 69.7843 340.32C69.486 339.73 69.3368 339.035 69.3368 338.237C69.3368 337.451 69.486 336.762 69.7843 336.168C70.0859 335.572 70.5068 335.108 71.0471 334.776C71.5873 334.442 72.222 334.274 72.9512 334.274C73.4218 334.274 73.8659 334.35 74.2836 334.503C74.7045 334.652 75.0757 334.884 75.3972 335.199C75.722 335.514 75.9772 335.915 76.1628 336.402C76.3484 336.886 76.4412 337.463 76.4412 338.132V338.684H70.182V337.471H74.7161C74.7128 337.126 74.6382 336.82 74.4924 336.551C74.3465 336.279 74.1427 336.066 73.8809 335.91C73.6223 335.754 73.3207 335.676 72.976 335.676C72.6081 335.676 72.285 335.766 72.0066 335.945C71.7282 336.12 71.5111 336.352 71.3553 336.641C71.2028 336.926 71.1249 337.239 71.1216 337.58V338.639C71.1216 339.083 71.2028 339.465 71.3652 339.783C71.5276 340.098 71.7547 340.34 72.0463 340.509C72.338 340.674 72.6794 340.757 73.0705 340.757C73.3323 340.757 73.5693 340.721 73.7814 340.648C73.9935 340.572 74.1775 340.461 74.3333 340.315C74.4891 340.169 74.6067 339.988 74.6863 339.773L76.3667 339.962C76.2606 340.406 76.0584 340.794 75.7601 341.125C75.4651 341.453 75.0873 341.708 74.6266 341.891C74.1659 342.07 73.6389 342.159 73.0456 342.159Z" fill="white"/>
<path d="M39.6989 385.129C39.1136 385.129 38.5966 385.026 38.1477 384.818C37.7017 384.608 37.3537 384.32 37.1037 383.953C36.8537 383.584 36.7301 383.163 36.733 382.692C36.7301 382.323 36.8026 381.982 36.9503 381.669C37.098 381.354 37.2997 381.091 37.5554 380.881C37.8139 380.668 38.1023 380.533 38.4205 380.476V380.425C38.0028 380.317 37.6705 380.082 37.4233 379.722C37.1761 379.358 37.054 378.945 37.0568 378.482C37.054 378.038 37.1662 377.642 37.3935 377.293C37.6207 376.943 37.9332 376.668 38.331 376.466C38.7315 376.264 39.1875 376.163 39.6989 376.163C40.2045 376.163 40.6563 376.264 41.054 376.466C41.4517 376.668 41.7642 376.943 41.9915 377.293C42.2216 377.642 42.3381 378.038 42.3409 378.482C42.3381 378.945 42.2116 379.358 41.9616 379.722C41.7145 380.082 41.3864 380.317 40.9773 380.425V380.476C41.2926 380.533 41.5767 380.668 41.8295 380.881C42.0824 381.091 42.2841 381.354 42.4347 381.669C42.5852 381.982 42.6619 382.323 42.6648 382.692C42.6619 383.163 42.5341 383.584 42.2812 383.953C42.0312 384.32 41.6832 384.608 41.2372 384.818C40.794 385.026 40.2813 385.129 39.6989 385.129ZM39.6989 384.192C40.0938 384.192 40.4347 384.128 40.7216 384C41.0085 383.872 41.2301 383.692 41.3864 383.459C41.5426 383.226 41.6222 382.953 41.625 382.641C41.6222 382.311 41.5369 382.02 41.3693 381.767C41.2017 381.514 40.973 381.315 40.6832 381.171C40.3963 381.026 40.0682 380.953 39.6989 380.953C39.3267 380.953 38.9943 381.026 38.7017 381.171C38.4119 381.315 38.1832 381.514 38.0156 381.767C37.8509 382.02 37.7699 382.311 37.7727 382.641C37.7699 382.953 37.8452 383.226 37.9986 383.459C38.1548 383.692 38.3778 383.872 38.6676 384C38.9574 384.128 39.3011 384.192 39.6989 384.192ZM39.6989 380.05C40.0114 380.05 40.2884 379.987 40.5298 379.862C40.7741 379.737 40.9659 379.563 41.1051 379.338C41.2443 379.114 41.3153 378.851 41.3182 378.55C41.3153 378.254 41.2457 377.997 41.1094 377.778C40.973 377.557 40.7841 377.386 40.5426 377.267C40.3011 377.145 40.0199 377.084 39.6989 377.084C39.3722 377.084 39.0866 377.145 38.8423 377.267C38.598 377.386 38.4091 377.557 38.2756 377.778C38.142 377.997 38.0767 378.254 38.0795 378.55C38.0767 378.851 38.1435 379.114 38.2798 379.338C38.419 379.563 38.6108 379.737 38.8551 379.862C39.0994 379.987 39.3807 380.05 39.6989 380.05ZM46.6445 385.129C46.0025 385.129 45.4556 384.955 45.0039 384.605C44.5522 384.253 44.207 383.743 43.9684 383.075C43.7298 382.405 43.6104 381.595 43.6104 380.646C43.6104 379.703 43.7298 378.898 43.9684 378.23C44.2099 377.56 44.5565 377.048 45.0082 376.696C45.4627 376.341 46.0082 376.163 46.6445 376.163C47.2809 376.163 47.8249 376.341 48.2766 376.696C48.7312 377.048 49.0778 377.56 49.3164 378.23C49.5579 378.898 49.6786 379.703 49.6786 380.646C49.6786 381.595 49.5593 382.405 49.3207 383.075C49.082 383.743 48.7369 384.253 48.2852 384.605C47.8335 384.955 47.2866 385.129 46.6445 385.129ZM46.6445 384.192C47.2809 384.192 47.7752 383.885 48.1275 383.271C48.4798 382.658 48.6559 381.783 48.6559 380.646C48.6559 379.891 48.5749 379.247 48.413 378.716C48.2539 378.185 48.0238 377.78 47.7227 377.501C47.4244 377.223 47.065 377.084 46.6445 377.084C46.0138 377.084 45.521 377.395 45.1658 378.017C44.8107 378.636 44.6332 379.513 44.6332 380.646C44.6332 381.402 44.7127 382.044 44.8718 382.573C45.0309 383.101 45.2596 383.503 45.5579 383.778C45.859 384.054 46.2212 384.192 46.6445 384.192ZM59.7923 379.01C59.6985 378.723 59.5749 378.466 59.4215 378.239C59.271 378.009 59.0906 377.813 58.8803 377.651C58.6729 377.489 58.4371 377.365 58.1729 377.28C57.9087 377.195 57.619 377.152 57.3036 377.152C56.7866 377.152 56.3164 377.286 55.8931 377.553C55.4698 377.82 55.1332 378.213 54.8832 378.733C54.6332 379.253 54.5082 379.891 54.5082 380.646C54.5082 381.402 54.6346 382.04 54.8874 382.56C55.1403 383.08 55.4826 383.473 55.9144 383.74C56.3462 384.007 56.832 384.141 57.3718 384.141C57.8718 384.141 58.3121 384.034 58.6928 383.821C59.0763 383.605 59.3746 383.301 59.5877 382.909C59.8036 382.514 59.9116 382.05 59.9116 381.516L60.2354 381.584H57.6104V380.646H60.9343V381.584C60.9343 382.303 60.7809 382.928 60.4741 383.459C60.1701 383.99 59.7496 384.402 59.2127 384.695C58.6786 384.984 58.065 385.129 57.3718 385.129C56.5991 385.129 55.9201 384.948 55.3349 384.584C54.7525 384.22 54.2979 383.703 53.9712 383.033C53.6474 382.362 53.4854 381.567 53.4854 380.646C53.4854 379.956 53.5778 379.335 53.7624 378.784C53.9499 378.23 54.2141 377.759 54.555 377.369C54.896 376.98 55.2994 376.682 55.7653 376.474C56.2312 376.267 56.744 376.163 57.3036 376.163C57.7638 376.163 58.1928 376.233 58.5906 376.372C58.9911 376.509 59.3477 376.703 59.6602 376.956C59.9755 377.206 60.2383 377.506 60.4485 377.855C60.6587 378.202 60.8036 378.587 60.8832 379.01H59.7923ZM62.2443 385.01V376.283H65.2955C65.9034 376.283 66.4048 376.388 66.7997 376.598C67.1946 376.805 67.4886 377.085 67.6818 377.438C67.875 377.787 67.9716 378.175 67.9716 378.601C67.9716 378.976 67.9048 379.286 67.7713 379.53C67.6406 379.774 67.4673 379.967 67.2514 380.109C67.0384 380.251 66.8068 380.357 66.5568 380.425V380.51C66.8239 380.527 67.0923 380.621 67.3622 380.791C67.6321 380.962 67.858 381.206 68.0398 381.524C68.2216 381.842 68.3125 382.232 68.3125 382.692C68.3125 383.129 68.2131 383.523 68.0142 383.872C67.8153 384.222 67.5014 384.499 67.0724 384.703C66.6435 384.908 66.0852 385.01 65.3977 385.01H62.2443ZM63.3011 384.073H65.3977C66.0881 384.073 66.5781 383.939 66.8679 383.672C67.1605 383.402 67.3068 383.075 67.3068 382.692C67.3068 382.396 67.2315 382.124 67.081 381.874C66.9304 381.621 66.7159 381.419 66.4375 381.269C66.1591 381.115 65.8295 381.038 65.4489 381.038H63.3011V384.073ZM63.3011 380.118H65.2614C65.5795 380.118 65.8665 380.055 66.1222 379.93C66.3807 379.805 66.5852 379.629 66.7358 379.402C66.8892 379.175 66.9659 378.908 66.9659 378.601C66.9659 378.217 66.8324 377.892 66.5653 377.625C66.2983 377.355 65.875 377.22 65.2955 377.22H63.3011V380.118ZM74.9467 385.146C74.3558 385.146 73.8374 385.006 73.3913 384.724C72.9482 384.443 72.6016 384.05 72.3516 383.544C72.1044 383.038 71.9808 382.448 71.9808 381.771C71.9808 381.09 72.1044 380.494 72.3516 379.986C72.6016 379.477 72.9482 379.082 73.3913 378.801C73.8374 378.52 74.3558 378.379 74.9467 378.379C75.5376 378.379 76.0547 378.52 76.4979 378.801C76.9439 379.082 77.2905 379.477 77.5376 379.986C77.7876 380.494 77.9126 381.09 77.9126 381.771C77.9126 382.448 77.7876 383.038 77.5376 383.544C77.2905 384.05 76.9439 384.443 76.4979 384.724C76.0547 385.006 75.5376 385.146 74.9467 385.146ZM74.9467 384.243C75.3956 384.243 75.7649 384.128 76.0547 383.898C76.3445 383.668 76.5589 383.365 76.6982 382.99C76.8374 382.615 76.907 382.209 76.907 381.771C76.907 381.334 76.8374 380.926 76.6982 380.548C76.5589 380.171 76.3445 379.865 76.0547 379.632C75.7649 379.399 75.3956 379.283 74.9467 379.283C74.4979 379.283 74.1286 379.399 73.8388 379.632C73.549 379.865 73.3345 380.171 73.1953 380.548C73.0561 380.926 72.9865 381.334 72.9865 381.771C72.9865 382.209 73.0561 382.615 73.1953 382.99C73.3345 383.365 73.549 383.668 73.8388 383.898C74.1286 384.128 74.4979 384.243 74.9467 384.243ZM83.0728 382.334V378.465H84.0785V385.01H83.0728V383.902H83.0046C82.8512 384.234 82.6126 384.517 82.2887 384.75C81.9648 384.98 81.5558 385.095 81.0614 385.095C80.6523 385.095 80.2887 385.006 79.9705 384.827C79.6523 384.645 79.4023 384.372 79.2205 384.009C79.0387 383.642 78.9478 383.18 78.9478 382.624V378.465H79.9535V382.555C79.9535 383.033 80.087 383.413 80.354 383.698C80.6239 383.982 80.9677 384.124 81.3853 384.124C81.6353 384.124 81.8896 384.06 82.1481 383.932C82.4094 383.804 82.6282 383.608 82.8043 383.344C82.9833 383.08 83.0728 382.743 83.0728 382.334ZM88.267 378.465V379.317H84.875V378.465H88.267ZM85.8636 376.896H86.8693V383.135C86.8693 383.419 86.9105 383.632 86.9929 383.774C87.0781 383.913 87.1861 384.007 87.3168 384.055C87.4503 384.101 87.5909 384.124 87.7386 384.124C87.8494 384.124 87.9403 384.118 88.0114 384.107C88.0824 384.092 88.1392 384.081 88.1818 384.073L88.3864 384.976C88.3182 385.001 88.223 385.027 88.1009 385.053C87.9787 385.081 87.8239 385.095 87.6364 385.095C87.3523 385.095 87.0739 385.034 86.8011 384.912C86.5313 384.79 86.3068 384.604 86.1278 384.354C85.9517 384.104 85.8636 383.788 85.8636 383.408V376.896ZM94.8139 385.146C94.223 385.146 93.7045 385.006 93.2585 384.724C92.8153 384.443 92.4688 384.05 92.2188 383.544C91.9716 383.038 91.848 382.448 91.848 381.771C91.848 381.09 91.9716 380.494 92.2188 379.986C92.4688 379.477 92.8153 379.082 93.2585 378.801C93.7045 378.52 94.223 378.379 94.8139 378.379C95.4048 378.379 95.9219 378.52 96.3651 378.801C96.8111 379.082 97.1577 379.477 97.4048 379.986C97.6548 380.494 97.7798 381.09 97.7798 381.771C97.7798 382.448 97.6548 383.038 97.4048 383.544C97.1577 384.05 96.8111 384.443 96.3651 384.724C95.9219 385.006 95.4048 385.146 94.8139 385.146ZM94.8139 384.243C95.2628 384.243 95.6321 384.128 95.9219 383.898C96.2116 383.668 96.4261 383.365 96.5653 382.99C96.7045 382.615 96.7741 382.209 96.7741 381.771C96.7741 381.334 96.7045 380.926 96.5653 380.548C96.4261 380.171 96.2116 379.865 95.9219 379.632C95.6321 379.399 95.2628 379.283 94.8139 379.283C94.3651 379.283 93.9957 379.399 93.706 379.632C93.4162 379.865 93.2017 380.171 93.0625 380.548C92.9233 380.926 92.8537 381.334 92.8537 381.771C92.8537 382.209 92.9233 382.615 93.0625 382.99C93.2017 383.365 93.4162 383.668 93.706 383.898C93.9957 384.128 94.3651 384.243 94.8139 384.243ZM101.73 378.465V379.317H98.2013V378.465H101.73ZM99.2582 385.01V377.561C99.2582 377.186 99.3462 376.874 99.5224 376.624C99.6985 376.374 99.9272 376.186 100.208 376.061C100.49 375.936 100.787 375.874 101.099 375.874C101.346 375.874 101.548 375.894 101.704 375.933C101.86 375.973 101.977 376.01 102.054 376.044L101.764 376.913C101.713 376.896 101.642 376.875 101.551 376.849C101.463 376.824 101.346 376.811 101.201 376.811C100.869 376.811 100.629 376.895 100.481 377.063C100.336 377.23 100.264 377.476 100.264 377.8V385.01H99.2582ZM108.565 376.283V385.01H107.509V377.391H107.457L105.327 378.805V377.732L107.509 376.283H108.565ZM113.422 385.129C112.78 385.129 112.233 384.955 111.781 384.605C111.33 384.253 110.984 383.743 110.746 383.075C110.507 382.405 110.388 381.595 110.388 380.646C110.388 379.703 110.507 378.898 110.746 378.23C110.987 377.56 111.334 377.048 111.786 376.696C112.24 376.341 112.786 376.163 113.422 376.163C114.058 376.163 114.602 376.341 115.054 376.696C115.509 377.048 115.855 377.56 116.094 378.23C116.335 378.898 116.456 379.703 116.456 380.646C116.456 381.595 116.337 382.405 116.098 383.075C115.859 383.743 115.514 384.253 115.062 384.605C114.611 384.955 114.064 385.129 113.422 385.129ZM113.422 384.192C114.058 384.192 114.553 383.885 114.905 383.271C115.257 382.658 115.433 381.783 115.433 380.646C115.433 379.891 115.352 379.247 115.19 378.716C115.031 378.185 114.801 377.78 114.5 377.501C114.202 377.223 113.842 377.084 113.422 377.084C112.791 377.084 112.298 377.395 111.943 378.017C111.588 378.636 111.411 379.513 111.411 380.646C111.411 381.402 111.49 382.044 111.649 382.573C111.808 383.101 112.037 383.503 112.335 383.778C112.636 384.054 112.999 384.192 113.422 384.192ZM120.422 385.129C119.78 385.129 119.233 384.955 118.781 384.605C118.33 384.253 117.984 383.743 117.746 383.075C117.507 382.405 117.388 381.595 117.388 380.646C117.388 379.703 117.507 378.898 117.746 378.23C117.987 377.56 118.334 377.048 118.786 376.696C119.24 376.341 119.786 376.163 120.422 376.163C121.058 376.163 121.602 376.341 122.054 376.696C122.509 377.048 122.855 377.56 123.094 378.23C123.335 378.898 123.456 379.703 123.456 380.646C123.456 381.595 123.337 382.405 123.098 383.075C122.859 383.743 122.514 384.253 122.062 384.605C121.611 384.955 121.064 385.129 120.422 385.129ZM120.422 384.192C121.058 384.192 121.553 383.885 121.905 383.271C122.257 382.658 122.433 381.783 122.433 380.646C122.433 379.891 122.352 379.247 122.19 378.716C122.031 378.185 121.801 377.78 121.5 377.501C121.202 377.223 120.842 377.084 120.422 377.084C119.791 377.084 119.298 377.395 118.943 378.017C118.588 378.636 118.411 379.513 118.411 380.646C118.411 381.402 118.49 382.044 118.649 382.573C118.808 383.101 119.037 383.503 119.335 383.778C119.636 384.054 119.999 384.192 120.422 384.192ZM133.57 379.01C133.476 378.723 133.352 378.466 133.199 378.239C133.048 378.009 132.868 377.813 132.658 377.651C132.45 377.489 132.214 377.365 131.95 377.28C131.686 377.195 131.396 377.152 131.081 377.152C130.564 377.152 130.094 377.286 129.67 377.553C129.247 377.82 128.911 378.213 128.661 378.733C128.411 379.253 128.286 379.891 128.286 380.646C128.286 381.402 128.412 382.04 128.665 382.56C128.918 383.08 129.26 383.473 129.692 383.74C130.124 384.007 130.609 384.141 131.149 384.141C131.649 384.141 132.089 384.034 132.47 383.821C132.854 383.605 133.152 383.301 133.365 382.909C133.581 382.514 133.689 382.05 133.689 381.516L134.013 381.584H131.388V380.646H134.712V381.584C134.712 382.303 134.558 382.928 134.251 383.459C133.947 383.99 133.527 384.402 132.99 384.695C132.456 384.984 131.842 385.129 131.149 385.129C130.376 385.129 129.697 384.948 129.112 384.584C128.53 384.22 128.075 383.703 127.749 383.033C127.425 382.362 127.263 381.567 127.263 380.646C127.263 379.956 127.355 379.335 127.54 378.784C127.727 378.23 127.991 377.759 128.332 377.369C128.673 376.98 129.077 376.682 129.543 376.474C130.009 376.267 130.521 376.163 131.081 376.163C131.541 376.163 131.97 376.233 132.368 376.372C132.768 376.509 133.125 376.703 133.438 376.956C133.753 377.206 134.016 377.506 134.226 377.855C134.436 378.202 134.581 378.587 134.661 379.01H133.57ZM136.022 385.01V376.283H139.073C139.681 376.283 140.182 376.388 140.577 376.598C140.972 376.805 141.266 377.085 141.459 377.438C141.652 377.787 141.749 378.175 141.749 378.601C141.749 378.976 141.682 379.286 141.549 379.53C141.418 379.774 141.245 379.967 141.029 380.109C140.816 380.251 140.584 380.357 140.334 380.425V380.51C140.601 380.527 140.87 380.621 141.14 380.791C141.409 380.962 141.635 381.206 141.817 381.524C141.999 381.842 142.09 382.232 142.09 382.692C142.09 383.129 141.99 383.523 141.792 383.872C141.593 384.222 141.279 384.499 140.85 384.703C140.421 384.908 139.863 385.01 139.175 385.01H136.022ZM137.078 384.073H139.175C139.865 384.073 140.355 383.939 140.645 383.672C140.938 383.402 141.084 383.075 141.084 382.692C141.084 382.396 141.009 382.124 140.858 381.874C140.708 381.621 140.493 381.419 140.215 381.269C139.936 381.115 139.607 381.038 139.226 381.038H137.078V384.073ZM137.078 380.118H139.039C139.357 380.118 139.644 380.055 139.9 379.93C140.158 379.805 140.363 379.629 140.513 379.402C140.667 379.175 140.743 378.908 140.743 378.601C140.743 378.217 140.61 377.892 140.343 377.625C140.076 377.355 139.652 377.22 139.073 377.22H137.078V380.118ZM150.19 382.334V378.465H151.196V385.01H150.19V383.902H150.122C149.968 384.234 149.73 384.517 149.406 384.75C149.082 384.98 148.673 385.095 148.179 385.095C147.77 385.095 147.406 385.006 147.088 384.827C146.77 384.645 146.52 384.372 146.338 384.009C146.156 383.642 146.065 383.18 146.065 382.624V378.465H147.071V382.555C147.071 383.033 147.204 383.413 147.471 383.698C147.741 383.982 148.085 384.124 148.502 384.124C148.752 384.124 149.007 384.06 149.265 383.932C149.527 383.804 149.745 383.608 149.922 383.344C150.1 383.08 150.19 382.743 150.19 382.334ZM157.174 379.93L156.271 380.186C156.214 380.036 156.13 379.889 156.019 379.747C155.911 379.602 155.763 379.483 155.576 379.389C155.388 379.296 155.148 379.249 154.856 379.249C154.455 379.249 154.121 379.341 153.854 379.526C153.59 379.707 153.458 379.939 153.458 380.22C153.458 380.47 153.549 380.668 153.731 380.813C153.913 380.957 154.197 381.078 154.583 381.175L155.555 381.413C156.14 381.555 156.576 381.773 156.863 382.065C157.15 382.355 157.293 382.729 157.293 383.186C157.293 383.561 157.185 383.896 156.969 384.192C156.756 384.487 156.458 384.72 156.075 384.891C155.691 385.061 155.245 385.146 154.737 385.146C154.069 385.146 153.516 385.001 153.079 384.712C152.641 384.422 152.364 383.999 152.248 383.442L153.202 383.203C153.293 383.555 153.465 383.82 153.718 383.996C153.974 384.172 154.308 384.26 154.719 384.26C155.188 384.26 155.56 384.161 155.836 383.962C156.114 383.76 156.254 383.519 156.254 383.237C156.254 383.01 156.174 382.82 156.015 382.666C155.856 382.51 155.612 382.394 155.282 382.317L154.191 382.061C153.592 381.919 153.151 381.699 152.87 381.401C152.592 381.099 152.452 380.723 152.452 380.271C152.452 379.902 152.556 379.575 152.763 379.291C152.974 379.007 153.259 378.784 153.62 378.622C153.984 378.46 154.396 378.379 154.856 378.379C155.504 378.379 156.012 378.521 156.381 378.805C156.754 379.09 157.018 379.465 157.174 379.93ZM161.051 385.146C160.421 385.146 159.877 385.007 159.419 384.729C158.965 384.448 158.614 384.055 158.367 383.553C158.123 383.047 158 382.459 158 381.788C158 381.118 158.123 380.527 158.367 380.016C158.614 379.501 158.958 379.101 159.398 378.814C159.841 378.524 160.358 378.379 160.949 378.379C161.29 378.379 161.627 378.436 161.959 378.55C162.292 378.663 162.594 378.848 162.867 379.104C163.14 379.357 163.357 379.692 163.519 380.109C163.681 380.527 163.762 381.041 163.762 381.652V382.078H158.716V381.209H162.739C162.739 380.84 162.665 380.51 162.517 380.22C162.373 379.93 162.165 379.702 161.895 379.534C161.628 379.367 161.313 379.283 160.949 379.283C160.549 379.283 160.202 379.382 159.909 379.581C159.62 379.777 159.397 380.033 159.24 380.348C159.084 380.663 159.006 381.001 159.006 381.362V381.942C159.006 382.436 159.091 382.855 159.262 383.199C159.435 383.54 159.675 383.8 159.982 383.979C160.289 384.155 160.645 384.243 161.051 384.243C161.316 384.243 161.554 384.206 161.767 384.132C161.983 384.055 162.169 383.942 162.326 383.791C162.482 383.638 162.603 383.448 162.688 383.22L163.659 383.493C163.557 383.823 163.385 384.112 163.144 384.362C162.902 384.609 162.604 384.803 162.249 384.942C161.894 385.078 161.495 385.146 161.051 385.146ZM167.263 385.146C166.718 385.146 166.236 385.009 165.819 384.733C165.401 384.455 165.074 384.063 164.838 383.557C164.603 383.048 164.485 382.448 164.485 381.754C164.485 381.067 164.603 380.47 164.838 379.965C165.074 379.459 165.402 379.068 165.823 378.793C166.243 378.517 166.729 378.379 167.28 378.379C167.706 378.379 168.043 378.45 168.29 378.592C168.54 378.732 168.73 378.891 168.861 379.07C168.995 379.246 169.098 379.391 169.172 379.504H169.257V376.283H170.263V385.01H169.292V384.004H169.172C169.098 384.124 168.993 384.274 168.857 384.456C168.721 384.635 168.526 384.796 168.273 384.938C168.02 385.077 167.684 385.146 167.263 385.146ZM167.4 384.243C167.803 384.243 168.144 384.138 168.422 383.928C168.701 383.715 168.912 383.421 169.057 383.046C169.202 382.668 169.275 382.232 169.275 381.737C169.275 381.249 169.203 380.821 169.061 380.455C168.919 380.085 168.709 379.798 168.431 379.594C168.152 379.386 167.809 379.283 167.4 379.283C166.973 379.283 166.618 379.392 166.334 379.611C166.053 379.827 165.841 380.121 165.699 380.493C165.56 380.862 165.49 381.277 165.49 381.737C165.49 382.203 165.561 382.626 165.703 383.007C165.848 383.385 166.061 383.686 166.343 383.911C166.627 384.132 166.979 384.243 167.4 384.243Z" fill="white" fill-opacity="0.6"/>
<rect x="36" y="357.01" width="288" height="11" rx="5.5" fill="white" fill-opacity="0.17"/>
<rect x="36" y="357.01" width="171" height="11" rx="5.5" fill="url(#paint2_linear_6001_13117)"/>
<path d="M27.3727 112.667C26.813 112.667 26.3186 112.568 25.8894 112.369C25.4628 112.168 25.13 111.893 24.891 111.542C24.6519 111.189 24.5337 110.787 24.5364 110.336C24.5337 109.983 24.603 109.657 24.7443 109.358C24.8855 109.056 25.0784 108.805 25.3229 108.604C25.5701 108.4 25.8459 108.271 26.1502 108.217V108.168C25.7508 108.065 25.433 107.841 25.1966 107.496C24.9603 107.148 24.8434 106.753 24.8462 106.31C24.8434 105.886 24.9507 105.507 25.1681 105.173C25.3854 104.839 25.6842 104.575 26.0646 104.382C26.4476 104.189 26.8837 104.093 27.3727 104.093C27.8562 104.093 28.2882 104.189 28.6685 104.382C29.0488 104.575 29.3477 104.839 29.565 105.173C29.7851 105.507 29.8964 105.886 29.8992 106.31C29.8964 106.753 29.7756 107.148 29.5365 107.496C29.3001 107.841 28.9864 108.065 28.5952 108.168V108.217C28.8967 108.271 29.1684 108.4 29.4102 108.604C29.6519 108.805 29.8448 109.056 29.9888 109.358C30.1328 109.657 30.2061 109.983 30.2089 110.336C30.2061 110.787 30.0839 111.189 29.8421 111.542C29.603 111.893 29.2702 112.168 28.8437 112.369C28.4199 112.568 27.9296 112.667 27.3727 112.667ZM27.3727 111.77C27.7503 111.77 28.0763 111.709 28.3507 111.587C28.625 111.465 28.8369 111.292 28.9864 111.069C29.1358 110.847 29.2118 110.586 29.2146 110.287C29.2118 109.972 29.1303 109.693 28.9701 109.452C28.8098 109.21 28.5911 109.02 28.314 108.881C28.0396 108.743 27.7258 108.673 27.3727 108.673C27.0168 108.673 26.6989 108.743 26.4191 108.881C26.142 109.02 25.9233 109.21 25.763 109.452C25.6055 109.693 25.528 109.972 25.5308 110.287C25.528 110.586 25.6 110.847 25.7467 111.069C25.8961 111.292 26.1094 111.465 26.3865 111.587C26.6636 111.709 26.9923 111.77 27.3727 111.77ZM27.3727 107.809C27.6715 107.809 27.9364 107.75 28.1673 107.63C28.4009 107.511 28.5843 107.344 28.7174 107.129C28.8505 106.914 28.9184 106.663 28.9212 106.375C28.9184 106.092 28.8519 105.847 28.7215 105.637C28.5911 105.426 28.4104 105.263 28.1795 105.148C27.9486 105.032 27.6796 104.973 27.3727 104.973C27.0602 104.973 26.7872 105.032 26.5536 105.148C26.3199 105.263 26.1393 105.426 26.0116 105.637C25.8839 105.847 25.8214 106.092 25.8242 106.375C25.8214 106.663 25.8853 106.914 26.0157 107.129C26.1488 107.344 26.3322 107.511 26.5658 107.63C26.7994 107.75 27.0684 107.809 27.3727 107.809ZM34.4927 112.667C33.8787 112.667 33.3558 112.5 32.9238 112.166C32.4919 111.829 32.1618 111.341 31.9336 110.703C31.7054 110.062 31.5913 109.287 31.5913 108.38C31.5913 107.478 31.7054 106.708 31.9336 106.069C32.1645 105.428 32.496 104.939 32.9279 104.602C33.3626 104.263 33.8842 104.093 34.4927 104.093C35.1012 104.093 35.6215 104.263 36.0534 104.602C36.4881 104.939 36.8195 105.428 37.0477 106.069C37.2787 106.708 37.3941 107.478 37.3941 108.38C37.3941 109.287 37.28 110.062 37.0518 110.703C36.8236 111.341 36.4935 111.829 36.0616 112.166C35.6296 112.5 35.1067 112.667 34.4927 112.667ZM34.4927 111.77C35.1012 111.77 35.5739 111.477 35.9108 110.89C36.2477 110.303 36.4161 109.467 36.4161 108.38C36.4161 107.657 36.3387 107.042 36.1838 106.534C36.0317 106.026 35.8117 105.639 35.5237 105.373C35.2384 105.106 34.8948 104.973 34.4927 104.973C33.8896 104.973 33.4183 105.271 33.0787 105.866C32.7391 106.458 32.5693 107.296 32.5693 108.38C32.5693 109.103 32.6454 109.717 32.7975 110.222C32.9496 110.727 33.1683 111.112 33.4536 111.375C33.7416 111.639 34.0879 111.77 34.4927 111.77ZM41.6647 112.667C41.0508 112.667 40.5278 112.5 40.0958 112.166C39.6639 111.829 39.3338 111.341 39.1056 110.703C38.8774 110.062 38.7633 109.287 38.7633 108.38C38.7633 107.478 38.8774 106.708 39.1056 106.069C39.3365 105.428 39.668 104.939 40.0999 104.602C40.5346 104.263 41.0562 104.093 41.6647 104.093C42.2733 104.093 42.7935 104.263 43.2254 104.602C43.6601 104.939 43.9916 105.428 44.2198 106.069C44.4507 106.708 44.5661 107.478 44.5661 108.38C44.5661 109.287 44.452 110.062 44.2238 110.703C43.9956 111.341 43.6656 111.829 43.2336 112.166C42.8016 112.5 42.2787 112.667 41.6647 112.667ZM41.6647 111.77C42.2733 111.77 42.746 111.477 43.0828 110.89C43.4197 110.303 43.5881 109.467 43.5881 108.38C43.5881 107.657 43.5107 107.042 43.3559 106.534C43.2037 106.026 42.9837 105.639 42.6957 105.373C42.4104 105.106 42.0668 104.973 41.6647 104.973C41.0616 104.973 40.5903 105.271 40.2507 105.866C39.9111 106.458 39.7413 107.296 39.7413 108.38C39.7413 109.103 39.8174 109.717 39.9695 110.222C40.1217 110.727 40.3403 111.112 40.6256 111.375C40.9136 111.639 41.2599 111.77 41.6647 111.77Z" fill="white"/>
<line x1="53.379" y1="108.553" x2="334.522" y2="108.553" stroke="#383838" stroke-width="0.956268" stroke-linecap="round"/>
<path d="M27.3808 151.3C27.0385 151.295 26.6962 151.23 26.3539 151.105C26.0116 150.98 25.6992 150.769 25.4167 150.473C25.1341 150.174 24.9073 149.771 24.7361 149.263C24.565 148.752 24.4794 148.111 24.4794 147.339C24.4794 146.6 24.5487 145.946 24.6872 145.375C24.8258 144.802 25.0268 144.32 25.2903 143.928C25.5538 143.535 25.8717 143.236 26.2439 143.032C26.6188 142.828 27.0412 142.726 27.5112 142.726C27.9785 142.726 28.3941 142.82 28.7582 143.007C29.1249 143.192 29.4237 143.45 29.6547 143.782C29.8856 144.113 30.035 144.495 30.1029 144.927H29.1086C29.0162 144.552 28.8369 144.241 28.5707 143.994C28.3045 143.746 27.9513 143.623 27.5112 143.623C26.8646 143.623 26.3553 143.904 25.9831 144.466C25.6136 145.029 25.4275 145.818 25.4248 146.834H25.49C25.6421 146.603 25.8228 146.406 26.032 146.243C26.2439 146.077 26.4775 145.95 26.7329 145.86C26.9882 145.77 27.2586 145.726 27.5438 145.726C28.0219 145.726 28.4593 145.845 28.856 146.084C29.2526 146.32 29.5704 146.648 29.8095 147.066C30.0486 147.482 30.1681 147.959 30.1681 148.497C30.1681 149.013 30.0527 149.485 29.8217 149.915C29.5908 150.341 29.2662 150.681 28.8478 150.933C28.4322 151.183 27.9432 151.306 27.3808 151.3ZM27.3808 150.404C27.7231 150.404 28.0301 150.318 28.3018 150.147C28.5761 149.976 28.7921 149.746 28.9497 149.458C29.11 149.17 29.1901 148.85 29.1901 148.497C29.1901 148.152 29.1127 147.838 28.9578 147.555C28.8057 147.27 28.5952 147.043 28.3262 146.875C28.06 146.706 27.7557 146.622 27.4134 146.622C27.1553 146.622 26.9149 146.674 26.6921 146.777C26.4694 146.877 26.2738 147.016 26.1053 147.193C25.9396 147.369 25.8092 147.572 25.7141 147.8C25.619 148.025 25.5715 148.263 25.5715 148.513C25.5715 148.844 25.6489 149.154 25.8038 149.442C25.9613 149.73 26.176 149.962 26.4476 150.139C26.722 150.315 27.0331 150.404 27.3808 150.404ZM34.4927 151.3C33.8787 151.3 33.3558 151.133 32.9238 150.799C32.4919 150.462 32.1618 149.974 31.9336 149.336C31.7054 148.695 31.5913 147.921 31.5913 147.013C31.5913 146.111 31.7054 145.341 31.9336 144.703C32.1645 144.062 32.496 143.573 32.9279 143.236C33.3626 142.896 33.8842 142.726 34.4927 142.726C35.1012 142.726 35.6215 142.896 36.0534 143.236C36.4881 143.573 36.8195 144.062 37.0477 144.703C37.2787 145.341 37.3941 146.111 37.3941 147.013C37.3941 147.921 37.28 148.695 37.0518 149.336C36.8236 149.974 36.4935 150.462 36.0616 150.799C35.6296 151.133 35.1067 151.3 34.4927 151.3ZM34.4927 150.404C35.1012 150.404 35.5739 150.11 35.9108 149.523C36.2477 148.937 36.4161 148.1 36.4161 147.013C36.4161 146.291 36.3387 145.675 36.1838 145.167C36.0317 144.659 35.8117 144.272 35.5237 144.006C35.2384 143.74 34.8948 143.607 34.4927 143.607C33.8896 143.607 33.4183 143.904 33.0787 144.499C32.7391 145.091 32.5693 145.929 32.5693 147.013C32.5693 147.736 32.6454 148.35 32.7975 148.855C32.9496 149.36 33.1683 149.745 33.4536 150.008C33.7416 150.272 34.0879 150.404 34.4927 150.404ZM41.6647 151.3C41.0508 151.3 40.5278 151.133 40.0958 150.799C39.6639 150.462 39.3338 149.974 39.1056 149.336C38.8774 148.695 38.7633 147.921 38.7633 147.013C38.7633 146.111 38.8774 145.341 39.1056 144.703C39.3365 144.062 39.668 143.573 40.0999 143.236C40.5346 142.896 41.0562 142.726 41.6647 142.726C42.2733 142.726 42.7935 142.896 43.2254 143.236C43.6601 143.573 43.9916 144.062 44.2198 144.703C44.4507 145.341 44.5661 146.111 44.5661 147.013C44.5661 147.921 44.452 148.695 44.2238 149.336C43.9956 149.974 43.6656 150.462 43.2336 150.799C42.8016 151.133 42.2787 151.3 41.6647 151.3ZM41.6647 150.404C42.2733 150.404 42.746 150.11 43.0828 149.523C43.4197 148.937 43.5881 148.1 43.5881 147.013C43.5881 146.291 43.5107 145.675 43.3559 145.167C43.2037 144.659 42.9837 144.272 42.6957 144.006C42.4104 143.74 42.0668 143.607 41.6647 143.607C41.0616 143.607 40.5903 143.904 40.2507 144.499C39.9111 145.091 39.7413 145.929 39.7413 147.013C39.7413 147.736 39.8174 148.35 39.9695 148.855C40.1217 149.36 40.3403 149.745 40.6256 150.008C40.9136 150.272 41.2599 150.404 41.6647 150.404Z" fill="white"/>
<line x1="53.379" y1="147.186" x2="334.522" y2="147.186" stroke="#383838" stroke-width="0.956268" stroke-linecap="round"/>
<path d="M24.2125 188.108V187.276L27.88 181.473H28.4831V182.761H28.0756L25.3046 187.146V187.211H30.2435V188.108H24.2125ZM28.1408 189.819V187.855V187.468V181.473H29.1025V189.819H28.1408ZM34.4927 189.933C33.8787 189.933 33.3558 189.766 32.9238 189.432C32.4919 189.095 32.1618 188.607 31.9336 187.969C31.7054 187.328 31.5913 186.554 31.5913 185.646C31.5913 184.744 31.7054 183.974 31.9336 183.336C32.1645 182.695 32.496 182.206 32.9279 181.869C33.3626 181.529 33.8842 181.359 34.4927 181.359C35.1012 181.359 35.6215 181.529 36.0534 181.869C36.4881 182.206 36.8195 182.695 37.0477 183.336C37.2787 183.974 37.3941 184.744 37.3941 185.646C37.3941 186.554 37.28 187.328 37.0518 187.969C36.8236 188.607 36.4935 189.095 36.0616 189.432C35.6296 189.766 35.1067 189.933 34.4927 189.933ZM34.4927 189.037C35.1012 189.037 35.5739 188.743 35.9108 188.156C36.2477 187.57 36.4161 186.733 36.4161 185.646C36.4161 184.924 36.3387 184.308 36.1838 183.8C36.0317 183.292 35.8117 182.905 35.5237 182.639C35.2384 182.373 34.8948 182.24 34.4927 182.24C33.8896 182.24 33.4183 182.537 33.0787 183.132C32.7391 183.724 32.5693 184.562 32.5693 185.646C32.5693 186.369 32.6454 186.983 32.7975 187.488C32.9496 187.993 33.1683 188.378 33.4536 188.641C33.7416 188.905 34.0879 189.037 34.4927 189.037ZM41.6647 189.933C41.0508 189.933 40.5278 189.766 40.0958 189.432C39.6639 189.095 39.3338 188.607 39.1056 187.969C38.8774 187.328 38.7633 186.554 38.7633 185.646C38.7633 184.744 38.8774 183.974 39.1056 183.336C39.3365 182.695 39.668 182.206 40.0999 181.869C40.5346 181.529 41.0562 181.359 41.6647 181.359C42.2733 181.359 42.7935 181.529 43.2254 181.869C43.6601 182.206 43.9916 182.695 44.2198 183.336C44.4507 183.974 44.5661 184.744 44.5661 185.646C44.5661 186.554 44.452 187.328 44.2238 187.969C43.9956 188.607 43.6656 189.095 43.2336 189.432C42.8016 189.766 42.2787 189.933 41.6647 189.933ZM41.6647 189.037C42.2733 189.037 42.746 188.743 43.0828 188.156C43.4197 187.57 43.5881 186.733 43.5881 185.646C43.5881 184.924 43.5107 184.308 43.3559 183.8C43.2037 183.292 42.9837 182.905 42.6957 182.639C42.4104 182.373 42.0668 182.24 41.6647 182.24C41.0616 182.24 40.5903 182.537 40.2507 183.132C39.9111 183.724 39.7413 184.562 39.7413 185.646C39.7413 186.369 39.8174 186.983 39.9695 187.488C40.1217 187.993 40.3403 188.378 40.6256 188.641C40.9136 188.905 41.2599 189.037 41.6647 189.037Z" fill="white"/>
<line x1="53.379" y1="185.819" x2="334.522" y2="185.819" stroke="#383838" stroke-width="0.956268" stroke-linecap="round"/>
<path d="M24.8227 228.453V227.719L27.5774 224.704C27.9007 224.35 28.1669 224.043 28.3761 223.783C28.5853 223.519 28.7402 223.272 28.8407 223.041C28.9439 222.807 28.9955 222.563 28.9955 222.308C28.9955 222.014 28.9249 221.76 28.7836 221.546C28.6451 221.331 28.4549 221.165 28.2131 221.048C27.9713 220.932 27.6997 220.873 27.3981 220.873C27.0776 220.873 26.7977 220.94 26.5587 221.073C26.3223 221.203 26.1389 221.387 26.0085 221.623C25.8809 221.859 25.817 222.136 25.817 222.454H24.8553C24.8553 221.965 24.9681 221.536 25.1935 221.167C25.419 220.797 25.726 220.509 26.1145 220.303C26.5057 220.096 26.9444 219.993 27.4307 219.993C27.9197 219.993 28.353 220.096 28.7307 220.303C29.1083 220.509 29.4044 220.788 29.619 221.138C29.8336 221.488 29.9409 221.878 29.9409 222.308C29.9409 222.615 29.8852 222.915 29.7739 223.208C29.6652 223.499 29.475 223.823 29.2034 224.182C28.9344 224.538 28.5609 224.973 28.0827 225.486L26.2082 227.491V227.556H30.0876V228.453H24.8227ZM34.4927 228.567C33.8787 228.567 33.3558 228.4 32.9238 228.066C32.4919 227.729 32.1618 227.241 31.9336 226.603C31.7054 225.961 31.5913 225.187 31.5913 224.28C31.5913 223.378 31.7054 222.608 31.9336 221.969C32.1645 221.328 32.496 220.839 32.9279 220.502C33.3626 220.163 33.8842 219.993 34.4927 219.993C35.1012 219.993 35.6215 220.163 36.0534 220.502C36.4881 220.839 36.8195 221.328 37.0477 221.969C37.2787 222.608 37.3941 223.378 37.3941 224.28C37.3941 225.187 37.28 225.961 37.0518 226.603C36.8236 227.241 36.4935 227.729 36.0616 228.066C35.6296 228.4 35.1067 228.567 34.4927 228.567ZM34.4927 227.67C35.1012 227.67 35.5739 227.377 35.9108 226.79C36.2477 226.203 36.4161 225.366 36.4161 224.28C36.4161 223.557 36.3387 222.942 36.1838 222.434C36.0317 221.926 35.8117 221.539 35.5237 221.272C35.2384 221.006 34.8948 220.873 34.4927 220.873C33.8896 220.873 33.4183 221.171 33.0787 221.766C32.7391 222.358 32.5693 223.196 32.5693 224.28C32.5693 225.002 32.6454 225.616 32.7975 226.122C32.9496 226.627 33.1683 227.011 33.4536 227.275C33.7416 227.538 34.0879 227.67 34.4927 227.67ZM41.6647 228.567C41.0508 228.567 40.5278 228.4 40.0958 228.066C39.6639 227.729 39.3338 227.241 39.1056 226.603C38.8774 225.961 38.7633 225.187 38.7633 224.28C38.7633 223.378 38.8774 222.608 39.1056 221.969C39.3365 221.328 39.668 220.839 40.0999 220.502C40.5346 220.163 41.0562 219.993 41.6647 219.993C42.2733 219.993 42.7935 220.163 43.2254 220.502C43.6601 220.839 43.9916 221.328 44.2198 221.969C44.4507 222.608 44.5661 223.378 44.5661 224.28C44.5661 225.187 44.452 225.961 44.2238 226.603C43.9956 227.241 43.6656 227.729 43.2336 228.066C42.8016 228.4 42.2787 228.567 41.6647 228.567ZM41.6647 227.67C42.2733 227.67 42.746 227.377 43.0828 226.79C43.4197 226.203 43.5881 225.366 43.5881 224.28C43.5881 223.557 43.5107 222.942 43.3559 222.434C43.2037 221.926 42.9837 221.539 42.6957 221.272C42.4104 221.006 42.0668 220.873 41.6647 220.873C41.0616 220.873 40.5903 221.171 40.2507 221.766C39.9111 222.358 39.7413 223.196 39.7413 224.28C39.7413 225.002 39.8174 225.616 39.9695 226.122C40.1217 226.627 40.3403 227.011 40.6256 227.275C40.9136 227.538 41.2599 227.67 41.6647 227.67Z" fill="white"/>
<line x1="53.379" y1="224.453" x2="334.522" y2="224.453" stroke="#383838" stroke-width="0.956268" stroke-linecap="round"/>
<path d="M41.6647 267.2C41.0508 267.2 40.5278 267.033 40.0958 266.699C39.6639 266.362 39.3338 265.874 39.1056 265.236C38.8774 264.595 38.7633 263.82 38.7633 262.913C38.7633 262.011 38.8774 261.241 39.1056 260.602C39.3365 259.961 39.668 259.472 40.0999 259.135C40.5346 258.796 41.0562 258.626 41.6647 258.626C42.2733 258.626 42.7935 258.796 43.2254 259.135C43.6601 259.472 43.9916 259.961 44.2198 260.602C44.4507 261.241 44.5661 262.011 44.5661 262.913C44.5661 263.82 44.452 264.595 44.2238 265.236C43.9956 265.874 43.6656 266.362 43.2336 266.699C42.8016 267.033 42.2787 267.2 41.6647 267.2ZM41.6647 266.303C42.2733 266.303 42.746 266.01 43.0828 265.423C43.4197 264.836 43.5881 264 43.5881 262.913C43.5881 262.19 43.5107 261.575 43.3559 261.067C43.2037 260.559 42.9837 260.172 42.6957 259.906C42.4104 259.639 42.0668 259.506 41.6647 259.506C41.0616 259.506 40.5903 259.804 40.2507 260.399C39.9111 260.991 39.7413 261.829 39.7413 262.913C39.7413 263.636 39.8174 264.249 39.9695 264.755C40.1217 265.26 40.3403 265.644 40.6256 265.908C40.9136 266.172 41.2599 266.303 41.6647 266.303Z" fill="white"/>
<line x1="53.379" y1="263.086" x2="334.522" y2="263.086" stroke="#383838" stroke-width="0.956268" stroke-linecap="round"/>
<path d="M58 263L89.084 237.214C96.7528 230.853 107.683 230.265 115.99 235.768L119.048 237.795C130.362 245.29 145.695 239.538 149.288 226.451V226.451C152.707 213.997 166.882 208.029 178.179 214.288L186.749 219.037C190.849 221.308 195.519 222.5 200.206 222.5V222.5C211.015 222.5 221.038 216.375 225.841 206.692L236.66 184.878C242.781 172.538 259.114 169.674 269.068 179.196V179.196C277.09 186.869 289.772 186.728 297.622 178.878L321.5 155" stroke="url(#paint3_linear_6001_13117)" stroke-width="4" stroke-linecap="round"/>
<path d="M57.697 275.868H58.7076V281.834C58.7076 282.367 58.6098 282.819 58.4142 283.191C58.2186 283.563 57.9429 283.846 57.587 284.039C57.2311 284.232 56.8114 284.328 56.3278 284.328C55.8714 284.328 55.4653 284.245 55.1094 284.08C54.7535 283.911 54.4737 283.672 54.2699 283.362C54.0662 283.053 53.9643 282.685 53.9643 282.258H54.9586C54.9586 282.494 55.017 282.701 55.1339 282.878C55.2534 283.051 55.4164 283.187 55.6229 283.285C55.8293 283.383 56.0643 283.432 56.3278 283.432C56.6185 283.432 56.8657 283.371 57.0695 283.248C57.2732 283.126 57.4281 282.947 57.534 282.71C57.6427 282.471 57.697 282.179 57.697 281.834V275.868ZM62.4444 284.361C62.0478 284.361 61.6878 284.286 61.3645 284.137C61.0413 283.985 60.7845 283.766 60.5944 283.481C60.4042 283.193 60.3091 282.845 60.3091 282.437C60.3091 282.079 60.3797 281.788 60.521 281.565C60.6623 281.34 60.8511 281.163 61.0874 281.036C61.3238 280.908 61.5846 280.813 61.8698 280.75C62.1578 280.685 62.4471 280.634 62.7378 280.596C63.1181 280.547 63.4265 280.51 63.6628 280.485C63.9019 280.458 64.0758 280.413 64.1844 280.351C64.2958 280.289 64.3515 280.18 64.3515 280.025V279.992C64.3515 279.59 64.2415 279.278 64.0214 279.055C63.8041 278.832 63.474 278.721 63.0312 278.721C62.5721 278.721 62.2121 278.822 61.9513 279.023C61.6905 279.224 61.5072 279.438 61.4012 279.666L60.4884 279.34C60.6514 278.96 60.8687 278.664 61.1404 278.452C61.4148 278.237 61.7136 278.088 62.0369 278.004C62.3629 277.917 62.6835 277.873 62.9986 277.873C63.1996 277.873 63.4306 277.898 63.6914 277.947C63.9549 277.993 64.2089 278.089 64.4534 278.236C64.7006 278.383 64.9057 278.604 65.0687 278.9C65.2317 279.196 65.3132 279.593 65.3132 280.09V284.214H64.3515V283.367H64.3026C64.2374 283.502 64.1287 283.648 63.9766 283.803C63.8245 283.957 63.6221 284.089 63.3694 284.198C63.1168 284.306 62.8084 284.361 62.4444 284.361ZM62.5911 283.497C62.9714 283.497 63.292 283.422 63.5528 283.273C63.8163 283.123 64.0146 282.93 64.1478 282.694C64.2836 282.458 64.3515 282.209 64.3515 281.948V281.068C64.3108 281.117 64.2211 281.162 64.0826 281.203C63.9467 281.241 63.7892 281.275 63.6099 281.305C63.4333 281.332 63.2608 281.356 63.0923 281.378C62.9266 281.397 62.7921 281.413 62.6889 281.427C62.439 281.459 62.2053 281.512 61.988 281.586C61.7734 281.656 61.5995 281.764 61.4664 281.908C61.336 282.049 61.2708 282.242 61.2708 282.486C61.2708 282.82 61.3944 283.073 61.6416 283.244C61.8916 283.413 62.2081 283.497 62.5911 283.497ZM68.0302 280.449V284.214H67.0685V277.955H67.9976V278.933H68.0791C68.2258 278.615 68.4486 278.36 68.7474 278.167C69.0463 277.971 69.432 277.873 69.9047 277.873C70.3285 277.873 70.6994 277.96 71.0172 278.134C71.3351 278.305 71.5823 278.566 71.7589 278.917C71.9354 279.264 72.0237 279.704 72.0237 280.237V284.214H71.062V280.302C71.062 279.81 70.9343 279.427 70.679 279.153C70.4236 278.876 70.0732 278.737 69.6276 278.737C69.3206 278.737 69.0463 278.804 68.8045 278.937C68.5654 279.07 68.3766 279.264 68.2381 279.52C68.0995 279.775 68.0302 280.085 68.0302 280.449Z" fill="white"/>
<path d="M95.5418 275.868H96.748L99.5842 282.796H99.682L102.518 275.868H103.724V284.214H102.779V277.873H102.698L100.09 284.214H99.1767L96.5687 277.873H96.4872V284.214H95.5418V275.868ZM107.462 284.361C107.066 284.361 106.706 284.286 106.382 284.137C106.059 283.985 105.802 283.766 105.612 283.481C105.422 283.193 105.327 282.845 105.327 282.437C105.327 282.079 105.398 281.788 105.539 281.565C105.68 281.34 105.869 281.163 106.105 281.036C106.342 280.908 106.602 280.813 106.888 280.75C107.176 280.685 107.465 280.634 107.756 280.596C108.136 280.547 108.444 280.51 108.681 280.485C108.92 280.458 109.094 280.413 109.202 280.351C109.314 280.289 109.369 280.18 109.369 280.025V279.992C109.369 279.59 109.259 279.278 109.039 279.055C108.822 278.832 108.492 278.721 108.049 278.721C107.59 278.721 107.23 278.822 106.969 279.023C106.708 279.224 106.525 279.438 106.419 279.666L105.506 279.34C105.669 278.96 105.887 278.664 106.158 278.452C106.433 278.237 106.731 278.088 107.055 278.004C107.381 277.917 107.701 277.873 108.016 277.873C108.217 277.873 108.448 277.898 108.709 277.947C108.973 277.993 109.227 278.089 109.471 278.236C109.718 278.383 109.924 278.604 110.087 278.9C110.25 279.196 110.331 279.593 110.331 280.09V284.214H109.369V283.367H109.32C109.255 283.502 109.147 283.648 108.994 283.803C108.842 283.957 108.64 284.089 108.387 284.198C108.135 284.306 107.826 284.361 107.462 284.361ZM107.609 283.497C107.989 283.497 108.31 283.422 108.571 283.273C108.834 283.123 109.032 282.93 109.166 282.694C109.301 282.458 109.369 282.209 109.369 281.948V281.068C109.329 281.117 109.239 281.162 109.1 281.203C108.965 281.241 108.807 281.275 108.628 281.305C108.451 281.332 108.279 281.356 108.11 281.378C107.944 281.397 107.81 281.413 107.707 281.427C107.457 281.459 107.223 281.512 107.006 281.586C106.791 281.656 106.617 281.764 106.484 281.908C106.354 282.049 106.289 282.242 106.289 282.486C106.289 282.82 106.412 283.073 106.659 283.244C106.909 283.413 107.226 283.497 107.609 283.497ZM112.086 284.214V277.955H113.015V278.9H113.081C113.195 278.591 113.401 278.339 113.7 278.146C113.999 277.954 114.336 277.857 114.711 277.857C114.781 277.857 114.87 277.858 114.976 277.861C115.081 277.864 115.162 277.868 115.216 277.873V278.851C115.183 278.843 115.109 278.831 114.992 278.815C114.878 278.796 114.757 278.786 114.629 278.786C114.325 278.786 114.053 278.85 113.814 278.978C113.578 279.103 113.39 279.277 113.252 279.499C113.116 279.719 113.048 279.971 113.048 280.253V284.214H112.086Z" fill="white"/>
<path d="M138.223 275.868H139.429L142.265 282.796H142.363L145.199 275.868H146.405V284.214H145.46V277.873H145.378L142.77 284.214H141.858L139.25 277.873H139.168V284.214H138.223V275.868ZM150.143 284.361C149.747 284.361 149.387 284.286 149.063 284.137C148.74 283.985 148.483 283.766 148.293 283.481C148.103 283.193 148.008 282.845 148.008 282.437C148.008 282.079 148.079 281.788 148.22 281.565C148.361 281.34 148.55 281.163 148.786 281.036C149.023 280.908 149.283 280.813 149.569 280.75C149.857 280.685 150.146 280.634 150.437 280.596C150.817 280.547 151.125 280.51 151.362 280.485C151.601 280.458 151.775 280.413 151.883 280.351C151.995 280.289 152.05 280.18 152.05 280.025V279.992C152.05 279.59 151.94 279.278 151.72 279.055C151.503 278.832 151.173 278.721 150.73 278.721C150.271 278.721 149.911 278.822 149.65 279.023C149.389 279.224 149.206 279.438 149.1 279.666L148.187 279.34C148.35 278.96 148.568 278.664 148.839 278.452C149.114 278.237 149.412 278.088 149.736 278.004C150.062 277.917 150.382 277.873 150.697 277.873C150.898 277.873 151.129 277.898 151.39 277.947C151.654 277.993 151.908 278.089 152.152 278.236C152.399 278.383 152.604 278.604 152.767 278.9C152.93 279.196 153.012 279.593 153.012 280.09V284.214H152.05V283.367H152.001C151.936 283.502 151.828 283.648 151.675 283.803C151.523 283.957 151.321 284.089 151.068 284.198C150.816 284.306 150.507 284.361 150.143 284.361ZM150.29 283.497C150.67 283.497 150.991 283.422 151.252 283.273C151.515 283.123 151.713 282.93 151.847 282.694C151.982 282.458 152.05 282.209 152.05 281.948V281.068C152.01 281.117 151.92 281.162 151.781 281.203C151.645 281.241 151.488 281.275 151.309 281.305C151.132 281.332 150.96 281.356 150.791 281.378C150.625 281.397 150.491 281.413 150.388 281.427C150.138 281.459 149.904 281.512 149.687 281.586C149.472 281.656 149.298 281.764 149.165 281.908C149.035 282.049 148.97 282.242 148.97 282.486C148.97 282.82 149.093 283.073 149.34 283.244C149.59 283.413 149.907 283.497 150.29 283.497ZM155.163 286.561C155 286.561 154.854 286.548 154.727 286.521C154.599 286.496 154.511 286.472 154.462 286.447L154.706 285.6C154.94 285.659 155.146 285.681 155.326 285.665C155.505 285.649 155.664 285.568 155.802 285.424C155.944 285.283 156.073 285.054 156.189 284.736L156.369 284.247L154.054 277.955H155.097L156.825 282.943H156.89L158.618 277.955H159.661L157.004 285.127C156.885 285.45 156.737 285.718 156.56 285.93C156.384 286.144 156.179 286.303 155.945 286.406C155.714 286.51 155.453 286.561 155.163 286.561Z" fill="white"/>
<path d="M186.209 275.868H187.22V281.834C187.22 282.367 187.122 282.819 186.926 283.191C186.731 283.563 186.455 283.846 186.099 284.039C185.743 284.232 185.324 284.328 184.84 284.328C184.384 284.328 183.977 284.245 183.622 284.08C183.266 283.911 182.986 283.672 182.782 283.362C182.578 283.053 182.477 282.685 182.477 282.258H183.471C183.471 282.494 183.529 282.701 183.646 282.878C183.766 283.051 183.929 283.187 184.135 283.285C184.342 283.383 184.577 283.432 184.84 283.432C185.131 283.432 185.378 283.371 185.582 283.248C185.785 283.126 185.94 282.947 186.046 282.71C186.155 282.471 186.209 282.179 186.209 281.834V275.868ZM193.059 281.655V277.955H194.021V284.214H193.059V283.155H192.994C192.847 283.472 192.619 283.743 192.31 283.966C192 284.186 191.609 284.296 191.136 284.296C190.745 284.296 190.397 284.21 190.093 284.039C189.788 283.865 189.549 283.604 189.376 283.256C189.202 282.906 189.115 282.465 189.115 281.932V277.955H190.076V281.867C190.076 282.323 190.204 282.687 190.459 282.959C190.718 283.231 191.046 283.367 191.446 283.367C191.685 283.367 191.928 283.305 192.175 283.183C192.425 283.061 192.634 282.873 192.803 282.621C192.974 282.368 193.059 282.046 193.059 281.655ZM196.744 275.868V284.214H195.782V275.868H196.744Z" fill="white"/>
<path d="M224.785 277.955C224.737 277.542 224.538 277.221 224.191 276.993C223.843 276.765 223.416 276.651 222.911 276.651C222.541 276.651 222.218 276.711 221.941 276.83C221.667 276.95 221.452 277.114 221.297 277.323C221.145 277.532 221.069 277.77 221.069 278.036C221.069 278.259 221.122 278.451 221.228 278.611C221.337 278.769 221.475 278.9 221.644 279.006C221.812 279.109 221.989 279.195 222.173 279.263C222.358 279.328 222.528 279.381 222.683 279.422L223.53 279.65C223.748 279.707 223.989 279.786 224.256 279.886C224.525 279.987 224.781 280.124 225.026 280.298C225.273 280.469 225.477 280.689 225.637 280.958C225.797 281.227 225.878 281.557 225.878 281.948C225.878 282.399 225.759 282.807 225.523 283.171C225.289 283.535 224.947 283.824 224.496 284.039C224.048 284.254 223.503 284.361 222.862 284.361C222.264 284.361 221.747 284.264 221.309 284.071C220.875 283.879 220.533 283.61 220.283 283.265C220.035 282.92 219.895 282.519 219.863 282.063H220.906C220.933 282.378 221.039 282.638 221.224 282.845C221.411 283.049 221.648 283.201 221.933 283.301C222.221 283.399 222.531 283.448 222.862 283.448C223.248 283.448 223.594 283.386 223.901 283.261C224.208 283.133 224.451 282.956 224.631 282.731C224.81 282.503 224.9 282.236 224.9 281.932C224.9 281.655 224.822 281.43 224.667 281.256C224.512 281.082 224.309 280.941 224.056 280.832C223.803 280.723 223.53 280.628 223.237 280.547L222.21 280.253C221.558 280.066 221.042 279.798 220.662 279.45C220.281 279.103 220.091 278.648 220.091 278.085C220.091 277.618 220.217 277.211 220.47 276.863C220.725 276.512 221.068 276.241 221.497 276.048C221.929 275.852 222.411 275.754 222.944 275.754C223.481 275.754 223.96 275.851 224.378 276.044C224.796 276.234 225.128 276.495 225.372 276.826C225.619 277.158 225.75 277.534 225.763 277.955H224.785ZM230.033 284.345C229.43 284.345 228.91 284.211 228.472 283.945C228.038 283.676 227.702 283.301 227.466 282.82C227.232 282.337 227.115 281.775 227.115 281.133C227.115 280.492 227.232 279.927 227.466 279.438C227.702 278.946 228.031 278.563 228.452 278.289C228.876 278.012 229.37 277.873 229.935 277.873C230.261 277.873 230.583 277.928 230.901 278.036C231.219 278.145 231.508 278.322 231.769 278.566C232.03 278.808 232.238 279.129 232.392 279.528C232.547 279.927 232.625 280.419 232.625 281.003V281.411H227.8V280.579H231.647C231.647 280.226 231.576 279.911 231.435 279.634C231.296 279.357 231.098 279.138 230.84 278.978C230.585 278.817 230.283 278.737 229.935 278.737C229.552 278.737 229.221 278.832 228.941 279.023C228.664 279.21 228.451 279.455 228.301 279.756C228.152 280.058 228.077 280.381 228.077 280.726V281.28C228.077 281.753 228.159 282.154 228.322 282.482C228.487 282.808 228.717 283.057 229.01 283.228C229.304 283.396 229.645 283.481 230.033 283.481C230.286 283.481 230.514 283.445 230.718 283.375C230.924 283.301 231.102 283.193 231.251 283.049C231.401 282.902 231.516 282.72 231.598 282.503L232.527 282.763C232.429 283.079 232.265 283.356 232.034 283.595C231.803 283.831 231.518 284.016 231.178 284.149C230.839 284.279 230.457 284.345 230.033 284.345ZM234.088 286.561V277.955H235.017V278.949H235.131C235.202 278.841 235.299 278.702 235.424 278.534C235.552 278.362 235.734 278.21 235.97 278.077C236.209 277.941 236.533 277.873 236.94 277.873C237.467 277.873 237.932 278.005 238.334 278.269C238.736 278.532 239.05 278.906 239.275 279.389C239.501 279.873 239.613 280.443 239.613 281.101C239.613 281.764 239.501 282.338 239.275 282.825C239.05 283.308 238.737 283.683 238.338 283.949C237.939 284.213 237.478 284.345 236.956 284.345C236.554 284.345 236.232 284.278 235.991 284.145C235.749 284.009 235.563 283.856 235.432 283.684C235.302 283.51 235.202 283.367 235.131 283.252H235.049V286.561H234.088ZM235.033 281.085C235.033 281.557 235.102 281.974 235.241 282.336C235.379 282.694 235.582 282.975 235.848 283.179C236.114 283.38 236.44 283.481 236.826 283.481C237.228 283.481 237.564 283.375 237.833 283.163C238.104 282.948 238.308 282.66 238.444 282.299C238.582 281.935 238.652 281.53 238.652 281.085C238.652 280.644 238.584 280.248 238.448 279.895C238.315 279.539 238.112 279.258 237.841 279.051C237.572 278.842 237.234 278.737 236.826 278.737C236.435 278.737 236.106 278.836 235.84 279.035C235.574 279.23 235.373 279.505 235.237 279.858C235.101 280.208 235.033 280.617 235.033 281.085Z" fill="white"/>
<path d="M269.753 275.868V284.214H268.775L264.227 277.662H264.146V284.214H263.135V275.868H264.113L268.677 282.437H268.759V275.868H269.753ZM274.188 284.345C273.622 284.345 273.127 284.21 272.7 283.941C272.276 283.672 271.945 283.296 271.706 282.812C271.47 282.329 271.351 281.764 271.351 281.117C271.351 280.465 271.47 279.896 271.706 279.41C271.945 278.923 272.276 278.546 272.7 278.277C273.127 278.008 273.622 277.873 274.188 277.873C274.753 277.873 275.247 278.008 275.671 278.277C276.097 278.546 276.429 278.923 276.665 279.41C276.904 279.896 277.024 280.465 277.024 281.117C277.024 281.764 276.904 282.329 276.665 282.812C276.429 283.296 276.097 283.672 275.671 283.941C275.247 284.21 274.753 284.345 274.188 284.345ZM274.188 283.481C274.617 283.481 274.97 283.371 275.247 283.151C275.524 282.93 275.729 282.641 275.862 282.283C275.995 281.924 276.062 281.535 276.062 281.117C276.062 280.699 275.995 280.309 275.862 279.948C275.729 279.586 275.524 279.294 275.247 279.071C274.97 278.849 274.617 278.737 274.188 278.737C273.758 278.737 273.405 278.849 273.128 279.071C272.851 279.294 272.646 279.586 272.513 279.948C272.38 280.309 272.313 280.699 272.313 281.117C272.313 281.535 272.38 281.924 272.513 282.283C272.646 282.641 272.851 282.93 273.128 283.151C273.405 283.371 273.758 283.481 274.188 283.481ZM283.386 277.955L281.071 284.214H280.093L277.779 277.955H278.822L280.55 282.943H280.615L282.343 277.955H283.386Z" fill="white"/>
<path d="M309.599 284.214H307.024V275.868H309.713C310.523 275.868 311.216 276.036 311.791 276.37C312.367 276.701 312.809 277.178 313.116 277.8C313.423 278.419 313.576 279.161 313.576 280.025C313.576 280.894 313.421 281.643 313.112 282.27C312.802 282.895 312.351 283.376 311.759 283.713C311.167 284.047 310.447 284.214 309.599 284.214ZM308.034 283.318H309.534C310.224 283.318 310.796 283.184 311.25 282.918C311.703 282.652 312.041 282.273 312.264 281.781C312.487 281.29 312.598 280.704 312.598 280.025C312.598 279.351 312.488 278.771 312.268 278.285C312.048 277.796 311.719 277.421 311.282 277.16C310.845 276.897 310.3 276.765 309.648 276.765H308.034V283.318ZM317.765 284.345C317.162 284.345 316.642 284.211 316.205 283.945C315.77 283.676 315.435 283.301 315.198 282.82C314.965 282.337 314.848 281.775 314.848 281.133C314.848 280.492 314.965 279.927 315.198 279.438C315.435 278.946 315.763 278.563 316.184 278.289C316.608 278.012 317.103 277.873 317.668 277.873C317.994 277.873 318.316 277.928 318.633 278.036C318.951 278.145 319.241 278.322 319.501 278.566C319.762 278.808 319.97 279.129 320.125 279.528C320.28 279.927 320.357 280.419 320.357 281.003V281.411H315.532V280.579H319.379C319.379 280.226 319.309 279.911 319.167 279.634C319.029 279.357 318.83 279.138 318.572 278.978C318.317 278.817 318.015 278.737 317.668 278.737C317.285 278.737 316.953 278.832 316.673 279.023C316.396 279.21 316.183 279.455 316.034 279.756C315.884 280.058 315.809 280.381 315.809 280.726V281.28C315.809 281.753 315.891 282.154 316.054 282.482C316.22 282.808 316.449 283.057 316.743 283.228C317.036 283.396 317.377 283.481 317.765 283.481C318.018 283.481 318.246 283.445 318.45 283.375C318.657 283.301 318.834 283.193 318.984 283.049C319.133 282.902 319.249 282.72 319.33 282.503L320.259 282.763C320.162 283.079 319.997 283.356 319.766 283.595C319.535 283.831 319.25 284.016 318.911 284.149C318.571 284.279 318.189 284.345 317.765 284.345ZM324.363 284.345C323.776 284.345 323.271 284.206 322.847 283.929C322.423 283.652 322.097 283.27 321.869 282.784C321.641 282.297 321.527 281.742 321.527 281.117C321.527 280.481 321.643 279.92 321.877 279.434C322.113 278.945 322.442 278.563 322.863 278.289C323.287 278.012 323.782 277.873 324.347 277.873C324.787 277.873 325.183 277.955 325.536 278.118C325.89 278.281 326.179 278.509 326.404 278.803C326.63 279.096 326.77 279.438 326.824 279.829H325.862C325.789 279.544 325.626 279.292 325.373 279.071C325.124 278.849 324.787 278.737 324.363 278.737C323.988 278.737 323.659 278.835 323.377 279.031C323.097 279.224 322.878 279.497 322.721 279.85C322.566 280.2 322.488 280.612 322.488 281.085C322.488 281.568 322.564 281.989 322.717 282.348C322.871 282.706 323.089 282.985 323.369 283.183C323.651 283.381 323.983 283.481 324.363 283.481C324.613 283.481 324.84 283.437 325.043 283.35C325.247 283.263 325.42 283.138 325.561 282.975C325.702 282.812 325.803 282.617 325.862 282.389H326.824C326.77 282.758 326.635 283.091 326.421 283.387C326.209 283.68 325.928 283.914 325.577 284.088C325.229 284.259 324.825 284.345 324.363 284.345Z" fill="white"/>
<path d="M35.2218 24.8842C35.1644 24.3748 34.9276 23.9801 34.5114 23.7003C34.0953 23.4169 33.5715 23.2752 32.9401 23.2752C32.488 23.2752 32.097 23.3469 31.7669 23.4904C31.4369 23.6303 31.1804 23.8241 30.9974 24.0716C30.818 24.3156 30.7283 24.5936 30.7283 24.9057C30.7283 25.1676 30.7893 25.3936 30.9113 25.5838C31.0369 25.7739 31.2001 25.9336 31.401 26.0627C31.6055 26.1883 31.8243 26.2941 32.0575 26.3802C32.2907 26.4627 32.5149 26.5309 32.7302 26.5847L33.8065 26.8645C34.158 26.9506 34.5186 27.0672 34.8881 27.2143C35.2576 27.3614 35.6002 27.5551 35.9159 27.7955C36.2317 28.0359 36.4864 28.3336 36.6801 28.6888C36.8774 29.044 36.9761 29.4691 36.9761 29.9642C36.9761 30.5884 36.8146 31.1427 36.4917 31.627C36.1725 32.1113 35.7079 32.4934 35.098 32.7732C34.4917 33.0531 33.758 33.193 32.897 33.193C32.0719 33.193 31.358 33.062 30.7552 32.8001C30.1525 32.5382 29.6808 32.1669 29.34 31.6862C28.9991 31.2019 28.8108 30.6279 28.7749 29.9642H30.4431C30.4754 30.3624 30.6046 30.6942 30.8306 30.9597C31.0602 31.2216 31.3526 31.4171 31.7077 31.5463C32.0665 31.6719 32.4593 31.7346 32.8863 31.7346C33.3562 31.7346 33.7742 31.6611 34.1401 31.514C34.5096 31.3633 34.8002 31.1552 35.0119 30.8898C35.2235 30.6207 35.3294 30.3068 35.3294 29.948C35.3294 29.6216 35.2361 29.3543 35.0496 29.1462C34.8666 28.9381 34.6173 28.7659 34.3015 28.6296C33.9894 28.4933 33.6361 28.3731 33.2414 28.2691L31.9391 27.9139C31.0566 27.6735 30.357 27.3201 29.8404 26.8538C29.3274 26.3874 29.0709 25.7703 29.0709 25.0026C29.0709 24.3676 29.2431 23.8133 29.5875 23.3397C29.9319 22.8662 30.3983 22.4985 30.9866 22.2366C31.575 21.9711 32.2387 21.8384 32.9777 21.8384C33.7239 21.8384 34.3823 21.9693 34.9527 22.2312C35.5267 22.4931 35.9787 22.8536 36.3088 23.3128C36.6388 23.7685 36.811 24.2922 36.8254 24.8842H35.2218ZM38.2213 36.1097V24.7443H39.7927V26.0842H39.9272C40.0205 25.912 40.155 25.7129 40.3308 25.4869C40.5066 25.2609 40.7506 25.0636 41.0627 24.895C41.3748 24.7228 41.7874 24.6366 42.3004 24.6366C42.9677 24.6366 43.5632 24.8053 44.087 25.1425C44.6108 25.4797 45.0216 25.9658 45.3193 26.6008C45.6207 27.2358 45.7714 28 45.7714 28.8933C45.7714 29.7866 45.6225 30.5525 45.3247 31.1911C45.0269 31.8261 44.618 32.3158 44.0978 32.6602C43.5776 33.001 42.9838 33.1714 42.3165 33.1714C41.8143 33.1714 41.4035 33.0871 41.0842 32.9185C40.7685 32.7499 40.521 32.5526 40.3416 32.3266C40.1622 32.1006 40.0241 31.8997 39.9272 31.7239H39.8304V36.1097H38.2213ZM39.7981 28.8771C39.7981 29.4583 39.8824 29.9678 40.051 30.4054C40.2196 30.8431 40.4636 31.1857 40.7829 31.4333C41.1021 31.6772 41.4932 31.7992 41.956 31.7992C42.4367 31.7992 42.8385 31.6719 43.1614 31.4171C43.4843 31.1588 43.7282 30.809 43.8933 30.3678C44.0619 29.9265 44.1462 29.4296 44.1462 28.8771C44.1462 28.3318 44.0637 27.8421 43.8986 27.408C43.7372 26.9739 43.4933 26.6313 43.1668 26.3802C42.8439 26.1291 42.4403 26.0035 41.956 26.0035C41.4896 26.0035 41.095 26.1237 40.7721 26.3641C40.4528 26.6044 40.2106 26.9399 40.0456 27.3704C39.8806 27.8009 39.7981 28.3031 39.7981 28.8771ZM50.5239 33.1768C49.7095 33.1768 49.0082 33.0028 48.4198 32.6548C47.835 32.3033 47.383 31.81 47.0637 31.175C46.748 30.5364 46.5902 29.7884 46.5902 28.931C46.5902 28.0843 46.748 27.3381 47.0637 26.6923C47.383 26.0466 47.8279 25.5425 48.3983 25.1802C48.9723 24.8178 49.6432 24.6366 50.4109 24.6366C50.8773 24.6366 51.3293 24.7138 51.767 24.868C52.2047 25.0223 52.5975 25.2645 52.9455 25.5945C53.2935 25.9246 53.568 26.3533 53.7689 26.8807C53.9698 27.4045 54.0702 28.0412 54.0702 28.791V29.3615H47.4996V28.156H52.4935C52.4935 27.7327 52.4074 27.3578 52.2352 27.0313C52.063 26.7013 51.8208 26.4412 51.5087 26.2511C51.2002 26.0609 50.8378 25.9658 50.4217 25.9658C49.9696 25.9658 49.575 26.0771 49.2378 26.2995C48.9041 26.5183 48.6458 26.8053 48.4629 27.1605C48.2835 27.5121 48.1938 27.8942 48.1938 28.3067V29.2485C48.1938 29.8009 48.2907 30.2709 48.4844 30.6584C48.6817 31.0458 48.9561 31.3418 49.3077 31.5463C49.6593 31.7472 50.0701 31.8476 50.5401 31.8476C50.845 31.8476 51.123 31.8046 51.3742 31.7185C51.6253 31.6288 51.8423 31.4961 52.0253 31.3203C52.2083 31.1445 52.3482 30.9274 52.445 30.6691L53.968 30.9436C53.846 31.392 53.6271 31.7849 53.3114 32.1221C52.9993 32.4557 52.6065 32.7158 52.1329 32.9024C51.663 33.0853 51.1266 33.1768 50.5239 33.1768ZM56.8519 28.1022V33.01H55.2428V24.7443H56.7873V26.0896H56.8895C57.0797 25.6519 57.3774 25.3003 57.7828 25.0349C58.1918 24.7694 58.7066 24.6366 59.3273 24.6366C59.8905 24.6366 60.3838 24.755 60.8071 24.9918C61.2305 25.225 61.5587 25.573 61.7919 26.0358C62.0251 26.4986 62.1417 27.0708 62.1417 27.7524V33.01H60.5327V27.9462C60.5327 27.347 60.3766 26.8789 60.0645 26.5416C59.7524 26.2008 59.3237 26.0304 58.7784 26.0304C58.4053 26.0304 58.0734 26.1111 57.7828 26.2726C57.4958 26.434 57.268 26.6708 57.0994 26.9829C56.9344 27.2914 56.8519 27.6645 56.8519 28.1022ZM66.7813 33.1714C66.114 33.1714 65.5184 33.001 64.9946 32.6602C64.4745 32.3158 64.0655 31.8261 63.7677 31.1911C63.4735 30.5525 63.3264 29.7866 63.3264 28.8933C63.3264 28 63.4753 27.2358 63.7731 26.6008C64.0744 25.9658 64.487 25.4797 65.0108 25.1425C65.5346 24.8053 66.1283 24.6366 66.792 24.6366C67.305 24.6366 67.7176 24.7228 68.0297 24.895C68.3454 25.0636 68.5894 25.2609 68.7616 25.4869C68.9374 25.7129 69.0737 25.912 69.1706 26.0842H69.2674V21.989H70.8765V33.01H69.3051V31.7239H69.1706C69.0737 31.8997 68.9338 32.1006 68.7508 32.3266C68.5714 32.5526 68.3239 32.7499 68.0082 32.9185C67.6925 33.0871 67.2835 33.1714 66.7813 33.1714ZM67.1364 31.7992C67.5992 31.7992 67.9903 31.6772 68.3096 31.4333C68.6324 31.1857 68.8764 30.8431 69.0414 30.4054C69.21 29.9678 69.2943 29.4583 69.2943 28.8771C69.2943 28.3031 69.2118 27.8009 69.0468 27.3704C68.8818 26.9399 68.6396 26.6044 68.3203 26.3641C68.001 26.1237 67.6064 26.0035 67.1364 26.0035C66.6521 26.0035 66.2485 26.1291 65.9256 26.3802C65.6027 26.6313 65.3588 26.9739 65.1938 27.408C65.0323 27.8421 64.9516 28.3318 64.9516 28.8771C64.9516 29.4296 65.0341 29.9265 65.1991 30.3678C65.3642 30.809 65.6081 31.1588 65.931 31.4171C66.2575 31.6719 66.6593 31.7992 67.1364 31.7992ZM72.5603 33.01V24.7443H74.1693V33.01H72.5603ZM73.3729 23.4689C73.0931 23.4689 72.8527 23.3756 72.6518 23.1891C72.4545 22.9989 72.3558 22.7729 72.3558 22.511C72.3558 22.2455 72.4545 22.0195 72.6518 21.833C72.8527 21.6428 73.0931 21.5478 73.3729 21.5478C73.6527 21.5478 73.8913 21.6428 74.0886 21.833C74.2895 22.0195 74.39 22.2455 74.39 22.511C74.39 22.7729 74.2895 22.9989 74.0886 23.1891C73.8913 23.3756 73.6527 23.4689 73.3729 23.4689ZM77.3303 28.1022V33.01H75.7213V24.7443H77.2658V26.0896H77.368C77.5582 25.6519 77.8559 25.3003 78.2613 25.0349C78.6703 24.7694 79.1851 24.6366 79.8058 24.6366C80.369 24.6366 80.8623 24.755 81.2856 24.9918C81.709 25.225 82.0372 25.573 82.2704 26.0358C82.5036 26.4986 82.6202 27.0708 82.6202 27.7524V33.01H81.0112V27.9462C81.0112 27.347 80.8551 26.8789 80.543 26.5416C80.2309 26.2008 79.8022 26.0304 79.2569 26.0304C78.8838 26.0304 78.5519 26.1111 78.2613 26.2726C77.9743 26.434 77.7465 26.6708 77.5779 26.9829C77.4129 27.2914 77.3303 27.6645 77.3303 28.1022ZM87.6311 36.2819C86.9745 36.2819 86.4095 36.1958 85.9359 36.0236C85.466 35.8514 85.0821 35.6235 84.7843 35.3401C84.4866 35.0567 84.2641 34.7464 84.117 34.4092L85.5 33.8387C85.5969 33.9966 85.7261 34.1634 85.8875 34.3392C86.0525 34.5186 86.275 34.671 86.5548 34.7966C86.8382 34.9222 87.2023 34.985 87.6472 34.985C88.2571 34.985 88.7611 34.8361 89.1594 34.5383C89.5576 34.2441 89.7567 33.7742 89.7567 33.1284V31.5032H89.6544C89.5576 31.679 89.4177 31.8745 89.2347 32.0898C89.0553 32.3051 88.8078 32.4916 88.4921 32.6495C88.1764 32.8073 87.7656 32.8862 87.2597 32.8862C86.6068 32.8862 86.0185 32.7338 85.4947 32.4288C84.9745 32.1203 84.5619 31.6665 84.257 31.0673C83.9556 30.4646 83.8049 29.7238 83.8049 28.8449C83.8049 27.9659 83.9538 27.2125 84.2516 26.5847C84.5529 25.9569 84.9655 25.4761 85.4893 25.1425C86.0131 24.8053 86.6068 24.6366 87.2705 24.6366C87.7835 24.6366 88.1979 24.7228 88.5136 24.895C88.8293 25.0636 89.075 25.2609 89.2508 25.4869C89.4302 25.7129 89.5683 25.912 89.6652 26.0842H89.7836V24.7443H91.3603V33.193C91.3603 33.9033 91.1953 34.4863 90.8652 34.9419C90.5352 35.3975 90.0885 35.7348 89.5253 35.9536C88.9656 36.1724 88.3342 36.2819 87.6311 36.2819ZM87.6149 31.5517C88.0777 31.5517 88.4688 31.444 88.788 31.2288C89.1109 31.0099 89.3549 30.6978 89.5199 30.2924C89.6885 29.8835 89.7728 29.3938 89.7728 28.8233C89.7728 28.2673 89.6903 27.7776 89.5253 27.3542C89.3603 26.9309 89.1181 26.6008 88.7988 26.3641C88.4795 26.1237 88.0849 26.0035 87.6149 26.0035C87.1306 26.0035 86.727 26.1291 86.4041 26.3802C86.0812 26.6277 85.8373 26.965 85.6723 27.3919C85.5108 27.8188 85.4301 28.296 85.4301 28.8233C85.4301 29.3651 85.5126 29.8404 85.6776 30.2494C85.8427 30.6584 86.0866 30.9777 86.4095 31.2073C86.736 31.4369 87.1378 31.5517 87.6149 31.5517ZM99.0995 26.7623L97.6412 27.0206C97.5802 26.834 97.4833 26.6564 97.3506 26.4878C97.2214 26.3192 97.0456 26.1811 96.8232 26.0735C96.6008 25.9658 96.3228 25.912 95.9891 25.912C95.5335 25.912 95.1532 26.0143 94.8483 26.2188C94.5433 26.4197 94.3909 26.6798 94.3909 26.9991C94.3909 27.2753 94.4931 27.4977 94.6976 27.6663C94.9021 27.835 95.2321 27.9731 95.6878 28.0807L97.0008 28.3821C97.7614 28.5579 98.3282 28.8287 98.7013 29.1946C99.0744 29.5606 99.261 30.0359 99.261 30.6207C99.261 31.1158 99.1175 31.557 98.8305 31.9445C98.547 32.3284 98.1506 32.6297 97.6412 32.8486C97.1353 33.0674 96.5488 33.1768 95.8815 33.1768C94.9559 33.1768 94.2007 32.9795 93.6159 32.5849C93.0312 32.1867 92.6724 31.6216 92.5397 30.8898L94.0949 30.653C94.1917 31.0584 94.3909 31.3651 94.6922 31.5732C94.9936 31.7777 95.3864 31.8799 95.8707 31.8799C96.3981 31.8799 96.8196 31.7705 97.1353 31.5517C97.451 31.3292 97.6089 31.0584 97.6089 30.7391C97.6089 30.4808 97.512 30.2637 97.3183 30.0879C97.1282 29.9122 96.8358 29.7794 96.4411 29.6897L95.042 29.383C94.2707 29.2072 93.7002 28.9274 93.3307 28.5435C92.9648 28.1596 92.7818 27.6735 92.7818 27.0852C92.7818 26.5972 92.9182 26.1703 93.1908 25.8044C93.4635 25.4385 93.8402 25.1533 94.3209 24.9488C94.8016 24.7407 95.3523 24.6366 95.973 24.6366C96.8663 24.6366 97.5694 24.8304 98.0825 25.2178C98.5955 25.6017 98.9345 26.1165 99.0995 26.7623Z" fill="#7A7A7A"/>
<path d="M30.1007 66.3201V47.199H37.1031C38.46 47.199 39.5834 47.4231 40.4735 47.8712C41.3636 48.3131 42.0296 48.9138 42.4715 49.6731C42.9134 50.4263 43.1344 51.2759 43.1344 52.222C43.1344 53.0187 42.9881 53.6909 42.6956 54.2387C42.4031 54.7802 42.0109 55.2159 41.5192 55.5458C41.0337 55.8695 40.4984 56.106 39.9133 56.2554V56.4421C40.5482 56.4732 41.1675 56.6786 41.7713 57.0583C42.3813 57.4318 42.8854 57.9639 43.2838 58.6548C43.6822 59.3457 43.8813 60.186 43.8813 61.1757C43.8813 62.1529 43.651 63.0305 43.1904 63.8086C42.7361 64.5804 42.0327 65.1935 41.0804 65.6478C40.1281 66.096 38.9112 66.3201 37.4298 66.3201H30.1007ZM32.9857 63.8459H37.1497C38.5315 63.8459 39.5212 63.5783 40.1187 63.043C40.7163 62.5077 41.015 61.8386 41.015 61.0356C41.015 60.4319 40.8625 59.8779 40.5575 59.3737C40.2526 58.8696 39.8169 58.4681 39.2504 58.1693C38.6903 57.8706 38.0243 57.7212 37.2524 57.7212H32.9857V63.8459ZM32.9857 55.4711H36.851C37.4983 55.4711 38.0803 55.3466 38.5969 55.0976C39.1197 54.8487 39.5336 54.5001 39.8386 54.052C40.1499 53.5976 40.3055 53.0623 40.3055 52.4461C40.3055 51.6556 40.0285 50.9927 39.4745 50.4574C38.9206 49.9221 38.0709 49.6545 36.9257 49.6545H32.9857V55.4711ZM45.6184 66.3201V51.9793H48.3167V54.2574H48.4661C48.7275 53.4855 49.1881 52.8787 49.8478 52.4367C50.5139 51.9886 51.267 51.7645 52.1073 51.7645C52.2816 51.7645 52.487 51.7707 52.7235 51.7832C52.9662 51.7956 53.1561 51.8112 53.293 51.8299V54.5001C53.181 54.469 52.9818 54.4347 52.6955 54.3974C52.4092 54.3538 52.1228 54.332 51.8365 54.332C51.1767 54.332 50.5885 54.4721 50.0719 54.7522C49.5615 55.0261 49.157 55.4089 48.8582 55.9006C48.5594 56.3861 48.41 56.94 48.41 57.5625V66.3201H45.6184ZM59.7754 66.6095C58.4309 66.6095 57.2576 66.3014 56.2555 65.6852C55.2534 65.069 54.4754 64.2069 53.9214 63.099C53.3674 61.9911 53.0905 60.6964 53.0905 59.215C53.0905 57.7274 53.3674 56.4265 53.9214 55.3124C54.4754 54.1982 55.2534 53.333 56.2555 52.7168C57.2576 52.1006 58.4309 51.7925 59.7754 51.7925C61.1198 51.7925 62.2931 52.1006 63.2952 52.7168C64.2973 53.333 65.0754 54.1982 65.6293 55.3124C66.1833 56.4265 66.4603 57.7274 66.4603 59.215C66.4603 60.6964 66.1833 61.9911 65.6293 63.099C65.0754 64.2069 64.2973 65.069 63.2952 65.6852C62.2931 66.3014 61.1198 66.6095 59.7754 66.6095ZM59.7847 64.266C60.6561 64.266 61.3781 64.0357 61.9508 63.5751C62.5234 63.1145 62.9467 62.5015 63.2205 61.7359C63.5006 60.9703 63.6407 60.1269 63.6407 59.2057C63.6407 58.2907 63.5006 57.4504 63.2205 56.6848C62.9467 55.913 62.5234 55.2937 61.9508 54.8269C61.3781 54.3601 60.6561 54.1266 59.7847 54.1266C58.9071 54.1266 58.1788 54.3601 57.6 54.8269C57.0273 55.2937 56.601 55.913 56.3209 56.6848C56.047 57.4504 55.9101 58.2907 55.9101 59.2057C55.9101 60.1269 56.047 60.9703 56.3209 61.7359C56.601 62.5015 57.0273 63.1145 57.6 63.5751C58.1788 64.0357 58.9071 64.266 59.7847 64.266ZM74.1564 66.6095C72.8119 66.6095 71.6386 66.3014 70.6365 65.6852C69.6344 65.069 68.8564 64.2069 68.3024 63.099C67.7484 61.9911 67.4715 60.6964 67.4715 59.215C67.4715 57.7274 67.7484 56.4265 68.3024 55.3124C68.8564 54.1982 69.6344 53.333 70.6365 52.7168C71.6386 52.1006 72.8119 51.7925 74.1564 51.7925C75.5008 51.7925 76.6741 52.1006 77.6762 52.7168C78.6783 53.333 79.4564 54.1982 80.0103 55.3124C80.5643 56.4265 80.8413 57.7274 80.8413 59.215C80.8413 60.6964 80.5643 61.9911 80.0103 63.099C79.4564 64.2069 78.6783 65.069 77.6762 65.6852C76.6741 66.3014 75.5008 66.6095 74.1564 66.6095ZM74.1657 64.266C75.0371 64.266 75.7591 64.0357 76.3318 63.5751C76.9044 63.1145 77.3277 62.5015 77.6015 61.7359C77.8816 60.9703 78.0217 60.1269 78.0217 59.2057C78.0217 58.2907 77.8816 57.4504 77.6015 56.6848C77.3277 55.913 76.9044 55.2937 76.3318 54.8269C75.7591 54.3601 75.0371 54.1266 74.1657 54.1266C73.2881 54.1266 72.5598 54.3601 71.981 54.8269C71.4083 55.2937 70.982 55.913 70.7019 56.6848C70.428 57.4504 70.2911 58.2907 70.2911 59.2057C70.2911 60.1269 70.428 60.9703 70.7019 61.7359C70.982 62.5015 71.4083 63.1145 71.981 63.5751C72.5598 64.0357 73.2881 64.266 74.1657 64.266ZM85.0642 61.4558L85.0455 58.048H85.531L91.245 51.9793H94.5874L88.0706 58.8882H87.6317L85.0642 61.4558ZM82.4967 66.3201V47.199H85.2883V66.3201H82.4967ZM91.5531 66.3201L86.418 59.5044L88.3413 57.5531L94.9795 66.3201H91.5531ZM98.4626 47.199V66.3201H95.671V47.199H98.4626ZM102.522 71.6979C102.105 71.6979 101.725 71.6636 101.383 71.5952C101.041 71.5329 100.786 71.4645 100.617 71.3898L101.29 69.1023C101.8 69.2393 102.254 69.2984 102.653 69.2797C103.051 69.2611 103.403 69.1117 103.708 68.8316C104.019 68.5515 104.293 68.094 104.529 67.4591L104.875 66.5068L99.6278 51.9793H102.615L106.247 63.1083H106.397L110.029 51.9793H113.026L107.116 68.234C106.842 68.981 106.493 69.6127 106.07 70.1293C105.647 70.6522 105.143 71.0443 104.557 71.3057C103.972 71.5672 103.294 71.6979 102.522 71.6979ZM116.98 57.8052V66.3201H114.189V51.9793H116.868V54.3134H117.046C117.375 53.554 117.892 52.944 118.595 52.4834C119.305 52.0228 120.198 51.7925 121.275 51.7925C122.252 51.7925 123.108 51.9979 123.842 52.4087C124.577 52.8133 125.146 53.4171 125.551 54.22C125.956 55.0229 126.158 56.0157 126.158 57.1983V66.3201H123.366V57.5345C123.366 56.495 123.096 55.6827 122.554 55.0976C122.013 54.5063 121.269 54.2107 120.323 54.2107C119.675 54.2107 119.1 54.3507 118.595 54.6308C118.097 54.9109 117.702 55.3217 117.41 55.8632C117.123 56.3985 116.98 57.0458 116.98 57.8052ZM144.591 52.222C144.492 51.3382 144.081 50.6535 143.359 50.168C142.637 49.6763 141.728 49.4304 140.633 49.4304C139.849 49.4304 139.17 49.5549 138.597 49.8039C138.025 50.0466 137.58 50.3827 137.262 50.8122C136.951 51.2355 136.796 51.7178 136.796 52.2594C136.796 52.7137 136.901 53.1059 137.113 53.4357C137.331 53.7656 137.614 54.0426 137.963 54.2667C138.317 54.4845 138.697 54.6682 139.102 54.8175C139.506 54.9607 139.895 55.079 140.269 55.1723L142.136 55.6578C142.746 55.8072 143.371 56.0095 144.013 56.2647C144.654 56.5199 145.248 56.856 145.796 57.273C146.344 57.6901 146.786 58.2067 147.122 58.8229C147.464 59.4391 147.635 60.1767 147.635 61.0356C147.635 62.1187 147.355 63.0803 146.795 63.9206C146.241 64.7609 145.435 65.4238 144.377 65.9093C143.325 66.3948 142.052 66.6375 140.558 66.6375C139.127 66.6375 137.888 66.4103 136.842 65.9559C135.797 65.5016 134.978 64.8574 134.387 64.0233C133.795 63.183 133.469 62.1871 133.406 61.0356H136.301C136.357 61.7265 136.581 62.3023 136.973 62.7629C137.371 63.2172 137.879 63.5565 138.495 63.7805C139.117 63.9984 139.799 64.1073 140.539 64.1073C141.355 64.1073 142.08 63.9797 142.715 63.7245C143.356 63.4631 143.86 63.1021 144.227 62.6415C144.595 62.1747 144.778 61.6301 144.778 61.0076C144.778 60.4412 144.616 59.9775 144.293 59.6165C143.975 59.2555 143.543 58.9567 142.995 58.7202C142.453 58.4837 141.84 58.2751 141.156 58.0946L138.896 57.4784C137.365 57.0614 136.151 56.4483 135.255 55.6392C134.365 54.83 133.92 53.7594 133.92 52.4274C133.92 51.3257 134.219 50.364 134.816 49.5424C135.414 48.7208 136.223 48.0828 137.244 47.6285C138.264 47.1679 139.416 46.9376 140.698 46.9376C141.993 46.9376 143.135 47.1648 144.125 47.6191C145.121 48.0735 145.905 48.699 146.477 49.4958C147.05 50.2862 147.349 51.195 147.374 52.222H144.591ZM149.398 66.3201V51.9793H152.19V66.3201H149.398ZM150.808 49.7665C150.322 49.7665 149.905 49.6047 149.557 49.281C149.214 48.9511 149.043 48.559 149.043 48.1046C149.043 47.644 149.214 47.2519 149.557 46.9282C149.905 46.5983 150.322 46.4334 150.808 46.4334C151.293 46.4334 151.707 46.5983 152.049 46.9282C152.398 47.2519 152.572 47.644 152.572 48.1046C152.572 48.559 152.398 48.9511 152.049 49.281C151.707 49.6047 151.293 49.7665 150.808 49.7665ZM154.484 66.3201V51.9793H157.164V54.3134H157.341C157.64 53.5229 158.129 52.9067 158.807 52.4648C159.486 52.0166 160.298 51.7925 161.244 51.7925C162.203 51.7925 163.006 52.0166 163.653 52.4648C164.306 52.9129 164.789 53.5291 165.1 54.3134H165.249C165.592 53.5478 166.136 52.9378 166.883 52.4834C167.63 52.0228 168.52 51.7925 169.554 51.7925C170.854 51.7925 171.916 52.2002 172.737 53.0156C173.565 53.831 173.979 55.0603 173.979 56.7035V66.3201H171.187V56.9649C171.187 55.9939 170.923 55.2906 170.394 54.8549C169.865 54.4192 169.233 54.2013 168.499 54.2013C167.59 54.2013 166.883 54.4814 166.379 55.0416C165.875 55.5956 165.623 56.3083 165.623 57.1797V66.3201H162.841V56.7875C162.841 56.0095 162.598 55.384 162.112 54.9109C161.627 54.4379 160.995 54.2013 160.217 54.2013C159.688 54.2013 159.199 54.3414 158.751 54.6215C158.309 54.8953 157.951 55.2781 157.678 55.7699C157.41 56.2616 157.276 56.8311 157.276 57.4784V66.3201H154.484ZM176.26 66.3201V51.9793H178.94V54.3134H179.117C179.416 53.5229 179.904 52.9067 180.583 52.4648C181.261 52.0166 182.073 51.7925 183.02 51.7925C183.978 51.7925 184.781 52.0166 185.428 52.4648C186.082 52.9129 186.564 53.5291 186.876 54.3134H187.025C187.367 53.5478 187.912 52.9378 188.659 52.4834C189.406 52.0228 190.296 51.7925 191.329 51.7925C192.63 51.7925 193.691 52.2002 194.513 53.0156C195.341 53.831 195.755 55.0603 195.755 56.7035V66.3201H192.963V56.9649C192.963 55.9939 192.698 55.2906 192.169 54.8549C191.64 54.4192 191.008 54.2013 190.274 54.2013C189.365 54.2013 188.659 54.4814 188.155 55.0416C187.65 55.5956 187.398 56.3083 187.398 57.1797V66.3201H184.616V56.7875C184.616 56.0095 184.373 55.384 183.888 54.9109C183.402 54.4379 182.771 54.2013 181.993 54.2013C181.464 54.2013 180.975 54.3414 180.527 54.6215C180.085 54.8953 179.727 55.2781 179.453 55.7699C179.185 56.2616 179.052 56.8311 179.052 57.4784V66.3201H176.26ZM204.076 66.6095C202.732 66.6095 201.558 66.3014 200.556 65.6852C199.554 65.069 198.776 64.2069 198.222 63.099C197.668 61.9911 197.391 60.6964 197.391 59.215C197.391 57.7274 197.668 56.4265 198.222 55.3124C198.776 54.1982 199.554 53.333 200.556 52.7168C201.558 52.1006 202.732 51.7925 204.076 51.7925C205.421 51.7925 206.594 52.1006 207.596 52.7168C208.598 53.333 209.376 54.1982 209.93 55.3124C210.484 56.4265 210.761 57.7274 210.761 59.215C210.761 60.6964 210.484 61.9911 209.93 63.099C209.376 64.2069 208.598 65.069 207.596 65.6852C206.594 66.3014 205.421 66.6095 204.076 66.6095ZM204.085 64.266C204.957 64.266 205.679 64.0357 206.252 63.5751C206.824 63.1145 207.247 62.5015 207.521 61.7359C207.801 60.9703 207.941 60.1269 207.941 59.2057C207.941 58.2907 207.801 57.4504 207.521 56.6848C207.247 55.913 206.824 55.2937 206.252 54.8269C205.679 54.3601 204.957 54.1266 204.085 54.1266C203.208 54.1266 202.48 54.3601 201.901 54.8269C201.328 55.2937 200.902 55.913 200.622 56.6848C200.348 57.4504 200.211 58.2907 200.211 59.2057C200.211 60.1269 200.348 60.9703 200.622 61.7359C200.902 62.5015 201.328 63.1145 201.901 63.5751C202.48 64.0357 203.208 64.266 204.085 64.266ZM215.208 57.8052V66.3201H212.416V51.9793H215.096V54.3134H215.273C215.603 53.554 216.12 52.944 216.823 52.4834C217.533 52.0228 218.426 51.7925 219.503 51.7925C220.48 51.7925 221.336 51.9979 222.07 52.4087C222.805 52.8133 223.374 53.4171 223.779 54.22C224.184 55.0229 224.386 56.0157 224.386 57.1983V66.3201H221.594V57.5345C221.594 56.495 221.323 55.6827 220.782 55.0976C220.24 54.5063 219.497 54.2107 218.551 54.2107C217.903 54.2107 217.327 54.3507 216.823 54.6308C216.325 54.9109 215.93 55.3217 215.638 55.8632C215.351 56.3985 215.208 57.0458 215.208 57.8052ZM237.415 55.4804L234.885 55.9286C234.779 55.6049 234.611 55.2968 234.381 55.0043C234.157 54.7117 233.852 54.4721 233.466 54.2854C233.08 54.0986 232.598 54.0053 232.019 54.0053C231.228 54.0053 230.569 54.1827 230.04 54.5374C229.511 54.886 229.246 55.3373 229.246 55.8912C229.246 56.3705 229.423 56.7564 229.778 57.049C230.133 57.3415 230.706 57.5811 231.496 57.7679L233.774 58.2907C235.094 58.5957 236.077 59.0656 236.724 59.7005C237.372 60.3354 237.695 61.1601 237.695 62.1747C237.695 63.0336 237.447 63.7992 236.949 64.4714C236.457 65.1374 235.769 65.6603 234.885 66.04C234.008 66.4197 232.99 66.6095 231.832 66.6095C230.226 66.6095 228.916 66.2672 227.902 65.5825C226.887 64.8916 226.265 63.9113 226.034 62.6415L228.732 62.2307C228.901 62.934 229.246 63.4662 229.769 63.8272C230.292 64.182 230.973 64.3594 231.814 64.3594C232.728 64.3594 233.46 64.1696 234.008 63.7899C234.555 63.404 234.829 62.934 234.829 62.3801C234.829 61.9319 234.661 61.5554 234.325 61.2504C233.995 60.9454 233.488 60.7151 232.803 60.5595L230.376 60.0273C229.037 59.7223 228.048 59.2368 227.407 58.5708C226.772 57.9048 226.454 57.0614 226.454 56.0406C226.454 55.1941 226.691 54.4534 227.164 53.8185C227.637 53.1837 228.291 52.6888 229.125 52.334C229.959 51.973 230.914 51.7925 231.991 51.7925C233.541 51.7925 234.761 52.1286 235.651 52.8009C236.541 53.4669 237.129 54.3601 237.415 55.4804Z" fill="white"/>
<defs>
<linearGradient id="paint0_linear_6001_13117" x1="480.243" y1="227.205" x2="445.309" y2="481.36" gradientUnits="userSpaceOnUse">
<stop stop-color="#040509" stop-opacity="0.14"/>
<stop offset="1" stop-color="white" stop-opacity="0"/>
</linearGradient>
<linearGradient id="paint1_linear_6001_13117" x1="180" y1="312.01" x2="180" y2="409.01" gradientUnits="userSpaceOnUse">
<stop stop-color="#FEE3D5" stop-opacity="0.07"/>
<stop offset="1" stop-color="#FFA5C1" stop-opacity="0.07"/>
</linearGradient>
<linearGradient id="paint2_linear_6001_13117" x1="62.8068" y1="352.386" x2="69.5899" y2="391.711" gradientUnits="userSpaceOnUse">
<stop stop-color="#FEECE3"/>
<stop offset="0.25" stop-color="#FCD5BF"/>
<stop offset="0.5" stop-color="#FEAFAE"/>
<stop offset="0.75" stop-color="#FFA4BD"/>
<stop offset="1" stop-color="#FFA9CC"/>
</linearGradient>
<linearGradient id="paint3_linear_6001_13117" x1="99.3075" y1="109.603" x2="297.22" y2="289.684" gradientUnits="userSpaceOnUse">
<stop stop-color="#FEECE3"/>
<stop offset="0.25" stop-color="#FCD5BF"/>
<stop offset="0.5" stop-color="#FEAFAE"/>
<stop offset="0.75" stop-color="#FFA4BD"/>
<stop offset="1" stop-color="#FFA9CC"/>
</linearGradient>
</defs>
</svg>
