<svg width="650" height="436" viewBox="0 0 650 436" fill="none" xmlns="http://www.w3.org/2000/svg">
<path d="M42.4826 42.1095C42.4176 41.5328 42.1496 41.0861 41.6785 40.7693C41.2074 40.4485 40.6145 40.2881 39.8997 40.2881C39.388 40.2881 38.9454 40.3693 38.5718 40.5318C38.1982 40.6901 37.9078 40.9094 37.7007 41.1897C37.4976 41.4658 37.3961 41.7805 37.3961 42.1338C37.3961 42.4303 37.4651 42.6861 37.6032 42.9014C37.7454 43.1166 37.9301 43.2973 38.1575 43.4435C38.389 43.5857 38.6367 43.7055 38.9007 43.8029C39.1647 43.8963 39.4185 43.9735 39.6622 44.0344L40.8805 44.3512C41.2785 44.4486 41.6866 44.5806 42.1049 44.7471C42.5232 44.9136 42.911 45.1329 43.2684 45.405C43.6257 45.6771 43.9141 46.0142 44.1334 46.4162C44.3567 46.8183 44.4684 47.2995 44.4684 47.8599C44.4684 48.5665 44.2857 49.194 43.9202 49.7422C43.5587 50.2904 43.0328 50.7229 42.3425 51.0397C41.6561 51.3565 40.8257 51.5149 39.851 51.5149C38.917 51.5149 38.1088 51.3666 37.4266 51.0702C36.7443 50.7737 36.2103 50.3534 35.8245 49.8092C35.4387 49.261 35.2255 48.6112 35.1849 47.8599H37.0732C37.1098 48.3107 37.256 48.6863 37.5118 48.9869C37.7717 49.2833 38.1027 49.5046 38.5048 49.6508C38.9109 49.793 39.3556 49.864 39.8388 49.864C40.3708 49.864 40.8439 49.7808 41.2582 49.6143C41.6764 49.4437 42.0054 49.2082 42.245 48.9077C42.4846 48.6031 42.6044 48.2477 42.6044 47.8416C42.6044 47.4721 42.4988 47.1695 42.2876 46.934C42.0805 46.6985 41.7983 46.5035 41.4409 46.3492C41.0876 46.1949 40.6876 46.0588 40.2409 45.9411L38.7667 45.539C37.7677 45.2669 36.9758 44.8669 36.391 44.339C35.8103 43.8111 35.5199 43.1126 35.5199 42.2435C35.5199 41.5247 35.7148 40.8973 36.1047 40.3612C36.4945 39.8251 37.0225 39.4089 37.6885 39.1124C38.3545 38.8119 39.1058 38.6617 39.9424 38.6617C40.7871 38.6617 41.5323 38.8099 42.178 39.1063C42.8277 39.4028 43.3394 39.8109 43.7131 40.3307C44.0867 40.8465 44.2816 41.4394 44.2978 42.1095H42.4826ZM45.9589 54.8165V41.9511H47.7376V43.4679H47.8899C47.9955 43.273 48.1478 43.0476 48.3468 42.7917C48.5458 42.5359 48.8219 42.3125 49.1752 42.1217C49.5285 41.9267 49.9956 41.8293 50.5763 41.8293C51.3316 41.8293 52.0058 42.0201 52.5987 42.4019C53.1916 42.7836 53.6566 43.3339 53.9937 44.0527C54.3348 44.7715 54.5053 45.6365 54.5053 46.6477C54.5053 47.6589 54.3368 48.5259 53.9997 49.2488C53.6627 49.9676 53.1997 50.5219 52.6109 50.9118C52.022 51.2976 51.3499 51.4905 50.5946 51.4905C50.026 51.4905 49.561 51.3951 49.1996 51.2042C48.8422 51.0133 48.562 50.79 48.359 50.5341C48.1559 50.2783 47.9996 50.0508 47.8899 49.8519H47.7803V54.8165H45.9589ZM47.7437 46.6294C47.7437 47.2873 47.8391 47.864 48.03 48.3594C48.2209 48.8549 48.497 49.2427 48.8585 49.5229C49.2199 49.7991 49.6626 49.9371 50.1864 49.9371C50.7306 49.9371 51.1854 49.793 51.5509 49.5046C51.9164 49.2122 52.1926 48.8163 52.3794 48.3168C52.5703 47.8173 52.6657 47.2548 52.6657 46.6294C52.6657 46.0121 52.5723 45.4578 52.3855 44.9664C52.2027 44.475 51.9266 44.0872 51.557 43.8029C51.1915 43.5187 50.7347 43.3765 50.1864 43.3765C49.6585 43.3765 49.2118 43.5126 48.8463 43.7847C48.4849 44.0567 48.2107 44.4365 48.0239 44.9238C47.8371 45.4111 47.7437 45.9797 47.7437 46.6294ZM59.966 51.4966C59.0441 51.4966 58.2502 51.2996 57.5842 50.9057C56.9222 50.5077 56.4106 49.9493 56.0491 49.2305C55.6918 48.5077 55.5131 47.6609 55.5131 46.6903C55.5131 45.7319 55.6918 44.8872 56.0491 44.1562C56.4106 43.4253 56.9141 42.8547 57.5598 42.4445C58.2096 42.0343 58.969 41.8293 59.8381 41.8293C60.366 41.8293 60.8777 41.9166 61.3732 42.0912C61.8686 42.2658 62.3133 42.5399 62.7072 42.9136C63.1011 43.2872 63.4118 43.7725 63.6392 44.3694C63.8666 44.9624 63.9803 45.6832 63.9803 46.532V47.1777H56.5425V45.8131H62.1955C62.1955 45.3339 62.098 44.9096 61.9031 44.54C61.7082 44.1664 61.4341 43.872 61.0808 43.6567C60.7315 43.4415 60.3213 43.3339 59.8503 43.3339C59.3386 43.3339 58.8919 43.4598 58.5101 43.7116C58.1324 43.9593 57.84 44.2842 57.6329 44.6862C57.4299 45.0842 57.3284 45.5167 57.3284 45.9837V47.0497C57.3284 47.6751 57.438 48.2071 57.6573 48.6457C57.8807 49.0843 58.1913 49.4194 58.5893 49.6508C58.9873 49.8783 59.4523 49.992 59.9843 49.992C60.3295 49.992 60.6442 49.9432 60.9285 49.8458C61.2127 49.7442 61.4584 49.594 61.6655 49.395C61.8727 49.196 62.031 48.9503 62.1407 48.6579L63.8646 48.9686C63.7265 49.4762 63.4788 49.9209 63.1214 50.3026C62.7681 50.6803 62.3234 50.9747 61.7874 51.1859C61.2554 51.393 60.6483 51.4966 59.966 51.4966ZM67.21 45.7522V51.3077H65.3886V41.9511H67.1369V43.474H67.2526C67.4678 42.9785 67.8049 42.5806 68.2638 42.28C68.7268 41.9795 69.3095 41.8293 70.0121 41.8293C70.6497 41.8293 71.2081 41.9633 71.6873 42.2313C72.1665 42.4953 72.538 42.8892 72.802 43.4131C73.066 43.9369 73.198 44.5847 73.198 45.3563V51.3077H71.3766V45.5756C71.3766 44.8974 71.1999 44.3674 70.8466 43.9857C70.4933 43.5999 70.008 43.407 69.3907 43.407C68.9684 43.407 68.5927 43.4984 68.2638 43.6811C67.9389 43.8638 67.681 44.1319 67.4902 44.4852C67.3034 44.8344 67.21 45.2568 67.21 45.7522ZM78.5307 51.4905C77.7753 51.4905 77.1012 51.2976 76.5083 50.9118C75.9194 50.5219 75.4565 49.9676 75.1194 49.2488C74.7864 48.5259 74.6199 47.6589 74.6199 46.6477C74.6199 45.6365 74.7884 44.7715 75.1255 44.0527C75.4666 43.3339 75.9337 42.7836 76.5266 42.4019C77.1195 42.0201 77.7916 41.8293 78.5429 41.8293C79.1236 41.8293 79.5906 41.9267 79.9439 42.1217C80.3013 42.3125 80.5775 42.5359 80.7724 42.7917C80.9714 43.0476 81.1257 43.273 81.2353 43.4679H81.345V38.8322H83.1664V51.3077H81.3876V49.8519H81.2353C81.1257 50.0508 80.9673 50.2783 80.7602 50.5341C80.5572 50.79 80.2769 51.0133 79.9196 51.2042C79.5622 51.3951 79.0992 51.4905 78.5307 51.4905ZM78.9327 49.9371C79.4566 49.9371 79.8993 49.7991 80.2607 49.5229C80.6262 49.2427 80.9023 48.8549 81.0891 48.3594C81.28 47.864 81.3755 47.2873 81.3755 46.6294C81.3755 45.9797 81.282 45.4111 81.0952 44.9238C80.9084 44.4365 80.6343 44.0567 80.2729 43.7847C79.9114 43.5126 79.4647 43.3765 78.9327 43.3765C78.3845 43.3765 77.9276 43.5187 77.5621 43.8029C77.1966 44.0872 76.9205 44.475 76.7337 44.9664C76.5509 45.4578 76.4596 46.0121 76.4596 46.6294C76.4596 47.2548 76.553 47.8173 76.7398 48.3168C76.9266 48.8163 77.2027 49.2122 77.5682 49.5046C77.9378 49.793 78.3926 49.9371 78.9327 49.9371ZM85.1533 51.3077V41.9511H86.9747V51.3077H85.1533ZM86.0731 40.5074C85.7564 40.5074 85.4843 40.4018 85.2569 40.1906C85.0335 39.9754 84.9218 39.7196 84.9218 39.4231C84.9218 39.1226 85.0335 38.8667 85.2569 38.6556C85.4843 38.4403 85.7564 38.3327 86.0731 38.3327C86.3899 38.3327 86.66 38.4403 86.8833 38.6556C87.1107 38.8667 87.2244 39.1226 87.2244 39.4231C87.2244 39.7196 87.1107 39.9754 86.8833 40.1906C86.66 40.4018 86.3899 40.5074 86.0731 40.5074ZM90.6338 45.7522V51.3077H88.8124V41.9511H90.5607V43.474H90.6764C90.8916 42.9785 91.2287 42.5806 91.6876 42.28C92.1506 41.9795 92.7333 41.8293 93.4359 41.8293C94.0735 41.8293 94.6319 41.9633 95.1111 42.2313C95.5903 42.4953 95.9618 42.8892 96.2258 43.4131C96.4898 43.9369 96.6218 44.5847 96.6218 45.3563V51.3077H94.8004V45.5756C94.8004 44.8974 94.6237 44.3674 94.2704 43.9857C93.9171 43.5999 93.4318 43.407 92.8145 43.407C92.3922 43.407 92.0165 43.4984 91.6876 43.6811C91.3627 43.8638 91.1048 44.1319 90.914 44.4852C90.7272 44.8344 90.6338 45.2568 90.6338 45.7522ZM102.375 55.0114C101.632 55.0114 100.992 54.9139 100.456 54.719C99.924 54.5241 99.4894 54.2662 99.1524 53.9454C98.8153 53.6246 98.5635 53.2733 98.397 52.8915L99.9626 52.2458C100.072 52.4245 100.218 52.6134 100.401 52.8124C100.588 53.0154 100.84 53.188 101.157 53.3301C101.477 53.4723 101.89 53.5433 102.393 53.5433C103.083 53.5433 103.654 53.3748 104.105 53.0377C104.556 52.7047 104.781 52.1727 104.781 51.4418V49.6021H104.665C104.556 49.8011 104.397 50.0224 104.19 50.2661C103.987 50.5097 103.707 50.7209 103.349 50.8996C102.992 51.0783 102.527 51.1676 101.954 51.1676C101.215 51.1676 100.549 50.995 99.9565 50.6499C99.3676 50.3006 98.9006 49.7869 98.5554 49.1087C98.2143 48.4264 98.0437 47.5878 98.0437 46.5929C98.0437 45.5979 98.2122 44.7451 98.5493 44.0344C98.8904 43.3237 99.3575 42.7795 99.9504 42.4019C100.543 42.0201 101.215 41.8293 101.967 41.8293C102.547 41.8293 103.016 41.9267 103.374 42.1217C103.731 42.3125 104.009 42.5359 104.208 42.7917C104.411 43.0476 104.568 43.273 104.677 43.4679H104.811V41.9511H106.596V51.5149C106.596 52.3189 106.409 52.9789 106.036 53.4946C105.662 54.0104 105.157 54.3921 104.519 54.6398C103.886 54.8875 103.171 55.0114 102.375 55.0114ZM102.357 49.6569C102.88 49.6569 103.323 49.5351 103.685 49.2914C104.05 49.0437 104.326 48.6904 104.513 48.2315C104.704 47.7685 104.799 47.2142 104.799 46.5685C104.799 45.939 104.706 45.3847 104.519 44.9055C104.332 44.4263 104.058 44.0527 103.697 43.7847C103.335 43.5126 102.889 43.3765 102.357 43.3765C101.808 43.3765 101.351 43.5187 100.986 43.8029C100.62 44.0831 100.344 44.4649 100.157 44.9481C99.9747 45.4314 99.8834 45.9715 99.8834 46.5685C99.8834 47.1817 99.9768 47.7198 100.164 48.1828C100.35 48.6457 100.627 49.0072 100.992 49.2671C101.362 49.527 101.816 49.6569 102.357 49.6569ZM115.438 44.2354L113.787 44.5278C113.718 44.3167 113.608 44.1156 113.458 43.9248C113.312 43.7339 113.113 43.5775 112.861 43.4557C112.609 43.3339 112.294 43.273 111.917 43.273C111.401 43.273 110.971 43.3887 110.625 43.6202C110.28 43.8476 110.108 44.142 110.108 44.5035C110.108 44.8162 110.223 45.0679 110.455 45.2588C110.686 45.4497 111.06 45.606 111.576 45.7279L113.062 46.069C113.923 46.268 114.565 46.5746 114.987 46.9888C115.409 47.403 115.62 47.9411 115.62 48.6031C115.62 49.1635 115.458 49.663 115.133 50.1016C114.812 50.5361 114.364 50.8773 113.787 51.125C113.214 51.3727 112.55 51.4966 111.795 51.4966C110.747 51.4966 109.892 51.2732 109.23 50.8265C108.568 50.3757 108.162 49.7361 108.012 48.9077L109.773 48.6396C109.882 49.0985 110.108 49.4458 110.449 49.6813C110.79 49.9128 111.235 50.0285 111.783 50.0285C112.38 50.0285 112.857 49.9046 113.214 49.6569C113.572 49.4051 113.75 49.0985 113.75 48.7371C113.75 48.4447 113.641 48.199 113.421 48C113.206 47.801 112.875 47.6508 112.429 47.5492L110.845 47.202C109.972 47.003 109.326 46.6863 108.908 46.2517C108.493 45.8172 108.286 45.2669 108.286 44.6009C108.286 44.0486 108.441 43.5654 108.749 43.1511C109.058 42.7369 109.484 42.4141 110.028 42.1826C110.573 41.947 111.196 41.8293 111.899 41.8293C112.91 41.8293 113.706 42.0486 114.286 42.4872C114.867 42.9217 115.251 43.5044 115.438 44.2354Z" fill="#7A7A7A"/>
<path d="M37.8321 117.618V85.5378H49.5801C51.8566 85.5378 53.7415 85.9137 55.2348 86.6656C56.7281 87.407 57.8455 88.4147 58.5869 89.6887C59.3283 90.9523 59.6991 92.3777 59.6991 93.965C59.6991 95.3017 59.4537 96.4295 58.9629 97.3484C58.472 98.2569 57.8142 98.9879 56.9892 99.5414C56.1747 100.084 55.2766 100.481 54.295 100.732V101.045C55.3601 101.097 56.3992 101.442 57.4121 102.079C58.4355 102.706 59.2814 103.598 59.9497 104.758C60.618 105.917 60.9522 107.326 60.9522 108.987C60.9522 110.626 60.5658 112.099 59.793 113.404C59.0307 114.699 57.8507 115.728 56.253 116.49C54.6552 117.242 52.6137 117.618 50.1283 117.618H37.8321ZM42.6723 113.467H49.6584C51.9767 113.467 53.6371 113.018 54.6396 112.12C55.6421 111.222 56.1433 110.099 56.1433 108.752C56.1433 107.739 55.8875 106.809 55.3758 105.964C54.8641 105.118 54.1331 104.444 53.1828 103.943C52.243 103.442 51.1256 103.191 49.8307 103.191H42.6723V113.467ZM42.6723 99.4161H49.1572C50.2432 99.4161 51.2196 99.2072 52.0863 98.7895C52.9635 98.3718 53.658 97.787 54.1697 97.0351C54.6918 96.2728 54.9529 95.3748 54.9529 94.3409C54.9529 93.0147 54.4882 91.9026 53.5588 91.0045C52.6294 90.1064 51.2039 89.6574 49.2825 89.6574H42.6723V99.4161ZM63.8666 117.618V93.5577H68.3935V97.3798H68.6441C69.0827 96.0849 69.8554 95.0667 70.9624 94.3253C72.0797 93.5734 73.3433 93.1975 74.7531 93.1975C75.0455 93.1975 75.3901 93.2079 75.7869 93.2288C76.1941 93.2497 76.5126 93.2758 76.7424 93.3071V97.787C76.5544 97.7348 76.2203 97.6774 75.7399 97.6147C75.2595 97.5416 74.7792 97.5051 74.2988 97.5051C73.1919 97.5051 72.205 97.74 71.3383 98.21C70.482 98.6694 69.8032 99.3117 69.302 100.137C68.8007 100.951 68.5501 101.881 68.5501 102.925V117.618H63.8666ZM87.618 118.103C85.3624 118.103 83.3939 117.586 81.7127 116.553C80.0314 115.519 78.7261 114.072 77.7967 112.214C76.8673 110.355 76.4026 108.183 76.4026 105.697C76.4026 103.202 76.8673 101.019 77.7967 99.1498C78.7261 97.2806 80.0314 95.829 81.7127 94.7952C83.3939 93.7614 85.3624 93.2445 87.618 93.2445C89.8736 93.2445 91.8421 93.7614 93.5233 94.7952C95.2046 95.829 96.51 97.2806 97.4394 99.1498C98.3687 101.019 98.8334 103.202 98.8334 105.697C98.8334 108.183 98.3687 110.355 97.4394 112.214C96.51 114.072 95.2046 115.519 93.5233 116.553C91.8421 117.586 89.8736 118.103 87.618 118.103ZM87.6337 114.172C89.0956 114.172 90.307 113.785 91.2677 113.012C92.2285 112.24 92.9386 111.211 93.398 109.927C93.868 108.642 94.1029 107.227 94.1029 105.682C94.1029 104.147 93.868 102.737 93.398 101.452C92.9386 100.158 92.2285 99.1185 91.2677 98.3353C90.307 97.5521 89.0956 97.1605 87.6337 97.1605C86.1613 97.1605 84.9395 97.5521 83.9683 98.3353C83.0076 99.1185 82.2922 100.158 81.8223 101.452C81.3628 102.737 81.1331 104.147 81.1331 105.682C81.1331 107.227 81.3628 108.642 81.8223 109.927C82.2922 111.211 83.0076 112.24 83.9683 113.012C84.9395 113.785 86.1613 114.172 87.6337 114.172ZM111.745 118.103C109.49 118.103 107.521 117.586 105.84 116.553C104.159 115.519 102.853 114.072 101.924 112.214C100.995 110.355 100.53 108.183 100.53 105.697C100.53 103.202 100.995 101.019 101.924 99.1498C102.853 97.2806 104.159 95.829 105.84 94.7952C107.521 93.7614 109.49 93.2445 111.745 93.2445C114.001 93.2445 115.969 93.7614 117.651 94.7952C119.332 95.829 120.637 97.2806 121.567 99.1498C122.496 101.019 122.961 103.202 122.961 105.697C122.961 108.183 122.496 110.355 121.567 112.214C120.637 114.072 119.332 115.519 117.651 116.553C115.969 117.586 114.001 118.103 111.745 118.103ZM111.761 114.172C113.223 114.172 114.434 113.785 115.395 113.012C116.356 112.24 117.066 111.211 117.525 109.927C117.995 108.642 118.23 107.227 118.23 105.682C118.23 104.147 117.995 102.737 117.525 101.452C117.066 100.158 116.356 99.1185 115.395 98.3353C114.434 97.5521 113.223 97.1605 111.761 97.1605C110.289 97.1605 109.067 97.5521 108.096 98.3353C107.135 99.1185 106.42 100.158 105.95 101.452C105.49 102.737 105.26 104.147 105.26 105.682C105.26 107.227 105.49 108.642 105.95 109.927C106.42 111.211 107.135 112.24 108.096 113.012C109.067 113.785 110.289 114.172 111.761 114.172ZM130.046 109.457L130.014 103.739H130.829L140.415 93.5577H146.023L135.09 105.149H134.353L130.046 109.457ZM125.738 117.618V85.5378H130.422V117.618H125.738ZM140.932 117.618L132.317 106.183L135.544 102.909L146.681 117.618H140.932ZM152.525 85.5378V117.618H147.841V85.5378H152.525ZM159.335 126.64C158.636 126.64 157.999 126.583 157.424 126.468C156.85 126.363 156.422 126.249 156.14 126.123L157.268 122.286C158.124 122.515 158.886 122.614 159.555 122.583C160.223 122.552 160.813 122.301 161.325 121.831C161.847 121.361 162.306 120.594 162.703 119.529L163.283 117.931L154.479 93.5577H159.492L165.585 112.229H165.836L171.929 93.5577H176.957L167.042 120.829C166.583 122.082 165.998 123.142 165.288 124.009C164.578 124.886 163.732 125.544 162.75 125.982C161.768 126.421 160.63 126.64 159.335 126.64ZM183.592 103.332V117.618H178.908V93.5577H183.404V97.4737H183.702C184.255 96.1997 185.122 95.1764 186.302 94.4036C187.492 93.6308 188.991 93.2445 190.797 93.2445C192.437 93.2445 193.873 93.5891 195.105 94.2783C196.337 94.9571 197.293 95.97 197.971 97.3171C198.65 98.6642 198.99 100.33 198.99 102.314V117.618H194.306V102.878C194.306 101.134 193.852 99.7711 192.943 98.7895C192.035 97.7975 190.787 97.3014 189.2 97.3014C188.114 97.3014 187.148 97.5364 186.302 98.0063C185.466 98.4762 184.803 99.1655 184.312 100.074C183.832 100.972 183.592 102.058 183.592 103.332ZM229.916 93.965C229.749 92.4821 229.06 91.3334 227.848 90.5189C226.637 89.6939 225.112 89.2815 223.275 89.2815C221.959 89.2815 220.821 89.4903 219.86 89.908C218.899 90.3153 218.152 90.8792 217.62 91.5997C217.098 92.3098 216.837 93.1191 216.837 94.0277C216.837 94.79 217.014 95.4479 217.369 96.0013C217.735 96.5548 218.21 97.0195 218.795 97.3954C219.39 97.7609 220.027 98.069 220.706 98.3196C221.384 98.5598 222.037 98.7582 222.664 98.9148L225.796 99.7294C226.82 99.98 227.869 100.319 228.945 100.748C230.021 101.176 231.018 101.74 231.937 102.439C232.856 103.139 233.597 104.006 234.161 105.039C234.735 106.073 235.023 107.311 235.023 108.752C235.023 110.569 234.553 112.182 233.613 113.592C232.683 115.002 231.331 116.114 229.556 116.928C227.791 117.743 225.655 118.15 223.149 118.15C220.747 118.15 218.669 117.769 216.915 117.007C215.161 116.244 213.787 115.164 212.795 113.764C211.803 112.355 211.255 110.684 211.151 108.752H216.006C216.1 109.911 216.476 110.877 217.134 111.65C217.803 112.412 218.654 112.981 219.687 113.357C220.732 113.723 221.875 113.905 223.118 113.905C224.486 113.905 225.702 113.691 226.768 113.263C227.843 112.824 228.689 112.219 229.305 111.446C229.921 110.663 230.229 109.749 230.229 108.705C230.229 107.755 229.958 106.977 229.415 106.371C228.882 105.765 228.157 105.264 227.238 104.867C226.329 104.47 225.3 104.121 224.152 103.818L220.361 102.784C217.792 102.084 215.756 101.056 214.252 99.698C212.759 98.3405 212.012 96.5443 212.012 94.3096C212.012 92.4613 212.513 90.8479 213.516 89.4694C214.518 88.091 215.876 87.0206 217.589 86.2583C219.301 85.4855 221.233 85.0992 223.384 85.0992C225.556 85.0992 227.473 85.4803 229.133 86.2426C230.804 87.005 232.119 88.0544 233.08 89.3911C234.041 90.7173 234.542 92.242 234.584 93.965H229.916ZM237.98 117.618V93.5577H242.664V117.618H237.98ZM240.345 89.8454C239.531 89.8454 238.831 89.5739 238.246 89.0308C237.672 88.4774 237.385 87.8195 237.385 87.0572C237.385 86.2844 237.672 85.6265 238.246 85.0835C238.831 84.53 239.531 84.2533 240.345 84.2533C241.16 84.2533 241.854 84.53 242.429 85.0835C243.013 85.6265 243.306 86.2844 243.306 87.0572C243.306 87.8195 243.013 88.4774 242.429 89.0308C241.854 89.5739 241.16 89.8454 240.345 89.8454ZM246.514 117.618V93.5577H251.009V97.4737H251.307C251.808 96.1475 252.628 95.1137 253.766 94.3723C254.905 93.6204 256.267 93.2445 257.855 93.2445C259.463 93.2445 260.81 93.6204 261.896 94.3723C262.992 95.1241 263.802 96.158 264.324 97.4737H264.574C265.149 96.1893 266.063 95.1659 267.316 94.4036C268.569 93.6308 270.062 93.2445 271.796 93.2445C273.978 93.2445 275.759 93.9285 277.137 95.2964C278.526 96.6644 279.22 98.7269 279.22 101.484V117.618H274.537V101.922C274.537 100.293 274.093 99.1132 273.205 98.3823C272.318 97.6513 271.258 97.2858 270.026 97.2858C268.501 97.2858 267.316 97.7557 266.47 98.6955C265.624 99.6249 265.201 100.821 265.201 102.283V117.618H260.533V101.625C260.533 100.319 260.126 99.2699 259.311 98.4762C258.497 97.6826 257.437 97.2858 256.132 97.2858C255.244 97.2858 254.424 97.5207 253.672 97.9907C252.931 98.4501 252.33 99.0924 251.871 99.9173C251.422 100.742 251.197 101.698 251.197 102.784V117.618H246.514ZM283.047 117.618V93.5577H287.543V97.4737H287.84C288.342 96.1475 289.161 95.1137 290.3 94.3723C291.438 93.6204 292.801 93.2445 294.388 93.2445C295.996 93.2445 297.343 93.6204 298.429 94.3723C299.526 95.1241 300.335 96.158 300.857 97.4737H301.108C301.682 96.1893 302.596 95.1659 303.849 94.4036C305.102 93.6308 306.595 93.2445 308.329 93.2445C310.511 93.2445 312.292 93.9285 313.67 95.2964C315.059 96.6644 315.754 98.7269 315.754 101.484V117.618H311.07V101.922C311.07 100.293 310.626 99.1132 309.739 98.3823C308.851 97.6513 307.791 97.2858 306.559 97.2858C305.034 97.2858 303.849 97.7557 303.003 98.6955C302.157 99.6249 301.734 100.821 301.734 102.283V117.618H297.066V101.625C297.066 100.319 296.659 99.2699 295.845 98.4762C295.03 97.6826 293.97 97.2858 292.665 97.2858C291.777 97.2858 290.957 97.5207 290.206 97.9907C289.464 98.4501 288.864 99.0924 288.404 99.9173C287.955 100.742 287.731 101.698 287.731 102.784V117.618H283.047ZM329.715 118.103C327.459 118.103 325.491 117.586 323.81 116.553C322.128 115.519 320.823 114.072 319.894 112.214C318.964 110.355 318.5 108.183 318.5 105.697C318.5 103.202 318.964 101.019 319.894 99.1498C320.823 97.2806 322.128 95.829 323.81 94.7952C325.491 93.7614 327.459 93.2445 329.715 93.2445C331.971 93.2445 333.939 93.7614 335.62 94.7952C337.302 95.829 338.607 97.2806 339.536 99.1498C340.466 101.019 340.931 103.202 340.931 105.697C340.931 108.183 340.466 110.355 339.536 112.214C338.607 114.072 337.302 115.519 335.62 116.553C333.939 117.586 331.971 118.103 329.715 118.103ZM329.731 114.172C331.193 114.172 332.404 113.785 333.365 113.012C334.326 112.24 335.036 111.211 335.495 109.927C335.965 108.642 336.2 107.227 336.2 105.682C336.2 104.147 335.965 102.737 335.495 101.452C335.036 100.158 334.326 99.1185 333.365 98.3353C332.404 97.5521 331.193 97.1605 329.731 97.1605C328.258 97.1605 327.037 97.5521 326.065 98.3353C325.105 99.1185 324.389 100.158 323.919 101.452C323.46 102.737 323.23 104.147 323.23 105.682C323.23 107.227 323.46 108.642 323.919 109.927C324.389 111.211 325.105 112.24 326.065 113.012C327.037 113.785 328.258 114.172 329.731 114.172ZM348.391 103.332V117.618H343.708V93.5577H348.203V97.4737H348.501C349.054 96.1997 349.921 95.1764 351.101 94.4036C352.292 93.6308 353.79 93.2445 355.597 93.2445C357.236 93.2445 358.672 93.5891 359.904 94.2783C361.137 94.9571 362.092 95.97 362.771 97.3171C363.45 98.6642 363.789 100.33 363.789 102.314V117.618H359.106V102.878C359.106 101.134 358.651 99.7711 357.743 98.7895C356.834 97.7975 355.586 97.3014 353.999 97.3014C352.913 97.3014 351.947 97.5364 351.101 98.0063C350.266 98.4762 349.603 99.1655 349.112 100.074C348.632 100.972 348.391 102.058 348.391 103.332ZM385.649 99.4317L381.404 100.184C381.227 99.6406 380.945 99.1237 380.558 98.6329C380.182 98.1421 379.671 97.74 379.023 97.4267C378.376 97.1135 377.566 96.9568 376.595 96.9568C375.269 96.9568 374.162 97.2544 373.275 97.8497C372.387 98.4345 371.943 99.1916 371.943 100.121C371.943 100.925 372.241 101.572 372.836 102.063C373.431 102.554 374.392 102.956 375.718 103.269L379.54 104.147C381.754 104.658 383.404 105.447 384.49 106.512C385.576 107.577 386.119 108.961 386.119 110.663C386.119 112.104 385.701 113.388 384.866 114.516C384.041 115.634 382.887 116.511 381.404 117.148C379.932 117.785 378.224 118.103 376.282 118.103C373.588 118.103 371.39 117.529 369.687 116.38C367.985 115.221 366.941 113.576 366.555 111.446L371.082 110.757C371.364 111.937 371.943 112.83 372.82 113.435C373.697 114.031 374.841 114.328 376.251 114.328C377.786 114.328 379.013 114.01 379.932 113.373C380.851 112.725 381.31 111.937 381.31 111.007C381.31 110.256 381.028 109.624 380.464 109.112C379.911 108.6 379.06 108.214 377.911 107.953L373.838 107.06C371.593 106.548 369.933 105.734 368.857 104.617C367.792 103.499 367.26 102.084 367.26 100.372C367.26 98.9514 367.656 97.7087 368.45 96.6435C369.244 95.5784 370.34 94.7482 371.739 94.153C373.139 93.5473 374.742 93.2445 376.548 93.2445C379.149 93.2445 381.195 93.8084 382.689 94.9362C384.182 96.0535 385.169 97.5521 385.649 99.4317Z" fill="white"/>
<path d="M37.9148 176.955V165.816H38.6283V176.955H37.9148ZM40.1469 169.271C40.1005 168.859 39.909 168.54 39.5725 168.313C39.236 168.084 38.8125 167.97 38.302 167.97C37.9365 167.97 37.6203 168.028 37.3535 168.144C37.0866 168.257 36.8792 168.413 36.7313 168.613C36.5862 168.811 36.5137 169.036 36.5137 169.288C36.5137 169.5 36.563 169.682 36.6616 169.836C36.7632 169.99 36.8951 170.119 37.0576 170.223C37.2229 170.325 37.3999 170.411 37.5884 170.48C37.777 170.547 37.9583 170.602 38.1323 170.645L39.0025 170.872C39.2868 170.941 39.5783 171.036 39.8771 171.155C40.1759 171.273 40.4529 171.43 40.7082 171.624C40.9634 171.819 41.1694 172.06 41.326 172.347C41.4856 172.634 41.5653 172.978 41.5653 173.378C41.5653 173.883 41.4348 174.331 41.1737 174.722C40.9156 175.114 40.5399 175.423 40.0468 175.649C39.5566 175.876 38.9634 175.989 38.2672 175.989C37.6 175.989 37.0228 175.883 36.5355 175.671C36.0481 175.459 35.6667 175.159 35.3911 174.77C35.1155 174.379 34.9632 173.915 34.9342 173.378H36.2831C36.3092 173.7 36.4136 173.968 36.5964 174.183C36.782 174.395 37.0184 174.553 37.3056 174.657C37.5957 174.759 37.9133 174.809 38.2585 174.809C38.6385 174.809 38.9764 174.75 39.2723 174.631C39.5711 174.509 39.806 174.341 39.9772 174.126C40.1483 173.909 40.2339 173.655 40.2339 173.365C40.2339 173.101 40.1585 172.885 40.0076 172.717C39.8597 172.548 39.6581 172.409 39.4028 172.299C39.1505 172.189 38.8647 172.091 38.5457 172.007L37.4927 171.72C36.7791 171.526 36.2135 171.24 35.7958 170.863C35.381 170.486 35.1736 169.987 35.1736 169.366C35.1736 168.853 35.3128 168.405 35.5913 168.022C35.8697 167.639 36.2468 167.342 36.7225 167.13C37.1983 166.915 37.7349 166.808 38.3325 166.808C38.9358 166.808 39.4681 166.914 39.9293 167.125C40.3934 167.337 40.7589 167.629 41.0258 168C41.2927 168.368 41.4319 168.792 41.4435 169.271H40.1469ZM45.8183 166.93V175.841H44.4695V168.278H44.4173L42.2852 169.671V168.383L44.5087 166.93H45.8183ZM50.7186 175.989C50.0311 175.986 49.4437 175.804 48.9564 175.445C48.469 175.085 48.0963 174.561 47.8381 173.874C47.58 173.187 47.4509 172.358 47.4509 171.39C47.4509 170.424 47.58 169.598 47.8381 168.914C48.0992 168.229 48.4734 167.707 48.9607 167.347C49.4509 166.988 50.0369 166.808 50.7186 166.808C51.4002 166.808 51.9847 166.989 52.4721 167.352C52.9594 167.711 53.3321 168.233 53.5903 168.918C53.8514 169.6 53.9819 170.424 53.9819 171.39C53.9819 172.361 53.8528 173.191 53.5947 173.878C53.3365 174.563 52.9637 175.087 52.4764 175.449C51.9891 175.809 51.4031 175.989 50.7186 175.989ZM50.7186 174.827C51.3219 174.827 51.7933 174.532 52.1327 173.944C52.475 173.355 52.6461 172.503 52.6461 171.39C52.6461 170.65 52.5678 170.025 52.4112 169.514C52.2574 169.001 52.0355 168.612 51.7454 168.348C51.4583 168.081 51.116 167.948 50.7186 167.948C50.1181 167.948 49.6467 168.244 49.3045 168.835C48.9622 169.427 48.7896 170.279 48.7867 171.39C48.7867 172.132 48.8635 172.76 49.0173 173.274C49.1739 173.784 49.3958 174.171 49.683 174.435C49.9702 174.696 50.3154 174.827 50.7186 174.827ZM58.0152 175.989C57.3277 175.986 56.7403 175.804 56.253 175.445C55.7656 175.085 55.3929 174.561 55.1347 173.874C54.8766 173.187 54.7475 172.358 54.7475 171.39C54.7475 170.424 54.8766 169.598 55.1347 168.914C55.3958 168.229 55.77 167.707 56.2573 167.347C56.7476 166.988 57.3335 166.808 58.0152 166.808C58.6969 166.808 59.2814 166.989 59.7687 167.352C60.256 167.711 60.6287 168.233 60.8869 168.918C61.148 169.6 61.2785 170.424 61.2785 171.39C61.2785 172.361 61.1494 173.191 60.8913 173.878C60.6331 174.563 60.2604 175.087 59.773 175.449C59.2857 175.809 58.6998 175.989 58.0152 175.989ZM58.0152 174.827C58.6185 174.827 59.0899 174.532 59.4293 173.944C59.7716 173.355 59.9427 172.503 59.9427 171.39C59.9427 170.65 59.8644 170.025 59.7078 169.514C59.554 169.001 59.3321 168.612 59.042 168.348C58.7549 168.081 58.4126 167.948 58.0152 167.948C57.4147 167.948 56.9434 168.244 56.6011 168.835C56.2588 169.427 56.0862 170.279 56.0833 171.39C56.0833 172.132 56.1602 172.76 56.3139 173.274C56.4705 173.784 56.6924 174.171 56.9796 174.435C57.2668 174.696 57.612 174.827 58.0152 174.827ZM65.3118 175.989C64.6243 175.986 64.0369 175.804 63.5496 175.445C63.0623 175.085 62.6895 174.561 62.4313 173.874C62.1732 173.187 62.0441 172.358 62.0441 171.39C62.0441 170.424 62.1732 169.598 62.4313 168.914C62.6924 168.229 63.0666 167.707 63.5539 167.347C64.0442 166.988 64.6301 166.808 65.3118 166.808C65.9935 166.808 66.578 166.989 67.0653 167.352C67.5526 167.711 67.9254 168.233 68.1835 168.918C68.4446 169.6 68.5751 170.424 68.5751 171.39C68.5751 172.361 68.446 173.191 68.1879 173.878C67.9297 174.563 67.557 175.087 67.0696 175.449C66.5823 175.809 65.9964 175.989 65.3118 175.989ZM65.3118 174.827C65.9151 174.827 66.3865 174.532 66.7259 173.944C67.0682 173.355 67.2393 172.503 67.2393 171.39C67.2393 170.65 67.161 170.025 67.0044 169.514C66.8506 169.001 66.6287 168.612 66.3386 168.348C66.0515 168.081 65.7092 167.948 65.3118 167.948C64.7113 167.948 64.24 168.244 63.8977 168.835C63.5554 169.427 63.3828 170.279 63.3799 171.39C63.3799 172.132 63.4568 172.76 63.6105 173.274C63.7671 173.784 63.989 174.171 64.2762 174.435C64.5634 174.696 64.9086 174.827 65.3118 174.827Z" fill="#464646"/>
<path d="M37.9148 230.488V219.349H38.6283V230.488H37.9148ZM40.1469 222.803C40.1005 222.392 39.909 222.072 39.5725 221.846C39.236 221.617 38.8125 221.502 38.302 221.502C37.9365 221.502 37.6203 221.561 37.3535 221.677C37.0866 221.79 36.8792 221.946 36.7313 222.146C36.5862 222.344 36.5137 222.569 36.5137 222.821C36.5137 223.033 36.563 223.215 36.6616 223.369C36.7632 223.523 36.8951 223.652 37.0576 223.756C37.2229 223.858 37.3999 223.943 37.5884 224.013C37.777 224.08 37.9583 224.135 38.1323 224.178L39.0025 224.405C39.2868 224.474 39.5783 224.569 39.8771 224.688C40.1759 224.806 40.4529 224.963 40.7082 225.157C40.9634 225.352 41.1694 225.593 41.326 225.88C41.4856 226.167 41.5653 226.511 41.5653 226.911C41.5653 227.416 41.4348 227.864 41.1737 228.255C40.9156 228.647 40.5399 228.956 40.0468 229.182C39.5566 229.408 38.9634 229.522 38.2672 229.522C37.6 229.522 37.0228 229.416 36.5355 229.204C36.0481 228.992 35.6667 228.692 35.3911 228.303C35.1155 227.912 34.9632 227.448 34.9342 226.911H36.2831C36.3092 227.233 36.4136 227.501 36.5964 227.716C36.782 227.928 37.0184 228.086 37.3056 228.19C37.5957 228.292 37.9133 228.342 38.2585 228.342C38.6385 228.342 38.9764 228.283 39.2723 228.164C39.5711 228.042 39.806 227.874 39.9772 227.659C40.1483 227.442 40.2339 227.188 40.2339 226.898C40.2339 226.634 40.1585 226.418 40.0076 226.25C39.8597 226.081 39.6581 225.942 39.4028 225.832C39.1505 225.722 38.8647 225.624 38.5457 225.54L37.4927 225.253C36.7791 225.059 36.2135 224.773 35.7958 224.396C35.381 224.019 35.1736 223.52 35.1736 222.899C35.1736 222.386 35.3128 221.938 35.5913 221.555C35.8697 221.172 36.2468 220.874 36.7225 220.663C37.1983 220.448 37.7349 220.341 38.3325 220.341C38.9358 220.341 39.4681 220.447 39.9293 220.658C40.3934 220.87 40.7589 221.162 41.0258 221.533C41.2927 221.901 41.4319 222.325 41.4435 222.803H40.1469ZM45.3789 229.495C44.8335 229.495 44.3433 229.391 43.9082 229.182C43.476 228.97 43.1308 228.68 42.8726 228.312C42.6145 227.944 42.4767 227.523 42.4593 227.05H43.7646C43.7965 227.433 43.9662 227.748 44.2737 227.994C44.5812 228.241 44.9496 228.364 45.3789 228.364C45.7212 228.364 46.0243 228.286 46.2883 228.129C46.5551 227.97 46.764 227.751 46.9148 227.472C47.0686 227.194 47.1454 226.876 47.1454 226.519C47.1454 226.157 47.0671 225.833 46.9105 225.549C46.7538 225.265 46.5377 225.041 46.2622 224.879C45.9895 224.717 45.6762 224.634 45.3223 224.631C45.0525 224.631 44.7813 224.677 44.5087 224.77C44.236 224.863 44.0155 224.985 43.8473 225.136L42.6159 224.953L43.1163 220.463H48.0157V221.616H44.2345L43.9517 224.109H44.0039C44.178 223.941 44.4086 223.8 44.6958 223.687C44.9858 223.574 45.2962 223.517 45.6269 223.517C46.1693 223.517 46.6523 223.646 47.0758 223.904C47.5022 224.162 47.8373 224.515 48.0809 224.962C48.3275 225.405 48.4493 225.916 48.4464 226.493C48.4493 227.07 48.3188 227.585 48.0548 228.038C47.7937 228.49 47.4312 228.847 46.967 229.108C46.5058 229.366 45.9764 229.495 45.3789 229.495ZM52.5254 229.522C51.8379 229.519 51.2505 229.337 50.7632 228.978C50.2758 228.618 49.9031 228.094 49.6449 227.407C49.3868 226.719 49.2577 225.891 49.2577 224.922C49.2577 223.957 49.3868 223.131 49.6449 222.447C49.906 221.762 50.2802 221.24 50.7675 220.88C51.2577 220.521 51.8437 220.341 52.5254 220.341C53.207 220.341 53.7915 220.522 54.2789 220.885C54.7662 221.244 55.1389 221.766 55.3971 222.451C55.6582 223.133 55.7887 223.957 55.7887 224.922C55.7887 225.894 55.6596 226.724 55.4015 227.411C55.1433 228.096 54.7705 228.619 54.2832 228.982C53.7959 229.342 53.2099 229.522 52.5254 229.522ZM52.5254 228.36C53.1287 228.36 53.6001 228.065 53.9395 227.477C54.2818 226.888 54.4529 226.036 54.4529 224.922C54.4529 224.183 54.3746 223.558 54.218 223.047C54.0642 222.534 53.8423 222.145 53.5522 221.881C53.2651 221.614 52.9228 221.481 52.5254 221.481C51.9249 221.481 51.4535 221.777 51.1113 222.368C50.769 222.96 50.5964 223.811 50.5935 224.922C50.5935 225.665 50.6703 226.293 50.8241 226.806C50.9807 227.317 51.2026 227.704 51.4898 227.968C51.777 228.229 52.1222 228.36 52.5254 228.36ZM59.822 229.522C59.1345 229.519 58.5471 229.337 58.0598 228.978C57.5725 228.618 57.1997 228.094 56.9415 227.407C56.6834 226.719 56.5543 225.891 56.5543 224.922C56.5543 223.957 56.6834 223.131 56.9415 222.447C57.2026 221.762 57.5768 221.24 58.0641 220.88C58.5544 220.521 59.1403 220.341 59.822 220.341C60.5037 220.341 61.0882 220.522 61.5755 220.885C62.0628 221.244 62.4355 221.766 62.6937 222.451C62.9548 223.133 63.0853 223.957 63.0853 224.922C63.0853 225.894 62.9562 226.724 62.6981 227.411C62.4399 228.096 62.0672 228.619 61.5798 228.982C61.0925 229.342 60.5066 229.522 59.822 229.522ZM59.822 228.36C60.4253 228.36 60.8967 228.065 61.2361 227.477C61.5784 226.888 61.7495 226.036 61.7495 224.922C61.7495 224.183 61.6712 223.558 61.5146 223.047C61.3608 222.534 61.1389 222.145 60.8488 221.881C60.5617 221.614 60.2194 221.481 59.822 221.481C59.2215 221.481 58.7502 221.777 58.4079 222.368C58.0656 222.96 57.893 223.811 57.8901 224.922C57.8901 225.665 57.967 226.293 58.1207 226.806C58.2773 227.317 58.4992 227.704 58.7864 227.968C59.0736 228.229 59.4188 228.36 59.822 228.36Z" fill="#464646"/>
<path d="M37.9148 284.021V272.882H38.6283V284.021H37.9148ZM40.1469 276.336C40.1005 275.925 39.909 275.605 39.5725 275.379C39.236 275.15 38.8125 275.035 38.302 275.035C37.9365 275.035 37.6203 275.093 37.3535 275.209C37.0866 275.323 36.8792 275.479 36.7313 275.679C36.5862 275.877 36.5137 276.101 36.5137 276.354C36.5137 276.566 36.563 276.748 36.6616 276.902C36.7632 277.056 36.8951 277.185 37.0576 277.289C37.2229 277.391 37.3999 277.476 37.5884 277.546C37.777 277.613 37.9583 277.668 38.1323 277.711L39.0025 277.938C39.2868 278.007 39.5783 278.102 39.8771 278.22C40.1759 278.339 40.4529 278.496 40.7082 278.69C40.9634 278.885 41.1694 279.125 41.326 279.413C41.4856 279.7 41.5653 280.044 41.5653 280.444C41.5653 280.949 41.4348 281.397 41.1737 281.788C40.9156 282.18 40.5399 282.489 40.0468 282.715C39.5566 282.941 38.9634 283.055 38.2672 283.055C37.6 283.055 37.0228 282.949 36.5355 282.737C36.0481 282.525 35.6667 282.225 35.3911 281.836C35.1155 281.445 34.9632 280.981 34.9342 280.444H36.2831C36.3092 280.766 36.4136 281.034 36.5964 281.249C36.782 281.461 37.0184 281.619 37.3056 281.723C37.5957 281.825 37.9133 281.875 38.2585 281.875C38.6385 281.875 38.9764 281.816 39.2723 281.697C39.5711 281.575 39.806 281.407 39.9772 281.192C40.1483 280.975 40.2339 280.721 40.2339 280.431C40.2339 280.167 40.1585 279.951 40.0076 279.783C39.8597 279.614 39.6581 279.475 39.4028 279.365C39.1505 279.255 38.8647 279.157 38.5457 279.073L37.4927 278.786C36.7791 278.592 36.2135 278.306 35.7958 277.929C35.381 277.552 35.1736 277.053 35.1736 276.432C35.1736 275.919 35.3128 275.471 35.5913 275.088C35.8697 274.705 36.2468 274.407 36.7225 274.196C37.1983 273.981 37.7349 273.874 38.3325 273.874C38.9358 273.874 39.4681 273.98 39.9293 274.191C40.3934 274.403 40.7589 274.695 41.0258 275.066C41.2927 275.434 41.4319 275.858 41.4435 276.336H40.1469ZM42.4375 282.907V281.932L45.4528 278.808C45.7748 278.468 46.0402 278.171 46.2491 277.916C46.4609 277.658 46.6189 277.413 46.7234 277.181C46.8278 276.948 46.88 276.702 46.88 276.441C46.88 276.145 46.8104 275.89 46.6712 275.675C46.5319 275.458 46.3419 275.291 46.1012 275.175C45.8604 275.056 45.5892 274.996 45.2875 274.996C44.9684 274.996 44.69 275.062 44.4521 275.192C44.2142 275.323 44.0315 275.507 43.9039 275.745C43.7762 275.983 43.7124 276.261 43.7124 276.58H42.4288C42.4288 276.038 42.5536 275.563 42.803 275.157C43.0525 274.751 43.3948 274.436 43.8299 274.213C44.265 273.987 44.7596 273.874 45.3136 273.874C45.8735 273.874 46.3666 273.985 46.793 274.209C47.2223 274.429 47.5573 274.731 47.7981 275.114C48.0389 275.494 48.1592 275.923 48.1592 276.402C48.1592 276.732 48.0969 277.056 47.9721 277.372C47.8503 277.688 47.6371 278.041 47.3325 278.429C47.028 278.815 46.6044 279.284 46.062 279.835L44.2911 281.688V281.754H48.3028V282.907H42.4375ZM52.4416 283.055C51.7541 283.052 51.1667 282.87 50.6794 282.511C50.1921 282.151 49.8193 281.627 49.5612 280.94C49.303 280.252 49.1739 279.424 49.1739 278.455C49.1739 277.489 49.303 276.664 49.5612 275.98C49.8222 275.295 50.1964 274.773 50.6838 274.413C51.174 274.054 51.7599 273.874 52.4416 273.874C53.1233 273.874 53.7078 274.055 54.1951 274.418C54.6824 274.777 55.0552 275.299 55.3134 275.984C55.5744 276.666 55.705 277.489 55.705 278.455C55.705 279.427 55.5759 280.257 55.3177 280.944C55.0595 281.629 54.6868 282.152 54.1995 282.515C53.7121 282.875 53.1262 283.055 52.4416 283.055ZM52.4416 281.893C53.045 281.893 53.5163 281.598 53.8557 281.01C54.198 280.421 54.3692 279.569 54.3692 278.455C54.3692 277.716 54.2908 277.091 54.1342 276.58C53.9805 276.067 53.7586 275.678 53.4685 275.414C53.1813 275.147 52.839 275.014 52.4416 275.014C51.8412 275.014 51.3698 275.31 51.0275 275.901C50.6852 276.493 50.5126 277.344 50.5097 278.455C50.5097 279.198 50.5866 279.826 50.7403 280.339C50.897 280.85 51.1189 281.237 51.406 281.501C51.6932 281.762 52.0384 281.893 52.4416 281.893ZM59.7382 283.055C59.0507 283.052 58.4633 282.87 57.976 282.511C57.4887 282.151 57.1159 281.627 56.8578 280.94C56.5996 280.252 56.4705 279.424 56.4705 278.455C56.4705 277.489 56.5996 276.664 56.8578 275.98C57.1188 275.295 57.493 274.773 57.9804 274.413C58.4706 274.054 59.0565 273.874 59.7382 273.874C60.4199 273.874 61.0044 274.055 61.4917 274.418C61.979 274.777 62.3518 275.299 62.61 275.984C62.871 276.666 63.0016 277.489 63.0016 278.455C63.0016 279.427 62.8725 280.257 62.6143 280.944C62.3561 281.629 61.9834 282.152 61.4961 282.515C61.0087 282.875 60.4228 283.055 59.7382 283.055ZM59.7382 281.893C60.3416 281.893 60.8129 281.598 61.1523 281.01C61.4946 280.421 61.6658 279.569 61.6658 278.455C61.6658 277.716 61.5874 277.091 61.4308 276.58C61.2771 276.067 61.0552 275.678 60.7651 275.414C60.4779 275.147 60.1356 275.014 59.7382 275.014C59.1378 275.014 58.6664 275.31 58.3241 275.901C57.9818 276.493 57.8092 277.344 57.8063 278.455C57.8063 279.198 57.8832 279.826 58.0369 280.339C58.1936 280.85 58.4155 281.237 58.7027 281.501C58.9898 281.762 59.335 281.893 59.7382 281.893Z" fill="#464646"/>
<path d="M37.9148 337.553V326.415H38.6283V337.553H37.9148ZM40.1469 329.869C40.1005 329.457 39.909 329.138 39.5725 328.912C39.236 328.683 38.8125 328.568 38.302 328.568C37.9365 328.568 37.6203 328.626 37.3535 328.742C37.0866 328.856 36.8792 329.012 36.7313 329.212C36.5862 329.41 36.5137 329.634 36.5137 329.887C36.5137 330.099 36.563 330.281 36.6616 330.435C36.7632 330.589 36.8951 330.718 37.0576 330.822C37.2229 330.924 37.3999 331.009 37.5884 331.079C37.777 331.146 37.9583 331.201 38.1323 331.244L39.0025 331.471C39.2868 331.54 39.5783 331.634 39.8771 331.753C40.1759 331.872 40.4529 332.029 40.7082 332.223C40.9634 332.418 41.1694 332.658 41.326 332.946C41.4856 333.233 41.5653 333.577 41.5653 333.977C41.5653 334.482 41.4348 334.93 41.1737 335.321C40.9156 335.713 40.5399 336.022 40.0468 336.248C39.5566 336.474 38.9634 336.588 38.2672 336.588C37.6 336.588 37.0228 336.482 36.5355 336.27C36.0481 336.058 35.6667 335.758 35.3911 335.369C35.1155 334.978 34.9632 334.513 34.9342 333.977H36.2831C36.3092 334.299 36.4136 334.567 36.5964 334.782C36.782 334.994 37.0184 335.152 37.3056 335.256C37.5957 335.358 37.9133 335.408 38.2585 335.408C38.6385 335.408 38.9764 335.349 39.2723 335.23C39.5711 335.108 39.806 334.94 39.9772 334.725C40.1483 334.508 40.2339 334.254 40.2339 333.964C40.2339 333.7 40.1585 333.484 40.0076 333.315C39.8597 333.147 39.6581 333.008 39.4028 332.898C39.1505 332.788 38.8647 332.69 38.5457 332.606L37.4927 332.319C36.7791 332.125 36.2135 331.839 35.7958 331.462C35.381 331.085 35.1736 330.586 35.1736 329.965C35.1736 329.452 35.3128 329.004 35.5913 328.621C35.8697 328.238 36.2468 327.94 36.7225 327.729C37.1983 327.514 37.7349 327.407 38.3325 327.407C38.9358 327.407 39.4681 327.513 39.9293 327.724C40.3934 327.936 40.7589 328.228 41.0258 328.599C41.2927 328.967 41.4319 329.391 41.4435 329.869H40.1469ZM45.5399 336.588C44.8524 336.585 44.265 336.403 43.7777 336.044C43.2903 335.684 42.9176 335.16 42.6594 334.473C42.4013 333.785 42.2722 332.957 42.2722 331.988C42.2722 331.022 42.4013 330.197 42.6594 329.513C42.9205 328.828 43.2947 328.306 43.782 327.946C44.2722 327.587 44.8582 327.407 45.5399 327.407C46.2215 327.407 46.806 327.588 47.2934 327.951C47.7807 328.31 48.1534 328.832 48.4116 329.517C48.6727 330.199 48.8032 331.022 48.8032 331.988C48.8032 332.96 48.6741 333.79 48.416 334.477C48.1578 335.162 47.785 335.685 47.2977 336.048C46.8104 336.408 46.2244 336.588 45.5399 336.588ZM45.5399 335.426C46.1432 335.426 46.6146 335.131 46.954 334.542C47.2963 333.954 47.4674 333.102 47.4674 331.988C47.4674 331.249 47.3891 330.624 47.2325 330.113C47.0787 329.6 46.8568 329.211 46.5667 328.947C46.2796 328.68 45.9373 328.547 45.5399 328.547C44.9394 328.547 44.468 328.843 44.1258 329.434C43.7835 330.026 43.6109 330.877 43.608 331.988C43.608 332.731 43.6848 333.359 43.8386 333.872C43.9952 334.383 44.2171 334.77 44.5043 335.034C44.7915 335.295 45.1367 335.426 45.5399 335.426Z" fill="#464646"/>
<line opacity="0.4" x1="0.306319" y1="-0.306319" x2="520.177" y2="-0.306319" transform="matrix(0.999998 -0.00192307 0.00289248 0.999996 79.1099 173.965)" stroke="#CCCCCC" stroke-width="0.612637" stroke-linecap="round" stroke-dasharray="12.25 9.8"/>
<line opacity="0.4" x1="0.306319" y1="-0.306319" x2="520.177" y2="-0.306319" transform="matrix(0.999998 -0.00192307 0.00289248 0.999996 79.1099 226.426)" stroke="#CCCCCC" stroke-width="0.612637" stroke-linecap="round" stroke-dasharray="12.25 9.8"/>
<line opacity="0.4" x1="0.306319" y1="-0.306319" x2="520.177" y2="-0.306319" transform="matrix(0.999998 -0.00192307 0.00289248 0.999996 79.1099 278.888)" stroke="#CCCCCC" stroke-width="0.612637" stroke-linecap="round" stroke-dasharray="12.25 9.8"/>
<line opacity="0.4" x1="0.306319" y1="-0.306319" x2="520.177" y2="-0.306319" transform="matrix(0.999998 -0.00192307 0.00289248 0.999996 79.1099 331.349)" stroke="#CCCCCC" stroke-width="0.612637" stroke-linecap="round" stroke-dasharray="12.25 9.8"/>
<rect x="92.1099" y="196.341" width="33" height="149" rx="7.35165" fill="#4A4A4A"/>
<path d="M92.1099 230.242C92.1099 227.535 94.3042 225.341 97.011 225.341H121.209C123.916 225.341 126.11 227.535 126.11 230.242V340.44C126.11 343.146 123.916 345.341 121.209 345.341H97.011C94.3042 345.341 92.1099 343.146 92.1099 340.44V230.242Z" fill="url(#paint0_linear_6001_14317)"/>
<rect x="149.615" y="189.341" width="33" height="156" rx="7.35165" fill="#4A4A4A"/>
<path d="M149.615 286.242C149.615 283.535 151.81 281.341 154.516 281.341H177.714C180.421 281.341 182.615 283.535 182.615 286.242V340.44C182.615 343.146 180.421 345.341 177.714 345.341H154.516C151.81 345.341 149.615 343.146 149.615 340.44V286.242Z" fill="url(#paint1_linear_6001_14317)"/>
<rect x="207.121" y="231.341" width="34" height="114" rx="7.35165" fill="#4A4A4A"/>
<path d="M207.121 244.242C207.121 241.535 209.315 239.341 212.022 239.341H236.22C238.927 239.341 241.121 241.535 241.121 244.242V340.44C241.121 343.146 238.927 345.341 236.22 345.341H212.022C209.315 345.341 207.121 343.146 207.121 340.44V244.242Z" fill="url(#paint2_linear_6001_14317)"/>
<rect x="265.626" y="288.341" width="33" height="57" rx="7.35165" fill="#4A4A4A"/>
<path d="M265.626 309.242C265.626 306.535 267.821 304.341 270.527 304.341H293.725C296.432 304.341 298.626 306.535 298.626 309.242V340.44C298.626 343.146 296.432 345.341 293.725 345.341H270.527C267.821 345.341 265.626 343.146 265.626 340.44V309.242Z" fill="url(#paint3_linear_6001_14317)"/>
<rect x="323.132" y="241.341" width="33" height="104" rx="7.35165" fill="#4A4A4A"/>
<path d="M323.132 263.242C323.132 260.535 325.326 258.341 328.033 258.341H351.231C353.938 258.341 356.132 260.535 356.132 263.242V340.44C356.132 343.146 353.938 345.341 351.231 345.341H328.033C325.326 345.341 323.132 343.146 323.132 340.44V263.242Z" fill="url(#paint4_linear_6001_14317)"/>
<rect x="380.637" y="241.341" width="33" height="104" rx="7.35165" fill="#4A4A4A"/>
<path d="M380.637 263.242C380.637 260.535 382.832 258.341 385.538 258.341H408.736C411.443 258.341 413.637 260.535 413.637 263.242V340.44C413.637 343.146 411.443 345.341 408.736 345.341H385.538C382.832 345.341 380.637 343.146 380.637 340.44V263.242Z" fill="url(#paint5_linear_6001_14317)"/>
<rect x="438.143" y="173.341" width="33" height="172" rx="7.35165" fill="#F6F4FE"/>
<rect x="438.143" y="173.341" width="33" height="172" rx="4.9011" fill="url(#paint6_linear_6001_14317)"/>
<rect x="495.648" y="241.341" width="33" height="104" rx="7.35165" fill="#4A4A4A"/>
<path d="M495.648 263.242C495.648 260.535 497.843 258.341 500.549 258.341H523.747C526.454 258.341 528.648 260.535 528.648 263.242V340.44C528.648 343.146 526.454 345.341 523.747 345.341H500.549C497.843 345.341 495.648 343.146 495.648 340.44V263.242Z" fill="url(#paint7_linear_6001_14317)"/>
<rect x="553.154" y="276.341" width="33" height="69" rx="7.35165" fill="#4A4A4A"/>
<path d="M46.04 387.18H44.1395C44.0664 386.774 43.9303 386.417 43.7313 386.108C43.5323 385.8 43.2887 385.538 43.0003 385.322C42.712 385.107 42.3892 384.945 42.0318 384.835C41.6785 384.725 41.3028 384.671 40.9048 384.671C40.186 384.671 39.5424 384.851 38.9738 385.213C38.4093 385.574 37.9626 386.104 37.6337 386.803C37.3088 387.501 37.1463 388.354 37.1463 389.361C37.1463 390.376 37.3088 391.233 37.6337 391.932C37.9626 392.63 38.4114 393.158 38.9799 393.516C39.5485 393.873 40.1881 394.052 40.8988 394.052C41.2927 394.052 41.6663 393.999 42.0196 393.893C42.377 393.784 42.6998 393.623 42.9882 393.412C43.2765 393.201 43.5202 392.943 43.7191 392.638C43.9222 392.33 44.0623 391.976 44.1395 391.578L46.04 391.585C45.9385 392.198 45.7415 392.762 45.4491 393.278C45.1608 393.79 44.7892 394.232 44.3344 394.606C43.8836 394.976 43.3679 395.262 42.7871 395.465C42.2064 395.668 41.5729 395.769 40.8866 395.769C39.8063 395.769 38.8439 395.514 37.9992 395.002C37.1545 394.486 36.4885 393.749 36.0011 392.791C35.5179 391.832 35.2762 390.689 35.2762 389.361C35.2762 388.029 35.5199 386.886 36.0072 385.932C36.4945 384.973 37.1606 384.238 38.0053 383.726C38.85 383.211 39.8104 382.953 40.8866 382.953C41.5485 382.953 42.1658 383.048 42.7384 383.239C43.3151 383.426 43.8329 383.702 44.2918 384.068C44.7507 384.429 45.1304 384.872 45.4309 385.396C45.7314 385.915 45.9344 386.51 46.04 387.18ZM53.4606 391.719V386.242H55.2881V395.599H53.4972V393.979H53.3997C53.1845 394.478 52.8393 394.894 52.3642 395.227C51.8931 395.556 51.3063 395.721 50.6037 395.721C50.0027 395.721 49.4707 395.589 49.0077 395.325C48.5488 395.057 48.1874 394.661 47.9234 394.137C47.6635 393.613 47.5336 392.965 47.5336 392.194V386.242H49.3549V391.974C49.3549 392.612 49.5316 393.12 49.8849 393.497C50.2382 393.875 50.6971 394.064 51.2616 394.064C51.6027 394.064 51.9418 393.979 52.2789 393.808C52.62 393.637 52.9022 393.38 53.1256 393.034C53.353 392.689 53.4647 392.251 53.4606 391.719ZM57.1228 395.599V386.242H58.8832V387.729H58.9807C59.1513 387.225 59.4518 386.829 59.8822 386.541C60.3168 386.248 60.8082 386.102 61.3564 386.102C61.4701 386.102 61.6041 386.106 61.7584 386.114C61.9168 386.122 62.0407 386.133 62.13 386.145V387.887C62.0569 387.867 61.927 387.844 61.7402 387.82C61.5534 387.792 61.3666 387.777 61.1797 387.777C60.7493 387.777 60.3655 387.869 60.0284 388.051C59.6954 388.23 59.4315 388.48 59.2365 388.801C59.0416 389.117 58.9441 389.479 58.9441 389.885V395.599H57.1228ZM63.0936 395.599V386.242H64.854V387.729H64.9515C65.1221 387.225 65.4226 386.829 65.8531 386.541C66.2876 386.248 66.779 386.102 67.3272 386.102C67.4409 386.102 67.5749 386.106 67.7293 386.114C67.8876 386.122 68.0115 386.133 68.1008 386.145V387.887C68.0277 387.867 67.8978 387.844 67.711 387.82C67.5242 387.792 67.3374 387.777 67.1506 387.777C66.7201 387.777 66.3363 387.869 65.9993 388.051C65.6663 388.23 65.4023 388.48 65.2074 388.801C65.0124 389.117 64.915 389.479 64.915 389.885V395.599H63.0936ZM72.762 395.788C71.8401 395.788 71.0462 395.591 70.3802 395.197C69.7182 394.799 69.2065 394.24 68.8451 393.522C68.4877 392.799 68.309 391.952 68.309 390.981C68.309 390.023 68.4877 389.178 68.8451 388.447C69.2065 387.716 69.7101 387.146 70.3558 386.736C71.0056 386.325 71.765 386.12 72.6341 386.12C73.162 386.12 73.6737 386.208 74.1691 386.382C74.6646 386.557 75.1093 386.831 75.5032 387.205C75.8971 387.578 76.2078 388.064 76.4352 388.661C76.6626 389.253 76.7763 389.974 76.7763 390.823V391.469H69.3385V390.104H74.9915C74.9915 389.625 74.894 389.201 74.6991 388.831C74.5042 388.458 74.23 388.163 73.8767 387.948C73.5275 387.733 73.1173 387.625 72.6462 387.625C72.1346 387.625 71.6878 387.751 71.3061 388.003C70.9284 388.25 70.636 388.575 70.4289 388.977C70.2259 389.375 70.1243 389.808 70.1243 390.275V391.341C70.1243 391.966 70.234 392.498 70.4533 392.937C70.6766 393.375 70.9873 393.71 71.3853 393.942C71.7833 394.169 72.2483 394.283 72.7803 394.283C73.1254 394.283 73.4402 394.234 73.7245 394.137C74.0087 394.035 74.2544 393.885 74.4615 393.686C74.6686 393.487 74.827 393.241 74.9367 392.949L76.6606 393.26C76.5225 393.767 76.2748 394.212 75.9174 394.594C75.5641 394.971 75.1194 395.266 74.5834 395.477C74.0514 395.684 73.4442 395.788 72.762 395.788ZM80.0059 390.043V395.599H78.1846V386.242H79.9328V387.765H80.0486C80.2638 387.27 80.6009 386.872 81.0598 386.571C81.5227 386.271 82.1055 386.12 82.8081 386.12C83.4456 386.12 84.004 386.254 84.4832 386.522C84.9624 386.786 85.334 387.18 85.598 387.704C85.862 388.228 85.9939 388.876 85.9939 389.647V395.599H84.1726V389.867C84.1726 389.189 83.9959 388.659 83.6426 388.277C83.2893 387.891 82.804 387.698 82.1867 387.698C81.7644 387.698 81.3887 387.789 81.0598 387.972C80.7349 388.155 80.477 388.423 80.2862 388.776C80.0993 389.126 80.0059 389.548 80.0059 390.043ZM92.1917 386.242V387.704H87.0809V386.242H92.1917ZM88.4515 384.001H90.2728V392.852C90.2728 393.205 90.3256 393.471 90.4312 393.65C90.5368 393.824 90.6729 393.944 90.8394 394.009C91.0099 394.07 91.1947 394.1 91.3937 394.1C91.5399 394.1 91.6678 394.09 91.7775 394.07C91.8871 394.05 91.9724 394.033 92.0333 394.021L92.3622 395.526C92.2567 395.566 92.1064 395.607 91.9115 395.648C91.7165 395.692 91.4729 395.717 91.1805 395.721C90.7013 395.729 90.2546 395.644 89.8403 395.465C89.4261 395.286 89.0911 395.01 88.8352 394.636C88.5794 394.263 88.4515 393.794 88.4515 393.229V384.001ZM97.5209 395.599V386.242H99.2692V387.765H99.3849C99.5799 387.249 99.8987 386.847 100.341 386.559C100.784 386.267 101.314 386.12 101.931 386.12C102.557 386.12 103.08 386.267 103.503 386.559C103.929 386.851 104.244 387.253 104.447 387.765H104.545C104.768 387.266 105.123 386.868 105.611 386.571C106.098 386.271 106.679 386.12 107.353 386.12C108.201 386.12 108.894 386.386 109.43 386.918C109.97 387.45 110.24 388.252 110.24 389.325V395.599H108.419V389.495C108.419 388.862 108.246 388.403 107.901 388.118C107.556 387.834 107.144 387.692 106.664 387.692C106.071 387.692 105.611 387.875 105.282 388.24C104.953 388.602 104.788 389.067 104.788 389.635V395.599H102.973V389.379C102.973 388.872 102.814 388.464 102.498 388.155C102.181 387.846 101.769 387.692 101.261 387.692C100.916 387.692 100.597 387.783 100.305 387.966C100.016 388.145 99.7829 388.395 99.6042 388.715C99.4296 389.036 99.3423 389.408 99.3423 389.83V395.599H97.5209ZM114.792 395.806C114.199 395.806 113.663 395.696 113.183 395.477C112.704 395.254 112.325 394.931 112.044 394.508C111.768 394.086 111.63 393.568 111.63 392.955C111.63 392.427 111.732 391.993 111.935 391.652C112.138 391.31 112.412 391.04 112.757 390.841C113.102 390.642 113.488 390.492 113.914 390.391C114.341 390.289 114.775 390.212 115.218 390.159C115.778 390.094 116.233 390.041 116.583 390.001C116.932 389.956 117.186 389.885 117.344 389.788C117.502 389.69 117.582 389.532 117.582 389.312V389.27C117.582 388.738 117.431 388.326 117.131 388.033C116.834 387.741 116.392 387.595 115.803 387.595C115.19 387.595 114.706 387.731 114.353 388.003C114.004 388.271 113.762 388.569 113.628 388.898L111.916 388.508C112.119 387.94 112.416 387.481 112.806 387.132C113.2 386.778 113.652 386.522 114.164 386.364C114.676 386.202 115.214 386.12 115.778 386.12C116.152 386.12 116.548 386.165 116.966 386.254C117.389 386.34 117.783 386.498 118.148 386.73C118.518 386.961 118.82 387.292 119.056 387.722C119.291 388.149 119.409 388.703 119.409 389.385V395.599H117.63V394.32H117.557C117.439 394.555 117.263 394.787 117.027 395.014C116.792 395.242 116.489 395.43 116.12 395.581C115.75 395.731 115.307 395.806 114.792 395.806ZM115.188 394.344C115.691 394.344 116.122 394.245 116.479 394.046C116.84 393.847 117.115 393.587 117.301 393.266C117.492 392.941 117.588 392.594 117.588 392.224V391.018C117.523 391.083 117.397 391.144 117.21 391.201C117.027 391.254 116.818 391.3 116.583 391.341C116.347 391.377 116.118 391.412 115.894 391.444C115.671 391.473 115.484 391.497 115.334 391.518C114.98 391.562 114.658 391.637 114.365 391.743C114.077 391.849 113.845 392.001 113.671 392.2C113.5 392.395 113.415 392.655 113.415 392.98C113.415 393.43 113.581 393.771 113.914 394.003C114.247 394.23 114.672 394.344 115.188 394.344ZM121.222 395.599V386.242H122.983V387.729H123.08C123.251 387.225 123.551 386.829 123.982 386.541C124.416 386.248 124.908 386.102 125.456 386.102C125.57 386.102 125.704 386.106 125.858 386.114C126.016 386.122 126.14 386.133 126.23 386.145V387.887C126.157 387.867 126.027 387.844 125.84 387.82C125.653 387.792 125.466 387.777 125.279 387.777C124.849 387.777 124.465 387.869 124.128 388.051C123.795 388.23 123.531 388.48 123.336 388.801C123.141 389.117 123.044 389.479 123.044 389.885V395.599H121.222ZM130.781 399.303C130.038 399.303 129.398 399.205 128.862 399.01C128.33 398.815 127.896 398.557 127.559 398.237C127.222 397.916 126.97 397.564 126.803 397.183L128.369 396.537C128.478 396.716 128.625 396.905 128.807 397.103C128.994 397.307 129.246 397.479 129.563 397.621C129.884 397.763 130.296 397.834 130.799 397.834C131.49 397.834 132.06 397.666 132.511 397.329C132.962 396.996 133.187 396.464 133.187 395.733V393.893H133.072C132.962 394.092 132.803 394.314 132.596 394.557C132.393 394.801 132.113 395.012 131.756 395.191C131.398 395.369 130.933 395.459 130.361 395.459C129.622 395.459 128.956 395.286 128.363 394.941C127.774 394.592 127.307 394.078 126.962 393.4C126.621 392.718 126.45 391.879 126.45 390.884C126.45 389.889 126.619 389.036 126.956 388.326C127.297 387.615 127.764 387.071 128.357 386.693C128.95 386.311 129.622 386.12 130.373 386.12C130.954 386.12 131.423 386.218 131.78 386.413C132.137 386.604 132.416 386.827 132.615 387.083C132.818 387.339 132.974 387.564 133.084 387.759H133.218V386.242H135.003V395.806C135.003 396.61 134.816 397.27 134.442 397.786C134.068 398.302 133.563 398.683 132.925 398.931C132.292 399.179 131.577 399.303 130.781 399.303ZM130.763 393.948C131.287 393.948 131.729 393.826 132.091 393.583C132.456 393.335 132.732 392.982 132.919 392.523C133.11 392.06 133.206 391.505 133.206 390.86C133.206 390.23 133.112 389.676 132.925 389.197C132.739 388.717 132.464 388.344 132.103 388.076C131.742 387.804 131.295 387.668 130.763 387.668C130.215 387.668 129.758 387.81 129.392 388.094C129.027 388.374 128.751 388.756 128.564 389.239C128.381 389.723 128.29 390.263 128.29 390.86C128.29 391.473 128.383 392.011 128.57 392.474C128.757 392.937 129.033 393.298 129.398 393.558C129.768 393.818 130.223 393.948 130.763 393.948ZM136.833 395.599V386.242H138.654V395.599H136.833ZM137.752 384.799C137.436 384.799 137.164 384.693 136.936 384.482C136.713 384.267 136.601 384.011 136.601 383.714C136.601 383.414 136.713 383.158 136.936 382.947C137.164 382.731 137.436 382.624 137.752 382.624C138.069 382.624 138.339 382.731 138.563 382.947C138.79 383.158 138.904 383.414 138.904 383.714C138.904 384.011 138.79 384.267 138.563 384.482C138.339 384.693 138.069 384.799 137.752 384.799ZM142.313 390.043V395.599H140.492V386.242H142.24V387.765H142.356C142.571 387.27 142.908 386.872 143.367 386.571C143.83 386.271 144.413 386.12 145.115 386.12C145.753 386.12 146.311 386.254 146.79 386.522C147.27 386.786 147.641 387.18 147.905 387.704C148.169 388.228 148.301 388.876 148.301 389.647V395.599H146.48V389.867C146.48 389.189 146.303 388.659 145.95 388.277C145.596 387.891 145.111 387.698 144.494 387.698C144.072 387.698 143.696 387.789 143.367 387.972C143.042 388.155 142.784 388.423 142.593 388.776C142.406 389.126 142.313 389.548 142.313 390.043Z" fill="#7A7A7A"/>
<path d="M455.358 397.158V381.564H456.357V397.158H455.358ZM458.483 386.401C458.418 385.824 458.15 385.377 457.678 385.06C457.207 384.74 456.614 384.579 455.9 384.579C455.388 384.579 454.945 384.66 454.572 384.823C454.198 384.981 453.908 385.201 453.701 385.481C453.498 385.757 453.396 386.072 453.396 386.425C453.396 386.721 453.465 386.977 453.603 387.193C453.745 387.408 453.93 387.588 454.158 387.735C454.389 387.877 454.637 387.997 454.901 388.094C455.165 388.187 455.419 388.265 455.662 388.326L456.88 388.642C457.278 388.74 457.687 388.872 458.105 389.038C458.523 389.205 458.911 389.424 459.268 389.696C459.626 389.968 459.914 390.305 460.133 390.707C460.357 391.109 460.468 391.591 460.468 392.151C460.468 392.858 460.286 393.485 459.92 394.033C459.559 394.582 459.033 395.014 458.342 395.331C457.656 395.648 456.826 395.806 455.851 395.806C454.917 395.806 454.109 395.658 453.427 395.361C452.744 395.065 452.21 394.645 451.824 394.1C451.439 393.552 451.225 392.902 451.185 392.151H453.073C453.11 392.602 453.256 392.977 453.512 393.278C453.772 393.574 454.103 393.796 454.505 393.942C454.911 394.084 455.356 394.155 455.839 394.155C456.371 394.155 456.844 394.072 457.258 393.905C457.676 393.735 458.005 393.499 458.245 393.199C458.485 392.894 458.604 392.539 458.604 392.133C458.604 391.763 458.499 391.461 458.288 391.225C458.081 390.99 457.798 390.795 457.441 390.64C457.088 390.486 456.688 390.35 456.241 390.232L454.767 389.83C453.768 389.558 452.976 389.158 452.391 388.63C451.81 388.102 451.52 387.404 451.52 386.535C451.52 385.816 451.715 385.188 452.105 384.652C452.495 384.116 453.022 383.7 453.688 383.404C454.355 383.103 455.106 382.953 455.942 382.953C456.787 382.953 457.532 383.101 458.178 383.397C458.828 383.694 459.339 384.102 459.713 384.622C460.087 385.138 460.282 385.731 460.298 386.401H458.483ZM466.278 395.769C465.441 395.769 464.694 395.625 464.036 395.337C463.382 395.049 462.864 394.649 462.483 394.137C462.105 393.621 461.902 393.024 461.874 392.346H463.786C463.811 392.716 463.935 393.036 464.158 393.308C464.385 393.576 464.682 393.784 465.047 393.93C465.413 394.076 465.819 394.149 466.266 394.149C466.757 394.149 467.192 394.064 467.569 393.893C467.951 393.723 468.249 393.485 468.465 393.181C468.68 392.872 468.788 392.517 468.788 392.115C468.788 391.696 468.68 391.329 468.465 391.012C468.253 390.691 467.943 390.439 467.533 390.257C467.127 390.074 466.635 389.982 466.059 389.982H465.005V388.447H466.059C466.521 388.447 466.928 388.364 467.277 388.198C467.63 388.031 467.906 387.8 468.105 387.503C468.304 387.203 468.404 386.851 468.404 386.449C468.404 386.064 468.316 385.729 468.142 385.444C467.971 385.156 467.728 384.931 467.411 384.768C467.098 384.606 466.729 384.524 466.302 384.524C465.896 384.524 465.516 384.6 465.163 384.75C464.814 384.896 464.53 385.107 464.31 385.383C464.091 385.655 463.973 385.982 463.957 386.364H462.136C462.156 385.69 462.355 385.097 462.733 384.585C463.114 384.074 463.618 383.674 464.243 383.385C464.869 383.097 465.563 382.953 466.327 382.953C467.127 382.953 467.817 383.109 468.398 383.422C468.982 383.73 469.433 384.143 469.75 384.658C470.071 385.174 470.229 385.739 470.225 386.352C470.229 387.05 470.034 387.643 469.64 388.131C469.25 388.618 468.731 388.945 468.081 389.111V389.209C468.909 389.335 469.551 389.664 470.006 390.196C470.465 390.728 470.692 391.388 470.688 392.175C470.692 392.862 470.501 393.477 470.115 394.021C469.734 394.565 469.212 394.994 468.55 395.306C467.888 395.615 467.131 395.769 466.278 395.769ZM476.496 395.769C475.732 395.769 475.046 395.623 474.437 395.331C473.832 395.034 473.349 394.628 472.987 394.113C472.626 393.597 472.433 393.008 472.409 392.346H474.236C474.281 392.882 474.518 393.323 474.949 393.668C475.379 394.013 475.895 394.186 476.496 394.186C476.975 394.186 477.4 394.076 477.769 393.857C478.143 393.633 478.435 393.327 478.646 392.937C478.862 392.547 478.969 392.102 478.969 391.603C478.969 391.095 478.859 390.642 478.64 390.244C478.421 389.846 478.118 389.534 477.733 389.306C477.351 389.079 476.912 388.963 476.417 388.959C476.039 388.959 475.659 389.024 475.278 389.154C474.896 389.284 474.587 389.455 474.352 389.666L472.628 389.41L473.328 383.123H480.187V384.738H474.894L474.498 388.228H474.571C474.815 387.993 475.138 387.796 475.54 387.637C475.946 387.479 476.38 387.4 476.843 387.4C477.603 387.4 478.279 387.58 478.872 387.942C479.469 388.303 479.938 388.797 480.279 389.422C480.624 390.043 480.795 390.758 480.791 391.566C480.795 392.374 480.612 393.095 480.242 393.729C479.877 394.362 479.369 394.862 478.719 395.227C478.074 395.589 477.333 395.769 476.496 395.769ZM486.746 395.806C485.784 395.802 484.961 395.548 484.279 395.045C483.597 394.541 483.075 393.808 482.713 392.845C482.352 391.883 482.171 390.724 482.171 389.367C482.171 388.015 482.352 386.86 482.713 385.901C483.079 384.943 483.603 384.212 484.285 383.708C484.971 383.205 485.792 382.953 486.746 382.953C487.7 382.953 488.519 383.207 489.201 383.714C489.883 384.218 490.405 384.949 490.767 385.907C491.132 386.862 491.315 388.015 491.315 389.367C491.315 390.728 491.134 391.889 490.773 392.852C490.411 393.81 489.889 394.543 489.207 395.051C488.525 395.554 487.705 395.806 486.746 395.806ZM486.746 394.18C487.591 394.18 488.251 393.767 488.726 392.943C489.205 392.119 489.445 390.927 489.445 389.367C489.445 388.332 489.335 387.456 489.116 386.742C488.9 386.023 488.59 385.479 488.184 385.109C487.782 384.736 487.302 384.549 486.746 384.549C485.905 384.549 485.246 384.963 484.766 385.791C484.287 386.62 484.046 387.812 484.041 389.367C484.041 390.407 484.149 391.286 484.364 392.005C484.584 392.72 484.894 393.262 485.296 393.631C485.698 393.997 486.182 394.18 486.746 394.18ZM493.635 395.715C493.302 395.715 493.016 395.597 492.776 395.361C492.537 395.122 492.417 394.833 492.417 394.496C492.417 394.163 492.537 393.879 492.776 393.643C493.016 393.404 493.302 393.284 493.635 393.284C493.968 393.284 494.255 393.404 494.494 393.643C494.734 393.879 494.854 394.163 494.854 394.496C494.854 394.72 494.797 394.925 494.683 395.112C494.573 395.294 494.427 395.44 494.244 395.55C494.062 395.66 493.859 395.715 493.635 395.715ZM500.547 395.806C499.585 395.802 498.762 395.548 498.08 395.045C497.398 394.541 496.876 393.808 496.515 392.845C496.153 391.883 495.972 390.724 495.972 389.367C495.972 388.015 496.153 386.86 496.515 385.901C496.88 384.943 497.404 384.212 498.086 383.708C498.773 383.205 499.593 382.953 500.547 382.953C501.502 382.953 502.32 383.207 503.002 383.714C503.684 384.218 504.206 384.949 504.568 385.907C504.933 386.862 505.116 388.015 505.116 389.367C505.116 390.728 504.935 391.889 504.574 392.852C504.212 393.81 503.69 394.543 503.008 395.051C502.326 395.554 501.506 395.806 500.547 395.806ZM500.547 394.18C501.392 394.18 502.052 393.767 502.527 392.943C503.006 392.119 503.246 390.927 503.246 389.367C503.246 388.332 503.136 387.456 502.917 386.742C502.702 386.023 502.391 385.479 501.985 385.109C501.583 384.736 501.104 384.549 500.547 384.549C499.707 384.549 499.047 384.963 498.567 385.791C498.088 386.62 497.847 387.812 497.843 389.367C497.843 390.407 497.95 391.286 498.165 392.005C498.385 392.72 498.695 393.262 499.097 393.631C499.499 393.997 499.983 394.18 500.547 394.18ZM511.008 395.806C510.045 395.802 509.223 395.548 508.54 395.045C507.858 394.541 507.336 393.808 506.975 392.845C506.613 391.883 506.433 390.724 506.433 389.367C506.433 388.015 506.613 386.86 506.975 385.901C507.34 384.943 507.864 384.212 508.547 383.708C509.233 383.205 510.053 382.953 511.008 382.953C511.962 382.953 512.78 383.207 513.462 383.714C514.145 384.218 514.667 384.949 515.028 385.907C515.393 386.862 515.576 388.015 515.576 389.367C515.576 390.728 515.395 391.889 515.034 392.852C514.673 393.81 514.151 394.543 513.468 395.051C512.786 395.554 511.966 395.806 511.008 395.806ZM511.008 394.18C511.852 394.18 512.512 393.767 512.987 392.943C513.466 392.119 513.706 390.927 513.706 389.367C513.706 388.332 513.596 387.456 513.377 386.742C513.162 386.023 512.851 385.479 512.445 385.109C512.043 384.736 511.564 384.549 511.008 384.549C510.167 384.549 509.507 384.963 509.028 385.791C508.549 386.62 508.307 387.812 508.303 389.367C508.303 390.407 508.41 391.286 508.626 392.005C508.845 392.72 509.156 393.262 509.558 393.631C509.96 393.997 510.443 394.18 511.008 394.18Z" fill="url(#paint8_linear_6001_14317)"/>
<path d="M533.313 379.103V399.619H531.68V379.103H533.313Z" fill="url(#paint9_linear_6001_14317)"/>
<path d="M552.863 397.158V381.564H553.862V397.158H552.863ZM555.988 386.401C555.923 385.824 555.655 385.377 555.184 385.06C554.713 384.74 554.12 384.579 553.405 384.579C552.894 384.579 552.451 384.66 552.077 384.823C551.704 384.981 551.413 385.201 551.206 385.481C551.003 385.757 550.902 386.072 550.902 386.425C550.902 386.721 550.971 386.977 551.109 387.193C551.251 387.408 551.436 387.588 551.663 387.735C551.895 387.877 552.142 387.997 552.406 388.094C552.67 388.187 552.924 388.265 553.168 388.326L554.386 388.642C554.784 388.74 555.192 388.872 555.61 389.038C556.029 389.205 556.416 389.424 556.774 389.696C557.131 389.968 557.42 390.305 557.639 390.707C557.862 391.109 557.974 391.591 557.974 392.151C557.974 392.858 557.791 393.485 557.426 394.033C557.064 394.582 556.538 395.014 555.848 395.331C555.162 395.648 554.331 395.806 553.356 395.806C552.422 395.806 551.614 395.658 550.932 395.361C550.25 395.065 549.716 394.645 549.33 394.1C548.944 393.552 548.731 392.902 548.69 392.151H550.579C550.615 392.602 550.761 392.977 551.017 393.278C551.277 393.574 551.608 393.796 552.01 393.942C552.416 394.084 552.861 394.155 553.344 394.155C553.876 394.155 554.349 394.072 554.764 393.905C555.182 393.735 555.511 393.499 555.75 393.199C555.99 392.894 556.11 392.539 556.11 392.133C556.11 391.763 556.004 391.461 555.793 391.225C555.586 390.99 555.304 390.795 554.946 390.64C554.593 390.486 554.193 390.35 553.746 390.232L552.272 389.83C551.273 389.558 550.481 389.158 549.896 388.63C549.316 388.102 549.025 387.404 549.025 386.535C549.025 385.816 549.22 385.188 549.61 384.652C550 384.116 550.528 383.7 551.194 383.404C551.86 383.103 552.611 382.953 553.448 382.953C554.293 382.953 555.038 383.101 555.683 383.397C556.333 383.694 556.845 384.102 557.219 384.622C557.592 385.138 557.787 385.731 557.803 386.401H555.988ZM563.795 395.769C563.239 395.761 562.691 395.66 562.151 395.465C561.615 395.27 561.127 394.945 560.689 394.49C560.25 394.035 559.899 393.424 559.635 392.657C559.375 391.889 559.245 390.931 559.245 389.781C559.245 388.693 559.353 387.727 559.568 386.882C559.787 386.037 560.102 385.324 560.512 384.744C560.922 384.159 561.418 383.714 561.998 383.41C562.579 383.105 563.231 382.953 563.954 382.953C564.697 382.953 565.357 383.099 565.934 383.391C566.51 383.684 566.977 384.088 567.335 384.604C567.696 385.119 567.926 385.706 568.023 386.364H566.165C566.039 385.844 565.789 385.42 565.416 385.091C565.042 384.762 564.555 384.598 563.954 384.598C563.04 384.598 562.327 384.995 561.816 385.791C561.308 386.587 561.052 387.694 561.048 389.111H561.14C561.355 388.758 561.619 388.458 561.931 388.21C562.248 387.958 562.602 387.765 562.991 387.631C563.385 387.493 563.8 387.424 564.234 387.424C564.957 387.424 565.611 387.601 566.196 387.954C566.784 388.303 567.253 388.786 567.603 389.404C567.952 390.021 568.127 390.728 568.127 391.524C568.127 392.32 567.946 393.04 567.584 393.686C567.227 394.332 566.723 394.844 566.074 395.221C565.424 395.595 564.665 395.778 563.795 395.769ZM563.789 394.186C564.269 394.186 564.697 394.068 565.075 393.832C565.452 393.597 565.751 393.28 565.97 392.882C566.189 392.484 566.299 392.039 566.299 391.548C566.299 391.069 566.191 390.632 565.976 390.238C565.765 389.844 565.473 389.532 565.099 389.3C564.73 389.069 564.307 388.953 563.832 388.953C563.471 388.953 563.136 389.022 562.827 389.16C562.522 389.298 562.254 389.489 562.023 389.733C561.791 389.976 561.609 390.257 561.475 390.573C561.345 390.886 561.28 391.217 561.28 391.566C561.28 392.033 561.387 392.466 561.603 392.864C561.822 393.262 562.12 393.583 562.498 393.826C562.88 394.066 563.31 394.186 563.789 394.186ZM569.471 393.162V391.639L574.862 383.123H576.062V385.365H575.3L571.445 391.469V391.566H578.834V393.162H569.471ZM575.386 395.599V392.699L575.398 392.005V383.123H577.183V395.599H575.386ZM584.687 395.806C583.725 395.802 582.902 395.548 582.22 395.045C581.538 394.541 581.016 393.808 580.655 392.845C580.293 391.883 580.112 390.724 580.112 389.367C580.112 388.015 580.293 386.86 580.655 385.901C581.02 384.943 581.544 384.212 582.226 383.708C582.912 383.205 583.733 382.953 584.687 382.953C585.641 382.953 586.46 383.207 587.142 383.714C587.824 384.218 588.346 384.949 588.708 385.907C589.073 386.862 589.256 388.015 589.256 389.367C589.256 390.728 589.075 391.889 588.714 392.852C588.352 393.81 587.83 394.543 587.148 395.051C586.466 395.554 585.646 395.806 584.687 395.806ZM584.687 394.18C585.532 394.18 586.192 393.767 586.667 392.943C587.146 392.119 587.386 390.927 587.386 389.367C587.386 388.332 587.276 387.456 587.057 386.742C586.842 386.023 586.531 385.479 586.125 385.109C585.723 384.736 585.244 384.549 584.687 384.549C583.847 384.549 583.187 384.963 582.707 385.791C582.228 386.62 581.987 387.812 581.982 389.367C581.982 390.407 582.09 391.286 582.305 392.005C582.525 392.72 582.835 393.262 583.237 393.631C583.639 393.997 584.123 394.18 584.687 394.18ZM591.576 395.715C591.243 395.715 590.957 395.597 590.717 395.361C590.478 395.122 590.358 394.833 590.358 394.496C590.358 394.163 590.478 393.879 590.717 393.643C590.957 393.404 591.243 393.284 591.576 393.284C591.909 393.284 592.196 393.404 592.435 393.643C592.675 393.879 592.795 394.163 592.795 394.496C592.795 394.72 592.738 394.925 592.624 395.112C592.514 395.294 592.368 395.44 592.185 395.55C592.003 395.66 591.8 395.715 591.576 395.715ZM598.488 395.806C597.526 395.802 596.703 395.548 596.021 395.045C595.339 394.541 594.817 393.808 594.456 392.845C594.094 391.883 593.913 390.724 593.913 389.367C593.913 388.015 594.094 386.86 594.456 385.901C594.821 384.943 595.345 384.212 596.027 383.708C596.714 383.205 597.534 382.953 598.488 382.953C599.443 382.953 600.261 383.207 600.943 383.714C601.625 384.218 602.147 384.949 602.509 385.907C602.874 386.862 603.057 388.015 603.057 389.367C603.057 390.728 602.876 391.889 602.515 392.852C602.153 393.81 601.631 394.543 600.949 395.051C600.267 395.554 599.447 395.806 598.488 395.806ZM598.488 394.18C599.333 394.18 599.993 393.767 600.468 392.943C600.947 392.119 601.187 390.927 601.187 389.367C601.187 388.332 601.077 387.456 600.858 386.742C600.643 386.023 600.332 385.479 599.926 385.109C599.524 384.736 599.045 384.549 598.488 384.549C597.648 384.549 596.988 384.963 596.508 385.791C596.029 386.62 595.788 387.812 595.784 389.367C595.784 390.407 595.891 391.286 596.106 392.005C596.326 392.72 596.636 393.262 597.038 393.631C597.44 393.997 597.924 394.18 598.488 394.18ZM608.949 395.806C607.986 395.802 607.164 395.548 606.481 395.045C605.799 394.541 605.277 393.808 604.916 392.845C604.554 391.883 604.374 390.724 604.374 389.367C604.374 388.015 604.554 386.86 604.916 385.901C605.281 384.943 605.805 384.212 606.488 383.708C607.174 383.205 607.994 382.953 608.949 382.953C609.903 382.953 610.721 383.207 611.403 383.714C612.086 384.218 612.608 384.949 612.969 385.907C613.334 386.862 613.517 388.015 613.517 389.367C613.517 390.728 613.337 391.889 612.975 392.852C612.614 393.81 612.092 394.543 611.41 395.051C610.727 395.554 609.907 395.806 608.949 395.806ZM608.949 394.18C609.793 394.18 610.453 393.767 610.928 392.943C611.408 392.119 611.647 390.927 611.647 389.367C611.647 388.332 611.537 387.456 611.318 386.742C611.103 386.023 610.792 385.479 610.386 385.109C609.984 384.736 609.505 384.549 608.949 384.549C608.108 384.549 607.448 384.963 606.969 385.791C606.49 386.62 606.248 387.812 606.244 389.367C606.244 390.407 606.352 391.286 606.567 392.005C606.786 392.72 607.097 393.262 607.499 393.631C607.901 393.997 608.384 394.18 608.949 394.18Z" fill="url(#paint10_linear_6001_14317)"/>
<defs>
<linearGradient id="paint0_linear_6001_14317" x1="111.686" y1="227.434" x2="95.842" y2="343.459" gradientUnits="userSpaceOnUse">
<stop stop-color="#FEECE3"/>
<stop offset="0.25" stop-color="#FCD5BF"/>
<stop offset="0.5" stop-color="#FEAFAE"/>
<stop offset="0.75" stop-color="#FFA4BD"/>
<stop offset="1" stop-color="#FFA9CC"/>
</linearGradient>
<linearGradient id="paint1_linear_6001_14317" x1="168.615" y1="282.457" x2="163.912" y2="345.138" gradientUnits="userSpaceOnUse">
<stop stop-color="#FEECE3"/>
<stop offset="0.25" stop-color="#FCD5BF"/>
<stop offset="0.5" stop-color="#FEAFAE"/>
<stop offset="0.75" stop-color="#FFA4BD"/>
<stop offset="1" stop-color="#FFA9CC"/>
</linearGradient>
<linearGradient id="paint2_linear_6001_14317" x1="226.697" y1="241.19" x2="214.284" y2="344.092" gradientUnits="userSpaceOnUse">
<stop stop-color="#FEECE3"/>
<stop offset="0.25" stop-color="#FCD5BF"/>
<stop offset="0.5" stop-color="#FEAFAE"/>
<stop offset="0.75" stop-color="#FFA4BD"/>
<stop offset="1" stop-color="#FFA9CC"/>
</linearGradient>
<linearGradient id="paint3_linear_6001_14317" x1="284.626" y1="305.056" x2="282.69" y2="345.344" gradientUnits="userSpaceOnUse">
<stop stop-color="#FEECE3"/>
<stop offset="0.25" stop-color="#FCD5BF"/>
<stop offset="0.5" stop-color="#FEAFAE"/>
<stop offset="0.75" stop-color="#FFA4BD"/>
<stop offset="1" stop-color="#FFA9CC"/>
</linearGradient>
<linearGradient id="paint4_linear_6001_14317" x1="342.132" y1="259.858" x2="333.482" y2="344.662" gradientUnits="userSpaceOnUse">
<stop stop-color="#FEECE3"/>
<stop offset="0.25" stop-color="#FCD5BF"/>
<stop offset="0.5" stop-color="#FEAFAE"/>
<stop offset="0.75" stop-color="#FFA4BD"/>
<stop offset="1" stop-color="#FFA9CC"/>
</linearGradient>
<linearGradient id="paint5_linear_6001_14317" x1="399.637" y1="259.858" x2="390.987" y2="344.662" gradientUnits="userSpaceOnUse">
<stop stop-color="#FEECE3"/>
<stop offset="0.25" stop-color="#FCD5BF"/>
<stop offset="0.5" stop-color="#FEAFAE"/>
<stop offset="0.75" stop-color="#FFA4BD"/>
<stop offset="1" stop-color="#FFA9CC"/>
</linearGradient>
<linearGradient id="paint6_linear_6001_14317" x1="457.143" y1="176.341" x2="424.316" y2="339.124" gradientUnits="userSpaceOnUse">
<stop stop-color="#FEECE3"/>
<stop offset="0.25" stop-color="#FCD5BF"/>
<stop offset="0.5" stop-color="#FEAFAE"/>
<stop offset="0.75" stop-color="#FFA4BD"/>
<stop offset="1" stop-color="#FFA9CC"/>
</linearGradient>
<linearGradient id="paint7_linear_6001_14317" x1="514.648" y1="259.858" x2="505.998" y2="344.662" gradientUnits="userSpaceOnUse">
<stop stop-color="#FEECE3"/>
<stop offset="0.25" stop-color="#FCD5BF"/>
<stop offset="0.5" stop-color="#FEAFAE"/>
<stop offset="0.75" stop-color="#FFA4BD"/>
<stop offset="1" stop-color="#FFA9CC"/>
</linearGradient>
<linearGradient id="paint8_linear_6001_14317" x1="460.811" y1="368.931" x2="503.002" y2="414.767" gradientUnits="userSpaceOnUse">
<stop stop-color="#FEECE3"/>
<stop offset="0.25" stop-color="#FCD5BF"/>
<stop offset="0.5" stop-color="#FEAFAE"/>
<stop offset="0.75" stop-color="#FFA4BD"/>
<stop offset="1" stop-color="#FFA9CC"/>
</linearGradient>
<linearGradient id="paint9_linear_6001_14317" x1="530.501" y1="368.931" x2="538.661" y2="369.725" gradientUnits="userSpaceOnUse">
<stop stop-color="#FEECE3"/>
<stop offset="0.25" stop-color="#FCD5BF"/>
<stop offset="0.5" stop-color="#FEAFAE"/>
<stop offset="0.75" stop-color="#FFA4BD"/>
<stop offset="1" stop-color="#FFA9CC"/>
</linearGradient>
<linearGradient id="paint10_linear_6001_14317" x1="558.316" y1="368.931" x2="600.507" y2="414.767" gradientUnits="userSpaceOnUse">
<stop stop-color="#FEECE3"/>
<stop offset="0.25" stop-color="#FCD5BF"/>
<stop offset="0.5" stop-color="#FEAFAE"/>
<stop offset="0.75" stop-color="#FFA4BD"/>
<stop offset="1" stop-color="#FFA9CC"/>
</linearGradient>
</defs>
</svg>
