<svg width="295" height="97" viewBox="0 0 295 97" fill="none" xmlns="http://www.w3.org/2000/svg">
<g clip-path="url(#clip0_6001_14363)">
<path d="M34.1122 49.4664V24.8024H35.6922V49.4664H34.1122ZM38.6692 32.6929C38.5793 31.8515 38.2003 31.1964 37.5324 30.7275C36.8708 30.2586 36.0101 30.0242 34.9503 30.0242C34.2053 30.0242 33.5662 30.1366 33.0331 30.3614C32.5 30.5862 32.0921 30.8913 31.8095 31.2767C31.5269 31.6621 31.3824 32.102 31.376 32.5966C31.376 33.0077 31.4691 33.3641 31.6554 33.666C31.8481 33.9679 32.1082 34.2248 32.4358 34.4368C32.7633 34.6423 33.1262 34.8157 33.5245 34.957C33.9227 35.0983 34.3241 35.2171 34.7288 35.3135L36.5786 35.7759C37.3236 35.9494 38.0398 36.1838 38.727 36.4792C39.4207 36.7747 40.0405 37.1472 40.5865 37.5968C41.1388 38.0464 41.5756 38.5892 41.8967 39.225C42.2179 39.8609 42.3785 40.606 42.3785 41.4602C42.3785 42.6164 42.083 43.6344 41.4921 44.5143C40.9012 45.3878 40.0469 46.0719 38.9293 46.5665C37.8182 47.0546 36.4726 47.2987 34.8925 47.2987C33.3575 47.2987 32.0247 47.061 30.8943 46.5857C29.7703 46.1104 28.8903 45.4167 28.2544 44.5047C27.625 43.5926 27.2846 42.4815 27.2332 41.1712H30.7498C30.8011 41.8584 31.0131 42.4301 31.3856 42.8861C31.7582 43.3421 32.2431 43.6826 32.8404 43.9074C33.4442 44.1322 34.1186 44.2446 34.8636 44.2446C35.6408 44.2446 36.3216 44.129 36.9061 43.8977C37.497 43.6601 37.9595 43.3325 38.2935 42.915C38.6275 42.4911 38.7977 41.9965 38.8041 41.4313C38.7977 40.9175 38.6467 40.4936 38.3513 40.1596C38.0558 39.8192 37.6416 39.5366 37.1084 39.3118C36.5818 39.0805 35.9652 38.875 35.2586 38.6952L33.0138 38.1171C31.3888 37.6996 30.1042 37.0669 29.1601 36.2191C28.2223 35.3649 27.7535 34.2312 27.7535 32.8182C27.7535 31.6556 28.0682 30.6376 28.6976 29.7641C29.3335 28.8906 30.1974 28.2129 31.2893 27.7312C32.3812 27.2431 33.6176 26.999 34.9985 26.999C36.3987 26.999 37.6255 27.2431 38.6789 27.7312C39.7386 28.2129 40.5704 28.8841 41.1742 29.7448C41.7779 30.5991 42.0894 31.5818 42.1087 32.6929H38.6692ZM52.8326 27.2688V47H49.2582V30.7468H49.1426L44.5277 33.6949V30.4192L49.4316 27.2688H52.8326ZM57.2772 47V44.418L64.1273 37.7028C64.7824 37.0413 65.3284 36.4536 65.7651 35.9397C66.2019 35.4259 66.5295 34.9281 66.7478 34.4464C66.9662 33.9647 67.0754 33.4508 67.0754 32.9049C67.0754 32.2819 66.9341 31.7488 66.6515 31.3056C66.3689 30.856 65.9803 30.5091 65.4857 30.2651C64.9912 30.021 64.4292 29.899 63.7997 29.899C63.151 29.899 62.5826 30.0338 62.0944 30.3036C61.6063 30.5669 61.2273 30.9427 60.9576 31.4308C60.6942 31.919 60.5626 32.5002 60.5626 33.1747H57.1616C57.1616 31.9222 57.4474 30.8335 58.0191 29.9086C58.5907 28.9837 59.3775 28.2675 60.3795 27.7601C61.3879 27.2527 62.544 26.999 63.8479 26.999C65.171 26.999 66.3336 27.2463 67.3355 27.7409C68.3375 28.2354 69.1147 28.913 69.6671 29.7737C70.2259 30.6344 70.5053 31.6171 70.5053 32.7218C70.5053 33.4605 70.3639 34.1863 70.0813 34.8992C69.7987 35.6122 69.301 36.4022 68.588 37.2693C67.8815 38.1364 66.8891 39.1865 65.611 40.4197L62.21 43.8785V44.0133H70.8039V47H57.2772ZM72.7822 43.3389V40.4968L81.1545 27.2688H83.5245V31.3152H82.0794L76.4432 40.2463V40.4004H88.1298V43.3389H72.7822ZM82.195 47V42.4718L82.2335 41.2001V27.2688H85.6055V47H82.195ZM94.2195 44.3024L94.0942 45.3622C94.0043 46.1714 93.8437 46.9936 93.6125 47.8286C93.3877 48.67 93.1501 49.4439 92.8996 50.1504C92.6491 50.857 92.4468 51.4125 92.2926 51.8172H89.9418C90.0317 51.4254 90.1538 50.8923 90.3079 50.2179C90.4685 49.5435 90.6227 48.7856 90.7704 47.9442C90.9181 47.1028 91.0177 46.2485 91.069 45.3814L91.1365 44.3024H94.2195ZM97.5225 47V44.418L104.373 37.7028C105.028 37.0413 105.574 36.4536 106.01 35.9397C106.447 35.4259 106.775 34.9281 106.993 34.4464C107.211 33.9647 107.321 33.4508 107.321 32.9049C107.321 32.2819 107.179 31.7488 106.897 31.3056C106.614 30.856 106.226 30.5091 105.731 30.2651C105.236 30.021 104.674 29.899 104.045 29.899C103.396 29.899 102.828 30.0338 102.34 30.3036C101.852 30.5669 101.473 30.9427 101.203 31.4308C100.939 31.919 100.808 32.5002 100.808 33.1747H97.4069C97.4069 31.9222 97.6927 30.8335 98.2643 29.9086C98.836 28.9837 99.6228 28.2675 100.625 27.7601C101.633 27.2527 102.789 26.999 104.093 26.999C105.416 26.999 106.579 27.2463 107.581 27.7409C108.583 28.2354 109.36 28.913 109.912 29.7737C110.471 30.6344 110.75 31.6171 110.75 32.7218C110.75 33.4605 110.609 34.1863 110.327 34.8992C110.044 35.6122 109.546 36.4022 108.833 37.2693C108.127 38.1364 107.134 39.1865 105.856 40.4197L102.455 43.8785V44.0133H111.049V47H97.5225ZM121.101 47.3757C119.515 47.3757 118.153 46.9743 117.016 46.1714C115.886 45.3622 115.015 44.1964 114.405 42.6742C113.801 41.1455 113.5 39.3053 113.5 37.1537C113.506 35.002 113.811 33.1714 114.415 31.6621C115.025 30.1462 115.895 28.9901 117.026 28.1937C118.163 27.3972 119.521 26.999 121.101 26.999C122.681 26.999 124.04 27.3972 125.176 28.1937C126.313 28.9901 127.184 30.1462 127.787 31.6621C128.397 33.1779 128.703 35.0084 128.703 37.1537C128.703 39.3118 128.397 41.1551 127.787 42.6838C127.184 44.206 126.313 45.3686 125.176 46.1714C124.046 46.9743 122.687 47.3757 121.101 47.3757ZM121.101 44.3602C122.334 44.3602 123.307 43.7532 124.02 42.5393C124.74 41.3189 125.099 39.5237 125.099 37.1537C125.099 35.5865 124.936 34.2698 124.608 33.2036C124.28 32.1374 123.818 31.3345 123.221 30.795C122.623 30.249 121.917 29.976 121.101 29.976C119.874 29.976 118.904 30.5862 118.191 31.8066C117.479 33.0205 117.119 34.8029 117.112 37.1537C117.106 38.7273 117.263 40.0504 117.584 41.123C117.912 42.1957 118.375 43.0049 118.972 43.5509C119.569 44.0904 120.279 44.3602 121.101 44.3602Z" fill="white"/>
<path d="M26.949 71V69.9209L30.2873 66.4622C30.6438 66.0865 30.9376 65.7573 31.1688 65.4747C31.4033 65.1889 31.5783 64.9175 31.6939 64.6606C31.8095 64.4037 31.8673 64.1307 31.8673 63.8417C31.8673 63.5141 31.7903 63.2315 31.6361 62.9938C31.482 62.753 31.2716 62.5683 31.0051 62.4398C30.7385 62.3082 30.4382 62.2423 30.1042 62.2423C29.751 62.2423 29.4427 62.3146 29.1793 62.4591C28.916 62.6036 28.7137 62.8076 28.5724 63.0709C28.4311 63.3342 28.3604 63.6425 28.3604 63.9958H26.9394C26.9394 63.3953 27.0774 62.8702 27.3536 62.4206C27.6298 61.971 28.0088 61.6225 28.4905 61.3752C28.9722 61.1248 29.5198 60.9995 30.1332 60.9995C30.753 60.9995 31.2989 61.1231 31.771 61.3704C32.2463 61.6145 32.6172 61.9485 32.8838 62.3724C33.1503 62.7931 33.2836 63.2684 33.2836 63.7983C33.2836 64.1644 33.2146 64.5225 33.0765 64.8725C32.9416 65.2226 32.7055 65.6128 32.3683 66.0431C32.0311 66.4702 31.5623 66.9889 30.9617 67.5991L29.0011 69.6512V69.7234H33.4426V71H26.949ZM39.0112 61.1344V71H37.5179V62.6277H37.4601L35.0997 64.1692V62.7433L37.5613 61.1344H39.0112ZM46.2382 71H44.6582L48.2085 61.1344H49.9282L53.4785 71H51.8984L49.1093 62.9264H49.0322L46.2382 71ZM46.5032 67.1366H51.6287V68.3891H46.5032V67.1366ZM54.7875 73.7747V63.6008H56.1942V64.8003H56.3146C56.3981 64.6461 56.5185 64.4679 56.6759 64.2656C56.8332 64.0632 57.0516 63.8866 57.331 63.7357C57.6104 63.5815 57.9797 63.5044 58.439 63.5044C59.0363 63.5044 59.5694 63.6554 60.0383 63.9573C60.5072 64.2591 60.8749 64.6943 61.1414 65.2627C61.4112 65.8312 61.5461 66.5152 61.5461 67.3148C61.5461 68.1145 61.4128 68.8001 61.1462 69.3718C60.8797 69.9402 60.5136 70.3786 60.0479 70.6869C59.5823 70.992 59.0508 71.1445 58.4534 71.1445C58.0038 71.1445 57.6361 71.069 57.3503 70.9181C57.0677 70.7672 56.8461 70.5905 56.6855 70.3882C56.5249 70.1859 56.4013 70.0061 56.3146 69.8487H56.2279V73.7747H54.7875ZM56.199 67.3004C56.199 67.8207 56.2745 68.2767 56.4254 68.6685C56.5763 69.0603 56.7947 69.367 57.0805 69.5886C57.3664 69.8069 57.7164 69.9161 58.1307 69.9161C58.561 69.9161 58.9207 69.8021 59.2097 69.5741C59.4988 69.3429 59.7171 69.0298 59.8649 68.6348C60.0158 68.2397 60.0913 67.795 60.0913 67.3004C60.0913 66.8123 60.0174 66.3739 59.8697 65.9853C59.7252 65.5967 59.5068 65.29 59.2145 65.0652C58.9255 64.8404 58.5642 64.728 58.1307 64.728C57.7132 64.728 57.3599 64.8356 57.0709 65.0508C56.7851 65.2659 56.5683 65.5662 56.4206 65.9516C56.2728 66.337 56.199 66.7866 56.199 67.3004ZM63.1598 71V63.6008H64.552V64.7762H64.6291C64.764 64.378 65.0016 64.0648 65.342 63.8368C65.6856 63.6056 66.0742 63.49 66.5078 63.49C66.5977 63.49 66.7037 63.4932 66.8257 63.4996C66.951 63.5061 67.0489 63.5141 67.1196 63.5237V64.9014C67.0618 64.8854 66.959 64.8677 66.8113 64.8484C66.6635 64.826 66.5158 64.8147 66.3681 64.8147C66.0277 64.8147 65.7242 64.887 65.4576 65.0315C65.1943 65.1728 64.9855 65.3703 64.8314 65.624C64.6772 65.8745 64.6002 66.1603 64.6002 66.4815V71H63.1598ZM69.3921 69.6512L69.3198 70.1763C69.2716 70.5616 69.1898 70.9631 69.0741 71.3806C68.9617 71.8013 68.8445 72.1915 68.7225 72.5511C68.6037 72.9108 68.5057 73.1966 68.4286 73.4086H67.4074C67.4491 73.2095 67.5069 72.9397 67.5808 72.5993C67.6547 72.2621 67.7269 71.8848 67.7976 71.4673C67.8682 71.0498 67.9212 70.6243 67.9566 70.1907L68.0047 69.6512H69.3921ZM78.5809 61.1344V71H77.0875V62.6277H77.0297L74.6693 64.1692V62.7433L77.1309 61.1344H78.5809ZM84.5301 60.9995C84.9701 61.0027 85.4036 61.083 85.8307 61.2404C86.2579 61.3977 86.6432 61.6546 86.9869 62.0111C87.3337 62.3676 87.6099 62.8493 87.8154 63.4563C88.0242 64.06 88.1302 64.8115 88.1334 65.7107C88.1334 66.5746 88.0467 67.3437 87.8732 68.0182C87.6998 68.6894 87.4509 69.2562 87.1266 69.7186C86.8054 70.1811 86.4152 70.5327 85.956 70.7736C85.4968 71.0145 84.9797 71.1349 84.4049 71.1349C83.8172 71.1349 83.2953 71.0193 82.8393 70.788C82.3832 70.5568 82.0123 70.2373 81.7265 69.8294C81.4407 69.4184 81.2624 68.9463 81.1918 68.4132H82.661C82.7574 68.8371 82.9533 69.1807 83.2487 69.444C83.5474 69.7042 83.9328 69.8342 84.4049 69.8342C85.1274 69.8342 85.691 69.5195 86.0957 68.8901C86.5003 68.2574 86.7043 67.3743 86.7075 66.2406H86.6304C86.4634 66.5168 86.2547 66.7544 86.0042 66.9536C85.7569 67.1527 85.4791 67.3068 85.1708 67.416C84.8625 67.5252 84.5333 67.5798 84.1833 67.5798C83.6148 67.5798 83.0978 67.4401 82.6321 67.1607C82.1665 66.8813 81.7955 66.4975 81.5194 66.0094C81.2432 65.5212 81.1051 64.9641 81.1051 64.3378C81.1051 63.7148 81.2464 63.1496 81.529 62.6422C81.8148 62.1348 82.213 61.7333 82.7237 61.4379C83.2375 61.1392 83.8396 60.9931 84.5301 60.9995ZM84.5349 62.252C84.1592 62.252 83.8204 62.3451 83.5185 62.5314C83.2198 62.7144 82.9838 62.9633 82.8104 63.278C82.6369 63.5896 82.5502 63.9364 82.5502 64.3186C82.5502 64.7007 82.6337 65.0476 82.8007 65.3591C82.9709 65.6674 83.2022 65.913 83.4944 66.0961C83.7899 66.2759 84.1271 66.3659 84.506 66.3659C84.7886 66.3659 85.052 66.3113 85.296 66.2021C85.5401 66.0929 85.7537 65.9419 85.9367 65.7493C86.1198 65.5534 86.2627 65.3318 86.3655 65.0845C86.4682 64.8372 86.5196 64.5771 86.5196 64.3041C86.5196 63.9412 86.4329 63.604 86.2595 63.2925C86.0893 62.981 85.8548 62.7305 85.5562 62.541C85.2575 62.3483 84.9171 62.252 84.5349 62.252ZM90.8418 69.7764C90.5785 69.7764 90.3521 69.6833 90.1626 69.497C89.9731 69.3076 89.8784 69.0795 89.8784 68.813C89.8784 68.5497 89.9731 68.3249 90.1626 68.1386C90.3521 67.9491 90.5785 67.8544 90.8418 67.8544C91.1052 67.8544 91.3316 67.9491 91.5211 68.1386C91.7105 68.3249 91.8053 68.5497 91.8053 68.813C91.8053 68.9896 91.7603 69.1518 91.6704 69.2995C91.5837 69.444 91.4681 69.5597 91.3236 69.6464C91.179 69.7331 91.0185 69.7764 90.8418 69.7764ZM90.8418 64.834C90.5785 64.834 90.3521 64.7409 90.1626 64.5546C89.9731 64.3651 89.8784 64.1371 89.8784 63.8706C89.8784 63.6072 89.9731 63.3824 90.1626 63.1961C90.3521 63.0067 90.5785 62.9119 90.8418 62.9119C91.1052 62.9119 91.3316 63.0067 91.5211 63.1961C91.7105 63.3824 91.8053 63.6072 91.8053 63.8706C91.8053 64.0472 91.7603 64.2094 91.6704 64.3571C91.5837 64.5016 91.4681 64.6172 91.3236 64.7039C91.179 64.7906 91.0185 64.834 90.8418 64.834ZM96.9717 71.1349C96.368 71.1349 95.8252 71.0193 95.3435 70.788C94.865 70.5536 94.4828 70.2325 94.197 69.8246C93.9112 69.4167 93.7586 68.9511 93.7394 68.4276H95.1845C95.2199 68.8515 95.4077 69.2 95.7481 69.4729C96.0886 69.7459 96.4964 69.8824 96.9717 69.8824C97.3507 69.8824 97.6863 69.7957 97.9785 69.6223C98.274 69.4457 98.5052 69.2032 98.6722 68.8949C98.8424 68.5866 98.9275 68.2349 98.9275 67.8399C98.9275 67.4385 98.8408 67.0804 98.6674 66.7657C98.4939 66.451 98.2547 66.2037 97.9496 66.0238C97.6477 65.844 97.3009 65.7525 96.9091 65.7493C96.6104 65.7493 96.3102 65.8006 96.0083 65.9034C95.7064 66.0062 95.4623 66.1411 95.2761 66.3081L93.9128 66.1057L94.4668 61.1344H99.8909V62.4109H95.7048L95.3917 65.1712H95.4495C95.6422 64.9849 95.8975 64.8292 96.2154 64.7039C96.5366 64.5787 96.8802 64.5161 97.2463 64.5161C97.8468 64.5161 98.3815 64.659 98.8504 64.9448C99.3225 65.2306 99.6934 65.6208 99.9632 66.1154C100.236 66.6067 100.371 67.1719 100.368 67.811C100.371 68.4501 100.227 69.0201 99.9343 69.5211C99.6453 70.0221 99.2438 70.4171 98.73 70.7062C98.2194 70.992 97.6333 71.1349 96.9717 71.1349ZM105.408 60.9995C105.848 61.0027 106.281 61.083 106.708 61.2404C107.136 61.3977 107.521 61.6546 107.865 62.0111C108.211 62.3676 108.488 62.8493 108.693 63.4563C108.902 64.06 109.008 64.8115 109.011 65.7107C109.011 66.5746 108.924 67.3437 108.751 68.0182C108.578 68.6894 108.329 69.2562 108.004 69.7186C107.683 70.1811 107.293 70.5327 106.834 70.7736C106.374 71.0145 105.857 71.1349 105.283 71.1349C104.695 71.1349 104.173 71.0193 103.717 70.788C103.261 70.5568 102.89 70.2373 102.604 69.8294C102.318 69.4184 102.14 68.9463 102.07 68.4132H103.539C103.635 68.8371 103.831 69.1807 104.126 69.444C104.425 69.7042 104.81 69.8342 105.283 69.8342C106.005 69.8342 106.569 69.5195 106.973 68.8901C107.378 68.2574 107.582 67.3743 107.585 66.2406H107.508C107.341 66.5168 107.132 66.7544 106.882 66.9536C106.635 67.1527 106.357 67.3068 106.049 67.416C105.74 67.5252 105.411 67.5798 105.061 67.5798C104.493 67.5798 103.976 67.4401 103.51 67.1607C103.044 66.8813 102.673 66.4975 102.397 66.0094C102.121 65.5212 101.983 64.9641 101.983 64.3378C101.983 63.7148 102.124 63.1496 102.407 62.6422C102.693 62.1348 103.091 61.7333 103.601 61.4379C104.115 61.1392 104.717 60.9931 105.408 60.9995ZM105.413 62.252C105.037 62.252 104.698 62.3451 104.396 62.5314C104.098 62.7144 103.862 62.9633 103.688 63.278C103.515 63.5896 103.428 63.9364 103.428 64.3186C103.428 64.7007 103.511 65.0476 103.678 65.3591C103.849 65.6674 104.08 65.913 104.372 66.0961C104.668 66.2759 105.005 66.3659 105.384 66.3659C105.666 66.3659 105.93 66.3113 106.174 66.2021C106.418 66.0929 106.631 65.9419 106.814 65.7493C106.997 65.5534 107.14 65.3318 107.243 65.0845C107.346 64.8372 107.397 64.5771 107.397 64.3041C107.397 63.9412 107.311 63.604 107.137 63.2925C106.967 62.981 106.733 62.7305 106.434 62.541C106.135 62.3483 105.795 62.252 105.413 62.252Z" fill="#7A7A7A"/>
<rect x="227" y="18" width="51" height="24" rx="12" fill="url(#paint0_linear_6001_14363)"/>
<path d="M235.737 32.6037V26.0909H237.033V32.6037H235.737ZM233.131 29.9928V28.7018H239.644V29.9928H233.131ZM245.155 34.3957C244.493 34.3957 243.903 34.2817 243.382 34.0537C242.865 33.8257 242.456 33.5094 242.154 33.1047C241.855 32.6969 241.695 32.2248 241.672 31.6885H243.185C243.204 31.9807 243.302 32.2344 243.479 32.4496C243.659 32.6616 243.893 32.8253 244.182 32.941C244.471 33.0566 244.792 33.1144 245.145 33.1144C245.534 33.1144 245.878 33.0469 246.176 32.9121C246.478 32.7772 246.714 32.5893 246.884 32.3484C247.055 32.1044 247.14 31.8234 247.14 31.5054C247.14 31.1746 247.055 30.884 246.884 30.6335C246.717 30.3798 246.472 30.1807 246.147 30.0362C245.826 29.8917 245.438 29.8194 244.982 29.8194H244.148V28.6055H244.982C245.348 28.6055 245.669 28.5396 245.945 28.408C246.224 28.2763 246.443 28.0933 246.6 27.8588C246.758 27.6212 246.836 27.3434 246.836 27.0254C246.836 26.7204 246.767 26.4554 246.629 26.2306C246.494 26.0026 246.302 25.8244 246.051 25.6959C245.804 25.5674 245.512 25.5032 245.174 25.5032C244.853 25.5032 244.553 25.5626 244.274 25.6814C243.997 25.7971 243.773 25.9641 243.599 26.1824C243.426 26.3976 243.333 26.6561 243.32 26.958H241.879C241.895 26.4249 242.053 25.956 242.351 25.5514C242.653 25.1467 243.052 24.8304 243.546 24.6024C244.041 24.3744 244.59 24.2604 245.194 24.2604C245.826 24.2604 246.372 24.384 246.831 24.6313C247.294 24.8754 247.65 25.2013 247.901 25.6092C248.155 26.017 248.28 26.4634 248.277 26.9484C248.28 27.5007 248.126 27.9696 247.814 28.355C247.506 28.7404 247.095 28.9989 246.581 29.1306V29.2076C247.236 29.3072 247.743 29.5673 248.103 29.988C248.466 30.4087 248.646 30.9306 248.643 31.5536C248.646 32.0963 248.495 32.5829 248.19 33.0132C247.888 33.4435 247.475 33.7824 246.952 34.0296C246.428 34.2737 245.829 34.3957 245.155 34.3957ZM251.14 34.3524C250.877 34.3524 250.651 34.2593 250.461 34.073C250.272 33.8835 250.177 33.6555 250.177 33.389C250.177 33.1256 250.272 32.9008 250.461 32.7145C250.651 32.5251 250.877 32.4303 251.14 32.4303C251.404 32.4303 251.63 32.5251 251.82 32.7145C252.009 32.9008 252.104 33.1256 252.104 33.389C252.104 33.5656 252.059 33.7278 251.969 33.8755C251.882 34.02 251.767 34.1356 251.622 34.2223C251.478 34.309 251.317 34.3524 251.14 34.3524ZM253.807 32.334V31.1297L258.07 24.3953H259.019V26.168H258.417L255.368 30.9948V31.0719H261.211V32.334H253.807ZM258.484 34.2609V31.9679L258.494 31.4187V24.3953H259.905V34.2609H258.484ZM268.039 32.4111V31.8908C268.039 31.5183 268.116 31.1779 268.27 30.8696C268.428 30.558 268.656 30.3092 268.954 30.1229C269.256 29.9334 269.621 29.8387 270.048 29.8387C270.485 29.8387 270.851 29.9318 271.146 30.1181C271.442 30.3043 271.665 30.5532 271.816 30.8647C271.97 31.1763 272.047 31.5183 272.047 31.8908V32.4111C272.047 32.7836 271.97 33.1256 271.816 33.4371C271.662 33.7454 271.435 33.9943 271.137 34.1838C270.841 34.3701 270.478 34.4632 270.048 34.4632C269.614 34.4632 269.248 34.3701 268.95 34.1838C268.651 33.9943 268.425 33.7454 268.27 33.4371C268.116 33.1256 268.039 32.7836 268.039 32.4111ZM269.162 31.8908V32.4111C269.162 32.6872 269.227 32.9377 269.359 33.1625C269.491 33.3873 269.72 33.4997 270.048 33.4997C270.372 33.4997 270.599 33.3873 270.727 33.1625C270.856 32.9377 270.92 32.6872 270.92 32.4111V31.8908C270.92 31.6146 270.857 31.3641 270.732 31.1393C270.61 30.9145 270.382 30.8021 270.048 30.8021C269.727 30.8021 269.499 30.9145 269.364 31.1393C269.229 31.3641 269.162 31.6146 269.162 31.8908ZM263.077 26.7653V26.2451C263.077 25.8725 263.154 25.5305 263.309 25.219C263.466 24.9075 263.694 24.6586 263.993 24.4723C264.295 24.2861 264.659 24.1929 265.086 24.1929C265.523 24.1929 265.889 24.2861 266.185 24.4723C266.48 24.6586 266.703 24.9075 266.854 25.219C267.005 25.5305 267.081 25.8725 267.081 26.2451V26.7653C267.081 27.1378 267.003 27.4799 266.849 27.7914C266.698 28.0997 266.474 28.3486 266.175 28.538C265.879 28.7243 265.517 28.8174 265.086 28.8174C264.649 28.8174 264.282 28.7243 263.983 28.538C263.688 28.3486 263.463 28.0997 263.309 27.7914C263.154 27.4799 263.077 27.1378 263.077 26.7653ZM264.205 26.2451V26.7653C264.205 27.0415 264.269 27.292 264.397 27.5168C264.529 27.7416 264.759 27.854 265.086 27.854C265.407 27.854 265.632 27.7416 265.761 27.5168C265.892 27.292 265.958 27.0415 265.958 26.7653V26.2451C265.958 25.9689 265.895 25.7184 265.77 25.4936C265.645 25.2688 265.417 25.1564 265.086 25.1564C264.765 25.1564 264.537 25.2688 264.402 25.4936C264.27 25.7184 264.205 25.9689 264.205 26.2451ZM263.535 34.2609L270.318 24.3953H271.469L264.686 34.2609H263.535Z" fill="#040509"/>
</g>
<defs>
<linearGradient id="paint0_linear_6001_14363" x1="234.995" y1="7.91167" x2="278.003" y2="41.9958" gradientUnits="userSpaceOnUse">
<stop stop-color="#FEECE3"/>
<stop offset="0.25" stop-color="#FCD5BF"/>
<stop offset="0.5" stop-color="#FEAFAE"/>
<stop offset="0.75" stop-color="#FFA4BD"/>
<stop offset="1" stop-color="#FFA9CC"/>
</linearGradient>
<clipPath id="clip0_6001_14363">
<rect width="295" height="97" rx="19.61" fill="white"/>
</clipPath>
</defs>
</svg>
