<svg width="539" height="400" viewBox="0 0 539 400" fill="none" xmlns="http://www.w3.org/2000/svg">
<path d="M36.6195 48.3076H34.6507L38.2352 38.1258H40.5122L44.1017 48.3076H42.133L39.4135 40.2139H39.334L36.6195 48.3076ZM36.6841 44.3154H42.0534V45.797H36.6841V44.3154ZM53.1795 41.5612H51.3201C51.2671 41.2562 51.1693 40.9861 51.0268 40.7508C50.8843 40.5122 50.7069 40.31 50.4948 40.1443C50.2827 39.9785 50.0408 39.8543 49.769 39.7714C49.5005 39.6852 49.2105 39.6421 48.8989 39.6421C48.3454 39.6421 47.8549 39.7813 47.4274 40.0597C46.9998 40.3348 46.665 40.7392 46.4231 41.2728C46.1811 41.8031 46.0602 42.4511 46.0602 43.2167C46.0602 43.9956 46.1811 44.6518 46.4231 45.1855C46.6684 45.7158 47.0031 46.1168 47.4274 46.3886C47.8549 46.657 48.3438 46.7913 48.894 46.7913C49.1989 46.7913 49.4839 46.7515 49.7491 46.672C50.0176 46.5891 50.2578 46.4681 50.47 46.309C50.6854 46.1499 50.866 45.9544 51.0119 45.7224C51.161 45.4904 51.2638 45.2252 51.3201 44.9269L53.1795 44.9369C53.1099 45.4208 52.9591 45.8749 52.7271 46.2991C52.4984 46.7233 52.1984 47.0979 51.8272 47.4227C51.456 47.7442 51.0218 47.9961 50.5247 48.1784C50.0275 48.3573 49.4756 48.4468 48.8691 48.4468C47.9742 48.4468 47.1755 48.2397 46.4728 47.8254C45.7702 47.4111 45.2167 46.8128 44.8123 46.0306C44.4079 45.2484 44.2058 44.3105 44.2058 43.2167C44.2058 42.1196 44.4096 41.1817 44.8173 40.4028C45.2249 39.6206 45.7801 39.0223 46.4827 38.608C47.1854 38.1937 47.9809 37.9866 48.8691 37.9866C49.4359 37.9866 49.9629 38.0661 50.4501 38.2252C50.9373 38.3843 51.3715 38.618 51.7526 38.9262C52.1338 39.2311 52.447 39.6057 52.6923 40.0498C52.9408 40.4906 53.1033 40.9944 53.1795 41.5612ZM63.0838 41.5612H61.2244C61.1714 41.2562 61.0736 40.9861 60.9311 40.7508C60.7886 40.5122 60.6112 40.31 60.3991 40.1443C60.187 39.9785 59.945 39.8543 59.6733 39.7714C59.4048 39.6852 59.1148 39.6421 58.8032 39.6421C58.2497 39.6421 57.7592 39.7813 57.3316 40.0597C56.9041 40.3348 56.5693 40.7392 56.3274 41.2728C56.0854 41.8031 55.9645 42.4511 55.9645 43.2167C55.9645 43.9956 56.0854 44.6518 56.3274 45.1855C56.5727 45.7158 56.9074 46.1168 57.3316 46.3886C57.7592 46.657 58.2481 46.7913 58.7983 46.7913C59.1032 46.7913 59.3882 46.7515 59.6534 46.672C59.9218 46.5891 60.1621 46.4681 60.3743 46.309C60.5897 46.1499 60.7703 45.9544 60.9162 45.7224C61.0653 45.4904 61.1681 45.2252 61.2244 44.9269L63.0838 44.9369C63.0142 45.4208 62.8634 45.8749 62.6314 46.2991C62.4027 46.7233 62.1027 47.0979 61.7315 47.4227C61.3603 47.7442 60.9261 47.9961 60.4289 48.1784C59.9318 48.3573 59.3799 48.4468 58.7734 48.4468C57.8785 48.4468 57.0798 48.2397 56.3771 47.8254C55.6745 47.4111 55.1209 46.8128 54.7166 46.0306C54.3122 45.2484 54.1101 44.3105 54.1101 43.2167C54.1101 42.1196 54.3139 41.1817 54.7216 40.4028C55.1292 39.6206 55.6844 39.0223 56.387 38.608C57.0897 38.1937 57.8852 37.9866 58.7734 37.9866C59.3402 37.9866 59.8672 38.0661 60.3544 38.2252C60.8416 38.3843 61.2758 38.618 61.6569 38.9262C62.0381 39.2311 62.3513 39.6057 62.5966 40.0498C62.8451 40.4906 63.0075 40.9944 63.0838 41.5612ZM64.2729 48.3076V38.1258H70.895V39.672H66.1173V42.4362H70.552V43.9823H66.1173V46.7615H70.9348V48.3076H64.2729ZM80.644 38.1258V48.3076H79.0033L74.2058 41.3722H74.1212V48.3076H72.2768V38.1258H73.9274L78.72 45.0661H78.8095V38.1258H80.644ZM81.7063 39.672V38.1258H89.8299V39.672H86.6829V48.3076H84.8533V39.672H81.7063ZM97.3142 38.1258H99.1587V44.7778C99.1587 45.507 98.9864 46.1483 98.6417 46.7018C98.3003 47.2553 97.8197 47.6878 97.1999 47.9994C96.5801 48.3076 95.8559 48.4617 95.0273 48.4617C94.1954 48.4617 93.4696 48.3076 92.8498 47.9994C92.23 47.6878 91.7494 47.2553 91.408 46.7018C91.0666 46.1483 90.8959 45.507 90.8959 44.7778V38.1258H92.7404V44.6237C92.7404 45.0479 92.8332 45.4258 93.0188 45.7572C93.2077 46.0886 93.4729 46.3488 93.8142 46.5377C94.1556 46.7233 94.56 46.8161 95.0273 46.8161C95.4946 46.8161 95.899 46.7233 96.2404 46.5377C96.5851 46.3488 96.8502 46.0886 97.0358 45.7572C97.2214 45.4258 97.3142 45.0479 97.3142 44.6237V38.1258ZM100.664 48.3076V38.1258H104.482C105.264 38.1258 105.92 38.2617 106.45 38.5335C106.984 38.8052 107.387 39.1864 107.659 39.6769C107.934 40.1642 108.071 40.7326 108.071 41.3822C108.071 42.0351 107.932 42.6019 107.654 43.0825C107.378 43.5597 106.972 43.9293 106.436 44.1911C105.899 44.4497 105.239 44.5789 104.457 44.5789H101.737V43.0477H104.208C104.666 43.0477 105.04 42.9847 105.332 42.8588C105.623 42.7295 105.839 42.5422 105.978 42.297C106.121 42.0484 106.192 41.7435 106.192 41.3822C106.192 41.0209 106.121 40.7127 105.978 40.4575C105.836 40.199 105.619 40.0034 105.327 39.8708C105.035 39.7349 104.659 39.667 104.198 39.667H102.508V48.3076H100.664ZM105.923 43.694L108.444 48.3076H106.386L103.91 43.694H105.923ZM109.269 48.3076V38.1258H115.891V39.672H111.113V42.4362H115.548V43.9823H111.113V46.7615H115.931V48.3076H109.269ZM121.553 48.3076H119.584L123.169 38.1258H125.446L129.035 48.3076H127.067L124.347 40.2139H124.268L121.553 48.3076ZM121.618 44.3154H126.987V45.797H121.618V44.3154ZM138.244 38.1258V48.3076H136.603L131.805 41.3722H131.721V48.3076H129.876V38.1258H131.527L136.32 45.0661H136.409V38.1258H138.244ZM141.061 48.3076H139.092L142.677 38.1258H144.954L148.543 48.3076H146.574L143.855 40.2139H143.775L141.061 48.3076ZM141.126 44.3154H146.495V45.797H141.126V44.3154ZM149.384 48.3076V38.1258H151.229V46.7615H155.713V48.3076H149.384ZM155.092 38.1258H157.176L159.666 42.6301H159.766L162.257 38.1258H164.34L160.636 44.5093V48.3076H158.796V44.5093L155.092 38.1258ZM170.679 40.9248C170.633 40.4906 170.437 40.1526 170.093 39.9106C169.751 39.6686 169.307 39.5477 168.76 39.5477C168.376 39.5477 168.046 39.6057 167.771 39.7217C167.496 39.8377 167.285 39.9951 167.14 40.194C166.994 40.3928 166.919 40.6199 166.916 40.8751C166.916 41.0872 166.964 41.2712 167.06 41.4269C167.159 41.5827 167.294 41.7153 167.463 41.8247C167.632 41.9307 167.819 42.0202 168.024 42.0931C168.23 42.166 168.437 42.2274 168.646 42.2771L169.6 42.5157C169.985 42.6052 170.354 42.7262 170.709 42.8786C171.067 43.0311 171.387 43.2233 171.669 43.4553C171.954 43.6874 172.179 43.9674 172.345 44.2955C172.511 44.6237 172.593 45.0081 172.593 45.449C172.593 46.0455 172.441 46.5709 172.136 47.0249C171.831 47.4757 171.39 47.8287 170.814 48.0839C170.24 48.3358 169.546 48.4617 168.73 48.4617C167.938 48.4617 167.251 48.3391 166.667 48.0938C166.087 47.8486 165.633 47.4906 165.305 47.02C164.98 46.5493 164.805 45.9759 164.778 45.2998H166.593C166.619 45.6544 166.729 45.9494 166.921 46.1847C167.113 46.4201 167.363 46.5957 167.671 46.7117C167.983 46.8277 168.331 46.8857 168.716 46.8857C169.117 46.8857 169.468 46.8261 169.77 46.7068C170.074 46.5841 170.313 46.4151 170.485 46.1997C170.658 45.9809 170.746 45.7257 170.749 45.434C170.746 45.1689 170.668 44.9501 170.515 44.7778C170.363 44.6021 170.149 44.4563 169.874 44.3403C169.602 44.221 169.284 44.1149 168.919 44.0221L167.761 43.7238C166.922 43.5084 166.26 43.1819 165.772 42.7444C165.288 42.3036 165.046 41.7186 165.046 40.9894C165.046 40.3895 165.209 39.8642 165.534 39.4134C165.862 38.9627 166.308 38.613 166.871 38.3644C167.435 38.1125 168.073 37.9866 168.785 37.9866C169.508 37.9866 170.141 38.1125 170.684 38.3644C171.231 38.613 171.66 38.9594 171.972 39.4035C172.283 39.8443 172.444 40.3514 172.454 40.9248H170.679ZM175.582 38.1258V48.3076H173.738V38.1258H175.582ZM182.613 40.9248C182.566 40.4906 182.371 40.1526 182.026 39.9106C181.685 39.6686 181.241 39.5477 180.694 39.5477C180.309 39.5477 179.98 39.6057 179.705 39.7217C179.429 39.8377 179.219 39.9951 179.073 40.194C178.927 40.3928 178.853 40.6199 178.849 40.8751C178.849 41.0872 178.897 41.2712 178.994 41.4269C179.093 41.5827 179.227 41.7153 179.396 41.8247C179.565 41.9307 179.753 42.0202 179.958 42.0931C180.164 42.166 180.371 42.2274 180.58 42.2771L181.534 42.5157C181.919 42.6052 182.288 42.7262 182.643 42.8786C183.001 43.0311 183.321 43.2233 183.602 43.4553C183.887 43.6874 184.113 43.9674 184.278 44.2955C184.444 44.6237 184.527 45.0081 184.527 45.449C184.527 46.0455 184.374 46.5709 184.07 47.0249C183.765 47.4757 183.324 47.8287 182.747 48.0839C182.174 48.3358 181.479 48.4617 180.664 48.4617C179.872 48.4617 179.184 48.3391 178.601 48.0938C178.021 47.8486 177.567 47.4906 177.239 47.02C176.914 46.5493 176.738 45.9759 176.712 45.2998H178.526C178.553 45.6544 178.662 45.9494 178.854 46.1847C179.047 46.4201 179.297 46.5957 179.605 46.7117C179.917 46.8277 180.265 46.8857 180.649 46.8857C181.05 46.8857 181.401 46.8261 181.703 46.7068C182.008 46.5841 182.247 46.4151 182.419 46.1997C182.591 45.9809 182.679 45.7257 182.683 45.434C182.679 45.1689 182.601 44.9501 182.449 44.7778C182.296 44.6021 182.083 44.4563 181.808 44.3403C181.536 44.221 181.218 44.1149 180.853 44.0221L179.695 43.7238C178.856 43.5084 178.193 43.1819 177.706 42.7444C177.222 42.3036 176.98 41.7186 176.98 40.9894C176.98 40.3895 177.142 39.8642 177.467 39.4134C177.795 38.9627 178.241 38.613 178.805 38.3644C179.368 38.1125 180.006 37.9866 180.719 37.9866C181.441 37.9866 182.074 38.1125 182.618 38.3644C183.165 38.613 183.594 38.9594 183.906 39.4035C184.217 39.8443 184.378 40.3514 184.388 40.9248H182.613Z" fill="#7A7A7A"/>
<path d="M50.91 98.9315V133.841H45.6259V104.216H45.4213L37.069 109.67V104.625L45.7793 98.9315H50.91ZM58.3531 133.841V130.022L70.1656 117.784C71.427 116.454 72.4668 115.289 73.285 114.289C74.1145 113.278 74.7338 112.318 75.1429 111.409C75.552 110.5 75.7565 109.534 75.7565 108.511C75.7565 107.352 75.4838 106.352 74.9384 105.511C74.3929 104.659 73.6486 104.005 72.7054 103.551C71.7622 103.085 70.6997 102.852 69.5179 102.852C68.2679 102.852 67.177 103.108 66.2452 103.619C65.3134 104.13 64.5975 104.852 64.0975 105.784C63.5975 106.716 63.3475 107.806 63.3475 109.056H58.319C58.319 106.931 58.8077 105.074 59.785 103.483C60.7622 101.892 62.1031 100.659 63.8077 99.7838C65.5122 98.8974 67.4497 98.4542 69.6202 98.4542C71.8134 98.4542 73.7452 98.8917 75.4156 99.7667C77.0975 100.63 78.41 101.812 79.3531 103.312C80.2963 104.801 80.7679 106.483 80.7679 108.358C80.7679 109.653 80.5236 110.92 80.035 112.159C79.5577 113.397 78.7225 114.778 77.5293 116.301C76.3361 117.812 74.677 119.647 72.552 121.806L65.6145 129.068V129.324H81.3304V133.841H58.3531ZM92.4895 129.068L92.2338 130.926C92.0634 132.289 91.7736 133.71 91.3645 135.187C90.9668 136.676 90.552 138.056 90.1202 139.329C89.6997 140.602 89.3531 141.613 89.0804 142.363H85.4668C85.6145 141.659 85.819 140.704 86.0804 139.5C86.3418 138.306 86.5975 136.971 86.8475 135.494C87.0975 134.017 87.285 132.511 87.41 130.977L87.5804 129.068H92.4895ZM108.507 134.318C106.166 134.318 104.075 133.914 102.234 133.108C100.404 132.301 98.9554 131.181 97.8872 129.75C96.8304 128.306 96.2622 126.636 96.1827 124.738H101.535C101.603 125.772 101.95 126.67 102.575 127.431C103.211 128.181 104.041 128.761 105.063 129.17C106.086 129.579 107.222 129.784 108.472 129.784C109.847 129.784 111.063 129.545 112.12 129.068C113.188 128.591 114.024 127.926 114.626 127.074C115.228 126.21 115.529 125.216 115.529 124.091C115.529 122.92 115.228 121.892 114.626 121.005C114.035 120.108 113.166 119.403 112.018 118.892C110.882 118.38 109.507 118.125 107.893 118.125H104.944V113.829H107.893C109.188 113.829 110.325 113.596 111.302 113.13C112.291 112.664 113.063 112.017 113.62 111.187C114.177 110.346 114.455 109.363 114.455 108.238C114.455 107.159 114.211 106.221 113.722 105.426C113.245 104.619 112.563 103.988 111.677 103.534C110.802 103.079 109.768 102.852 108.575 102.852C107.438 102.852 106.376 103.062 105.387 103.483C104.41 103.892 103.614 104.483 103.001 105.255C102.387 106.017 102.058 106.931 102.012 108H96.9156C96.9725 106.113 97.5293 104.454 98.5861 103.022C99.6543 101.591 101.063 100.471 102.813 99.6644C104.563 98.8576 106.507 98.4542 108.643 98.4542C110.882 98.4542 112.813 98.8917 114.438 99.7667C116.075 100.63 117.336 101.784 118.222 103.227C119.12 104.67 119.563 106.25 119.552 107.966C119.563 109.92 119.018 111.579 117.916 112.943C116.825 114.306 115.37 115.221 113.552 115.687V115.96C115.87 116.312 117.666 117.233 118.938 118.721C120.222 120.21 120.859 122.056 120.847 124.261C120.859 126.181 120.325 127.903 119.245 129.426C118.177 130.949 116.717 132.147 114.864 133.022C113.012 133.886 110.893 134.318 108.507 134.318ZM125.768 133.841V98.9315H131.035V115.602H131.461L146.103 98.9315H152.734L138.654 114.647L152.785 133.841H146.444L135.16 118.244L131.035 122.983V133.841H125.768Z" fill="white"/>
<rect x="34.3077" y="173.841" width="26" height="192" rx="7.35165" fill="#4A4A4A"/>
<path d="M35.3077 187.742C35.3077 185.035 37.502 182.841 40.2088 182.841H55.4066C58.1134 182.841 60.3077 185.035 60.3077 187.742V360.939C60.3077 363.646 58.1134 365.841 55.4066 365.841H40.2088C37.502 365.841 35.3077 363.646 35.3077 360.939V187.742Z" fill="url(#paint0_linear_6001_12985)"/>
<rect x="90.3077" y="173.841" width="26" height="192" rx="7.35165" fill="#4A4A4A"/>
<path d="M91.3077 308.742C91.3077 306.035 93.502 303.841 96.2088 303.841H111.407C114.113 303.841 116.308 306.035 116.308 308.742V360.939C116.308 363.646 114.113 365.841 111.407 365.841H96.2088C93.502 365.841 91.3077 363.646 91.3077 360.939V308.742Z" fill="url(#paint1_linear_6001_12985)"/>
<rect x="146.308" y="173.841" width="26" height="192" rx="7.35165" fill="#4A4A4A"/>
<path d="M147.308 252.742C147.308 250.035 149.502 247.841 152.209 247.841H167.407C170.113 247.841 172.308 250.035 172.308 252.742V360.939C172.308 363.646 170.113 365.841 167.407 365.841H152.209C149.502 365.841 147.308 363.646 147.308 360.939V252.742Z" fill="url(#paint2_linear_6001_12985)"/>
<rect x="202.308" y="173.841" width="26" height="192" rx="7.35165" fill="#4A4A4A"/>
<path d="M203.308 209.742C203.308 207.035 205.502 204.841 208.209 204.841H223.407C226.113 204.841 228.308 207.035 228.308 209.742V360.939C228.308 363.646 226.113 365.841 223.407 365.841H208.209C205.502 365.841 203.308 363.646 203.308 360.939V209.742Z" fill="url(#paint3_linear_6001_12985)"/>
<rect x="258.308" y="173.841" width="26" height="192" rx="7.35165" fill="#4A4A4A"/>
<path d="M259.308 306.742C259.308 304.035 261.502 301.841 264.209 301.841H279.407C282.113 301.841 284.308 304.035 284.308 306.742V360.939C284.308 363.646 282.113 365.841 279.407 365.841H264.209C261.502 365.841 259.308 363.646 259.308 360.939V306.742Z" fill="url(#paint4_linear_6001_12985)"/>
<rect x="314.308" y="173.841" width="26" height="192" rx="7.35165" fill="#4A4A4A"/>
<path d="M315.308 265.742C315.308 263.035 317.502 260.841 320.209 260.841H335.407C338.113 260.841 340.308 263.035 340.308 265.742V360.939C340.308 363.646 338.113 365.841 335.407 365.841H320.209C317.502 365.841 315.308 363.646 315.308 360.939V265.742Z" fill="url(#paint5_linear_6001_12985)"/>
<circle cx="402.308" cy="96.8406" r="3" fill="url(#paint6_linear_6001_12985)"/>
<path d="M419.845 94.4578C419.799 94.0236 419.603 93.6855 419.259 93.4436C418.917 93.2016 418.473 93.0806 417.926 93.0806C417.542 93.0806 417.212 93.1386 416.937 93.2546C416.662 93.3706 416.451 93.5281 416.306 93.7269C416.16 93.9258 416.085 94.1528 416.082 94.408C416.082 94.6202 416.13 94.8041 416.226 94.9599C416.325 95.1157 416.46 95.2482 416.629 95.3576C416.798 95.4637 416.985 95.5532 417.19 95.6261C417.396 95.699 417.603 95.7603 417.812 95.81L418.766 96.0487C419.151 96.1382 419.521 96.2591 419.875 96.4116C420.233 96.5641 420.553 96.7563 420.835 96.9883C421.12 97.2203 421.345 97.5004 421.511 97.8285C421.677 98.1566 421.759 98.5411 421.759 98.9819C421.759 99.5785 421.607 100.104 421.302 100.558C420.997 101.009 420.556 101.362 419.98 101.617C419.406 101.869 418.712 101.995 417.896 101.995C417.104 101.995 416.417 101.872 415.833 101.627C415.253 101.382 414.799 101.024 414.471 100.553C414.146 100.082 413.971 99.5089 413.944 98.8328H415.759C415.785 99.1874 415.895 99.4824 416.087 99.7177C416.279 99.953 416.529 100.129 416.838 100.245C417.149 100.361 417.497 100.419 417.882 100.419C418.283 100.419 418.634 100.359 418.936 100.24C419.24 100.117 419.479 99.9481 419.651 99.7326C419.824 99.5139 419.912 99.2587 419.915 98.967C419.912 98.7018 419.834 98.4831 419.681 98.3107C419.529 98.1351 419.315 97.9893 419.04 97.8732C418.768 97.7539 418.45 97.6479 418.085 97.5551L416.927 97.2568C416.088 97.0413 415.426 96.7149 414.938 96.2774C414.454 95.8366 414.213 95.2516 414.213 94.5224C414.213 93.9225 414.375 93.3972 414.7 92.9464C415.028 92.4956 415.474 92.146 416.037 91.8974C416.601 91.6455 417.239 91.5196 417.951 91.5196C418.674 91.5196 419.307 91.6455 419.85 91.8974C420.397 92.146 420.826 92.4923 421.138 92.9365C421.449 93.3773 421.61 93.8844 421.62 94.4578H419.845ZM422.904 101.841V91.6588H426.722C427.504 91.6588 428.16 91.8046 428.691 92.0963C429.224 92.3879 429.627 92.789 429.899 93.2994C430.174 93.8065 430.311 94.3832 430.311 95.0295C430.311 95.6824 430.174 96.2625 429.899 96.7696C429.624 97.2767 429.218 97.676 428.681 97.9677C428.144 98.2561 427.483 98.4002 426.697 98.4002H424.167V96.8839H426.448C426.906 96.8839 427.28 96.8044 427.572 96.6453C427.864 96.4862 428.079 96.2674 428.218 95.989C428.361 95.7106 428.432 95.3908 428.432 95.0295C428.432 94.6682 428.361 94.35 428.218 94.075C428.079 93.7999 427.862 93.5861 427.567 93.4336C427.275 93.2778 426.899 93.2 426.439 93.2H424.748V101.841H422.904ZM431.414 101.841V91.6588H438.036V93.2049H433.258V95.9691H437.693V97.5153H433.258V100.294H438.075V101.841H431.414ZM447.785 91.6588V101.841H446.144L441.346 94.9052H441.262V101.841H439.417V91.6588H441.068L445.861 98.5991H445.95V91.6588H447.785ZM452.745 101.841H449.294V91.6588H452.814C453.825 91.6588 454.694 91.8626 455.419 92.2703C456.149 92.6746 456.709 93.2563 457.1 94.0153C457.491 94.7743 457.686 95.6824 457.686 96.7397C457.686 97.8003 457.489 98.7118 457.095 99.4741C456.704 100.236 456.139 100.821 455.399 101.229C454.664 101.637 453.779 101.841 452.745 101.841ZM451.139 100.245H452.655C453.364 100.245 453.956 100.115 454.43 99.8569C454.904 99.5951 455.26 99.2056 455.499 98.6886C455.738 98.1682 455.857 97.5186 455.857 96.7397C455.857 95.9608 455.738 95.3145 455.499 94.8008C455.26 94.2838 454.907 93.8976 454.44 93.6424C453.976 93.3839 453.399 93.2546 452.71 93.2546H451.139V100.245ZM460.783 91.6588V101.841H458.939V91.6588H460.783ZM470.648 91.6588V101.841H469.007L464.21 94.9052H464.125V101.841H462.281V91.6588H463.931L468.724 98.5991H468.813V91.6588H470.648ZM478.979 94.9102C478.896 94.6417 478.781 94.4014 478.636 94.1893C478.493 93.9739 478.321 93.7899 478.119 93.6375C477.92 93.485 477.691 93.3706 477.433 93.2944C477.174 93.2149 476.892 93.1751 476.587 93.1751C476.04 93.1751 475.553 93.3126 475.126 93.5877C474.698 93.8628 474.362 94.2672 474.116 94.8008C473.874 95.3311 473.754 95.9774 473.754 96.7397C473.754 97.5087 473.874 98.1599 474.116 98.6936C474.358 99.2272 474.695 99.6332 475.126 99.9116C475.557 100.187 476.057 100.324 476.627 100.324C477.144 100.324 477.592 100.225 477.969 100.026C478.351 99.8271 478.644 99.5454 478.849 99.1808C479.055 98.8129 479.158 98.382 479.158 97.8882L479.575 97.9528H476.811V96.511H480.942V97.734C480.942 98.6057 480.757 99.3598 480.386 99.9961C480.014 100.632 479.504 101.123 478.854 101.468C478.205 101.809 477.459 101.98 476.617 101.98C475.679 101.98 474.856 101.769 474.146 101.348C473.44 100.924 472.888 100.323 472.491 99.5437C472.096 98.7615 471.899 97.8335 471.899 96.7596C471.899 95.9376 472.015 95.2035 472.247 94.5572C472.482 93.9109 472.811 93.3624 473.232 92.9116C473.652 92.4575 474.146 92.1128 474.713 91.8775C475.28 91.6389 475.896 91.5196 476.562 91.5196C477.126 91.5196 477.651 91.6024 478.138 91.7681C478.626 91.9305 479.058 92.1625 479.436 92.4642C479.817 92.7658 480.13 93.1237 480.376 93.538C480.621 93.9523 480.782 94.4097 480.858 94.9102H478.979Z" fill="#7A7A7A"/>
<path d="M400.987 136.841V134.931L406.893 128.812C407.524 128.147 408.043 127.565 408.453 127.065C408.867 126.559 409.177 126.079 409.382 125.625C409.586 125.17 409.688 124.687 409.688 124.176C409.688 123.596 409.552 123.096 409.279 122.676C409.007 122.25 408.634 121.923 408.163 121.696C407.691 121.463 407.16 121.346 406.569 121.346C405.944 121.346 405.399 121.474 404.933 121.73C404.467 121.985 404.109 122.346 403.859 122.812C403.609 123.278 403.484 123.824 403.484 124.449H400.97C400.97 123.386 401.214 122.457 401.703 121.662C402.191 120.866 402.862 120.25 403.714 119.812C404.566 119.369 405.535 119.147 406.62 119.147C407.717 119.147 408.683 119.366 409.518 119.804C410.359 120.235 411.015 120.826 411.487 121.576C411.958 122.321 412.194 123.162 412.194 124.099C412.194 124.747 412.072 125.38 411.828 126C411.589 126.619 411.171 127.309 410.575 128.071C409.978 128.826 409.149 129.744 408.086 130.824L404.617 134.454V134.582H412.475V136.841H400.987ZM418.055 134.454L417.927 135.383C417.842 136.065 417.697 136.775 417.492 137.514C417.293 138.258 417.086 138.949 416.87 139.585C416.66 140.221 416.487 140.727 416.35 141.102H414.543C414.617 140.75 414.72 140.272 414.85 139.67C414.981 139.074 415.109 138.406 415.234 137.667C415.359 136.929 415.453 136.176 415.515 135.409L415.6 134.454H418.055ZM426.063 137.079C424.893 137.079 423.847 136.878 422.927 136.474C422.012 136.071 421.288 135.511 420.754 134.795C420.225 134.074 419.941 133.238 419.901 132.289H422.578C422.612 132.806 422.785 133.255 423.097 133.636C423.416 134.011 423.83 134.301 424.342 134.505C424.853 134.71 425.421 134.812 426.046 134.812C426.734 134.812 427.342 134.693 427.87 134.454C428.404 134.216 428.822 133.883 429.123 133.457C429.424 133.025 429.575 132.528 429.575 131.966C429.575 131.38 429.424 130.866 429.123 130.423C428.828 129.974 428.393 129.622 427.819 129.366C427.251 129.11 426.563 128.983 425.757 128.983H424.282V126.835H425.757C426.404 126.835 426.972 126.718 427.461 126.485C427.955 126.253 428.342 125.929 428.62 125.514C428.899 125.093 429.038 124.602 429.038 124.039C429.038 123.5 428.916 123.031 428.671 122.633C428.433 122.23 428.092 121.914 427.649 121.687C427.211 121.46 426.694 121.346 426.097 121.346C425.529 121.346 424.998 121.451 424.504 121.662C424.015 121.866 423.617 122.162 423.311 122.548C423.004 122.929 422.839 123.386 422.816 123.92H420.268C420.296 122.977 420.575 122.147 421.103 121.431C421.637 120.716 422.342 120.156 423.217 119.753C424.092 119.349 425.063 119.147 426.132 119.147C427.251 119.147 428.217 119.366 429.029 119.804C429.847 120.235 430.478 120.812 430.921 121.534C431.37 122.255 431.592 123.045 431.586 123.903C431.592 124.88 431.319 125.71 430.768 126.392C430.222 127.074 429.495 127.531 428.586 127.764V127.9C429.745 128.076 430.643 128.537 431.279 129.281C431.921 130.025 432.239 130.949 432.234 132.051C432.239 133.011 431.972 133.872 431.433 134.633C430.899 135.395 430.168 135.994 429.242 136.431C428.316 136.863 427.257 137.079 426.063 137.079ZM434.694 136.841V119.386H437.328V127.721H437.541L444.862 119.386H448.177L441.137 127.244L448.203 136.841H445.032L439.39 129.042L437.328 131.412V136.841H434.694Z" fill="white"/>
<rect x="455.308" y="117.841" width="49" height="20" rx="4" fill="url(#paint7_linear_6001_12985)"/>
<path d="M463.22 130.375V124.613H464.366V130.375H463.22ZM460.914 128.065V126.923H466.676V128.065H460.914ZM471.941 123.113V131.841H470.62V124.434H470.569L468.48 125.798V124.537L470.658 123.113H471.941ZM477.613 123.113V131.841H476.292V124.434H476.24L474.152 125.798V124.537L476.33 123.113H477.613ZM480.326 131.922C480.093 131.922 479.893 131.839 479.725 131.674C479.558 131.507 479.474 131.305 479.474 131.069C479.474 130.836 479.558 130.637 479.725 130.473C479.893 130.305 480.093 130.221 480.326 130.221C480.559 130.221 480.759 130.305 480.927 130.473C481.094 130.637 481.178 130.836 481.178 131.069C481.178 131.226 481.138 131.369 481.059 131.5C480.982 131.628 480.88 131.73 480.752 131.806C480.624 131.883 480.482 131.922 480.326 131.922ZM482.685 130.136V129.071L486.456 123.113H487.295V124.681H486.763L484.065 128.951V129.02H489.234V130.136H482.685ZM486.822 131.841V129.812L486.831 129.326V123.113H488.08V131.841H486.822ZM495.275 130.204V129.744C495.275 129.414 495.343 129.113 495.479 128.841C495.619 128.565 495.82 128.345 496.084 128.18C496.352 128.012 496.674 127.929 497.052 127.929C497.438 127.929 497.762 128.011 498.023 128.176C498.285 128.341 498.482 128.561 498.616 128.836C498.752 129.112 498.82 129.414 498.82 129.744V130.204C498.82 130.534 498.752 130.836 498.616 131.112C498.479 131.385 498.279 131.605 498.015 131.772C497.754 131.937 497.433 132.02 497.052 132.02C496.668 132.02 496.344 131.937 496.08 131.772C495.816 131.605 495.616 131.385 495.479 131.112C495.343 130.836 495.275 130.534 495.275 130.204ZM496.268 129.744V130.204C496.268 130.449 496.326 130.67 496.442 130.869C496.559 131.068 496.762 131.167 497.052 131.167C497.339 131.167 497.539 131.068 497.653 130.869C497.766 130.67 497.823 130.449 497.823 130.204V129.744C497.823 129.5 497.768 129.278 497.657 129.079C497.549 128.88 497.347 128.781 497.052 128.781C496.768 128.781 496.566 128.88 496.447 129.079C496.327 129.278 496.268 129.5 496.268 129.744ZM490.886 125.21V124.75C490.886 124.42 490.954 124.118 491.09 123.842C491.229 123.566 491.431 123.346 491.695 123.181C491.962 123.017 492.285 122.934 492.663 122.934C493.049 122.934 493.373 123.017 493.634 123.181C493.896 123.346 494.093 123.566 494.227 123.842C494.36 124.118 494.427 124.42 494.427 124.75V125.21C494.427 125.539 494.359 125.842 494.222 126.118C494.089 126.39 493.89 126.61 493.626 126.778C493.364 126.943 493.043 127.025 492.663 127.025C492.276 127.025 491.951 126.943 491.687 126.778C491.425 126.61 491.227 126.39 491.09 126.118C490.954 125.842 490.886 125.539 490.886 125.21ZM491.883 124.75V125.21C491.883 125.454 491.94 125.676 492.053 125.875C492.17 126.074 492.373 126.173 492.663 126.173C492.947 126.173 493.146 126.074 493.259 125.875C493.376 125.676 493.434 125.454 493.434 125.21V124.75C493.434 124.505 493.379 124.284 493.268 124.085C493.157 123.886 492.955 123.787 492.663 123.787C492.379 123.787 492.177 123.886 492.058 124.085C491.941 124.284 491.883 124.505 491.883 124.75ZM491.29 131.841L497.29 123.113H498.309L492.309 131.841H491.29Z" fill="#040509"/>
<g clip-path="url(#clip0_6001_12985)">
<circle cx="402.308" cy="208.841" r="3" fill="url(#paint8_linear_6001_12985)"/>
</g>
<path d="M415.619 213.841H413.651L417.235 203.659H419.512L423.102 213.841H421.133L418.414 205.747H418.334L415.619 213.841ZM415.684 209.848H421.053V211.33H415.684V209.848ZM423.943 213.841V203.659H425.787V212.294H430.272V213.841H423.943ZM431.372 213.841V203.659H433.217V212.294H437.701V213.841H431.372ZM447.504 208.75C447.504 209.847 447.298 210.786 446.887 211.569C446.48 212.347 445.923 212.944 445.217 213.358C444.514 213.773 443.717 213.98 442.825 213.98C441.934 213.98 441.135 213.773 440.429 213.358C439.726 212.941 439.17 212.342 438.759 211.564C438.351 210.781 438.147 209.843 438.147 208.75C438.147 207.653 438.351 206.715 438.759 205.936C439.17 205.154 439.726 204.555 440.429 204.141C441.135 203.727 441.934 203.52 442.825 203.52C443.717 203.52 444.514 203.727 445.217 204.141C445.923 204.555 446.48 205.154 446.887 205.936C447.298 206.715 447.504 207.653 447.504 208.75ZM445.649 208.75C445.649 207.977 445.528 207.326 445.286 206.796C445.048 206.262 444.716 205.86 444.292 205.588C443.868 205.313 443.379 205.175 442.825 205.175C442.272 205.175 441.783 205.313 441.359 205.588C440.935 205.86 440.601 206.262 440.36 206.796C440.121 207.326 440.002 207.977 440.002 208.75C440.002 209.522 440.121 210.175 440.36 210.708C440.601 211.239 440.935 211.641 441.359 211.917C441.783 212.188 442.272 212.324 442.825 212.324C443.379 212.324 443.868 212.188 444.292 211.917C444.716 211.641 445.048 211.239 445.286 210.708C445.528 210.175 445.649 209.522 445.649 208.75ZM457.463 207.094H455.603C455.55 206.789 455.453 206.519 455.31 206.284C455.167 206.045 454.99 205.843 454.778 205.677C454.566 205.512 454.324 205.387 454.052 205.304C453.784 205.218 453.494 205.175 453.182 205.175C452.629 205.175 452.138 205.314 451.711 205.593C451.283 205.868 450.948 206.272 450.706 206.806C450.464 207.336 450.343 207.984 450.343 208.75C450.343 209.529 450.464 210.185 450.706 210.718C450.952 211.249 451.286 211.65 451.711 211.922C452.138 212.19 452.627 212.324 453.177 212.324C453.482 212.324 453.767 212.284 454.032 212.205C454.301 212.122 454.541 212.001 454.753 211.842C454.969 211.683 455.149 211.487 455.295 211.255C455.444 211.023 455.547 210.758 455.603 210.46L457.463 210.47C457.393 210.954 457.242 211.408 457.01 211.832C456.782 212.256 456.482 212.631 456.11 212.956C455.739 213.277 455.305 213.529 454.808 213.711C454.311 213.89 453.759 213.98 453.152 213.98C452.257 213.98 451.459 213.773 450.756 213.358C450.053 212.944 449.5 212.346 449.095 211.564C448.691 210.781 448.489 209.843 448.489 208.75C448.489 207.653 448.693 206.715 449.1 205.936C449.508 205.154 450.063 204.555 450.766 204.141C451.469 203.727 452.264 203.52 453.152 203.52C453.719 203.52 454.246 203.599 454.733 203.758C455.22 203.917 455.655 204.151 456.036 204.459C456.417 204.764 456.73 205.139 456.975 205.583C457.224 206.024 457.386 206.527 457.463 207.094ZM459.836 213.841H457.868L461.452 203.659H463.729L467.319 213.841H465.35L462.63 205.747H462.551L459.836 213.841ZM459.901 209.848H465.27V211.33H459.901V209.848ZM466.482 205.205V203.659H474.605V205.205H471.458V213.841H469.629V205.205H466.482ZM477.516 203.659V213.841H475.671V203.659H477.516ZM488.111 208.75C488.111 209.847 487.906 210.786 487.495 211.569C487.087 212.347 486.53 212.944 485.824 213.358C485.122 213.773 484.324 213.98 483.433 213.98C482.541 213.98 481.743 213.773 481.037 213.358C480.334 212.941 479.777 212.342 479.366 211.564C478.958 210.781 478.755 209.843 478.755 208.75C478.755 207.653 478.958 206.715 479.366 205.936C479.777 205.154 480.334 204.555 481.037 204.141C481.743 203.727 482.541 203.52 483.433 203.52C484.324 203.52 485.122 203.727 485.824 204.141C486.53 204.555 487.087 205.154 487.495 205.936C487.906 206.715 488.111 207.653 488.111 208.75ZM486.257 208.75C486.257 207.977 486.136 207.326 485.894 206.796C485.655 206.262 485.324 205.86 484.899 205.588C484.475 205.313 483.986 205.175 483.433 205.175C482.879 205.175 482.39 205.313 481.966 205.588C481.542 205.86 481.209 206.262 480.967 206.796C480.728 207.326 480.609 207.977 480.609 208.75C480.609 209.522 480.728 210.175 480.967 210.708C481.209 211.239 481.542 211.641 481.966 211.917C482.39 212.188 482.879 212.324 483.433 212.324C483.986 212.324 484.475 212.188 484.899 211.917C485.324 211.641 485.655 211.239 485.894 210.708C486.136 210.175 486.257 209.522 486.257 208.75ZM497.722 203.659V213.841H496.081L491.284 206.905H491.199V213.841H489.355V203.659H491.005L495.798 210.599H495.888V203.659H497.722Z" fill="#7A7A7A"/>
<path d="M407.609 231.386V248.841H404.967V234.028H404.864L400.688 236.755V234.233L405.043 231.386H407.609ZM413.672 246.454L413.544 247.383C413.459 248.065 413.314 248.775 413.11 249.514C412.911 250.258 412.703 250.949 412.487 251.585C412.277 252.221 412.104 252.727 411.967 253.102H410.161C410.235 252.75 410.337 252.272 410.467 251.67C410.598 251.074 410.726 250.406 410.851 249.667C410.976 248.929 411.07 248.176 411.132 247.409L411.217 246.454H413.672ZM421.698 249.079C420.919 249.068 420.152 248.926 419.396 248.653C418.646 248.38 417.965 247.926 417.351 247.289C416.737 246.653 416.246 245.798 415.877 244.724C415.513 243.65 415.331 242.309 415.331 240.701C415.331 239.179 415.482 237.826 415.783 236.645C416.09 235.463 416.53 234.466 417.104 233.653C417.678 232.835 418.371 232.213 419.183 231.787C419.996 231.36 420.908 231.147 421.919 231.147C422.959 231.147 423.882 231.352 424.689 231.761C425.496 232.17 426.149 232.735 426.649 233.457C427.155 234.179 427.476 235 427.612 235.92H425.013C424.837 235.193 424.487 234.599 423.965 234.139C423.442 233.679 422.76 233.449 421.919 233.449C420.641 233.449 419.644 234.005 418.928 235.119C418.217 236.233 417.86 237.781 417.854 239.764H417.982C418.283 239.27 418.652 238.849 419.09 238.503C419.533 238.15 420.027 237.88 420.573 237.693C421.124 237.5 421.703 237.403 422.311 237.403C423.323 237.403 424.237 237.65 425.056 238.145C425.879 238.633 426.536 239.309 427.024 240.173C427.513 241.037 427.757 242.025 427.757 243.139C427.757 244.253 427.504 245.261 426.999 246.164C426.499 247.068 425.794 247.784 424.885 248.312C423.976 248.835 422.914 249.091 421.698 249.079ZM421.689 246.863C422.36 246.863 422.959 246.699 423.487 246.369C424.016 246.039 424.433 245.596 424.74 245.039C425.047 244.483 425.2 243.86 425.2 243.173C425.2 242.503 425.05 241.892 424.749 241.341C424.453 240.789 424.044 240.352 423.521 240.028C423.004 239.704 422.414 239.542 421.749 239.542C421.243 239.542 420.774 239.639 420.342 239.832C419.916 240.025 419.541 240.292 419.217 240.633C418.894 240.974 418.638 241.366 418.45 241.809C418.269 242.247 418.178 242.71 418.178 243.199C418.178 243.852 418.328 244.457 418.629 245.014C418.936 245.571 419.354 246.02 419.882 246.36C420.416 246.696 421.019 246.863 421.689 246.863ZM430.1 248.841V231.386H432.734V239.721H432.947L440.268 231.386H443.583L436.543 239.244L443.609 248.841H440.438L434.796 241.042L432.734 243.412V248.841H430.1Z" fill="white"/>
<path d="M450.308 233.841C450.308 231.631 452.099 229.841 454.308 229.841H491.308C493.517 229.841 495.308 231.631 495.308 233.841V245.841C495.308 248.05 493.517 249.841 491.308 249.841H454.308C452.099 249.841 450.308 248.05 450.308 245.841V233.841Z" fill="url(#paint9_linear_6001_12985)"/>
<path d="M458.089 242.375V236.613H459.235V242.375H458.089ZM455.784 240.065V238.923H461.545V240.065H455.784ZM463.315 242.136V241.071L467.087 235.113H467.926V236.681H467.394L464.696 240.951V241.02H469.865V242.136H463.315ZM467.453 243.841V241.812L467.462 241.326V235.113H468.71V243.841H467.453ZM471.879 243.922C471.646 243.922 471.445 243.839 471.278 243.674C471.11 243.507 471.026 243.305 471.026 243.069C471.026 242.836 471.11 242.637 471.278 242.473C471.445 242.305 471.646 242.221 471.879 242.221C472.112 242.221 472.312 242.305 472.48 242.473C472.647 242.637 472.731 242.836 472.731 243.069C472.731 243.226 472.691 243.369 472.612 243.5C472.535 243.628 472.433 243.73 472.305 243.806C472.177 243.883 472.035 243.922 471.879 243.922ZM477.143 243.985C476.469 243.983 475.894 243.805 475.417 243.453C474.939 243.101 474.574 242.588 474.322 241.914C474.069 241.241 473.942 240.43 473.942 239.481C473.942 238.535 474.069 237.727 474.322 237.056C474.577 236.386 474.944 235.875 475.421 235.522C475.901 235.17 476.475 234.994 477.143 234.994C477.81 234.994 478.383 235.172 478.86 235.527C479.337 235.879 479.702 236.39 479.955 237.061C480.211 237.728 480.339 238.535 480.339 239.481C480.339 240.433 480.212 241.245 479.959 241.919C479.706 242.589 479.341 243.102 478.864 243.457C478.387 243.809 477.813 243.985 477.143 243.985ZM477.143 242.848C477.733 242.848 478.195 242.559 478.527 241.983C478.863 241.406 479.03 240.572 479.03 239.481C479.03 238.757 478.954 238.145 478.8 237.645C478.65 237.142 478.432 236.761 478.148 236.503C477.867 236.241 477.532 236.11 477.143 236.11C476.554 236.11 476.093 236.4 475.758 236.98C475.422 237.559 475.253 238.393 475.251 239.481C475.251 240.208 475.326 240.824 475.476 241.326C475.63 241.826 475.847 242.206 476.128 242.464C476.41 242.72 476.748 242.848 477.143 242.848ZM486.406 242.204V241.744C486.406 241.414 486.474 241.113 486.61 240.841C486.749 240.565 486.951 240.345 487.215 240.18C487.482 240.012 487.805 239.929 488.183 239.929C488.569 239.929 488.893 240.011 489.154 240.176C489.416 240.341 489.613 240.561 489.747 240.836C489.883 241.112 489.951 241.414 489.951 241.744V242.204C489.951 242.534 489.883 242.836 489.747 243.112C489.61 243.385 489.41 243.605 489.146 243.772C488.884 243.937 488.563 244.02 488.183 244.02C487.799 244.02 487.475 243.937 487.211 243.772C486.947 243.605 486.747 243.385 486.61 243.112C486.474 242.836 486.406 242.534 486.406 242.204ZM487.399 241.744V242.204C487.399 242.449 487.457 242.67 487.573 242.869C487.69 243.068 487.893 243.167 488.183 243.167C488.47 243.167 488.67 243.068 488.784 242.869C488.897 242.67 488.954 242.449 488.954 242.204V241.744C488.954 241.5 488.899 241.278 488.788 241.079C488.68 240.88 488.478 240.781 488.183 240.781C487.899 240.781 487.697 240.88 487.578 241.079C487.458 241.278 487.399 241.5 487.399 241.744ZM482.016 237.21V236.75C482.016 236.42 482.085 236.118 482.221 235.842C482.36 235.566 482.562 235.346 482.826 235.181C483.093 235.017 483.416 234.934 483.793 234.934C484.18 234.934 484.504 235.017 484.765 235.181C485.026 235.346 485.224 235.566 485.357 235.842C485.491 236.118 485.558 236.42 485.558 236.75V237.21C485.558 237.539 485.489 237.842 485.353 238.118C485.22 238.39 485.021 238.61 484.757 238.778C484.495 238.943 484.174 239.025 483.793 239.025C483.407 239.025 483.082 238.943 482.818 238.778C482.556 238.61 482.357 238.39 482.221 238.118C482.085 237.842 482.016 237.539 482.016 237.21ZM483.014 236.75V237.21C483.014 237.454 483.07 237.676 483.184 237.875C483.301 238.074 483.504 238.173 483.793 238.173C484.078 238.173 484.276 238.074 484.39 237.875C484.507 237.676 484.565 237.454 484.565 237.21V236.75C484.565 236.505 484.509 236.284 484.399 236.085C484.288 235.886 484.086 235.787 483.793 235.787C483.509 235.787 483.308 235.886 483.188 236.085C483.072 236.284 483.014 236.505 483.014 236.75ZM482.421 243.841L488.421 235.113H489.44L483.44 243.841H482.421Z" fill="#040509"/>
<circle cx="402.308" cy="320.841" r="3" fill="url(#paint10_linear_6001_12985)"/>
<path d="M415.619 325.841H413.651L417.235 315.659H419.512L423.102 325.841H421.133L418.414 317.747H418.334L415.619 325.841ZM415.684 321.848H421.053V323.33H415.684V321.848ZM423.943 315.659H426.2L429.223 323.037H429.342L432.365 315.659H434.622V325.841H432.852V318.846H432.757L429.944 325.811H428.621L425.807 318.831H425.713V325.841H423.943V315.659ZM445.228 320.75C445.228 321.847 445.023 322.786 444.612 323.569C444.204 324.347 443.647 324.944 442.941 325.358C442.239 325.773 441.442 325.98 440.55 325.98C439.658 325.98 438.86 325.773 438.154 325.358C437.451 324.941 436.894 324.342 436.483 323.564C436.076 322.781 435.872 321.843 435.872 320.75C435.872 319.653 436.076 318.715 436.483 317.936C436.894 317.154 437.451 316.555 438.154 316.141C438.86 315.727 439.658 315.52 440.55 315.52C441.442 315.52 442.239 315.727 442.941 316.141C443.647 316.555 444.204 317.154 444.612 317.936C445.023 318.715 445.228 319.653 445.228 320.75ZM443.374 320.75C443.374 319.977 443.253 319.326 443.011 318.796C442.772 318.262 442.441 317.86 442.017 317.588C441.592 317.313 441.104 317.175 440.55 317.175C439.997 317.175 439.508 317.313 439.083 317.588C438.659 317.86 438.326 318.262 438.084 318.796C437.845 319.326 437.726 319.977 437.726 320.75C437.726 321.522 437.845 322.175 438.084 322.708C438.326 323.239 438.659 323.641 439.083 323.917C439.508 324.188 439.997 324.324 440.55 324.324C441.104 324.324 441.592 324.188 442.017 323.917C442.441 323.641 442.772 323.239 443.011 322.708C443.253 322.175 443.374 321.522 443.374 320.75ZM452.89 315.659H454.735V322.311C454.735 323.04 454.563 323.681 454.218 324.235C453.876 324.788 453.396 325.221 452.776 325.532C452.156 325.841 451.432 325.995 450.603 325.995C449.772 325.995 449.046 325.841 448.426 325.532C447.806 325.221 447.326 324.788 446.984 324.235C446.643 323.681 446.472 323.04 446.472 322.311V315.659H448.317V322.157C448.317 322.581 448.409 322.959 448.595 323.29C448.784 323.622 449.049 323.882 449.39 324.071C449.732 324.256 450.136 324.349 450.603 324.349C451.071 324.349 451.475 324.256 451.817 324.071C452.161 323.882 452.426 323.622 452.612 323.29C452.798 322.959 452.89 322.581 452.89 322.157V315.659ZM464.607 315.659V325.841H462.966L458.169 318.905H458.084V325.841H456.24V315.659H457.89L462.683 322.599H462.772V315.659H464.607ZM465.669 317.205V315.659H473.793V317.205H470.646V325.841H468.816V317.205H465.669Z" fill="#7A7A7A"/>
<path d="M407.609 343.386V360.841H404.967V346.028H404.864L400.688 348.755V346.233L405.043 343.386H407.609ZM413.672 358.454L413.544 359.383C413.459 360.065 413.314 360.775 413.11 361.514C412.911 362.258 412.703 362.949 412.487 363.585C412.277 364.221 412.104 364.727 411.967 365.102H410.161C410.235 364.75 410.337 364.272 410.467 363.67C410.598 363.074 410.726 362.406 410.851 361.667C410.976 360.929 411.07 360.176 411.132 359.409L411.217 358.454H413.672ZM420.749 343.386V360.841H418.107V346.028H418.005L413.829 348.755V346.233L418.184 343.386H420.749ZM424.71 360.841V343.386H427.343V351.721H427.556L434.877 343.386H438.193L431.153 351.244L438.218 360.841H435.048L429.406 353.042L427.343 355.412V360.841H424.71Z" fill="white"/>
<path d="M445.308 345.841C445.308 343.631 447.099 341.841 449.308 341.841H483.308C485.517 341.841 487.308 343.631 487.308 345.841V357.841C487.308 360.05 485.517 361.841 483.308 361.841H449.308C447.099 361.841 445.308 360.05 445.308 357.841V345.841Z" fill="url(#paint11_linear_6001_12985)"/>
<path d="M452.773 354.375V348.613H453.919V354.375H452.773ZM450.467 352.065V350.923H456.228V352.065H450.467ZM458.183 355.841L461.993 348.306V348.243H457.587V347.113H463.357V348.281L459.56 355.841H458.183ZM464.195 355.922C463.962 355.922 463.762 355.839 463.594 355.674C463.427 355.507 463.343 355.305 463.343 355.069C463.343 354.836 463.427 354.637 463.594 354.473C463.762 354.305 463.962 354.221 464.195 354.221C464.428 354.221 464.628 354.305 464.796 354.473C464.964 354.637 465.047 354.836 465.047 355.069C465.047 355.226 465.008 355.369 464.928 355.5C464.851 355.628 464.749 355.73 464.621 355.806C464.493 355.883 464.351 355.922 464.195 355.922ZM469.459 355.985C468.786 355.983 468.21 355.805 467.733 355.453C467.256 355.101 466.891 354.588 466.638 353.914C466.385 353.241 466.259 352.43 466.259 351.481C466.259 350.535 466.385 349.727 466.638 349.056C466.894 348.386 467.26 347.875 467.737 347.522C468.217 347.17 468.791 346.994 469.459 346.994C470.127 346.994 470.699 347.172 471.176 347.527C471.654 347.879 472.019 348.39 472.271 349.061C472.527 349.728 472.655 350.535 472.655 351.481C472.655 352.433 472.529 353.245 472.276 353.919C472.023 354.589 471.658 355.102 471.181 355.457C470.703 355.809 470.129 355.985 469.459 355.985ZM469.459 354.848C470.05 354.848 470.512 354.559 470.844 353.983C471.179 353.406 471.347 352.572 471.347 351.481C471.347 350.757 471.27 350.145 471.117 349.645C470.966 349.142 470.749 348.761 470.465 348.503C470.183 348.241 469.848 348.11 469.459 348.11C468.871 348.11 468.409 348.4 468.074 348.98C467.739 349.559 467.57 350.393 467.567 351.481C467.567 352.208 467.642 352.824 467.793 353.326C467.946 353.826 468.164 354.206 468.445 354.464C468.726 354.72 469.064 354.848 469.459 354.848ZM478.722 354.204V353.744C478.722 353.414 478.79 353.113 478.927 352.841C479.066 352.565 479.268 352.345 479.532 352.18C479.799 352.012 480.121 351.929 480.499 351.929C480.885 351.929 481.209 352.011 481.471 352.176C481.732 352.341 481.929 352.561 482.063 352.836C482.199 353.112 482.268 353.414 482.268 353.744V354.204C482.268 354.534 482.199 354.836 482.063 355.112C481.927 355.385 481.726 355.605 481.462 355.772C481.201 355.937 480.88 356.02 480.499 356.02C480.116 356.02 479.792 355.937 479.527 355.772C479.263 355.605 479.063 355.385 478.927 355.112C478.79 354.836 478.722 354.534 478.722 354.204ZM479.715 353.744V354.204C479.715 354.449 479.773 354.67 479.89 354.869C480.006 355.068 480.209 355.167 480.499 355.167C480.786 355.167 480.986 355.068 481.1 354.869C481.214 354.67 481.27 354.449 481.27 354.204V353.744C481.27 353.5 481.215 353.278 481.104 353.079C480.996 352.88 480.795 352.781 480.499 352.781C480.215 352.781 480.013 352.88 479.894 353.079C479.775 353.278 479.715 353.5 479.715 353.744ZM474.333 349.21V348.75C474.333 348.42 474.401 348.118 474.537 347.842C474.677 347.566 474.878 347.346 475.143 347.181C475.41 347.017 475.732 346.934 476.11 346.934C476.496 346.934 476.82 347.017 477.081 347.181C477.343 347.346 477.54 347.566 477.674 347.842C477.807 348.118 477.874 348.42 477.874 348.75V349.21C477.874 349.539 477.806 349.842 477.67 350.118C477.536 350.39 477.337 350.61 477.073 350.778C476.812 350.943 476.491 351.025 476.11 351.025C475.724 351.025 475.398 350.943 475.134 350.778C474.873 350.61 474.674 350.39 474.537 350.118C474.401 349.842 474.333 349.539 474.333 349.21ZM475.33 348.75V349.21C475.33 349.454 475.387 349.676 475.501 349.875C475.617 350.074 475.82 350.173 476.11 350.173C476.394 350.173 476.593 350.074 476.706 349.875C476.823 349.676 476.881 349.454 476.881 349.21V348.75C476.881 348.505 476.826 348.284 476.715 348.085C476.604 347.886 476.402 347.787 476.11 347.787C475.826 347.787 475.624 347.886 475.505 348.085C475.388 348.284 475.33 348.505 475.33 348.75ZM474.738 355.841L480.738 347.113H481.756L475.756 355.841H474.738Z" fill="#040509"/>
<defs>
<linearGradient id="paint0_linear_6001_12985" x1="49.7016" y1="186.032" x2="2.44661" y2="352.887" gradientUnits="userSpaceOnUse">
<stop stop-color="#FEECE3"/>
<stop offset="0.25" stop-color="#FCD5BF"/>
<stop offset="0.5" stop-color="#FEAFAE"/>
<stop offset="0.75" stop-color="#FFA4BD"/>
<stop offset="1" stop-color="#FFA9CC"/>
</linearGradient>
<linearGradient id="paint1_linear_6001_12985" x1="105.702" y1="304.922" x2="99.8959" y2="365.429" gradientUnits="userSpaceOnUse">
<stop stop-color="#FEECE3"/>
<stop offset="0.25" stop-color="#FCD5BF"/>
<stop offset="0.5" stop-color="#FEAFAE"/>
<stop offset="0.75" stop-color="#FFA4BD"/>
<stop offset="1" stop-color="#FFA9CC"/>
</linearGradient>
<linearGradient id="paint2_linear_6001_12985" x1="161.702" y1="249.899" x2="141.163" y2="362.367" gradientUnits="userSpaceOnUse">
<stop stop-color="#FEECE3"/>
<stop offset="0.25" stop-color="#FCD5BF"/>
<stop offset="0.5" stop-color="#FEAFAE"/>
<stop offset="0.75" stop-color="#FFA4BD"/>
<stop offset="1" stop-color="#FFA9CC"/>
</linearGradient>
<linearGradient id="paint3_linear_6001_12985" x1="217.702" y1="207.649" x2="180.501" y2="356.949" gradientUnits="userSpaceOnUse">
<stop stop-color="#FEECE3"/>
<stop offset="0.25" stop-color="#FCD5BF"/>
<stop offset="0.5" stop-color="#FEAFAE"/>
<stop offset="0.75" stop-color="#FFA4BD"/>
<stop offset="1" stop-color="#FFA9CC"/>
</linearGradient>
<linearGradient id="paint4_linear_6001_12985" x1="273.702" y1="302.957" x2="267.519" y2="365.378" gradientUnits="userSpaceOnUse">
<stop stop-color="#FEECE3"/>
<stop offset="0.25" stop-color="#FCD5BF"/>
<stop offset="0.5" stop-color="#FEAFAE"/>
<stop offset="0.75" stop-color="#FFA4BD"/>
<stop offset="1" stop-color="#FFA9CC"/>
</linearGradient>
<linearGradient id="paint5_linear_6001_12985" x1="329.702" y1="262.672" x2="313.329" y2="363.426" gradientUnits="userSpaceOnUse">
<stop stop-color="#FEECE3"/>
<stop offset="0.25" stop-color="#FCD5BF"/>
<stop offset="0.5" stop-color="#FEAFAE"/>
<stop offset="0.75" stop-color="#FFA4BD"/>
<stop offset="1" stop-color="#FFA9CC"/>
</linearGradient>
<linearGradient id="paint6_linear_6001_12985" x1="400.248" y1="91.3185" x2="407.48" y2="94.0155" gradientUnits="userSpaceOnUse">
<stop stop-color="#FEECE3"/>
<stop offset="0.25" stop-color="#FCD5BF"/>
<stop offset="0.5" stop-color="#FEAFAE"/>
<stop offset="0.75" stop-color="#FFA4BD"/>
<stop offset="1" stop-color="#FFA9CC"/>
</linearGradient>
<linearGradient id="paint7_linear_6001_12985" x1="462.989" y1="109.434" x2="499.654" y2="142.934" gradientUnits="userSpaceOnUse">
<stop stop-color="#FEECE3"/>
<stop offset="0.25" stop-color="#FCD5BF"/>
<stop offset="0.5" stop-color="#FEAFAE"/>
<stop offset="0.75" stop-color="#FFA4BD"/>
<stop offset="1" stop-color="#FFA9CC"/>
</linearGradient>
<linearGradient id="paint8_linear_6001_12985" x1="400.248" y1="203.318" x2="407.48" y2="206.016" gradientUnits="userSpaceOnUse">
<stop stop-color="#FEECE3"/>
<stop offset="0.25" stop-color="#FCD5BF"/>
<stop offset="0.5" stop-color="#FEAFAE"/>
<stop offset="0.75" stop-color="#FFA4BD"/>
<stop offset="1" stop-color="#FFA9CC"/>
</linearGradient>
<linearGradient id="paint9_linear_6001_12985" x1="457.362" y1="221.434" x2="493.617" y2="251.856" gradientUnits="userSpaceOnUse">
<stop stop-color="#FEECE3"/>
<stop offset="0.25" stop-color="#FCD5BF"/>
<stop offset="0.5" stop-color="#FEAFAE"/>
<stop offset="0.75" stop-color="#FFA4BD"/>
<stop offset="1" stop-color="#FFA9CC"/>
</linearGradient>
<linearGradient id="paint10_linear_6001_12985" x1="400.248" y1="315.318" x2="407.48" y2="318.016" gradientUnits="userSpaceOnUse">
<stop stop-color="#FEECE3"/>
<stop offset="0.25" stop-color="#FCD5BF"/>
<stop offset="0.5" stop-color="#FEAFAE"/>
<stop offset="0.75" stop-color="#FFA4BD"/>
<stop offset="1" stop-color="#FFA9CC"/>
</linearGradient>
<linearGradient id="paint11_linear_6001_12985" x1="451.892" y1="333.434" x2="487.633" y2="361.425" gradientUnits="userSpaceOnUse">
<stop stop-color="#FEECE3"/>
<stop offset="0.25" stop-color="#FCD5BF"/>
<stop offset="0.5" stop-color="#FEAFAE"/>
<stop offset="0.75" stop-color="#FFA4BD"/>
<stop offset="1" stop-color="#FFA9CC"/>
</linearGradient>
<clipPath id="clip0_6001_12985">
<rect width="6" height="6" fill="white" transform="translate(399.308 205.841)"/>
</clipPath>
</defs>
</svg>
