<svg width="261" height="226" viewBox="0 0 261 226" fill="none" xmlns="http://www.w3.org/2000/svg">
<path d="M36.3118 37H34.343L37.9276 26.8182H40.2045L43.794 37H41.8253L39.1058 28.9062H39.0263L36.3118 37ZM36.3764 33.0078H41.7457V34.4893H36.3764V33.0078ZM44.6351 37V26.8182H46.4796V35.4538H50.964V37H44.6351ZM52.0648 37V26.8182H53.9093V35.4538H58.3936V37H52.0648ZM68.196 31.9091C68.196 33.0062 67.9905 33.9458 67.5795 34.728C67.1719 35.5069 66.6151 36.1035 65.9091 36.5178C65.2064 36.9321 64.4093 37.1392 63.5178 37.1392C62.6262 37.1392 61.8274 36.9321 61.1214 36.5178C60.4188 36.1001 59.862 35.5019 59.451 34.723C59.0433 33.9408 58.8395 33.0028 58.8395 31.9091C58.8395 30.812 59.0433 29.8741 59.451 29.0952C59.862 28.313 60.4188 27.7147 61.1214 27.3004C61.8274 26.8861 62.6262 26.679 63.5178 26.679C64.4093 26.679 65.2064 26.8861 65.9091 27.3004C66.6151 27.7147 67.1719 28.313 67.5795 29.0952C67.9905 29.8741 68.196 30.812 68.196 31.9091ZM66.3416 31.9091C66.3416 31.1368 66.2206 30.4856 65.9787 29.9553C65.7401 29.4216 65.4086 29.0189 64.9844 28.7472C64.5601 28.4721 64.0713 28.3345 63.5178 28.3345C62.9643 28.3345 62.4754 28.4721 62.0511 28.7472C61.6269 29.0189 61.2938 29.4216 61.0518 29.9553C60.8132 30.4856 60.6939 31.1368 60.6939 31.9091C60.6939 32.6813 60.8132 33.3343 61.0518 33.8679C61.2938 34.3982 61.6269 34.8009 62.0511 35.076C62.4754 35.3478 62.9643 35.4837 63.5178 35.4837C64.0713 35.4837 64.5601 35.3478 64.9844 35.076C65.4086 34.8009 65.7401 34.3982 65.9787 33.8679C66.2206 33.3343 66.3416 32.6813 66.3416 31.9091ZM78.155 30.2536H76.2956C76.2426 29.9486 76.1448 29.6785 76.0023 29.4432C75.8598 29.2045 75.6825 29.0024 75.4703 28.8366C75.2582 28.6709 75.0163 28.5466 74.7445 28.4638C74.476 28.3776 74.186 28.3345 73.8745 28.3345C73.321 28.3345 72.8304 28.4737 72.4029 28.7521C71.9753 29.0272 71.6406 29.4316 71.3986 29.9652C71.1567 30.4955 71.0357 31.1435 71.0357 31.9091C71.0357 32.688 71.1567 33.3442 71.3986 33.8778C71.6439 34.4081 71.9786 34.8092 72.4029 35.081C72.8304 35.3494 73.3193 35.4837 73.8695 35.4837C74.1744 35.4837 74.4595 35.4439 74.7246 35.3643C74.9931 35.2815 75.2334 35.1605 75.4455 35.0014C75.6609 34.8423 75.8416 34.6468 75.9874 34.4148C76.1365 34.1828 76.2393 33.9176 76.2956 33.6193L78.155 33.6293C78.0854 34.1132 77.9346 34.5672 77.7026 34.9915C77.4739 35.4157 77.1739 35.7902 76.8027 36.1151C76.4315 36.4366 75.9973 36.6884 75.5002 36.8707C75.003 37.0497 74.4512 37.1392 73.8446 37.1392C72.9498 37.1392 72.151 36.9321 71.4483 36.5178C70.7457 36.1035 70.1922 35.5052 69.7878 34.723C69.3835 33.9408 69.1813 33.0028 69.1813 31.9091C69.1813 30.812 69.3851 29.8741 69.7928 29.0952C70.2005 28.313 70.7556 27.7147 71.4583 27.3004C72.1609 26.8861 72.9564 26.679 73.8446 26.679C74.4114 26.679 74.9384 26.7585 75.4256 26.9176C75.9128 27.0767 76.347 27.3104 76.7282 27.6186C77.1093 27.9235 77.4225 28.2981 77.6678 28.7422C77.9164 29.183 78.0788 29.6868 78.155 30.2536ZM80.5286 37H78.5598L82.1444 26.8182H84.4213L88.0108 37H86.0421L83.3226 28.9062H83.2431L80.5286 37ZM80.5932 33.0078H85.9625V34.4893H80.5932V33.0078ZM87.174 28.3643V26.8182H95.2976V28.3643H92.1506V37H90.321V28.3643H87.174ZM98.2081 26.8182V37H96.3636V26.8182H98.2081ZM108.803 31.9091C108.803 33.0062 108.598 33.9458 108.187 34.728C107.779 35.5069 107.222 36.1035 106.517 36.5178C105.814 36.9321 105.017 37.1392 104.125 37.1392C103.234 37.1392 102.435 36.9321 101.729 36.5178C101.026 36.1001 100.469 35.5019 100.058 34.723C99.6507 33.9408 99.4469 33.0028 99.4469 31.9091C99.4469 30.812 99.6507 29.8741 100.058 29.0952C100.469 28.313 101.026 27.7147 101.729 27.3004C102.435 26.8861 103.234 26.679 104.125 26.679C105.017 26.679 105.814 26.8861 106.517 27.3004C107.222 27.7147 107.779 28.313 108.187 29.0952C108.598 29.8741 108.803 30.812 108.803 31.9091ZM106.949 31.9091C106.949 31.1368 106.828 30.4856 106.586 29.9553C106.347 29.4216 106.016 29.0189 105.592 28.7472C105.168 28.4721 104.679 28.3345 104.125 28.3345C103.572 28.3345 103.083 28.4721 102.659 28.7472C102.234 29.0189 101.901 29.4216 101.659 29.9553C101.421 30.4856 101.301 31.1368 101.301 31.9091C101.301 32.6813 101.421 33.3343 101.659 33.8679C101.901 34.3982 102.234 34.8009 102.659 35.076C103.083 35.3478 103.572 35.4837 104.125 35.4837C104.679 35.4837 105.168 35.3478 105.592 35.076C106.016 34.8009 106.347 34.3982 106.586 33.8679C106.828 33.3343 106.949 32.6813 106.949 31.9091ZM118.414 26.8182V37H116.774L111.976 30.0646H111.892V37H110.047V26.8182H111.698L116.49 33.7585H116.58V26.8182H118.414Z" fill="#7A7A7A"/>
<path d="M50.6023 69.0909V104H45.3182V74.375H45.1136L36.7614 79.8295V74.7841L45.4716 69.0909H50.6023ZM70.1989 104.58C67.5057 104.568 65.2045 103.858 63.2955 102.449C61.3864 101.04 59.9261 98.9886 58.9148 96.2955C57.9034 93.6023 57.3977 90.358 57.3977 86.5625C57.3977 82.7784 57.9034 79.5455 58.9148 76.8636C59.9375 74.1818 61.4034 72.1364 63.3125 70.7273C65.233 69.3182 67.5284 68.6136 70.1989 68.6136C72.8693 68.6136 75.1591 69.3239 77.0682 70.7443C78.9773 72.1534 80.4375 74.1989 81.4489 76.8807C82.4716 79.5511 82.983 82.7784 82.983 86.5625C82.983 90.3693 82.4773 93.6193 81.4659 96.3125C80.4545 98.9943 78.9943 101.045 77.0852 102.466C75.1761 103.875 72.8807 104.58 70.1989 104.58ZM70.1989 100.028C72.5625 100.028 74.4091 98.875 75.7386 96.5682C77.0795 94.2614 77.75 90.9261 77.75 86.5625C77.75 83.6648 77.4432 81.2159 76.8295 79.2159C76.2273 77.2045 75.358 75.6818 74.2216 74.6477C73.0966 73.6023 71.7557 73.0795 70.1989 73.0795C67.8466 73.0795 66 74.2386 64.6591 76.5568C63.3182 78.875 62.642 82.2102 62.6307 86.5625C62.6307 89.4716 62.9318 91.9318 63.5341 93.9432C64.1477 95.9432 65.017 97.4602 66.142 98.4943C67.267 99.517 68.6193 100.028 70.1989 100.028ZM105.251 97.4545V95.6136C105.251 94.2955 105.524 93.0909 106.07 92C106.626 90.8977 107.433 90.017 108.49 89.358C109.558 88.6875 110.848 88.3523 112.359 88.3523C113.905 88.3523 115.2 88.6818 116.246 89.3409C117.291 90 118.081 90.8807 118.615 91.983C119.161 93.0852 119.433 94.2955 119.433 95.6136V97.4545C119.433 98.7727 119.161 99.983 118.615 101.085C118.07 102.176 117.268 103.057 116.212 103.727C115.166 104.386 113.882 104.716 112.359 104.716C110.825 104.716 109.53 104.386 108.473 103.727C107.416 103.057 106.615 102.176 106.07 101.085C105.524 99.983 105.251 98.7727 105.251 97.4545ZM109.223 95.6136V97.4545C109.223 98.4318 109.456 99.3182 109.922 100.114C110.388 100.909 111.2 101.307 112.359 101.307C113.507 101.307 114.308 100.909 114.763 100.114C115.217 99.3182 115.445 98.4318 115.445 97.4545V95.6136C115.445 94.6364 115.223 93.75 114.78 92.9545C114.348 92.1591 113.541 91.7614 112.359 91.7614C111.223 91.7614 110.416 92.1591 109.939 92.9545C109.462 93.75 109.223 94.6364 109.223 95.6136ZM87.6946 77.4773V75.6364C87.6946 74.3182 87.9673 73.108 88.5128 72.0057C89.0696 70.9034 89.8764 70.0227 90.9332 69.3636C92.0014 68.7045 93.2912 68.375 94.8026 68.375C96.348 68.375 97.6435 68.7045 98.6889 69.3636C99.7344 70.0227 100.524 70.9034 101.058 72.0057C101.592 73.108 101.859 74.3182 101.859 75.6364V77.4773C101.859 78.7955 101.587 80.0057 101.041 81.108C100.507 82.1989 99.7116 83.0795 98.6548 83.75C97.6094 84.4091 96.3253 84.7386 94.8026 84.7386C93.2571 84.7386 91.956 84.4091 90.8991 83.75C89.8537 83.0795 89.0582 82.1989 88.5128 81.108C87.9673 80.0057 87.6946 78.7955 87.6946 77.4773ZM91.6832 75.6364V77.4773C91.6832 78.4545 91.9105 79.3409 92.3651 80.1364C92.831 80.9318 93.6435 81.3295 94.8026 81.3295C95.9389 81.3295 96.7344 80.9318 97.1889 80.1364C97.6548 79.3409 97.8878 78.4545 97.8878 77.4773V75.6364C97.8878 74.6591 97.6662 73.7727 97.223 72.9773C96.7798 72.1818 95.973 71.7841 94.8026 71.7841C93.6662 71.7841 92.8594 72.1818 92.3821 72.9773C91.9162 73.7727 91.6832 74.6591 91.6832 75.6364ZM89.3139 104L113.314 69.0909H117.388L93.3878 104H89.3139Z" fill="white"/>
<rect x="226" y="133" width="35" height="192" rx="7.35165" transform="rotate(90 226 133)" fill="#4A4A4A"/>
<path d="M80.0989 134C82.8057 134 85 136.194 85 138.901L85 164.099C85 166.806 82.8057 169 80.0989 169L38.9011 169C36.1943 169 34 166.806 34 164.099L34 138.901C34 136.194 36.1943 134 38.9011 134L80.0989 134Z" fill="url(#paint0_linear_6001_12946)"/>
<path d="M37.9077 194.119C37.294 194.119 36.7486 194.014 36.2713 193.804C35.7969 193.594 35.4219 193.301 35.1463 192.926C34.8707 192.551 34.7244 192.118 34.7074 191.626H36.3097C36.3239 191.862 36.402 192.068 36.544 192.244C36.6861 192.418 36.875 192.553 37.1108 192.649C37.3466 192.746 37.6108 192.794 37.9034 192.794C38.2159 192.794 38.4929 192.74 38.7344 192.632C38.9759 192.521 39.1648 192.368 39.3011 192.172C39.4375 191.976 39.5043 191.75 39.5014 191.494C39.5043 191.23 39.4361 190.997 39.2969 190.795C39.1577 190.594 38.956 190.436 38.6918 190.322C38.4304 190.209 38.1151 190.152 37.7457 190.152H36.9744V188.933H37.7457C38.0497 188.933 38.3153 188.881 38.5426 188.776C38.7727 188.67 38.9531 188.523 39.0838 188.332C39.2145 188.139 39.2784 187.916 39.2756 187.663C39.2784 187.416 39.223 187.202 39.1094 187.02C38.9986 186.835 38.8409 186.692 38.6364 186.589C38.4347 186.487 38.1974 186.436 37.9247 186.436C37.6577 186.436 37.4105 186.484 37.1832 186.581C36.956 186.678 36.7727 186.815 36.6335 186.994C36.4943 187.17 36.4205 187.381 36.4119 187.625H34.8906C34.902 187.136 35.0426 186.707 35.3125 186.338C35.5852 185.966 35.9489 185.676 36.4034 185.469C36.858 185.259 37.3679 185.153 37.9332 185.153C38.5156 185.153 39.0213 185.263 39.4503 185.482C39.8821 185.697 40.2159 185.989 40.4517 186.355C40.6875 186.722 40.8054 187.126 40.8054 187.57C40.8082 188.061 40.6634 188.473 40.3707 188.805C40.081 189.138 39.7003 189.355 39.2287 189.457V189.526C39.8423 189.611 40.3125 189.838 40.6392 190.207C40.9688 190.574 41.1321 191.03 41.1293 191.575C41.1293 192.064 40.9901 192.501 40.7116 192.888C40.4361 193.271 40.0554 193.572 39.5696 193.791C39.0866 194.01 38.5327 194.119 37.9077 194.119ZM45.3178 194.166C44.6161 194.166 44.0138 193.989 43.511 193.634C43.011 193.276 42.6261 192.76 42.3562 192.087C42.0891 191.411 41.9556 190.597 41.9556 189.645C41.9585 188.693 42.0934 187.884 42.3604 187.216C42.6303 186.545 43.0153 186.034 43.5153 185.682C44.0181 185.33 44.619 185.153 45.3178 185.153C46.0167 185.153 46.6175 185.33 47.1204 185.682C47.6232 186.034 48.0082 186.545 48.2752 187.216C48.5451 187.886 48.68 188.696 48.68 189.645C48.68 190.599 48.5451 191.415 48.2752 192.091C48.0082 192.764 47.6232 193.278 47.1204 193.634C46.6204 193.989 46.0195 194.166 45.3178 194.166ZM45.3178 192.832C45.8633 192.832 46.2937 192.564 46.609 192.027C46.9272 191.487 47.0863 190.693 47.0863 189.645C47.0863 188.952 47.0138 188.369 46.869 187.898C46.7241 187.426 46.5195 187.071 46.2553 186.832C45.9911 186.591 45.6786 186.47 45.3178 186.47C44.7752 186.47 44.3462 186.74 44.0309 187.28C43.7156 187.817 43.5565 188.605 43.5536 189.645C43.5508 190.341 43.6204 190.926 43.7624 191.401C43.9073 191.875 44.1119 192.233 44.3761 192.474C44.6403 192.713 44.9542 192.832 45.3178 192.832ZM52.0895 194V187.455H53.5639V188.567H53.6406C53.777 188.192 54.0028 187.899 54.3182 187.689C54.6335 187.476 55.0099 187.369 55.4474 187.369C55.8906 187.369 56.2642 187.477 56.5682 187.693C56.875 187.906 57.0909 188.197 57.2159 188.567H57.2841C57.429 188.203 57.6733 187.913 58.017 187.697C58.3636 187.479 58.7741 187.369 59.2486 187.369C59.8509 187.369 60.3423 187.56 60.723 187.94C61.1037 188.321 61.294 188.876 61.294 189.607V194H59.7472V189.845C59.7472 189.439 59.6392 189.142 59.4233 188.955C59.2074 188.764 58.9432 188.669 58.6307 188.669C58.2585 188.669 57.9673 188.786 57.7571 189.018C57.5497 189.249 57.446 189.548 57.446 189.918V194H55.9332V189.781C55.9332 189.443 55.831 189.173 55.6264 188.972C55.4247 188.77 55.1605 188.669 54.8338 188.669C54.6122 188.669 54.4105 188.726 54.2287 188.839C54.0469 188.95 53.902 189.108 53.794 189.312C53.6861 189.514 53.6321 189.75 53.6321 190.02V194H52.0895ZM62.359 194V187.455H63.9016V194H62.359ZM63.1346 186.526C62.8903 186.526 62.68 186.445 62.5039 186.283C62.3278 186.118 62.2397 185.92 62.2397 185.69C62.2397 185.457 62.3278 185.26 62.5039 185.098C62.68 184.933 62.8903 184.851 63.1346 184.851C63.3817 184.851 63.592 184.933 63.7653 185.098C63.9414 185.26 64.0295 185.457 64.0295 185.69C64.0295 185.92 63.9414 186.118 63.7653 186.283C63.592 186.445 63.3817 186.526 63.1346 186.526ZM66.5305 190.165V194H64.9879V187.455H66.4624V188.567H66.5391C66.6896 188.2 66.9297 187.909 67.2592 187.693C67.5916 187.477 68.0021 187.369 68.4908 187.369C68.9425 187.369 69.3359 187.466 69.6712 187.659C70.0092 187.852 70.2706 188.132 70.4553 188.499C70.6428 188.865 70.7351 189.31 70.7322 189.832V194H69.1896V190.071C69.1896 189.634 69.076 189.291 68.8487 189.044C68.6243 188.797 68.3132 188.673 67.9155 188.673C67.6456 188.673 67.4055 188.733 67.1953 188.852C66.9879 188.969 66.8246 189.138 66.7053 189.359C66.5888 189.581 66.5305 189.849 66.5305 190.165ZM76.9737 189.185L75.5675 189.338C75.5277 189.196 75.4581 189.062 75.3587 188.938C75.2621 188.812 75.1314 188.712 74.9666 188.635C74.8018 188.558 74.6001 188.52 74.3615 188.52C74.0405 188.52 73.7706 188.589 73.5518 188.729C73.3359 188.868 73.2294 189.048 73.2322 189.27C73.2294 189.46 73.299 189.615 73.4411 189.734C73.5859 189.854 73.8246 189.952 74.157 190.028L75.2734 190.267C75.8928 190.401 76.353 190.612 76.6541 190.902C76.9581 191.192 77.1115 191.571 77.1143 192.04C77.1115 192.452 76.9908 192.815 76.7521 193.131C76.5163 193.443 76.1882 193.687 75.7678 193.864C75.3473 194.04 74.8643 194.128 74.3189 194.128C73.5178 194.128 72.8729 193.96 72.3842 193.625C71.8956 193.287 71.6044 192.817 71.5107 192.214L73.0149 192.07C73.0831 192.365 73.228 192.588 73.4496 192.739C73.6712 192.889 73.9595 192.964 74.3146 192.964C74.6811 192.964 74.9751 192.889 75.1967 192.739C75.4212 192.588 75.5334 192.402 75.5334 192.18C75.5334 191.993 75.4609 191.838 75.3161 191.716C75.174 191.594 74.9524 191.5 74.6513 191.435L73.5348 191.2C72.907 191.07 72.4425 190.849 72.1413 190.54C71.8402 190.227 71.6911 189.832 71.6939 189.355C71.6911 188.952 71.8004 188.602 72.022 188.307C72.2464 188.009 72.5575 187.778 72.9553 187.616C73.3558 187.452 73.8175 187.369 74.3402 187.369C75.1072 187.369 75.7109 187.533 76.1513 187.859C76.5945 188.186 76.8686 188.628 76.9737 189.185ZM82.2464 194.132C81.8317 194.132 81.4581 194.058 81.1257 193.911C80.7962 193.76 80.5348 193.538 80.3416 193.246C80.1513 192.953 80.0561 192.592 80.0561 192.163C80.0561 191.794 80.1243 191.489 80.2607 191.247C80.397 191.006 80.5831 190.812 80.8189 190.668C81.0547 190.523 81.3203 190.413 81.6158 190.339C81.9141 190.263 82.2223 190.207 82.5405 190.173C82.924 190.134 83.2351 190.098 83.4737 190.067C83.7124 190.033 83.8857 189.982 83.9936 189.913C84.1044 189.842 84.1598 189.733 84.1598 189.585V189.56C84.1598 189.239 84.0646 188.99 83.8743 188.814C83.6839 188.638 83.4098 188.55 83.0518 188.55C82.674 188.55 82.3743 188.632 82.1527 188.797C81.9339 188.962 81.7862 189.156 81.7095 189.381L80.2692 189.176C80.3828 188.778 80.5703 188.446 80.8317 188.179C81.093 187.909 81.4126 187.707 81.7905 187.574C82.1683 187.438 82.5859 187.369 83.0433 187.369C83.3587 187.369 83.6726 187.406 83.9851 187.48C84.2976 187.554 84.5831 187.676 84.8416 187.847C85.1001 188.014 85.3075 188.243 85.4638 188.533C85.6229 188.822 85.7024 189.185 85.7024 189.619V194H84.2195V193.101H84.1683C84.0746 193.283 83.9425 193.453 83.772 193.612C83.6044 193.768 83.3928 193.895 83.1371 193.991C82.8842 194.085 82.5874 194.132 82.2464 194.132ZM82.647 192.999C82.9567 192.999 83.2251 192.937 83.4524 192.815C83.6797 192.69 83.8544 192.526 83.9766 192.321C84.1016 192.116 84.1641 191.893 84.1641 191.652V190.881C84.1158 190.92 84.0334 190.957 83.9169 190.991C83.8033 191.026 83.6754 191.055 83.5334 191.081C83.3913 191.107 83.2507 191.129 83.1115 191.149C82.9723 191.169 82.8516 191.186 82.7493 191.2C82.5192 191.232 82.3132 191.283 82.1314 191.354C81.9496 191.425 81.8061 191.524 81.701 191.652C81.5959 191.777 81.5433 191.939 81.5433 192.138C81.5433 192.422 81.647 192.636 81.8544 192.781C82.0618 192.926 82.326 192.999 82.647 192.999ZM89.6001 196.591C89.0462 196.591 88.5703 196.516 88.1726 196.365C87.7749 196.217 87.4553 196.018 87.2138 195.768C86.9723 195.518 86.8047 195.241 86.7109 194.938L88.1001 194.601C88.1626 194.729 88.2536 194.855 88.3729 194.98C88.4922 195.108 88.6527 195.213 88.8544 195.295C89.0589 195.381 89.3161 195.423 89.6257 195.423C90.0632 195.423 90.4254 195.317 90.7124 195.104C90.9993 194.893 91.1428 194.547 91.1428 194.064V192.824H91.0661C90.9865 192.983 90.87 193.146 90.7166 193.314C90.5661 193.482 90.3658 193.622 90.1158 193.736C89.8686 193.849 89.5575 193.906 89.1825 193.906C88.6797 193.906 88.2237 193.788 87.8146 193.553C87.4084 193.314 87.0845 192.959 86.843 192.487C86.6044 192.013 86.4851 191.419 86.4851 190.706C86.4851 189.987 86.6044 189.381 86.843 188.886C87.0845 188.389 87.4098 188.013 87.8189 187.757C88.228 187.499 88.6839 187.369 89.1868 187.369C89.5703 187.369 89.8857 187.435 90.1328 187.565C90.3828 187.693 90.5817 187.848 90.7294 188.03C90.8771 188.209 90.9893 188.378 91.0661 188.537H91.1513V187.455H92.6726V194.107C92.6726 194.666 92.5391 195.129 92.272 195.496C92.005 195.862 91.6399 196.136 91.1768 196.318C90.7138 196.5 90.1882 196.591 89.6001 196.591ZM89.6129 192.696C89.9396 192.696 90.218 192.616 90.4482 192.457C90.6783 192.298 90.853 192.07 90.9723 191.771C91.0916 191.473 91.1513 191.115 91.1513 190.697C91.1513 190.286 91.0916 189.925 90.9723 189.615C90.8558 189.305 90.6825 189.065 90.4524 188.895C90.2251 188.722 89.9453 188.635 89.6129 188.635C89.2692 188.635 88.9822 188.724 88.7521 188.903C88.522 189.082 88.3487 189.328 88.2322 189.641C88.1158 189.95 88.0575 190.303 88.0575 190.697C88.0575 191.098 88.1158 191.449 88.2322 191.75C88.3516 192.048 88.5263 192.281 88.7564 192.449C88.9893 192.614 89.2749 192.696 89.6129 192.696ZM96.6087 194.128C95.9695 194.128 95.4155 193.987 94.9467 193.706C94.478 193.425 94.1143 193.031 93.8558 192.526C93.6001 192.02 93.4723 191.429 93.4723 190.753C93.4723 190.077 93.6001 189.484 93.8558 188.976C94.1143 188.467 94.478 188.072 94.9467 187.791C95.4155 187.51 95.9695 187.369 96.6087 187.369C97.2479 187.369 97.8018 187.51 98.2706 187.791C98.7393 188.072 99.1016 188.467 99.3572 188.976C99.6158 189.484 99.745 190.077 99.745 190.753C99.745 191.429 99.6158 192.02 99.3572 192.526C99.1016 193.031 98.7393 193.425 98.2706 193.706C97.8018 193.987 97.2479 194.128 96.6087 194.128ZM96.6172 192.892C96.9638 192.892 97.2536 192.797 97.4865 192.607C97.7195 192.413 97.8928 192.155 98.0064 191.831C98.1229 191.507 98.1811 191.146 98.1811 190.749C98.1811 190.348 98.1229 189.986 98.0064 189.662C97.8928 189.335 97.7195 189.075 97.4865 188.882C97.2536 188.689 96.9638 188.592 96.6172 188.592C96.2621 188.592 95.9666 188.689 95.7308 188.882C95.4979 189.075 95.3232 189.335 95.2067 189.662C95.093 189.986 95.0362 190.348 95.0362 190.749C95.0362 191.146 95.093 191.507 95.2067 191.831C95.3232 192.155 95.4979 192.413 95.7308 192.607C95.9666 192.797 96.2621 192.892 96.6172 192.892Z" fill="#7A7A7A"/>
<defs>
<linearGradient id="paint0_linear_6001_12946" x1="84.1105" y1="154.152" x2="34.0395" y2="151.329" gradientUnits="userSpaceOnUse">
<stop stop-color="#FEECE3"/>
<stop offset="0.25" stop-color="#FCD5BF"/>
<stop offset="0.5" stop-color="#FEAFAE"/>
<stop offset="0.75" stop-color="#FFA4BD"/>
<stop offset="1" stop-color="#FFA9CC"/>
</linearGradient>
</defs>
</svg>
