<svg width="261" height="226" viewBox="0 0 261 226" fill="none" xmlns="http://www.w3.org/2000/svg">
<path d="M36.3118 37H34.343L37.9276 26.8182H40.2045L43.794 37H41.8253L39.1058 28.9062H39.0263L36.3118 37ZM36.3764 33.0078H41.7457V34.4893H36.3764V33.0078ZM44.6351 37V26.8182H46.4796V35.4538H50.964V37H44.6351ZM52.0648 37V26.8182H53.9093V35.4538H58.3936V37H52.0648ZM68.196 31.9091C68.196 33.0062 67.9905 33.9458 67.5795 34.728C67.1719 35.5069 66.6151 36.1035 65.9091 36.5178C65.2064 36.9321 64.4093 37.1392 63.5178 37.1392C62.6262 37.1392 61.8274 36.9321 61.1214 36.5178C60.4188 36.1001 59.862 35.5019 59.451 34.723C59.0433 33.9408 58.8395 33.0028 58.8395 31.9091C58.8395 30.812 59.0433 29.8741 59.451 29.0952C59.862 28.313 60.4188 27.7147 61.1214 27.3004C61.8274 26.8861 62.6262 26.679 63.5178 26.679C64.4093 26.679 65.2064 26.8861 65.9091 27.3004C66.6151 27.7147 67.1719 28.313 67.5795 29.0952C67.9905 29.8741 68.196 30.812 68.196 31.9091ZM66.3416 31.9091C66.3416 31.1368 66.2206 30.4856 65.9787 29.9553C65.7401 29.4216 65.4086 29.0189 64.9844 28.7472C64.5601 28.4721 64.0713 28.3345 63.5178 28.3345C62.9643 28.3345 62.4754 28.4721 62.0511 28.7472C61.6269 29.0189 61.2938 29.4216 61.0518 29.9553C60.8132 30.4856 60.6939 31.1368 60.6939 31.9091C60.6939 32.6813 60.8132 33.3343 61.0518 33.8679C61.2938 34.3982 61.6269 34.8009 62.0511 35.076C62.4754 35.3478 62.9643 35.4837 63.5178 35.4837C64.0713 35.4837 64.5601 35.3478 64.9844 35.076C65.4086 34.8009 65.7401 34.3982 65.9787 33.8679C66.2206 33.3343 66.3416 32.6813 66.3416 31.9091ZM78.155 30.2536H76.2956C76.2426 29.9486 76.1448 29.6785 76.0023 29.4432C75.8598 29.2045 75.6825 29.0024 75.4703 28.8366C75.2582 28.6709 75.0163 28.5466 74.7445 28.4638C74.476 28.3776 74.186 28.3345 73.8745 28.3345C73.321 28.3345 72.8304 28.4737 72.4029 28.7521C71.9753 29.0272 71.6406 29.4316 71.3986 29.9652C71.1567 30.4955 71.0357 31.1435 71.0357 31.9091C71.0357 32.688 71.1567 33.3442 71.3986 33.8778C71.6439 34.4081 71.9786 34.8092 72.4029 35.081C72.8304 35.3494 73.3193 35.4837 73.8695 35.4837C74.1744 35.4837 74.4595 35.4439 74.7246 35.3643C74.9931 35.2815 75.2334 35.1605 75.4455 35.0014C75.6609 34.8423 75.8416 34.6468 75.9874 34.4148C76.1365 34.1828 76.2393 33.9176 76.2956 33.6193L78.155 33.6293C78.0854 34.1132 77.9346 34.5672 77.7026 34.9915C77.4739 35.4157 77.1739 35.7902 76.8027 36.1151C76.4315 36.4366 75.9973 36.6884 75.5002 36.8707C75.003 37.0497 74.4512 37.1392 73.8446 37.1392C72.9498 37.1392 72.151 36.9321 71.4483 36.5178C70.7457 36.1035 70.1922 35.5052 69.7878 34.723C69.3835 33.9408 69.1813 33.0028 69.1813 31.9091C69.1813 30.812 69.3851 29.8741 69.7928 29.0952C70.2005 28.313 70.7556 27.7147 71.4583 27.3004C72.1609 26.8861 72.9564 26.679 73.8446 26.679C74.4114 26.679 74.9384 26.7585 75.4256 26.9176C75.9128 27.0767 76.347 27.3104 76.7282 27.6186C77.1093 27.9235 77.4225 28.2981 77.6678 28.7422C77.9164 29.183 78.0788 29.6868 78.155 30.2536ZM80.5286 37H78.5598L82.1444 26.8182H84.4213L88.0108 37H86.0421L83.3226 28.9062H83.2431L80.5286 37ZM80.5932 33.0078H85.9625V34.4893H80.5932V33.0078ZM87.174 28.3643V26.8182H95.2976V28.3643H92.1506V37H90.321V28.3643H87.174ZM98.2081 26.8182V37H96.3636V26.8182H98.2081ZM108.803 31.9091C108.803 33.0062 108.598 33.9458 108.187 34.728C107.779 35.5069 107.222 36.1035 106.517 36.5178C105.814 36.9321 105.017 37.1392 104.125 37.1392C103.234 37.1392 102.435 36.9321 101.729 36.5178C101.026 36.1001 100.469 35.5019 100.058 34.723C99.6507 33.9408 99.4469 33.0028 99.4469 31.9091C99.4469 30.812 99.6507 29.8741 100.058 29.0952C100.469 28.313 101.026 27.7147 101.729 27.3004C102.435 26.8861 103.234 26.679 104.125 26.679C105.017 26.679 105.814 26.8861 106.517 27.3004C107.222 27.7147 107.779 28.313 108.187 29.0952C108.598 29.8741 108.803 30.812 108.803 31.9091ZM106.949 31.9091C106.949 31.1368 106.828 30.4856 106.586 29.9553C106.347 29.4216 106.016 29.0189 105.592 28.7472C105.168 28.4721 104.679 28.3345 104.125 28.3345C103.572 28.3345 103.083 28.4721 102.659 28.7472C102.234 29.0189 101.901 29.4216 101.659 29.9553C101.421 30.4856 101.301 31.1368 101.301 31.9091C101.301 32.6813 101.421 33.3343 101.659 33.8679C101.901 34.3982 102.234 34.8009 102.659 35.076C103.083 35.3478 103.572 35.4837 104.125 35.4837C104.679 35.4837 105.168 35.3478 105.592 35.076C106.016 34.8009 106.347 34.3982 106.586 33.8679C106.828 33.3343 106.949 32.6813 106.949 31.9091ZM118.414 26.8182V37H116.774L111.976 30.0646H111.892V37H110.047V26.8182H111.698L116.49 33.7585H116.58V26.8182H118.414Z" fill="#7A7A7A"/>
<path d="M49.1534 104.477C46.7102 104.477 44.5511 104.057 42.6761 103.216C40.8125 102.375 39.3523 101.216 38.2955 99.7386C37.2386 98.2614 36.7159 96.5795 36.7273 94.6932C36.7159 93.2159 37.017 91.858 37.6307 90.6193C38.2557 89.3693 39.1023 88.3295 40.1705 87.5C41.2386 86.6591 42.4318 86.125 43.75 85.8977V85.6932C42.0114 85.2727 40.6193 84.3409 39.5739 82.8977C38.5284 81.4545 38.0114 79.7955 38.0227 77.9205C38.0114 76.1364 38.483 74.5455 39.4375 73.1477C40.4034 71.7386 41.7273 70.6307 43.4091 69.8239C45.0909 69.017 47.0057 68.6136 49.1534 68.6136C51.2784 68.6136 53.1761 69.0227 54.8466 69.8409C56.5284 70.6477 57.8523 71.7557 58.8182 73.1648C59.7841 74.5625 60.2727 76.1477 60.2841 77.9205C60.2727 79.7955 59.7386 81.4545 58.6818 82.8977C57.625 84.3409 56.25 85.2727 54.5568 85.6932V85.8977C55.8636 86.125 57.0398 86.6591 58.0852 87.5C59.142 88.3295 59.983 89.3693 60.608 90.6193C61.2443 91.858 61.5682 93.2159 61.5795 94.6932C61.5682 96.5795 61.0341 98.2614 59.9773 99.7386C58.9205 101.216 57.4545 102.375 55.5795 103.216C53.7159 104.057 51.5739 104.477 49.1534 104.477ZM49.1534 100.165C50.5966 100.165 51.8466 99.9261 52.9034 99.4489C53.9602 98.9602 54.7784 98.2841 55.358 97.4205C55.9375 96.5455 56.233 95.5227 56.2443 94.3523C56.233 93.1364 55.9148 92.0625 55.2898 91.1307C54.6761 90.1989 53.8409 89.4659 52.7841 88.9318C51.7273 88.3977 50.517 88.1307 49.1534 88.1307C47.7784 88.1307 46.5568 88.3977 45.4886 88.9318C44.4205 89.4659 43.5795 90.1989 42.9659 91.1307C42.3523 92.0625 42.0511 93.1364 42.0625 94.3523C42.0511 95.5227 42.3295 96.5455 42.8977 97.4205C43.4773 98.2841 44.3011 98.9602 45.3693 99.4489C46.4375 99.9261 47.6989 100.165 49.1534 100.165ZM49.1534 83.9205C50.3125 83.9205 51.3409 83.6875 52.2386 83.2216C53.1364 82.7557 53.8409 82.108 54.3523 81.2784C54.875 80.4489 55.142 79.4773 55.1534 78.3636C55.142 77.2727 54.8807 76.3182 54.3693 75.5C53.8693 74.6818 53.1705 74.0511 52.2727 73.608C51.375 73.1534 50.3352 72.9261 49.1534 72.9261C47.9489 72.9261 46.892 73.1534 45.983 73.608C45.0852 74.0511 44.3864 74.6818 43.8864 75.5C43.3864 76.3182 43.142 77.2727 43.1534 78.3636C43.142 79.4773 43.392 80.4489 43.9034 81.2784C44.4148 82.108 45.1193 82.7557 46.017 83.2216C46.9261 83.6875 47.9716 83.9205 49.1534 83.9205ZM77.294 68.6136C78.8509 68.625 80.3849 68.9091 81.8963 69.4659C83.4077 70.0227 84.7713 70.9318 85.9872 72.1932C87.2145 73.4545 88.1918 75.1591 88.919 77.3068C89.6577 79.4432 90.0327 82.1023 90.044 85.2841C90.044 88.3409 89.7372 91.0625 89.1236 93.4489C88.5099 95.8239 87.6293 97.8295 86.4815 99.4659C85.3452 101.102 83.9645 102.347 82.3395 103.199C80.7145 104.051 78.8849 104.477 76.8509 104.477C74.7713 104.477 72.9247 104.068 71.3111 103.25C69.6974 102.432 68.3849 101.301 67.3736 99.858C66.3622 98.4034 65.7315 96.733 65.4815 94.8466H70.6804C71.0213 96.3466 71.7145 97.5625 72.7599 98.4943C73.8168 99.4148 75.1804 99.875 76.8509 99.875C79.4077 99.875 81.402 98.7614 82.8338 96.5341C84.2656 94.2955 84.9872 91.1705 84.9986 87.1591H84.7259C84.1349 88.1364 83.3963 88.9773 82.5099 89.6818C81.6349 90.3864 80.652 90.9318 79.5611 91.3182C78.4702 91.7045 77.3054 91.8977 76.0668 91.8977C74.0554 91.8977 72.2259 91.4034 70.5781 90.4148C68.9304 89.4261 67.6179 88.0682 66.6406 86.3409C65.6634 84.6136 65.1747 82.642 65.1747 80.4261C65.1747 78.2216 65.6747 76.2216 66.6747 74.4261C67.6861 72.6307 69.0952 71.2102 70.902 70.1648C72.7202 69.108 74.8509 68.5909 77.294 68.6136ZM77.3111 73.0455C75.9815 73.0455 74.7827 73.375 73.7145 74.0341C72.6577 74.6818 71.8224 75.5625 71.2088 76.6761C70.5952 77.7784 70.2884 79.0057 70.2884 80.358C70.2884 81.7102 70.5838 82.9375 71.1747 84.0398C71.777 85.1307 72.5952 86 73.6293 86.6477C74.6747 87.2841 75.8679 87.6023 77.2088 87.6023C78.2088 87.6023 79.1406 87.4091 80.0043 87.0227C80.8679 86.6364 81.6236 86.1023 82.2713 85.4205C82.919 84.7273 83.4247 83.9432 83.7884 83.0682C84.152 82.1932 84.3338 81.2727 84.3338 80.3068C84.3338 79.0227 84.027 77.8295 83.4134 76.7273C82.8111 75.625 81.9815 74.7386 80.9247 74.0682C79.8679 73.3864 78.6634 73.0455 77.3111 73.0455ZM112.423 97.4545V95.6136C112.423 94.2955 112.696 93.0909 113.241 92C113.798 90.8977 114.605 90.017 115.662 89.358C116.73 88.6875 118.02 88.3523 119.531 88.3523C121.077 88.3523 122.372 88.6818 123.418 89.3409C124.463 90 125.253 90.8807 125.787 91.983C126.332 93.0852 126.605 94.2955 126.605 95.6136V97.4545C126.605 98.7727 126.332 99.983 125.787 101.085C125.241 102.176 124.44 103.057 123.384 103.727C122.338 104.386 121.054 104.716 119.531 104.716C117.997 104.716 116.702 104.386 115.645 103.727C114.588 103.057 113.787 102.176 113.241 101.085C112.696 99.983 112.423 98.7727 112.423 97.4545ZM116.395 95.6136V97.4545C116.395 98.4318 116.628 99.3182 117.094 100.114C117.56 100.909 118.372 101.307 119.531 101.307C120.679 101.307 121.48 100.909 121.935 100.114C122.389 99.3182 122.616 98.4318 122.616 97.4545V95.6136C122.616 94.6364 122.395 93.75 121.952 92.9545C121.52 92.1591 120.713 91.7614 119.531 91.7614C118.395 91.7614 117.588 92.1591 117.111 92.9545C116.634 93.75 116.395 94.6364 116.395 95.6136ZM94.8665 77.4773V75.6364C94.8665 74.3182 95.1392 73.108 95.6847 72.0057C96.2415 70.9034 97.0483 70.0227 98.1051 69.3636C99.1733 68.7045 100.463 68.375 101.974 68.375C103.52 68.375 104.815 68.7045 105.861 69.3636C106.906 70.0227 107.696 70.9034 108.23 72.0057C108.764 73.108 109.031 74.3182 109.031 75.6364V77.4773C109.031 78.7955 108.759 80.0057 108.213 81.108C107.679 82.1989 106.884 83.0795 105.827 83.75C104.781 84.4091 103.497 84.7386 101.974 84.7386C100.429 84.7386 99.1278 84.4091 98.071 83.75C97.0256 83.0795 96.2301 82.1989 95.6847 81.108C95.1392 80.0057 94.8665 78.7955 94.8665 77.4773ZM98.8551 75.6364V77.4773C98.8551 78.4545 99.0824 79.3409 99.5369 80.1364C100.003 80.9318 100.815 81.3295 101.974 81.3295C103.111 81.3295 103.906 80.9318 104.361 80.1364C104.827 79.3409 105.06 78.4545 105.06 77.4773V75.6364C105.06 74.6591 104.838 73.7727 104.395 72.9773C103.952 72.1818 103.145 71.7841 101.974 71.7841C100.838 71.7841 100.031 72.1818 99.554 72.9773C99.0881 73.7727 98.8551 74.6591 98.8551 75.6364ZM96.4858 104L120.486 69.0909H124.56L100.56 104H96.4858Z" fill="white"/>
<rect x="226" y="133" width="35" height="192" rx="7.35165" transform="rotate(90 226 133)" fill="#4A4A4A"/>
<path d="M149.099 134C151.806 134 154 136.194 154 138.901L154 164.099C154 166.806 151.806 169 149.099 169L38.9011 169C36.1943 169 34 166.806 34 164.099L34 138.901C34 136.194 36.1943 134 38.9011 134L149.099 134Z" fill="url(#paint0_linear_6001_12979)"/>
<path d="M38.3253 185.273V194H36.7443V186.811H36.6932L34.652 188.115V186.666L36.821 185.273H38.3253ZM44.9638 194.115C44.4496 194.115 43.9893 193.983 43.5831 193.719C43.1768 193.455 42.8558 193.071 42.62 192.568C42.3842 192.065 42.2663 191.455 42.2663 190.736C42.2663 190.009 42.3857 189.395 42.6243 188.895C42.8658 188.392 43.1911 188.013 43.6001 187.757C44.0092 187.499 44.4652 187.369 44.968 187.369C45.3516 187.369 45.6669 187.435 45.9141 187.565C46.1612 187.693 46.3572 187.848 46.5021 188.03C46.647 188.209 46.7592 188.378 46.8388 188.537H46.9027V185.273H48.4496V194H46.9325V192.969H46.8388C46.7592 193.128 46.6442 193.297 46.4936 193.476C46.343 193.652 46.1442 193.803 45.897 193.928C45.6499 194.053 45.3388 194.115 44.9638 194.115ZM45.3942 192.849C45.7209 192.849 45.9993 192.761 46.2294 192.585C46.4595 192.406 46.6342 192.158 46.7536 191.839C46.8729 191.521 46.9325 191.151 46.9325 190.727C46.9325 190.304 46.8729 189.936 46.7536 189.624C46.6371 189.311 46.4638 189.068 46.2337 188.895C46.0064 188.722 45.7266 188.635 45.3942 188.635C45.0504 188.635 44.7635 188.724 44.5334 188.903C44.3033 189.082 44.13 189.33 44.0135 189.645C43.897 189.96 43.8388 190.321 43.8388 190.727C43.8388 191.136 43.897 191.501 44.0135 191.822C44.1328 192.141 44.3075 192.392 44.5376 192.577C44.7706 192.759 45.0561 192.849 45.3942 192.849ZM51.4769 194.132C51.0621 194.132 50.6886 194.058 50.3562 193.911C50.0266 193.76 49.7653 193.538 49.5721 193.246C49.3817 192.953 49.2866 192.592 49.2866 192.163C49.2866 191.794 49.3548 191.489 49.4911 191.247C49.6275 191.006 49.8136 190.812 50.0494 190.668C50.2852 190.523 50.5508 190.413 50.8462 190.339C51.1445 190.263 51.4528 190.207 51.771 190.173C52.1545 190.134 52.4656 190.098 52.7042 190.067C52.9428 190.033 53.1161 189.982 53.2241 189.913C53.3349 189.842 53.3903 189.733 53.3903 189.585V189.56C53.3903 189.239 53.2951 188.99 53.1048 188.814C52.9144 188.638 52.6403 188.55 52.2823 188.55C51.9045 188.55 51.6048 188.632 51.3832 188.797C51.1644 188.962 51.0167 189.156 50.94 189.381L49.4996 189.176C49.6133 188.778 49.8008 188.446 50.0621 188.179C50.3235 187.909 50.6431 187.707 51.021 187.574C51.3988 187.438 51.8164 187.369 52.2738 187.369C52.5891 187.369 52.9031 187.406 53.2156 187.48C53.5281 187.554 53.8136 187.676 54.0721 187.847C54.3306 188.014 54.538 188.243 54.6942 188.533C54.8533 188.822 54.9329 189.185 54.9329 189.619V194H53.4499V193.101H53.3988C53.305 193.283 53.1729 193.453 53.0025 193.612C52.8349 193.768 52.6232 193.895 52.3675 193.991C52.1147 194.085 51.8178 194.132 51.4769 194.132ZM51.8775 192.999C52.1871 192.999 52.4556 192.937 52.6829 192.815C52.9102 192.69 53.0849 192.526 53.207 192.321C53.332 192.116 53.3945 191.893 53.3945 191.652V190.881C53.3462 190.92 53.2638 190.957 53.1474 190.991C53.0337 191.026 52.9059 191.055 52.7638 191.081C52.6218 191.107 52.4812 191.129 52.342 191.149C52.2028 191.169 52.082 191.186 51.9798 191.2C51.7496 191.232 51.5437 191.283 51.3619 191.354C51.18 191.425 51.0366 191.524 50.9315 191.652C50.8263 191.777 50.7738 191.939 50.7738 192.138C50.7738 192.422 50.8775 192.636 51.0849 192.781C51.2923 192.926 51.5565 192.999 51.8775 192.999ZM56.7085 196.455C56.4982 196.455 56.3036 196.438 56.1246 196.403C55.9485 196.372 55.8079 196.335 55.7028 196.293L56.0607 195.091C56.2852 195.156 56.4854 195.188 56.6616 195.185C56.8377 195.182 56.9925 195.126 57.1261 195.018C57.2624 194.913 57.3775 194.737 57.4712 194.49L57.6033 194.136L55.2298 187.455H56.8661L58.3746 192.398H58.4428L59.9556 187.455H61.5962L58.9755 194.793C58.8533 195.139 58.6914 195.436 58.4897 195.683C58.288 195.933 58.0408 196.124 57.7482 196.254C57.4585 196.388 57.1119 196.455 56.7085 196.455ZM66.5238 194.132C66.109 194.132 65.7354 194.058 65.4031 193.911C65.0735 193.76 64.8121 193.538 64.619 193.246C64.4286 192.953 64.3335 192.592 64.3335 192.163C64.3335 191.794 64.4016 191.489 64.538 191.247C64.6744 191.006 64.8604 190.812 65.0962 190.668C65.332 190.523 65.5977 190.413 65.8931 190.339C66.1914 190.263 66.4996 190.207 66.8178 190.173C67.2013 190.134 67.5124 190.098 67.7511 190.067C67.9897 190.033 68.163 189.982 68.271 189.913C68.3817 189.842 68.4371 189.733 68.4371 189.585V189.56C68.4371 189.239 68.342 188.99 68.1516 188.814C67.9613 188.638 67.6871 188.55 67.3292 188.55C66.9513 188.55 66.6516 188.632 66.43 188.797C66.2113 188.962 66.0636 189.156 65.9869 189.381L64.5465 189.176C64.6602 188.778 64.8477 188.446 65.109 188.179C65.3704 187.909 65.69 187.707 66.0678 187.574C66.4457 187.438 66.8633 187.369 67.3207 187.369C67.636 187.369 67.9499 187.406 68.2624 187.48C68.5749 187.554 68.8604 187.676 69.119 187.847C69.3775 188.014 69.5849 188.243 69.7411 188.533C69.9002 188.822 69.9798 189.185 69.9798 189.619V194H68.4968V193.101H68.4457C68.3519 193.283 68.2198 193.453 68.0494 193.612C67.8817 193.768 67.6701 193.895 67.4144 193.991C67.1616 194.085 66.8647 194.132 66.5238 194.132ZM66.9244 192.999C67.234 192.999 67.5025 192.937 67.7298 192.815C67.957 192.69 68.1317 192.526 68.2539 192.321C68.3789 192.116 68.4414 191.893 68.4414 191.652V190.881C68.3931 190.92 68.3107 190.957 68.1942 190.991C68.0806 191.026 67.9528 191.055 67.8107 191.081C67.6687 191.107 67.5281 191.129 67.3888 191.149C67.2496 191.169 67.1289 191.186 67.0266 191.2C66.7965 191.232 66.5906 191.283 66.4087 191.354C66.2269 191.425 66.0835 191.524 65.9783 191.652C65.8732 191.777 65.8207 191.939 65.8207 192.138C65.8207 192.422 65.9244 192.636 66.1317 192.781C66.3391 192.926 66.6033 192.999 66.9244 192.999ZM73.8775 196.591C73.3235 196.591 72.8477 196.516 72.4499 196.365C72.0522 196.217 71.7326 196.018 71.4911 195.768C71.2496 195.518 71.082 195.241 70.9883 194.938L72.3775 194.601C72.44 194.729 72.5309 194.855 72.6502 194.98C72.7695 195.108 72.93 195.213 73.1317 195.295C73.3363 195.381 73.5934 195.423 73.9031 195.423C74.3406 195.423 74.7028 195.317 74.9897 195.104C75.2766 194.893 75.4201 194.547 75.4201 194.064V192.824H75.3434C75.2638 192.983 75.1474 193.146 74.994 193.314C74.8434 193.482 74.6431 193.622 74.3931 193.736C74.146 193.849 73.8349 193.906 73.4599 193.906C72.957 193.906 72.5011 193.788 72.092 193.553C71.6857 193.314 71.3619 192.959 71.1204 192.487C70.8817 192.013 70.7624 191.419 70.7624 190.706C70.7624 189.987 70.8817 189.381 71.1204 188.886C71.3619 188.389 71.6871 188.013 72.0962 187.757C72.5053 187.499 72.9613 187.369 73.4641 187.369C73.8477 187.369 74.163 187.435 74.4102 187.565C74.6602 187.693 74.859 187.848 75.0067 188.03C75.1545 188.209 75.2667 188.378 75.3434 188.537H75.4286V187.455H76.9499V194.107C76.9499 194.666 76.8164 195.129 76.5494 195.496C76.2823 195.862 75.9173 196.136 75.4542 196.318C74.9911 196.5 74.4656 196.591 73.8775 196.591ZM73.8903 192.696C74.217 192.696 74.4954 192.616 74.7255 192.457C74.9556 192.298 75.1303 192.07 75.2496 191.771C75.369 191.473 75.4286 191.115 75.4286 190.697C75.4286 190.286 75.369 189.925 75.2496 189.615C75.1332 189.305 74.9599 189.065 74.7298 188.895C74.5025 188.722 74.2227 188.635 73.8903 188.635C73.5465 188.635 73.2596 188.724 73.0295 188.903C72.7994 189.082 72.6261 189.328 72.5096 189.641C72.3931 189.95 72.3349 190.303 72.3349 190.697C72.3349 191.098 72.3931 191.449 72.5096 191.75C72.6289 192.048 72.8036 192.281 73.0337 192.449C73.2667 192.614 73.5522 192.696 73.8903 192.696ZM80.886 194.128C80.2468 194.128 79.6928 193.987 79.2241 193.706C78.7553 193.425 78.3917 193.031 78.1332 192.526C77.8775 192.02 77.7496 191.429 77.7496 190.753C77.7496 190.077 77.8775 189.484 78.1332 188.976C78.3917 188.467 78.7553 188.072 79.2241 187.791C79.6928 187.51 80.2468 187.369 80.886 187.369C81.5252 187.369 82.0792 187.51 82.5479 187.791C83.0167 188.072 83.3789 188.467 83.6346 188.976C83.8931 189.484 84.0224 190.077 84.0224 190.753C84.0224 191.429 83.8931 192.02 83.6346 192.526C83.3789 193.031 83.0167 193.425 82.5479 193.706C82.0792 193.987 81.5252 194.128 80.886 194.128ZM80.8945 192.892C81.2411 192.892 81.5309 192.797 81.7638 192.607C81.9968 192.413 82.1701 192.155 82.2837 191.831C82.4002 191.507 82.4585 191.146 82.4585 190.749C82.4585 190.348 82.4002 189.986 82.2837 189.662C82.1701 189.335 81.9968 189.075 81.7638 188.882C81.5309 188.689 81.2411 188.592 80.8945 188.592C80.5394 188.592 80.244 188.689 80.0082 188.882C79.7752 189.075 79.6005 189.335 79.484 189.662C79.3704 189.986 79.3136 190.348 79.3136 190.749C79.3136 191.146 79.3704 191.507 79.484 191.831C79.6005 192.155 79.7752 192.413 80.0082 192.607C80.244 192.797 80.5394 192.892 80.8945 192.892Z" fill="#7A7A7A"/>
<defs>
<linearGradient id="paint0_linear_6001_12979" x1="151.907" y1="154.152" x2="35.7623" y2="138.745" gradientUnits="userSpaceOnUse">
<stop stop-color="#FEECE3"/>
<stop offset="0.25" stop-color="#FCD5BF"/>
<stop offset="0.5" stop-color="#FEAFAE"/>
<stop offset="0.75" stop-color="#FFA4BD"/>
<stop offset="1" stop-color="#FFA9CC"/>
</linearGradient>
</defs>
</svg>
