<svg width="360" height="429" viewBox="0 0 360 429" fill="none" xmlns="http://www.w3.org/2000/svg">
<path d="M34.6159 38.1358H36.699L39.1898 42.6401H39.2892L41.78 38.1358H43.8631L40.1593 44.5193V48.3176H38.3198V44.5193L34.6159 38.1358ZM46.4989 48.4668C45.7532 48.4668 45.1069 48.3027 44.56 47.9746C44.0131 47.6465 43.5889 47.1874 43.2873 46.5975C42.989 46.0075 42.8398 45.3181 42.8398 44.5293C42.8398 43.7404 42.989 43.0494 43.2873 42.4561C43.5889 41.8628 44.0131 41.4021 44.56 41.074C45.1069 40.7459 45.7532 40.5818 46.4989 40.5818C47.2447 40.5818 47.891 40.7459 48.4378 41.074C48.9847 41.4021 49.4073 41.8628 49.7056 42.4561C50.0072 43.0494 50.158 43.7404 50.158 44.5293C50.158 45.3181 50.0072 46.0075 49.7056 46.5975C49.4073 47.1874 48.9847 47.6465 48.4378 47.9746C47.891 48.3027 47.2447 48.4668 46.4989 48.4668ZM46.5089 47.025C46.9132 47.025 47.2513 46.914 47.5231 46.6919C47.7949 46.4665 47.997 46.1649 48.1296 45.7871C48.2655 45.4092 48.3334 44.9883 48.3334 44.5243C48.3334 44.057 48.2655 43.6344 48.1296 43.2565C47.997 42.8754 47.7949 42.5721 47.5231 42.3467C47.2513 42.1214 46.9132 42.0087 46.5089 42.0087C46.0946 42.0087 45.7499 42.1214 45.4748 42.3467C45.203 42.5721 44.9992 42.8754 44.8633 43.2565C44.7307 43.6344 44.6644 44.057 44.6644 44.5243C44.6644 44.9883 44.7307 45.4092 44.8633 45.7871C44.9992 46.1649 45.203 46.4665 45.4748 46.6919C45.7499 46.914 46.0946 47.025 46.5089 47.025ZM56.0527 45.106V40.6813H57.8524V48.3176H56.1074V46.9604H56.0279C55.8555 47.3879 55.5721 47.7376 55.1777 48.0094C54.7866 48.2812 54.3044 48.4171 53.731 48.4171C53.2305 48.4171 52.788 48.306 52.4036 48.084C52.0224 47.8586 51.7241 47.5321 51.5087 47.1046C51.2933 46.6737 51.1855 46.1533 51.1855 45.5435V40.6813H52.9853V45.2651C52.9853 45.749 53.1178 46.1334 53.383 46.4185C53.6481 46.7035 53.9961 46.846 54.427 46.846C54.6922 46.846 54.949 46.7814 55.1976 46.6521C55.4462 46.5229 55.65 46.3306 55.8091 46.0754C55.9715 45.8169 56.0527 45.4938 56.0527 45.106ZM59.2031 48.3176V40.6813H60.9481V41.954H61.0277C61.1669 41.5132 61.4055 41.1735 61.7436 40.9348C62.085 40.6929 62.4744 40.5719 62.9119 40.5719C63.0114 40.5719 63.1224 40.5769 63.245 40.5868C63.371 40.5934 63.4754 40.605 63.5582 40.6216V42.2771C63.482 42.2506 63.361 42.2274 63.1953 42.2075C63.0329 42.1843 62.8755 42.1727 62.723 42.1727C62.3949 42.1727 62.0999 42.244 61.8381 42.3865C61.5795 42.5257 61.3757 42.7196 61.2266 42.9682C61.0774 43.2168 61.0028 43.5035 61.0028 43.8283V48.3176H59.2031ZM68.6136 48.3176H66.6449L70.2294 38.1358H72.5064L76.0959 48.3176H74.1271L71.4077 40.2239H71.3281L68.6136 48.3176ZM68.6783 44.3254H74.0476V45.807H68.6783V44.3254ZM82.7699 42.6997L81.1292 42.8787C81.0828 42.713 81.0016 42.5572 80.8856 42.4114C80.773 42.2655 80.6205 42.1479 80.4283 42.0584C80.236 41.9689 80.0007 41.9242 79.7223 41.9242C79.3478 41.9242 79.0329 42.0054 78.7777 42.1678C78.5258 42.3302 78.4015 42.5406 78.4048 42.7992C78.4015 43.0212 78.4827 43.2019 78.6484 43.3411C78.8175 43.4803 79.0959 43.5946 79.4837 43.6841L80.7862 43.9625C81.5087 44.1183 82.0457 44.3652 82.397 44.7033C82.7516 45.0413 82.9306 45.4838 82.9339 46.0307C82.9306 46.5113 82.7898 46.9355 82.5114 47.3034C82.2363 47.668 81.8534 47.953 81.3629 48.1585C80.8724 48.364 80.3089 48.4668 79.6726 48.4668C78.7379 48.4668 77.9855 48.2712 77.4155 47.8801C76.8454 47.4857 76.5057 46.9372 76.3963 46.2345L78.1513 46.0655C78.2308 46.4102 78.3998 46.6704 78.6584 46.846C78.9169 47.0217 79.2533 47.1095 79.6676 47.1095C80.0952 47.1095 80.4382 47.0217 80.6967 46.846C80.9586 46.6704 81.0895 46.4533 81.0895 46.1948C81.0895 45.976 81.005 45.7954 80.8359 45.6529C80.6702 45.5103 80.4117 45.401 80.0604 45.3247L78.7578 45.0513C78.0253 44.8988 77.4834 44.642 77.1321 44.2807C76.7808 43.9161 76.6068 43.4554 76.6101 42.8986C76.6068 42.4279 76.7344 42.0203 76.9929 41.6756C77.2547 41.3276 77.6176 41.0591 78.0817 40.8702C78.549 40.6779 79.0876 40.5818 79.6974 40.5818C80.5923 40.5818 81.2966 40.7724 81.8104 41.1536C82.3274 41.5347 82.6472 42.0501 82.7699 42.6997ZM89.9535 42.6997L88.3128 42.8787C88.2664 42.713 88.1852 42.5572 88.0692 42.4114C87.9565 42.2655 87.8041 42.1479 87.6118 42.0584C87.4196 41.9689 87.1843 41.9242 86.9059 41.9242C86.5314 41.9242 86.2165 42.0054 85.9613 42.1678C85.7094 42.3302 85.5851 42.5406 85.5884 42.7992C85.5851 43.0212 85.6663 43.2019 85.832 43.3411C86.0011 43.4803 86.2795 43.5946 86.6672 43.6841L87.9698 43.9625C88.6923 44.1183 89.2293 44.3652 89.5806 44.7033C89.9352 45.0413 90.1142 45.4838 90.1175 46.0307C90.1142 46.5113 89.9734 46.9355 89.6949 47.3034C89.4199 47.668 89.037 47.953 88.5465 48.1585C88.056 48.364 87.4925 48.4668 86.8562 48.4668C85.9215 48.4668 85.1691 48.2712 84.5991 47.8801C84.029 47.4857 83.6893 46.9372 83.5799 46.2345L85.3349 46.0655C85.4144 46.4102 85.5834 46.6704 85.842 46.846C86.1005 47.0217 86.4369 47.1095 86.8512 47.1095C87.2788 47.1095 87.6218 47.0217 87.8803 46.846C88.1422 46.6704 88.2731 46.4533 88.2731 46.1948C88.2731 45.976 88.1886 45.7954 88.0195 45.6529C87.8538 45.5103 87.5953 45.401 87.244 45.3247L85.9414 45.0513C85.2089 44.8988 84.667 44.642 84.3157 44.2807C83.9644 43.9161 83.7904 43.4554 83.7937 42.8986C83.7904 42.4279 83.918 42.0203 84.1765 41.6756C84.4383 41.3276 84.8012 41.0591 85.2653 40.8702C85.7326 40.6779 86.2712 40.5818 86.881 40.5818C87.7759 40.5818 88.4802 40.7724 88.994 41.1536C89.511 41.5347 89.8308 42.0501 89.9535 42.6997ZM94.4822 48.4668C93.7166 48.4668 93.0554 48.3077 92.4986 47.9895C91.9451 47.668 91.5192 47.2139 91.2209 46.6273C90.9226 46.0373 90.7734 45.343 90.7734 44.5442C90.7734 43.7587 90.9226 43.0693 91.2209 42.476C91.5225 41.8794 91.9434 41.4154 92.4837 41.084C93.0239 40.7492 93.6586 40.5818 94.3878 40.5818C94.8584 40.5818 95.3025 40.6581 95.7202 40.8105C96.1411 40.9597 96.5123 41.1917 96.8338 41.5065C97.1586 41.8214 97.4138 42.2225 97.5994 42.7097C97.785 43.1936 97.8778 43.7703 97.8778 44.4398V44.9916H91.6186V43.7786H96.1527C96.1494 43.4339 96.0748 43.1273 95.929 42.8588C95.7831 42.587 95.5793 42.3733 95.3175 42.2175C95.0589 42.0617 94.7573 41.9838 94.4126 41.9838C94.0447 41.9838 93.7216 42.0733 93.4432 42.2523C93.1648 42.4279 92.9477 42.66 92.7919 42.9483C92.6394 43.2333 92.5615 43.5466 92.5582 43.8879V44.9469C92.5582 45.391 92.6394 45.7722 92.8018 46.0904C92.9642 46.4052 93.1913 46.6472 93.4829 46.8162C93.7746 46.9819 94.116 47.0648 94.5071 47.0648C94.7689 47.0648 95.0059 47.0283 95.218 46.9554C95.4301 46.8792 95.6141 46.7681 95.7699 46.6223C95.9257 46.4765 96.0433 46.2958 96.1229 46.0804L97.8033 46.2693C97.6972 46.7135 97.495 47.1012 97.1967 47.4327C96.9017 47.7608 96.5239 48.016 96.0632 48.1983C95.6025 48.3773 95.0755 48.4668 94.4822 48.4668ZM102.714 40.6813V42.0733H98.3237V40.6813H102.714ZM99.4075 38.8517H101.207V46.0208C101.207 46.2627 101.244 46.4483 101.317 46.5776C101.393 46.7035 101.492 46.7897 101.615 46.8361C101.737 46.8825 101.873 46.9057 102.023 46.9057C102.135 46.9057 102.238 46.8974 102.331 46.8808C102.427 46.8643 102.5 46.8494 102.55 46.8361L102.853 48.2431C102.757 48.2762 102.619 48.3127 102.44 48.3524C102.264 48.3922 102.049 48.4154 101.794 48.422C101.343 48.4353 100.937 48.3673 100.576 48.2182C100.215 48.0657 99.9278 47.8304 99.7157 47.5122C99.5069 47.194 99.4042 46.7963 99.4075 46.319V38.8517ZM109.645 42.6997L108.004 42.8787C107.958 42.713 107.877 42.5572 107.761 42.4114C107.648 42.2655 107.495 42.1479 107.303 42.0584C107.111 41.9689 106.876 41.9242 106.597 41.9242C106.223 41.9242 105.908 42.0054 105.653 42.1678C105.401 42.3302 105.277 42.5406 105.28 42.7992C105.277 43.0212 105.358 43.2019 105.523 43.3411C105.692 43.4803 105.971 43.5946 106.359 43.6841L107.661 43.9625C108.384 44.1183 108.921 44.3652 109.272 44.7033C109.627 45.0413 109.806 45.4838 109.809 46.0307C109.806 46.5113 109.665 46.9355 109.386 47.3034C109.111 47.668 108.728 47.953 108.238 48.1585C107.747 48.364 107.184 48.4668 106.548 48.4668C105.613 48.4668 104.861 48.2712 104.29 47.8801C103.72 47.4857 103.381 46.9372 103.271 46.2345L105.026 46.0655C105.106 46.4102 105.275 46.6704 105.533 46.846C105.792 47.0217 106.128 47.1095 106.543 47.1095C106.97 47.1095 107.313 47.0217 107.572 46.846C107.834 46.6704 107.964 46.4533 107.964 46.1948C107.964 45.976 107.88 45.7954 107.711 45.6529C107.545 45.5103 107.287 45.401 106.935 45.3247L105.633 45.0513C104.9 44.8988 104.358 44.642 104.007 44.2807C103.656 43.9161 103.482 43.4554 103.485 42.8986C103.482 42.4279 103.609 42.0203 103.868 41.6756C104.13 41.3276 104.493 41.0591 104.957 40.8702C105.424 40.6779 105.963 40.5818 106.572 40.5818C107.467 40.5818 108.172 40.7724 108.685 41.1536C109.202 41.5347 109.522 42.0501 109.645 42.6997Z" fill="white"/>
<path d="M51.6088 89.4085V124.318H45.285V95.5619H45.0804L36.9156 100.778V94.9824L45.5918 89.4085H51.6088ZM58.4725 124.318V119.749L70.5918 107.869C71.7509 106.698 72.7168 105.659 73.4895 104.749C74.2622 103.84 74.8418 102.96 75.2281 102.107C75.6145 101.255 75.8077 100.346 75.8077 99.3801C75.8077 98.2779 75.5577 97.3347 75.0577 96.5506C74.5577 95.7551 73.8702 95.1415 72.9952 94.7097C72.1202 94.2779 71.1259 94.0619 70.0122 94.0619C68.8645 94.0619 67.8588 94.3006 66.9952 94.7779C66.1316 95.2438 65.4611 95.9085 64.9838 96.7722C64.5179 97.6358 64.285 98.6642 64.285 99.8574H58.2679C58.2679 97.6415 58.7736 95.7154 59.785 94.079C60.7963 92.4426 62.1884 91.1756 63.9611 90.2779C65.7452 89.3801 67.7906 88.9313 70.0975 88.9313C72.4384 88.9313 74.4952 89.3688 76.2679 90.2438C78.0406 91.1188 79.4156 92.3176 80.3929 93.8404C81.3816 95.3631 81.8759 97.1017 81.8759 99.0563C81.8759 100.363 81.6259 101.647 81.1259 102.909C80.6259 104.17 79.7452 105.568 78.4838 107.102C77.2338 108.636 75.4781 110.494 73.2168 112.676L67.1997 118.795V119.034H82.4043V124.318H58.4725ZM84.9043 117.84V112.812L99.7168 89.4085H103.91V96.5676H101.353L91.3816 112.369V112.641H112.058V117.84H84.9043ZM101.558 124.318V116.306L101.626 114.056V89.4085H107.592V124.318H101.558ZM121.832 119.545L121.61 121.42C121.451 122.852 121.167 124.306 120.758 125.784C120.36 127.272 119.94 128.641 119.497 129.891C119.053 131.141 118.695 132.124 118.423 132.84H114.264C114.423 132.147 114.639 131.204 114.911 130.011C115.195 128.818 115.468 127.477 115.73 125.988C115.991 124.499 116.167 122.988 116.258 121.454L116.377 119.545H121.832ZM126.045 117.84V112.812L140.857 89.4085H145.051V96.5676H142.494L132.522 112.369V112.641H153.198V117.84H126.045ZM142.698 124.318V116.306L142.767 114.056V89.4085H148.732V124.318H142.698ZM156.644 124.318V119.749L168.764 107.869C169.923 106.698 170.889 105.659 171.661 104.749C172.434 103.84 173.014 102.96 173.4 102.107C173.786 101.255 173.98 100.346 173.98 99.3801C173.98 98.2779 173.73 97.3347 173.23 96.5506C172.73 95.7551 172.042 95.1415 171.167 94.7097C170.292 94.2779 169.298 94.0619 168.184 94.0619C167.036 94.0619 166.031 94.3006 165.167 94.7779C164.303 95.2438 163.633 95.9085 163.156 96.7722C162.69 97.6358 162.457 98.6642 162.457 99.8574H156.44C156.44 97.6415 156.945 95.7154 157.957 94.079C158.968 92.4426 160.36 91.1756 162.133 90.2779C163.917 89.3801 165.963 88.9313 168.269 88.9313C170.61 88.9313 172.667 89.3688 174.44 90.2438C176.213 91.1188 177.588 92.3176 178.565 93.8404C179.553 95.3631 180.048 97.1017 180.048 99.0563C180.048 100.363 179.798 101.647 179.298 102.909C178.798 104.17 177.917 105.568 176.656 107.102C175.406 108.636 173.65 110.494 171.389 112.676L165.372 118.795V119.034H180.576V124.318H156.644ZM197.36 124.982C194.553 124.982 192.144 124.272 190.133 122.852C188.133 121.42 186.593 119.357 185.514 116.664C184.445 113.96 183.911 110.704 183.911 106.897C183.923 103.09 184.463 99.8517 185.531 97.1813C186.61 94.4994 188.15 92.454 190.15 91.0449C192.161 89.6358 194.565 88.9313 197.36 88.9313C200.156 88.9313 202.559 89.6358 204.57 91.0449C206.582 92.454 208.122 94.4994 209.19 97.1813C210.269 99.8631 210.809 103.102 210.809 106.897C210.809 110.715 210.269 113.977 209.19 116.681C208.122 119.374 206.582 121.431 204.57 122.852C202.57 124.272 200.167 124.982 197.36 124.982ZM197.36 119.647C199.542 119.647 201.264 118.573 202.525 116.426C203.798 114.266 204.434 111.09 204.434 106.897C204.434 104.124 204.144 101.795 203.565 99.9085C202.985 98.0222 202.167 96.6017 201.11 95.6472C200.053 94.6813 198.803 94.1983 197.36 94.1983C195.19 94.1983 193.474 95.2779 192.213 97.4369C190.951 99.5847 190.315 102.738 190.303 106.897C190.292 109.681 190.57 112.022 191.139 113.92C191.718 115.818 192.536 117.249 193.593 118.215C194.65 119.17 195.906 119.647 197.36 119.647ZM216.982 124.693C215.948 124.693 215.062 124.329 214.323 123.602C213.585 122.874 213.221 121.988 213.232 120.943C213.221 119.92 213.585 119.045 214.323 118.318C215.062 117.59 215.948 117.227 216.982 117.227C217.982 117.227 218.852 117.59 219.59 118.318C220.34 119.045 220.721 119.92 220.732 120.943C220.721 121.636 220.539 122.266 220.187 122.835C219.846 123.403 219.392 123.857 218.823 124.198C218.267 124.528 217.653 124.693 216.982 124.693ZM236.455 124.795C234.455 124.795 232.654 124.397 231.052 123.602C229.45 122.806 228.166 121.715 227.2 120.329C226.234 118.943 225.705 117.363 225.615 115.59H229.705C229.865 117.17 230.58 118.477 231.853 119.511C233.137 120.534 234.671 121.045 236.455 121.045C237.887 121.045 239.16 120.71 240.274 120.039C241.399 119.369 242.279 118.448 242.916 117.278C243.563 116.096 243.887 114.761 243.887 113.272C243.887 111.749 243.552 110.391 242.882 109.198C242.222 107.994 241.313 107.045 240.154 106.352C238.995 105.659 237.671 105.306 236.183 105.295C235.115 105.284 234.018 105.448 232.893 105.789C231.768 106.119 230.842 106.545 230.115 107.068L226.16 106.59L228.274 89.4085H246.41V93.1585H231.819L230.592 103.454H230.796C231.512 102.886 232.41 102.414 233.49 102.039C234.569 101.664 235.694 101.477 236.865 101.477C239.001 101.477 240.904 101.988 242.575 103.011C244.257 104.022 245.575 105.409 246.529 107.17C247.495 108.931 247.978 110.943 247.978 113.204C247.978 115.431 247.478 117.42 246.478 119.17C245.49 120.909 244.126 122.284 242.387 123.295C240.649 124.295 238.671 124.795 236.455 124.795ZM264.136 124.795C261.568 124.795 259.38 124.096 257.573 122.698C255.767 121.289 254.386 119.249 253.431 116.579C252.477 113.897 251.999 110.659 251.999 106.863C251.999 103.09 252.477 99.8688 253.431 97.1983C254.397 94.5165 255.784 92.471 257.59 91.0619C259.409 89.6415 261.59 88.9313 264.136 88.9313C266.681 88.9313 268.857 89.6415 270.664 91.0619C272.482 92.471 273.869 94.5165 274.823 97.1983C275.789 99.8688 276.272 103.09 276.272 106.863C276.272 110.659 275.795 113.897 274.84 116.579C273.886 119.249 272.505 121.289 270.698 122.698C268.892 124.096 266.704 124.795 264.136 124.795ZM264.136 121.045C266.681 121.045 268.659 119.818 270.068 117.363C271.477 114.909 272.181 111.409 272.181 106.863C272.181 103.84 271.857 101.266 271.21 99.1415C270.573 97.0165 269.653 95.3972 268.448 94.2835C267.255 93.1699 265.818 92.6131 264.136 92.6131C261.613 92.6131 259.642 93.8574 258.221 96.346C256.801 98.8233 256.09 102.329 256.09 106.863C256.09 109.886 256.409 112.454 257.045 114.568C257.681 116.681 258.596 118.289 259.789 119.391C260.994 120.494 262.443 121.045 264.136 121.045Z" fill="white"/>
<path d="M34.6408 142.136H36.3858L39.0456 146.764H39.155L41.8148 142.136H43.5598L39.8659 148.32V152.318H38.3347V148.32L34.6408 142.136ZM46.3498 152.472C45.6339 152.472 45.0091 152.308 44.4755 151.98C43.9419 151.651 43.5276 151.192 43.2326 150.602C42.9376 150.012 42.7901 149.323 42.7901 148.534C42.7901 147.742 42.9376 147.049 43.2326 146.456C43.5276 145.863 43.9419 145.402 44.4755 145.074C45.0091 144.746 45.6339 144.582 46.3498 144.582C47.0657 144.582 47.6904 144.746 48.2241 145.074C48.7577 145.402 49.172 145.863 49.467 146.456C49.7619 147.049 49.9094 147.742 49.9094 148.534C49.9094 149.323 49.7619 150.012 49.467 150.602C49.172 151.192 48.7577 151.651 48.2241 151.98C47.6904 152.308 47.0657 152.472 46.3498 152.472ZM46.3547 151.224C46.8188 151.224 47.2032 151.101 47.5082 150.856C47.8131 150.611 48.0385 150.284 48.1843 149.877C48.3334 149.469 48.408 149.02 48.408 148.529C48.408 148.042 48.3334 147.595 48.1843 147.187C48.0385 146.776 47.8131 146.446 47.5082 146.198C47.2032 145.949 46.8188 145.825 46.3547 145.825C45.8874 145.825 45.4996 145.949 45.1914 146.198C44.8865 146.446 44.6594 146.776 44.5103 147.187C44.3645 147.595 44.2915 148.042 44.2915 148.529C44.2915 149.02 44.3645 149.469 44.5103 149.877C44.6594 150.284 44.8865 150.611 45.1914 150.856C45.4996 151.101 45.8874 151.224 46.3547 151.224ZM55.9061 149.151V144.681H57.3975V152.318H55.9359V150.995H55.8563C55.6807 151.403 55.399 151.743 55.0112 152.014C54.6267 152.283 54.1478 152.417 53.5744 152.417C53.0839 152.417 52.6497 152.309 52.2718 152.094C51.8973 151.875 51.6023 151.552 51.3869 151.124C51.1748 150.697 51.0687 150.168 51.0687 149.539V144.681H52.5552V149.36C52.5552 149.88 52.6994 150.294 52.9877 150.602C53.2761 150.911 53.6506 151.065 54.1113 151.065C54.3897 151.065 54.6665 150.995 54.9416 150.856C55.22 150.717 55.4503 150.506 55.6326 150.225C55.8182 149.943 55.9094 149.585 55.9061 149.151ZM65.3017 155.34C64.6951 155.34 64.1731 155.261 63.7356 155.102C63.3014 154.943 62.9468 154.732 62.6717 154.47C62.3966 154.208 62.1911 153.922 62.0552 153.61L63.3329 153.083C63.4224 153.229 63.5417 153.383 63.6909 153.546C63.8433 153.711 64.0488 153.852 64.3073 153.968C64.5692 154.084 64.9056 154.142 65.3166 154.142C65.88 154.142 66.3457 154.005 66.7136 153.73C67.0815 153.458 67.2654 153.024 67.2654 152.427V150.926H67.171C67.0815 151.088 66.9522 151.269 66.7832 151.467C66.6175 151.666 66.3888 151.839 66.0971 151.985C65.8054 152.13 65.4259 152.203 64.9586 152.203C64.3554 152.203 63.8118 152.062 63.3279 151.781C62.8473 151.496 62.4662 151.076 62.1845 150.523C61.9061 149.966 61.7669 149.282 61.7669 148.47C61.7669 147.658 61.9044 146.962 62.1795 146.382C62.4579 145.802 62.8391 145.357 63.323 145.049C63.8069 144.738 64.3554 144.582 64.9686 144.582C65.4425 144.582 65.8253 144.661 66.117 144.82C66.4087 144.976 66.6357 145.159 66.7981 145.367C66.9638 145.576 67.0914 145.76 67.1809 145.919H67.2903V144.681H68.747V152.487C68.747 153.143 68.5945 153.682 68.2896 154.102C67.9847 154.523 67.572 154.835 67.0517 155.037C66.5346 155.239 65.9513 155.34 65.3017 155.34ZM65.2867 150.97C65.7143 150.97 66.0756 150.871 66.3705 150.672C66.6688 150.47 66.8942 150.182 67.0467 149.807C67.2025 149.429 67.2803 148.977 67.2803 148.45C67.2803 147.936 67.2041 147.484 67.0517 147.092C66.8992 146.701 66.6755 146.396 66.3805 146.178C66.0855 145.956 65.7209 145.845 65.2867 145.845C64.8393 145.845 64.4664 145.961 64.1681 146.193C63.8698 146.421 63.6445 146.733 63.492 147.127C63.3428 147.522 63.2683 147.963 63.2683 148.45C63.2683 148.95 63.3445 149.389 63.497 149.767C63.6494 150.145 63.8748 150.44 64.1731 150.652C64.4747 150.864 64.8459 150.97 65.2867 150.97ZM72.4629 152.487C71.979 152.487 71.5415 152.397 71.1504 152.218C70.7593 152.036 70.4494 151.772 70.2207 151.428C69.9953 151.083 69.8826 150.66 69.8826 150.16C69.8826 149.729 69.9655 149.374 70.1312 149.096C70.2969 148.818 70.5206 148.597 70.8024 148.435C71.0841 148.272 71.399 148.15 71.747 148.067C72.095 147.984 72.4496 147.921 72.8109 147.878C73.2683 147.825 73.6395 147.782 73.9245 147.749C74.2096 147.712 74.4167 147.654 74.546 147.575C74.6752 147.495 74.7399 147.366 74.7399 147.187V147.152C74.7399 146.718 74.6172 146.382 74.372 146.143C74.13 145.904 73.7687 145.785 73.2882 145.785C72.7877 145.785 72.3933 145.896 72.1049 146.118C71.8199 146.337 71.6227 146.58 71.5133 146.849L70.1163 146.531C70.282 146.067 70.524 145.692 70.8421 145.407C71.1636 145.119 71.5332 144.91 71.9508 144.781C72.3684 144.648 72.8076 144.582 73.2683 144.582C73.5732 144.582 73.8964 144.618 74.2377 144.691C74.5824 144.761 74.9039 144.89 75.2022 145.079C75.5038 145.268 75.7508 145.538 75.943 145.889C76.1352 146.237 76.2313 146.69 76.2313 147.247V152.318H74.7796V151.274H74.72C74.6239 151.466 74.4797 151.655 74.2875 151.84C74.0952 152.026 73.8483 152.18 73.5467 152.303C73.2451 152.425 72.8838 152.487 72.4629 152.487ZM72.786 151.293C73.197 151.293 73.5483 151.212 73.84 151.05C74.135 150.887 74.3587 150.675 74.5112 150.414C74.667 150.148 74.7448 149.865 74.7448 149.563V148.579C74.6918 148.632 74.5891 148.682 74.4366 148.728C74.2875 148.771 74.1168 148.809 73.9245 148.842C73.7323 148.872 73.545 148.9 73.3627 148.927C73.1804 148.95 73.028 148.97 72.9053 148.987C72.617 149.023 72.3535 149.084 72.1149 149.171C71.8795 149.257 71.6906 149.381 71.5481 149.543C71.4089 149.703 71.3393 149.915 71.3393 150.18C71.3393 150.548 71.4752 150.826 71.747 151.015C72.0187 151.201 72.3651 151.293 72.786 151.293ZM77.7113 152.318V144.681H79.1978V152.318H77.7113ZM78.462 143.503C78.2035 143.503 77.9814 143.417 77.7958 143.244C77.6135 143.069 77.5224 142.86 77.5224 142.618C77.5224 142.373 77.6135 142.164 77.7958 141.992C77.9814 141.816 78.2035 141.728 78.462 141.728C78.7205 141.728 78.9409 141.816 79.1232 141.992C79.3088 142.164 79.4016 142.373 79.4016 142.618C79.4016 142.86 79.3088 143.069 79.1232 143.244C78.9409 143.417 78.7205 143.503 78.462 143.503ZM82.1841 147.784V152.318H80.6976V144.681H82.1245V145.924H82.2189C82.3946 145.52 82.6697 145.195 83.0442 144.95C83.422 144.704 83.8977 144.582 84.471 144.582C84.9914 144.582 85.4471 144.691 85.8382 144.91C86.2293 145.125 86.5326 145.447 86.748 145.874C86.9635 146.302 87.0712 146.831 87.0712 147.46V152.318H85.5847V147.639C85.5847 147.086 85.4405 146.653 85.1522 146.342C84.8638 146.027 84.4677 145.869 83.9639 145.869C83.6192 145.869 83.3127 145.944 83.0442 146.093C82.779 146.242 82.5686 146.461 82.4128 146.749C82.2603 147.034 82.1841 147.379 82.1841 147.784ZM91.856 152.472C91.1036 152.472 90.4557 152.311 89.9121 151.99C89.3719 151.665 88.9542 151.209 88.6593 150.622C88.3676 150.032 88.2218 149.341 88.2218 148.549C88.2218 147.767 88.3676 147.078 88.6593 146.481C88.9542 145.884 89.3652 145.419 89.8922 145.084C90.4225 144.749 91.0423 144.582 91.7516 144.582C92.1825 144.582 92.6001 144.653 93.0044 144.796C93.4088 144.938 93.7717 145.162 94.0932 145.467C94.4147 145.772 94.6683 146.168 94.8539 146.655C95.0395 147.139 95.1323 147.727 95.1323 148.42V148.947H89.062V147.833H93.6756C93.6756 147.442 93.596 147.096 93.437 146.794C93.2779 146.489 93.0541 146.249 92.7658 146.073C92.4808 145.898 92.146 145.81 91.7615 145.81C91.3439 145.81 90.9793 145.913 90.6678 146.118C90.3595 146.32 90.1209 146.585 89.9519 146.914C89.7862 147.238 89.7033 147.591 89.7033 147.972V148.842C89.7033 149.353 89.7928 149.787 89.9718 150.145C90.154 150.503 90.4076 150.776 90.7324 150.965C91.0572 151.151 91.4367 151.244 91.8709 151.244C92.1526 151.244 92.4095 151.204 92.6415 151.124C92.8735 151.042 93.074 150.919 93.2431 150.757C93.4121 150.594 93.5414 150.394 93.6308 150.155L95.0378 150.409C94.9251 150.823 94.7229 151.186 94.4313 151.497C94.1429 151.806 93.78 152.046 93.3425 152.218C92.9083 152.387 92.4128 152.472 91.856 152.472ZM99.1403 152.467C98.5238 152.467 97.9736 152.309 97.4897 151.994C97.0091 151.676 96.6313 151.224 96.3562 150.637C96.0844 150.047 95.9485 149.34 95.9485 148.514C95.9485 147.689 96.086 146.983 96.3611 146.396C96.6395 145.81 97.0207 145.361 97.5046 145.049C97.9885 144.738 98.537 144.582 99.1502 144.582C99.6242 144.582 100.005 144.661 100.294 144.82C100.585 144.976 100.811 145.159 100.97 145.367C101.132 145.576 101.258 145.76 101.348 145.919H101.437V142.136H102.924V152.318H101.472V151.129H101.348C101.258 151.292 101.129 151.477 100.96 151.686C100.794 151.895 100.565 152.077 100.274 152.233C99.9821 152.389 99.6043 152.467 99.1403 152.467ZM99.4684 151.199C99.8959 151.199 100.257 151.086 100.552 150.861C100.85 150.632 101.076 150.316 101.228 149.911C101.384 149.507 101.462 149.036 101.462 148.499C101.462 147.969 101.386 147.505 101.233 147.107C101.081 146.71 100.857 146.4 100.562 146.178C100.267 145.956 99.9026 145.845 99.4684 145.845C99.0209 145.845 98.6481 145.961 98.3498 146.193C98.0515 146.425 97.8261 146.741 97.6736 147.142C97.5245 147.543 97.4499 147.996 97.4499 148.499C97.4499 149.01 97.5261 149.469 97.6786 149.877C97.8311 150.284 98.0565 150.607 98.3547 150.846C98.6564 151.081 99.0276 151.199 99.4684 151.199ZM176.938 144.681V145.874H172.767V144.681H176.938ZM173.885 142.852H175.372V150.075C175.372 150.364 175.415 150.581 175.501 150.727C175.587 150.869 175.698 150.967 175.834 151.02C175.974 151.07 176.124 151.095 176.287 151.095C176.406 151.095 176.51 151.086 176.6 151.07C176.689 151.053 176.759 151.04 176.809 151.03L177.077 152.258C176.991 152.291 176.868 152.324 176.709 152.357C176.55 152.394 176.351 152.414 176.113 152.417C175.722 152.424 175.357 152.354 175.019 152.208C174.681 152.062 174.407 151.837 174.199 151.532C173.99 151.227 173.885 150.844 173.885 150.384V142.852ZM179.733 147.784V152.318H178.246V142.136H179.713V145.924H179.808C179.986 145.513 180.26 145.187 180.628 144.945C180.996 144.703 181.476 144.582 182.07 144.582C182.593 144.582 183.051 144.69 183.442 144.905C183.836 145.12 184.141 145.442 184.357 145.869C184.575 146.294 184.685 146.824 184.685 147.46V152.318H183.198V147.639C183.198 147.079 183.054 146.645 182.766 146.337C182.477 146.025 182.076 145.869 181.562 145.869C181.211 145.869 180.896 145.944 180.618 146.093C180.343 146.242 180.126 146.461 179.967 146.749C179.811 147.034 179.733 147.379 179.733 147.784ZM186.168 152.318V144.681H187.655V152.318H186.168ZM186.919 143.503C186.66 143.503 186.438 143.417 186.253 143.244C186.071 143.069 185.979 142.86 185.979 142.618C185.979 142.373 186.071 142.164 186.253 141.992C186.438 141.816 186.66 141.728 186.919 141.728C187.178 141.728 187.398 141.816 187.58 141.992C187.766 142.164 187.859 142.373 187.859 142.618C187.859 142.86 187.766 143.069 187.58 143.244C187.398 143.417 187.178 143.503 186.919 143.503ZM194.877 146.546L193.53 146.784C193.473 146.612 193.384 146.448 193.261 146.292C193.142 146.136 192.979 146.009 192.774 145.909C192.568 145.81 192.312 145.76 192.003 145.76C191.582 145.76 191.231 145.855 190.949 146.043C190.668 146.229 190.527 146.469 190.527 146.764C190.527 147.02 190.621 147.225 190.81 147.381C190.999 147.537 191.304 147.664 191.725 147.764L192.938 148.042C193.641 148.204 194.164 148.455 194.509 148.793C194.854 149.131 195.026 149.57 195.026 150.11C195.026 150.568 194.894 150.975 194.628 151.333C194.367 151.688 194 151.966 193.53 152.168C193.062 152.371 192.52 152.472 191.904 152.472C191.049 152.472 190.351 152.289 189.811 151.925C189.271 151.557 188.939 151.035 188.817 150.359L190.253 150.14C190.343 150.515 190.527 150.798 190.805 150.99C191.084 151.179 191.447 151.274 191.894 151.274C192.381 151.274 192.771 151.173 193.062 150.97C193.354 150.765 193.5 150.515 193.5 150.22C193.5 149.981 193.41 149.78 193.231 149.618C193.056 149.456 192.786 149.333 192.421 149.25L191.128 148.967C190.416 148.804 189.889 148.546 189.547 148.191C189.209 147.837 189.04 147.387 189.04 146.844C189.04 146.393 189.166 145.999 189.418 145.661C189.67 145.323 190.018 145.059 190.462 144.87C190.906 144.678 191.415 144.582 191.988 144.582C192.814 144.582 193.463 144.761 193.937 145.119C194.411 145.473 194.724 145.949 194.877 146.546ZM201.021 152.318L198.774 144.681H200.31L201.807 150.289H201.881L203.383 144.681H204.919L206.41 150.264H206.485L207.971 144.681H209.508L207.265 152.318H205.749L204.198 146.804H204.084L202.532 152.318H201.021ZM213.477 152.472C212.725 152.472 212.077 152.311 211.533 151.99C210.993 151.665 210.575 151.209 210.28 150.622C209.989 150.032 209.843 149.341 209.843 148.549C209.843 147.767 209.989 147.078 210.28 146.481C210.575 145.884 210.986 145.419 211.513 145.084C212.044 144.749 212.663 144.582 213.373 144.582C213.804 144.582 214.221 144.653 214.626 144.796C215.03 144.938 215.393 145.162 215.714 145.467C216.036 145.772 216.289 146.168 216.475 146.655C216.661 147.139 216.753 147.727 216.753 148.42V148.947H210.683V147.833H215.297C215.297 147.442 215.217 147.096 215.058 146.794C214.899 146.489 214.675 146.249 214.387 146.073C214.102 145.898 213.767 145.81 213.383 145.81C212.965 145.81 212.6 145.913 212.289 146.118C211.981 146.32 211.742 146.585 211.573 146.914C211.407 147.238 211.324 147.591 211.324 147.972V148.842C211.324 149.353 211.414 149.787 211.593 150.145C211.775 150.503 212.029 150.776 212.354 150.965C212.678 151.151 213.058 151.244 213.492 151.244C213.774 151.244 214.031 151.204 214.263 151.124C214.495 151.042 214.695 150.919 214.864 150.757C215.033 150.594 215.162 150.394 215.252 150.155L216.659 150.409C216.546 150.823 216.344 151.186 216.052 151.497C215.764 151.806 215.401 152.046 214.964 152.218C214.529 152.387 214.034 152.472 213.477 152.472ZM221.194 152.472C220.442 152.472 219.794 152.311 219.25 151.99C218.71 151.665 218.292 151.209 217.997 150.622C217.705 150.032 217.56 149.341 217.56 148.549C217.56 147.767 217.705 147.078 217.997 146.481C218.292 145.884 218.703 145.419 219.23 145.084C219.76 144.749 220.38 144.582 221.089 144.582C221.52 144.582 221.938 144.653 222.342 144.796C222.747 144.938 223.11 145.162 223.431 145.467C223.753 145.772 224.006 146.168 224.192 146.655C224.377 147.139 224.47 147.727 224.47 148.42V148.947H218.4V147.833H223.013C223.013 147.442 222.934 147.096 222.775 146.794C222.616 146.489 222.392 146.249 222.104 146.073C221.819 145.898 221.484 145.81 221.099 145.81C220.682 145.81 220.317 145.913 220.006 146.118C219.697 146.32 219.459 146.585 219.29 146.914C219.124 147.238 219.041 147.591 219.041 147.972V148.842C219.041 149.353 219.131 149.787 219.31 150.145C219.492 150.503 219.745 150.776 220.07 150.965C220.395 151.151 220.775 151.244 221.209 151.244C221.491 151.244 221.747 151.204 221.979 151.124C222.211 151.042 222.412 150.919 222.581 150.757C222.75 150.594 222.879 150.394 222.969 150.155L224.376 150.409C224.263 150.823 224.061 151.186 223.769 151.497C223.481 151.806 223.118 152.046 222.68 152.218C222.246 152.387 221.751 152.472 221.194 152.472ZM226.987 149.727L226.977 147.913H227.235L230.278 144.681H232.058L228.588 148.36H228.354L226.987 149.727ZM225.619 152.318V142.136H227.106V152.318H225.619ZM230.442 152.318L227.708 148.688L228.732 147.649L232.267 152.318H230.442Z" fill="white"/>
<path d="M110.743 150.607V143.886H112.081V150.607H110.743ZM108.054 147.913V146.58H114.775V147.913H108.054ZM119.697 153.59V140.863H120.512V153.59H119.697ZM122.247 144.811C122.194 144.34 121.975 143.975 121.591 143.717C121.206 143.455 120.723 143.324 120.139 143.324C119.722 143.324 119.36 143.39 119.055 143.523C118.75 143.652 118.513 143.831 118.344 144.06C118.179 144.285 118.096 144.542 118.096 144.83C118.096 145.072 118.152 145.281 118.265 145.457C118.381 145.632 118.532 145.78 118.717 145.899C118.906 146.015 119.108 146.113 119.324 146.193C119.539 146.269 119.746 146.332 119.945 146.382L120.94 146.64C121.264 146.72 121.598 146.827 121.939 146.963C122.28 147.099 122.597 147.278 122.888 147.5C123.18 147.722 123.415 147.997 123.594 148.325C123.777 148.654 123.868 149.046 123.868 149.504C123.868 150.08 123.719 150.592 123.42 151.04C123.125 151.487 122.696 151.84 122.133 152.099C121.573 152.357 120.895 152.487 120.099 152.487C119.337 152.487 118.678 152.366 118.121 152.124C117.564 151.882 117.128 151.539 116.813 151.095C116.498 150.647 116.324 150.117 116.291 149.504H117.832C117.862 149.872 117.982 150.178 118.19 150.423C118.402 150.665 118.673 150.846 119.001 150.965C119.332 151.081 119.695 151.139 120.089 151.139C120.524 151.139 120.91 151.071 121.248 150.936C121.589 150.796 121.858 150.604 122.053 150.359C122.249 150.11 122.347 149.82 122.347 149.489C122.347 149.187 122.26 148.94 122.088 148.748C121.919 148.556 121.689 148.397 121.397 148.271C121.109 148.145 120.782 148.034 120.418 147.938L119.214 147.61C118.399 147.387 117.753 147.061 117.276 146.63C116.802 146.199 116.565 145.629 116.565 144.92C116.565 144.333 116.724 143.821 117.042 143.384C117.36 142.946 117.791 142.606 118.335 142.365C118.878 142.119 119.491 141.997 120.174 141.997C120.863 141.997 121.472 142.118 121.999 142.36C122.529 142.601 122.946 142.935 123.251 143.359C123.556 143.78 123.715 144.264 123.729 144.811H122.247ZM124.851 150.329V149.086L129.251 142.136H130.23V143.965H129.608L126.461 148.947V149.026H132.492V150.329H124.851ZM129.678 152.318V149.951L129.688 149.384V142.136H131.145V152.318H129.678ZM133.725 152.318V151.204L137.17 147.634C137.538 147.247 137.841 146.907 138.08 146.615C138.322 146.32 138.502 146.04 138.622 145.775C138.741 145.51 138.801 145.228 138.801 144.93C138.801 144.592 138.721 144.3 138.562 144.055C138.403 143.806 138.186 143.616 137.911 143.483C137.636 143.347 137.326 143.279 136.981 143.279C136.616 143.279 136.298 143.354 136.026 143.503C135.755 143.652 135.546 143.863 135.4 144.134C135.254 144.406 135.181 144.724 135.181 145.089H133.715C133.715 144.469 133.857 143.927 134.142 143.463C134.427 142.999 134.818 142.64 135.316 142.384C135.813 142.126 136.378 141.997 137.011 141.997C137.65 141.997 138.214 142.124 138.701 142.379C139.192 142.631 139.575 142.976 139.85 143.414C140.125 143.848 140.262 144.338 140.262 144.885C140.262 145.263 140.191 145.632 140.048 145.994C139.909 146.355 139.666 146.758 139.318 147.202C138.97 147.643 138.486 148.178 137.866 148.808L135.842 150.926V151H140.426V152.318H133.725ZM145.355 152.487C144.57 152.483 143.899 152.276 143.342 151.865C142.785 151.454 142.359 150.856 142.064 150.07C141.769 149.285 141.622 148.339 141.622 147.232C141.622 146.128 141.769 145.185 142.064 144.403C142.362 143.621 142.79 143.024 143.347 142.613C143.907 142.202 144.576 141.997 145.355 141.997C146.134 141.997 146.802 142.204 147.359 142.618C147.916 143.029 148.342 143.626 148.637 144.408C148.935 145.187 149.084 146.128 149.084 147.232C149.084 148.342 148.936 149.29 148.642 150.075C148.347 150.858 147.921 151.456 147.364 151.87C146.807 152.281 146.137 152.487 145.355 152.487ZM145.355 151.159C146.045 151.159 146.583 150.823 146.971 150.15C147.362 149.477 147.558 148.504 147.558 147.232C147.558 146.387 147.468 145.672 147.289 145.089C147.114 144.502 146.86 144.058 146.529 143.757C146.2 143.452 145.809 143.299 145.355 143.299C144.669 143.299 144.131 143.637 143.74 144.313C143.348 144.99 143.151 145.962 143.148 147.232C143.148 148.08 143.236 148.798 143.411 149.384C143.59 149.968 143.844 150.41 144.172 150.712C144.5 151.01 144.895 151.159 145.355 151.159ZM150.978 152.412C150.706 152.412 150.472 152.316 150.277 152.124C150.081 151.928 149.983 151.693 149.983 151.418C149.983 151.146 150.081 150.914 150.277 150.722C150.472 150.526 150.706 150.428 150.978 150.428C151.25 150.428 151.483 150.526 151.679 150.722C151.874 150.914 151.972 151.146 151.972 151.418C151.972 151.6 151.926 151.767 151.833 151.92C151.743 152.069 151.624 152.188 151.475 152.278C151.326 152.367 151.16 152.412 150.978 152.412ZM156.619 152.487C155.833 152.483 155.162 152.276 154.605 151.865C154.049 151.454 153.623 150.856 153.328 150.07C153.033 149.285 152.885 148.339 152.885 147.232C152.885 146.128 153.033 145.185 153.328 144.403C153.626 143.621 154.054 143.024 154.61 142.613C155.171 142.202 155.84 141.997 156.619 141.997C157.398 141.997 158.066 142.204 158.623 142.618C159.179 143.029 159.605 143.626 159.9 144.408C160.198 145.187 160.348 146.128 160.348 147.232C160.348 148.342 160.2 149.29 159.905 150.075C159.61 150.858 159.184 151.456 158.627 151.87C158.071 152.281 157.401 152.487 156.619 152.487ZM156.619 151.159C157.308 151.159 157.847 150.823 158.235 150.15C158.626 149.477 158.821 148.504 158.821 147.232C158.821 146.387 158.732 145.672 158.553 145.089C158.377 144.502 158.124 144.058 157.792 143.757C157.464 143.452 157.073 143.299 156.619 143.299C155.933 143.299 155.394 143.637 155.003 144.313C154.612 144.99 154.415 145.962 154.412 147.232C154.412 148.08 154.499 148.798 154.675 149.384C154.854 149.968 155.108 150.41 155.436 150.712C155.764 151.01 156.158 151.159 156.619 151.159ZM165.156 152.487C164.371 152.483 163.699 152.276 163.143 151.865C162.586 151.454 162.16 150.856 161.865 150.07C161.57 149.285 161.422 148.339 161.422 147.232C161.422 146.128 161.57 145.185 161.865 144.403C162.163 143.621 162.591 143.024 163.148 142.613C163.708 142.202 164.377 141.997 165.156 141.997C165.935 141.997 166.603 142.204 167.16 142.618C167.716 143.029 168.142 143.626 168.437 144.408C168.736 145.187 168.885 146.128 168.885 147.232C168.885 148.342 168.737 149.29 168.442 150.075C168.147 150.858 167.721 151.456 167.165 151.87C166.608 152.281 165.938 152.487 165.156 152.487ZM165.156 151.159C165.845 151.159 166.384 150.823 166.772 150.15C167.163 149.477 167.358 148.504 167.358 147.232C167.358 146.387 167.269 145.672 167.09 145.089C166.914 144.502 166.661 144.058 166.329 143.757C166.001 143.452 165.61 143.299 165.156 143.299C164.47 143.299 163.931 143.637 163.54 144.313C163.149 144.99 162.952 145.962 162.949 147.232C162.949 148.08 163.037 148.798 163.212 149.384C163.391 149.968 163.645 150.41 163.973 150.712C164.301 151.01 164.695 151.159 165.156 151.159Z" fill="url(#paint0_linear_6001_13085)"/>
<rect x="34.3077" y="185.318" width="77" height="28" rx="14" fill="url(#paint1_linear_6001_13085)"/>
<path d="M46.0037 203.318H44.606L47.7466 194.59H49.2679L52.4085 203.318H51.0108L48.5435 196.176H48.4753L46.0037 203.318ZM46.2381 199.9H50.7722V201.008H46.2381V199.9ZM54.8407 194.59V203.318H53.5666V194.59H54.8407ZM57.829 194.59V203.318H56.5549V194.59H57.829ZM63.5584 203.318H62.1607L65.3013 194.59H66.8226L69.9632 203.318H68.5655L66.0982 196.176H66.03L63.5584 203.318ZM63.7928 199.9H68.3269V201.008H63.7928V199.9ZM75.9792 198.37L74.8244 198.575C74.7761 198.427 74.6994 198.286 74.5943 198.153C74.492 198.019 74.3528 197.91 74.1767 197.825C74.0005 197.74 73.7803 197.697 73.5161 197.697C73.1553 197.697 72.8542 197.778 72.6127 197.94C72.3713 198.099 72.2505 198.305 72.2505 198.558C72.2505 198.776 72.3315 198.953 72.4934 199.086C72.6553 199.22 72.9167 199.329 73.2775 199.414L74.3173 199.653C74.9196 199.792 75.3684 200.007 75.6639 200.296C75.9593 200.586 76.1071 200.963 76.1071 201.426C76.1071 201.818 75.9934 202.167 75.7661 202.474C75.5417 202.778 75.2278 203.016 74.8244 203.19C74.4238 203.363 73.9593 203.45 73.4309 203.45C72.698 203.45 72.1 203.293 71.6369 202.981C71.1738 202.666 70.8897 202.218 70.7846 201.639L72.0161 201.451C72.0928 201.772 72.2505 202.015 72.4892 202.18C72.7278 202.342 73.0389 202.423 73.4224 202.423C73.84 202.423 74.1738 202.336 74.4238 202.163C74.6738 201.987 74.7988 201.772 74.7988 201.519C74.7988 201.315 74.7221 201.143 74.5687 201.004C74.4181 200.865 74.1866 200.759 73.8741 200.688L72.7661 200.445C72.1553 200.306 71.7036 200.085 71.411 199.781C71.1213 199.477 70.9764 199.092 70.9764 198.626C70.9764 198.24 71.0843 197.901 71.3002 197.612C71.5161 197.322 71.8144 197.096 72.1951 196.934C72.5758 196.769 73.0119 196.687 73.5034 196.687C74.2107 196.687 74.7676 196.84 75.1738 197.147C75.5801 197.451 75.8485 197.859 75.9792 198.37ZM82.4128 198.37L81.258 198.575C81.2097 198.427 81.133 198.286 81.0279 198.153C80.9256 198.019 80.7864 197.91 80.6103 197.825C80.4341 197.74 80.2139 197.697 79.9497 197.697C79.5889 197.697 79.2878 197.778 79.0463 197.94C78.8049 198.099 78.6841 198.305 78.6841 198.558C78.6841 198.776 78.7651 198.953 78.927 199.086C79.0889 199.22 79.3503 199.329 79.7111 199.414L80.7509 199.653C81.3531 199.792 81.802 200.007 82.0975 200.296C82.3929 200.586 82.5406 200.963 82.5406 201.426C82.5406 201.818 82.427 202.167 82.1997 202.474C81.9753 202.778 81.6614 203.016 81.258 203.19C80.8574 203.363 80.3929 203.45 79.8645 203.45C79.1316 203.45 78.5335 203.293 78.0705 202.981C77.6074 202.666 77.3233 202.218 77.2182 201.639L78.4497 201.451C78.5264 201.772 78.6841 202.015 78.9228 202.18C79.1614 202.342 79.4725 202.423 79.856 202.423C80.2736 202.423 80.6074 202.336 80.8574 202.163C81.1074 201.987 81.2324 201.772 81.2324 201.519C81.2324 201.315 81.1557 201.143 81.0023 201.004C80.8517 200.865 80.6202 200.759 80.3077 200.688L79.1997 200.445C78.5889 200.306 78.1372 200.085 77.8446 199.781C77.5549 199.477 77.41 199.092 77.41 198.626C77.41 198.24 77.5179 197.901 77.7338 197.612C77.9497 197.322 78.248 197.096 78.6287 196.934C79.0094 196.769 79.4455 196.687 79.937 196.687C80.6443 196.687 81.2012 196.84 81.6074 197.147C82.0137 197.451 82.2821 197.859 82.4128 198.37ZM86.7626 203.45C86.1177 203.45 85.5623 203.312 85.0964 203.036C84.6333 202.758 84.2754 202.367 84.0225 201.865C83.7725 201.359 83.6475 200.766 83.6475 200.088C83.6475 199.417 83.7725 198.826 84.0225 198.315C84.2754 197.803 84.6277 197.404 85.0794 197.117C85.5339 196.83 86.0652 196.687 86.6731 196.687C87.0424 196.687 87.4004 196.748 87.747 196.87C88.0936 196.992 88.4046 197.184 88.6802 197.445C88.9558 197.707 89.1731 198.046 89.3322 198.464C89.4913 198.879 89.5708 199.383 89.5708 199.977V200.428H84.3677V199.474H88.3223C88.3223 199.139 88.2541 198.842 88.1177 198.583C87.9813 198.322 87.7896 198.116 87.5424 197.965C87.2981 197.815 87.0112 197.74 86.6816 197.74C86.3237 197.74 86.0112 197.828 85.7441 198.004C85.4799 198.177 85.2754 198.404 85.1305 198.686C84.9884 198.964 84.9174 199.266 84.9174 199.593V200.339C84.9174 200.776 84.9941 201.149 85.1475 201.455C85.3038 201.762 85.5211 201.997 85.7995 202.159C86.0779 202.318 86.4032 202.397 86.7754 202.397C87.0169 202.397 87.237 202.363 87.4359 202.295C87.6348 202.224 87.8066 202.119 87.9515 201.98C88.0964 201.84 88.2072 201.668 88.2839 201.464L89.4899 201.681C89.3933 202.036 89.22 202.347 88.97 202.615C88.7228 202.879 88.4117 203.085 88.0367 203.232C87.6646 203.377 87.2399 203.45 86.7626 203.45ZM94.0399 196.772V197.795H90.4647V196.772H94.0399ZM91.4235 195.204H92.6976V201.396C92.6976 201.643 92.7345 201.829 92.8084 201.954C92.8823 202.076 92.9774 202.16 93.0939 202.205C93.2132 202.248 93.3425 202.269 93.4817 202.269C93.584 202.269 93.6735 202.262 93.7502 202.248C93.8269 202.234 93.8865 202.222 93.9291 202.214L94.1593 203.266C94.0854 203.295 93.9803 203.323 93.8439 203.352C93.7076 203.383 93.5371 203.4 93.3326 203.403C92.9973 203.409 92.6848 203.349 92.3951 203.224C92.1053 203.099 91.8709 202.906 91.6919 202.644C91.5129 202.383 91.4235 202.055 91.4235 201.66V195.204ZM100.249 198.37L99.0939 198.575C99.0456 198.427 98.9689 198.286 98.8638 198.153C98.7615 198.019 98.6223 197.91 98.4462 197.825C98.2701 197.74 98.0499 197.697 97.7857 197.697C97.4249 197.697 97.1237 197.778 96.8823 197.94C96.6408 198.099 96.5201 198.305 96.5201 198.558C96.5201 198.776 96.601 198.953 96.7629 199.086C96.9249 199.22 97.1862 199.329 97.547 199.414L98.5868 199.653C99.1891 199.792 99.6379 200.007 99.9334 200.296C100.229 200.586 100.377 200.963 100.377 201.426C100.377 201.818 100.263 202.167 100.036 202.474C99.8112 202.778 99.4973 203.016 99.0939 203.19C98.6933 203.363 98.2289 203.45 97.7004 203.45C96.9675 203.45 96.3695 203.293 95.9064 202.981C95.4433 202.666 95.1593 202.218 95.0541 201.639L96.2857 201.451C96.3624 201.772 96.5201 202.015 96.7587 202.18C96.9973 202.342 97.3084 202.423 97.6919 202.423C98.1095 202.423 98.4433 202.336 98.6933 202.163C98.9433 201.987 99.0683 201.772 99.0683 201.519C99.0683 201.315 98.9916 201.143 98.8382 201.004C98.6877 200.865 98.4561 200.759 98.1436 200.688L97.0357 200.445C96.4249 200.306 95.9732 200.085 95.6806 199.781C95.3908 199.477 95.2459 199.092 95.2459 198.626C95.2459 198.24 95.3539 197.901 95.5698 197.612C95.7857 197.322 96.084 197.096 96.4647 196.934C96.8453 196.769 97.2814 196.687 97.7729 196.687C98.4803 196.687 99.0371 196.84 99.4433 197.147C99.8496 197.451 100.118 197.859 100.249 198.37Z" fill="black"/>
<rect x="117.308" y="185.318" width="54" height="28" rx="14" fill="url(#paint2_linear_6001_13085)"/>
<path d="M131.092 203.318H128.267V194.59H131.181C132.036 194.59 132.771 194.765 133.384 195.115C133.998 195.461 134.468 195.96 134.795 196.61C135.124 197.258 135.289 198.035 135.289 198.941C135.289 199.85 135.123 200.632 134.791 201.285C134.461 201.938 133.984 202.441 133.359 202.793C132.734 203.143 131.978 203.318 131.092 203.318ZM129.583 202.167H131.019C131.684 202.167 132.237 202.042 132.677 201.792C133.117 201.539 133.447 201.174 133.666 200.697C133.884 200.217 133.994 199.632 133.994 198.941C133.994 198.257 133.884 197.676 133.666 197.198C133.45 196.721 133.127 196.359 132.698 196.112C132.269 195.865 131.737 195.741 131.1 195.741H129.583V202.167ZM139.581 203.45C138.968 203.45 138.432 203.309 137.975 203.028C137.518 202.747 137.162 202.353 136.91 201.847C136.657 201.342 136.53 200.751 136.53 200.075C136.53 199.396 136.657 198.802 136.91 198.293C137.162 197.785 137.518 197.39 137.975 197.109C138.432 196.828 138.968 196.687 139.581 196.687C140.195 196.687 140.731 196.828 141.188 197.109C141.645 197.39 142.001 197.785 142.253 198.293C142.506 198.802 142.633 199.396 142.633 200.075C142.633 200.751 142.506 201.342 142.253 201.847C142.001 202.353 141.645 202.747 141.188 203.028C140.731 203.309 140.195 203.45 139.581 203.45ZM139.586 202.38C139.983 202.38 140.313 202.275 140.574 202.065C140.836 201.855 141.029 201.575 141.154 201.225C141.282 200.876 141.346 200.491 141.346 200.07C141.346 199.653 141.282 199.269 141.154 198.92C141.029 198.568 140.836 198.285 140.574 198.072C140.313 197.859 139.983 197.752 139.586 197.752C139.185 197.752 138.853 197.859 138.589 198.072C138.327 198.285 138.133 198.568 138.005 198.92C137.88 199.269 137.817 199.653 137.817 200.07C137.817 200.491 137.88 200.876 138.005 201.225C138.133 201.575 138.327 201.855 138.589 202.065C138.853 202.275 139.185 202.38 139.586 202.38ZM145.329 194.59V203.318H144.055V194.59H145.329ZM148.317 194.59V203.318H147.043V194.59H148.317ZM151.936 203.463C151.521 203.463 151.146 203.386 150.811 203.232C150.476 203.076 150.21 202.85 150.014 202.555C149.821 202.259 149.725 201.897 149.725 201.468C149.725 201.099 149.796 200.795 149.938 200.556C150.08 200.318 150.271 200.129 150.513 199.99C150.754 199.85 151.024 199.745 151.323 199.674C151.621 199.603 151.925 199.549 152.235 199.512C152.627 199.467 152.945 199.43 153.189 199.401C153.433 199.37 153.611 199.32 153.722 199.252C153.833 199.184 153.888 199.073 153.888 198.92V198.89C153.888 198.518 153.783 198.23 153.573 198.025C153.365 197.82 153.056 197.718 152.644 197.718C152.215 197.718 151.877 197.813 151.629 198.004C151.385 198.191 151.216 198.4 151.122 198.63L149.925 198.357C150.067 197.96 150.274 197.639 150.547 197.394C150.823 197.147 151.139 196.968 151.497 196.857C151.855 196.744 152.232 196.687 152.627 196.687C152.888 196.687 153.165 196.718 153.458 196.781C153.753 196.84 154.029 196.951 154.284 197.113C154.543 197.275 154.754 197.507 154.919 197.808C155.084 198.106 155.166 198.494 155.166 198.971V203.318H153.922V202.423H153.871C153.789 202.588 153.665 202.749 153.5 202.909C153.335 203.068 153.124 203.2 152.865 203.305C152.607 203.41 152.297 203.463 151.936 203.463ZM152.213 202.44C152.566 202.44 152.867 202.37 153.117 202.231C153.369 202.092 153.561 201.91 153.692 201.686C153.825 201.458 153.892 201.215 153.892 200.957V200.113C153.847 200.159 153.759 200.201 153.628 200.241C153.5 200.278 153.354 200.311 153.189 200.339C153.024 200.365 152.864 200.389 152.708 200.411C152.551 200.431 152.421 200.448 152.316 200.463C152.068 200.494 151.842 200.546 151.638 200.62C151.436 200.694 151.274 200.801 151.152 200.94C151.033 201.076 150.973 201.258 150.973 201.485C150.973 201.801 151.09 202.039 151.323 202.201C151.556 202.36 151.852 202.44 152.213 202.44ZM156.863 203.318V196.772H158.095V197.812H158.163C158.282 197.46 158.493 197.183 158.794 196.981C159.098 196.776 159.442 196.674 159.825 196.674C159.905 196.674 159.998 196.677 160.106 196.683C160.217 196.688 160.304 196.695 160.366 196.704V197.923C160.315 197.909 160.224 197.893 160.094 197.876C159.963 197.856 159.832 197.846 159.702 197.846C159.4 197.846 159.132 197.91 158.896 198.038C158.663 198.163 158.479 198.338 158.342 198.562C158.206 198.784 158.138 199.036 158.138 199.32V203.318H156.863Z" fill="black"/>
<rect x="32" y="248.851" width="296" height="55" rx="8" fill="url(#paint3_linear_6001_13085)" fill-opacity="0.7"/>
<rect x="32" y="248.851" width="296" height="55" rx="8" fill="url(#paint4_linear_6001_13085)" fill-opacity="0.5"/>
<rect x="32.5" y="249.351" width="295" height="54" rx="7.5" stroke="white" stroke-opacity="0.06"/>
<path d="M57.0043 283.851V273.669H60.8224C61.6046 273.669 62.2609 273.815 62.7912 274.106C63.3248 274.398 63.7275 274.799 63.9993 275.309C64.2744 275.816 64.4119 276.393 64.4119 277.04C64.4119 277.692 64.2744 278.272 63.9993 278.78C63.7242 279.287 63.3182 279.686 62.7812 279.978C62.2443 280.266 61.5831 280.41 60.7976 280.41H58.267V278.894H60.549C61.0064 278.894 61.3809 278.814 61.6726 278.655C61.9643 278.496 62.1797 278.277 62.3189 277.999C62.4614 277.721 62.5327 277.401 62.5327 277.04C62.5327 276.678 62.4614 276.36 62.3189 276.085C62.1797 275.81 61.9626 275.596 61.6676 275.444C61.3759 275.288 60.9998 275.21 60.5391 275.21H58.8487V283.851H57.0043ZM68.6561 284C67.9103 284 67.264 283.836 66.7172 283.508C66.1703 283.179 65.746 282.72 65.4444 282.13C65.1461 281.54 64.997 280.851 64.997 280.062C64.997 279.273 65.1461 278.582 65.4444 277.989C65.746 277.396 66.1703 276.935 66.7172 276.607C67.264 276.279 67.9103 276.115 68.6561 276.115C69.4018 276.115 70.0481 276.279 70.595 276.607C71.1419 276.935 71.5645 277.396 71.8627 277.989C72.1644 278.582 72.3152 279.273 72.3152 280.062C72.3152 280.851 72.1644 281.54 71.8627 282.13C71.5645 282.72 71.1419 283.179 70.595 283.508C70.0481 283.836 69.4018 284 68.6561 284ZM68.666 282.558C69.0704 282.558 69.4084 282.447 69.6802 282.225C69.952 281.999 70.1542 281.698 70.2868 281.32C70.4226 280.942 70.4906 280.521 70.4906 280.057C70.4906 279.59 70.4226 279.167 70.2868 278.79C70.1542 278.408 69.952 278.105 69.6802 277.88C69.4084 277.654 69.0704 277.542 68.666 277.542C68.2517 277.542 67.907 277.654 67.6319 277.88C67.3601 278.105 67.1563 278.408 67.0204 278.79C66.8878 279.167 66.8216 279.59 66.8216 280.057C66.8216 280.521 66.8878 280.942 67.0204 281.32C67.1563 281.698 67.3601 281.999 67.6319 282.225C67.907 282.447 68.2517 282.558 68.666 282.558ZM78.2099 280.639V276.214H80.0096V283.851H78.2646V282.493H78.185C78.0127 282.921 77.7293 283.271 77.3349 283.542C76.9438 283.814 76.4615 283.95 75.8881 283.95C75.3877 283.95 74.9452 283.839 74.5607 283.617C74.1796 283.392 73.8813 283.065 73.6658 282.638C73.4504 282.207 73.3427 281.686 73.3427 281.076V276.214H75.1424V280.798C75.1424 281.282 75.275 281.666 75.5401 281.951C75.8053 282.236 76.1533 282.379 76.5842 282.379C76.8493 282.379 77.1062 282.314 77.3548 282.185C77.6033 282.056 77.8072 281.864 77.9663 281.608C78.1287 281.35 78.2099 281.027 78.2099 280.639ZM83.16 279.376V283.851H81.3603V276.214H83.0804V277.512H83.1699C83.3456 277.084 83.6257 276.745 84.0101 276.493C84.3979 276.241 84.8768 276.115 85.4469 276.115C85.9739 276.115 86.4329 276.227 86.824 276.453C87.2185 276.678 87.5234 277.005 87.7388 277.432C87.9576 277.86 88.0653 278.379 88.062 278.988V283.851H86.2623V279.267C86.2623 278.756 86.1297 278.357 85.8645 278.069C85.6027 277.78 85.2398 277.636 84.7757 277.636C84.4609 277.636 84.1808 277.706 83.9355 277.845C83.6936 277.981 83.503 278.178 83.3638 278.437C83.2279 278.695 83.16 279.008 83.16 279.376ZM92.2253 283.985C91.6254 283.985 91.0885 283.831 90.6145 283.522C90.1406 283.214 89.766 282.767 89.4909 282.18C89.2158 281.593 89.0783 280.881 89.0783 280.042C89.0783 279.194 89.2175 278.478 89.4959 277.895C89.7776 277.308 90.1571 276.866 90.6344 276.567C91.1117 276.266 91.6436 276.115 92.2303 276.115C92.6777 276.115 93.0456 276.191 93.334 276.343C93.6223 276.493 93.851 276.673 94.0201 276.885C94.1891 277.094 94.32 277.291 94.4128 277.477H94.4874V273.669H96.2921V283.851H94.5222V282.647H94.4128C94.32 282.833 94.1858 283.03 94.0101 283.239C93.8345 283.445 93.6025 283.62 93.3141 283.766C93.0257 283.912 92.6628 283.985 92.2253 283.985ZM92.7275 282.508C93.1086 282.508 93.4334 282.406 93.7019 282.2C93.9703 281.991 94.1742 281.701 94.3134 281.33C94.4526 280.959 94.5222 280.526 94.5222 280.032C94.5222 279.539 94.4526 279.109 94.3134 278.745C94.1775 278.38 93.9753 278.097 93.7069 277.895C93.4417 277.692 93.1152 277.591 92.7275 277.591C92.3264 277.591 91.9917 277.696 91.7232 277.905C91.4547 278.113 91.2525 278.402 91.1167 278.77C90.9808 279.138 90.9128 279.558 90.9128 280.032C90.9128 280.51 90.9808 280.936 91.1167 281.31C91.2559 281.681 91.4597 281.975 91.7282 282.19C91.9999 282.402 92.333 282.508 92.7275 282.508Z" fill="white"/>
<path d="M157.5 268.351C157.5 268.351 155.577 268.812 154.5 268.351C153.485 267.916 153 266.351 152.5 266.351C152 266.351 151.598 268.229 150.5 268.351C149.257 268.489 149 264.851 148 264.851C147 264.851 147.083 268.134 146 268.351C144.619 268.627 144 265.351 143 266.351C142 267.351 138.339 279.516 137 279.851C135.661 280.185 135.5 278.851 134.5 279.351C133.5 279.851 134 284.351 132.5 284.851C131 285.351 130.581 284.844 129.5 284.351C128.612 283.945 128.476 282.843 127.5 282.851C126.25 282.86 126.723 285.092 125.5 285.351C124.122 285.642 123.878 283.641 122.5 283.351C120.442 282.917 117.5 285.351 117.5 285.351" stroke="url(#paint5_linear_6001_13085)" stroke-linecap="round"/>
<path d="M190.121 282.623V269.896H190.937V282.623H190.121ZM192.672 273.843C192.619 273.373 192.4 273.008 192.016 272.75C191.631 272.488 191.147 272.357 190.564 272.357C190.146 272.357 189.785 272.423 189.48 272.556C189.175 272.685 188.938 272.864 188.769 273.093C188.603 273.318 188.521 273.575 188.521 273.863C188.521 274.105 188.577 274.314 188.69 274.49C188.806 274.665 188.956 274.813 189.142 274.932C189.331 275.048 189.533 275.146 189.749 275.226C189.964 275.302 190.171 275.365 190.37 275.415L191.364 275.673C191.689 275.753 192.022 275.86 192.364 275.996C192.705 276.132 193.022 276.311 193.313 276.533C193.605 276.755 193.84 277.03 194.019 277.358C194.201 277.687 194.293 278.079 194.293 278.537C194.293 279.113 194.143 279.625 193.845 280.073C193.55 280.52 193.121 280.873 192.558 281.132C191.997 281.39 191.32 281.52 190.524 281.52C189.762 281.52 189.102 281.399 188.545 281.157C187.989 280.915 187.553 280.572 187.238 280.128C186.923 279.68 186.749 279.15 186.716 278.537H188.257C188.287 278.905 188.406 279.211 188.615 279.456C188.827 279.698 189.097 279.879 189.425 279.998C189.757 280.114 190.12 280.172 190.514 280.172C190.948 280.172 191.335 280.104 191.673 279.968C192.014 279.829 192.282 279.637 192.478 279.392C192.674 279.143 192.771 278.853 192.771 278.522C192.771 278.22 192.685 277.973 192.513 277.781C192.344 277.589 192.113 277.43 191.822 277.304C191.533 277.178 191.207 277.067 190.842 276.971L189.639 276.642C188.824 276.42 188.178 276.094 187.7 275.663C187.226 275.232 186.989 274.662 186.989 273.953C186.989 273.366 187.148 272.854 187.467 272.417C187.785 271.979 188.216 271.639 188.759 271.397C189.303 271.152 189.916 271.03 190.599 271.03C191.288 271.03 191.896 271.151 192.423 271.392C192.954 271.634 193.371 271.968 193.676 272.392C193.981 272.813 194.14 273.297 194.153 273.843H192.672ZM195.489 281.351V280.237L198.934 276.667C199.302 276.28 199.606 275.94 199.844 275.648C200.086 275.353 200.267 275.073 200.386 274.808C200.506 274.543 200.565 274.261 200.565 273.963C200.565 273.625 200.486 273.333 200.327 273.088C200.167 272.839 199.95 272.649 199.675 272.516C199.4 272.38 199.09 272.312 198.746 272.312C198.381 272.312 198.063 272.387 197.791 272.536C197.519 272.685 197.31 272.896 197.165 273.167C197.019 273.439 196.946 273.757 196.946 274.122H195.479C195.479 273.502 195.622 272.96 195.907 272.496C196.192 272.032 196.583 271.673 197.08 271.417C197.577 271.159 198.142 271.03 198.775 271.03C199.415 271.03 199.979 271.157 200.466 271.412C200.956 271.664 201.339 272.009 201.614 272.446C201.889 272.881 202.027 273.371 202.027 273.918C202.027 274.296 201.956 274.665 201.813 275.027C201.674 275.388 201.43 275.791 201.082 276.235C200.734 276.676 200.25 277.211 199.631 277.841L197.607 279.959V280.033H202.191V281.351H195.489ZM207.12 281.49C206.437 281.49 205.827 281.372 205.29 281.137C204.757 280.901 204.334 280.575 204.023 280.157C203.714 279.736 203.549 279.249 203.525 278.696H205.086C205.106 278.997 205.207 279.259 205.39 279.481C205.575 279.7 205.817 279.869 206.116 279.988C206.414 280.108 206.745 280.167 207.11 280.167C207.511 280.167 207.866 280.098 208.174 279.959C208.485 279.819 208.729 279.625 208.905 279.377C209.08 279.125 209.168 278.835 209.168 278.507C209.168 278.165 209.08 277.866 208.905 277.607C208.732 277.345 208.479 277.14 208.144 276.991C207.813 276.841 207.412 276.767 206.941 276.767H206.081V275.514H206.941C207.319 275.514 207.65 275.446 207.935 275.31C208.224 275.174 208.449 274.985 208.611 274.743C208.774 274.498 208.855 274.211 208.855 273.883C208.855 273.568 208.784 273.295 208.641 273.063C208.502 272.828 208.303 272.644 208.045 272.511C207.789 272.379 207.488 272.312 207.14 272.312C206.808 272.312 206.498 272.374 206.21 272.496C205.925 272.616 205.693 272.788 205.514 273.013C205.335 273.235 205.239 273.502 205.226 273.814H203.739C203.756 273.263 203.918 272.78 204.226 272.362C204.538 271.944 204.949 271.618 205.459 271.383C205.97 271.147 206.537 271.03 207.16 271.03C207.813 271.03 208.376 271.157 208.85 271.412C209.327 271.664 209.695 272.001 209.954 272.422C210.215 272.843 210.345 273.303 210.341 273.804C210.345 274.374 210.186 274.858 209.864 275.255C209.546 275.653 209.122 275.92 208.591 276.056V276.135C209.268 276.238 209.791 276.507 210.162 276.941C210.537 277.375 210.723 277.914 210.719 278.557C210.723 279.117 210.567 279.619 210.252 280.063C209.94 280.507 209.515 280.857 208.974 281.112C208.434 281.364 207.816 281.49 207.12 281.49ZM213.752 279.959L213.677 280.5C213.627 280.898 213.543 281.312 213.423 281.743C213.307 282.178 213.186 282.58 213.061 282.951C212.938 283.323 212.837 283.618 212.757 283.836H211.703C211.746 283.631 211.806 283.352 211.882 283.001C211.959 282.653 212.033 282.264 212.106 281.833C212.179 281.402 212.234 280.963 212.27 280.515L212.32 279.959H213.752ZM218.507 281.49C217.824 281.49 217.214 281.372 216.677 281.137C216.143 280.901 215.721 280.575 215.409 280.157C215.101 279.736 214.935 279.249 214.912 278.696H216.473C216.493 278.997 216.594 279.259 216.776 279.481C216.962 279.7 217.204 279.869 217.502 279.988C217.801 280.108 218.132 280.167 218.497 280.167C218.898 280.167 219.252 280.098 219.561 279.959C219.872 279.819 220.116 279.625 220.291 279.377C220.467 279.125 220.555 278.835 220.555 278.507C220.555 278.165 220.467 277.866 220.291 277.607C220.119 277.345 219.865 277.14 219.531 276.991C219.199 276.841 218.798 276.767 218.328 276.767H217.468V275.514H218.328C218.705 275.514 219.037 275.446 219.322 275.31C219.61 275.174 219.836 274.985 219.998 274.743C220.16 274.498 220.242 274.211 220.242 273.883C220.242 273.568 220.17 273.295 220.028 273.063C219.889 272.828 219.69 272.644 219.431 272.511C219.176 272.379 218.874 272.312 218.526 272.312C218.195 272.312 217.885 272.374 217.597 272.496C217.312 272.616 217.08 272.788 216.901 273.013C216.722 273.235 216.626 273.502 216.612 273.814H215.126C215.142 273.263 215.305 272.78 215.613 272.362C215.925 271.944 216.336 271.618 216.846 271.383C217.356 271.147 217.923 271.03 218.546 271.03C219.199 271.03 219.763 271.157 220.237 271.412C220.714 271.664 221.082 272.001 221.34 272.422C221.602 272.843 221.731 273.303 221.728 273.804C221.731 274.374 221.572 274.858 221.251 275.255C220.933 275.653 220.508 275.92 219.978 276.056V276.135C220.654 276.238 221.178 276.507 221.549 276.941C221.924 277.375 222.109 277.914 222.106 278.557C222.109 279.117 221.954 279.619 221.639 280.063C221.327 280.507 220.901 280.857 220.361 281.112C219.821 281.364 219.203 281.49 218.507 281.49ZM223.828 281.351L228.273 272.561V272.486H223.132V271.169H229.864V272.531L225.434 281.351H223.828ZM234.328 281.49C233.615 281.49 232.986 281.367 232.439 281.122C231.895 280.877 231.469 280.539 231.161 280.108C230.853 279.677 230.7 279.186 230.704 278.636C230.7 278.205 230.788 277.809 230.967 277.448C231.149 277.083 231.396 276.78 231.708 276.538C232.019 276.293 232.367 276.137 232.752 276.071V276.011C232.245 275.888 231.839 275.617 231.534 275.196C231.229 274.775 231.078 274.291 231.081 273.744C231.078 273.224 231.216 272.76 231.494 272.352C231.776 271.941 232.162 271.618 232.653 271.383C233.143 271.147 233.702 271.03 234.328 271.03C234.948 271.03 235.501 271.149 235.988 271.388C236.479 271.623 236.865 271.946 237.147 272.357C237.429 272.765 237.571 273.227 237.574 273.744C237.571 274.291 237.415 274.775 237.107 275.196C236.799 275.617 236.398 275.888 235.904 276.011V276.071C236.285 276.137 236.628 276.293 236.933 276.538C237.241 276.78 237.487 277.083 237.669 277.448C237.854 277.809 237.949 278.205 237.952 278.636C237.949 279.186 237.793 279.677 237.485 280.108C237.177 280.539 236.749 280.877 236.202 281.122C235.659 281.367 235.034 281.49 234.328 281.49ZM234.328 280.232C234.749 280.232 235.113 280.162 235.422 280.023C235.73 279.881 235.969 279.683 236.138 279.432C236.307 279.176 236.393 278.878 236.396 278.537C236.393 278.182 236.3 277.869 236.118 277.597C235.939 277.325 235.695 277.111 235.387 276.956C235.079 276.8 234.726 276.722 234.328 276.722C233.927 276.722 233.571 276.8 233.259 276.956C232.948 277.111 232.702 277.325 232.523 277.597C232.344 277.869 232.256 278.182 232.26 278.537C232.256 278.878 232.338 279.176 232.503 279.432C232.672 279.683 232.913 279.881 233.224 280.023C233.536 280.162 233.904 280.232 234.328 280.232ZM234.328 275.494C234.666 275.494 234.966 275.426 235.228 275.29C235.49 275.154 235.695 274.965 235.844 274.723C235.997 274.482 236.075 274.198 236.078 273.873C236.075 273.555 235.998 273.277 235.849 273.038C235.703 272.799 235.5 272.616 235.238 272.486C234.976 272.354 234.673 272.287 234.328 272.287C233.977 272.287 233.668 272.354 233.403 272.486C233.141 272.616 232.938 272.799 232.792 273.038C232.646 273.277 232.575 273.555 232.578 273.873C232.575 274.198 232.648 274.482 232.797 274.723C232.946 274.965 233.151 275.154 233.413 275.29C233.678 275.426 233.983 275.494 234.328 275.494Z" fill="white"/>
<rect x="256" y="266.351" width="48" height="20" rx="10" fill="#11D53F" fill-opacity="0.06"/>
<path d="M265.152 278.885V273.123H266.299V278.885H265.152ZM262.847 276.575V275.433H268.608V276.575H262.847ZM273.483 280.47C272.898 280.47 272.375 280.369 271.915 280.167C271.458 279.966 271.096 279.686 270.828 279.328C270.564 278.967 270.422 278.549 270.402 278.075H271.74C271.757 278.334 271.844 278.558 272 278.748C272.159 278.936 272.367 279.081 272.623 279.183C272.878 279.285 273.162 279.336 273.475 279.336C273.819 279.336 274.123 279.277 274.387 279.157C274.654 279.038 274.863 278.872 275.013 278.659C275.164 278.443 275.239 278.194 275.239 277.913C275.239 277.62 275.164 277.363 275.013 277.142C274.865 276.917 274.648 276.741 274.361 276.613C274.077 276.486 273.733 276.422 273.33 276.422H272.593V275.348H273.33C273.654 275.348 273.938 275.29 274.182 275.173C274.429 275.057 274.623 274.895 274.762 274.687C274.901 274.477 274.971 274.231 274.971 273.95C274.971 273.68 274.909 273.446 274.787 273.247C274.668 273.045 274.498 272.888 274.276 272.774C274.057 272.66 273.799 272.603 273.5 272.603C273.216 272.603 272.951 272.656 272.703 272.761C272.459 272.863 272.26 273.011 272.107 273.204C271.953 273.395 271.871 273.623 271.86 273.89H270.586C270.6 273.419 270.739 273.004 271.003 272.646C271.27 272.288 271.623 272.008 272.06 271.807C272.498 271.605 272.983 271.504 273.517 271.504C274.077 271.504 274.56 271.613 274.966 271.832C275.375 272.048 275.691 272.336 275.912 272.697C276.137 273.058 276.248 273.453 276.245 273.882C276.248 274.37 276.111 274.785 275.836 275.126C275.563 275.467 275.199 275.696 274.745 275.812V275.88C275.324 275.968 275.773 276.199 276.091 276.571C276.412 276.943 276.571 277.405 276.569 277.956C276.571 278.436 276.438 278.866 276.168 279.247C275.901 279.628 275.536 279.927 275.073 280.146C274.61 280.362 274.08 280.47 273.483 280.47ZM278.778 280.432C278.545 280.432 278.345 280.349 278.177 280.184C278.01 280.017 277.926 279.815 277.926 279.579C277.926 279.346 278.01 279.147 278.177 278.983C278.345 278.815 278.545 278.731 278.778 278.731C279.011 278.731 279.211 278.815 279.379 278.983C279.547 279.147 279.63 279.346 279.63 279.579C279.63 279.736 279.591 279.879 279.511 280.01C279.434 280.138 279.332 280.24 279.204 280.316C279.076 280.393 278.934 280.432 278.778 280.432ZM281.137 278.646V277.581L284.908 271.623H285.748V273.191H285.215L282.517 277.461V277.53H287.686V278.646H281.137ZM285.275 280.351V278.322L285.283 277.836V271.623H286.532V280.351H285.275ZM293.727 278.714V278.254C293.727 277.924 293.795 277.623 293.931 277.351C294.071 277.075 294.272 276.855 294.537 276.69C294.804 276.522 295.126 276.439 295.504 276.439C295.89 276.439 296.214 276.521 296.475 276.686C296.737 276.851 296.934 277.071 297.068 277.346C297.204 277.622 297.272 277.924 297.272 278.254V278.714C297.272 279.044 297.204 279.346 297.068 279.622C296.931 279.895 296.731 280.115 296.467 280.282C296.206 280.447 295.885 280.53 295.504 280.53C295.12 280.53 294.797 280.447 294.532 280.282C294.268 280.115 294.068 279.895 293.931 279.622C293.795 279.346 293.727 279.044 293.727 278.714ZM294.72 278.254V278.714C294.72 278.959 294.778 279.18 294.895 279.379C295.011 279.578 295.214 279.677 295.504 279.677C295.791 279.677 295.991 279.578 296.105 279.379C296.218 279.18 296.275 278.959 296.275 278.714V278.254C296.275 278.01 296.22 277.788 296.109 277.589C296.001 277.39 295.799 277.291 295.504 277.291C295.22 277.291 295.018 277.39 294.899 277.589C294.779 277.788 294.72 278.01 294.72 278.254ZM289.338 273.72V273.26C289.338 272.93 289.406 272.628 289.542 272.352C289.681 272.076 289.883 271.856 290.147 271.691C290.414 271.527 290.737 271.444 291.115 271.444C291.501 271.444 291.825 271.527 292.086 271.691C292.348 271.856 292.545 272.076 292.679 272.352C292.812 272.628 292.879 272.93 292.879 273.26V273.72C292.879 274.049 292.811 274.352 292.674 274.628C292.541 274.9 292.342 275.12 292.078 275.288C291.816 275.453 291.495 275.535 291.115 275.535C290.728 275.535 290.403 275.453 290.139 275.288C289.877 275.12 289.679 274.9 289.542 274.628C289.406 274.352 289.338 274.049 289.338 273.72ZM290.335 273.26V273.72C290.335 273.964 290.392 274.186 290.505 274.385C290.622 274.584 290.825 274.683 291.115 274.683C291.399 274.683 291.598 274.584 291.711 274.385C291.828 274.186 291.886 273.964 291.886 273.72V273.26C291.886 273.015 291.831 272.794 291.72 272.595C291.609 272.396 291.407 272.297 291.115 272.297C290.831 272.297 290.629 272.396 290.51 272.595C290.393 272.794 290.335 273.015 290.335 273.26ZM289.743 280.351L295.743 271.623H296.761L290.761 280.351H289.743Z" fill="#17CD16"/>
<path d="M32 327.851C32 323.432 35.5817 319.851 40 319.851H318.5C322.918 319.851 326.5 323.432 326.5 327.851V363.851C326.5 368.269 322.918 371.851 318.5 371.851H40C35.5817 371.851 32 368.269 32 363.851V327.851Z" fill="url(#paint6_linear_6001_13085)" fill-opacity="0.7"/>
<path d="M32 327.851C32 323.432 35.5817 319.851 40 319.851H318.5C322.918 319.851 326.5 323.432 326.5 327.851V363.851C326.5 368.269 322.918 371.851 318.5 371.851H40C35.5817 371.851 32 368.269 32 363.851V327.851Z" fill="url(#paint7_linear_6001_13085)" fill-opacity="0.5"/>
<path d="M32.5 327.851C32.5 323.708 35.8579 320.351 40 320.351H318.5C322.642 320.351 326 323.708 326 327.851V363.851C326 367.993 322.642 371.351 318.5 371.351H40C35.8579 371.351 32.5 367.993 32.5 363.851V327.851Z" stroke="white" stroke-opacity="0.06"/>
<path d="M60.4545 350.851H57.0043V340.669H60.5241C61.535 340.669 62.4034 340.873 63.1293 341.28C63.8584 341.685 64.4186 342.266 64.8097 343.025C65.2008 343.784 65.3963 344.692 65.3963 345.75C65.3963 346.81 65.1991 347.722 64.8047 348.484C64.4136 349.246 63.8485 349.831 63.1094 350.239C62.3736 350.647 61.4886 350.851 60.4545 350.851ZM58.8487 349.255H60.3651C61.0743 349.255 61.666 349.125 62.1399 348.867C62.6139 348.605 62.9702 348.216 63.2088 347.699C63.4474 347.178 63.5668 346.529 63.5668 345.75C63.5668 344.971 63.4474 344.325 63.2088 343.811C62.9702 343.294 62.6172 342.908 62.1499 342.652C61.6858 342.394 61.1091 342.265 60.4197 342.265H58.8487V349.255ZM69.9002 351C69.1545 351 68.5082 350.836 67.9613 350.508C67.4144 350.179 66.9902 349.72 66.6886 349.13C66.3903 348.54 66.2411 347.851 66.2411 347.062C66.2411 346.273 66.3903 345.582 66.6886 344.989C66.9902 344.396 67.4144 343.935 67.9613 343.607C68.5082 343.279 69.1545 343.115 69.9002 343.115C70.646 343.115 71.2923 343.279 71.8391 343.607C72.386 343.935 72.8086 344.396 73.1069 344.989C73.4085 345.582 73.5593 346.273 73.5593 347.062C73.5593 347.851 73.4085 348.54 73.1069 349.13C72.8086 349.72 72.386 350.179 71.8391 350.508C71.2923 350.836 70.646 351 69.9002 351ZM69.9102 349.558C70.3145 349.558 70.6526 349.447 70.9244 349.225C71.1961 348.999 71.3983 348.698 71.5309 348.32C71.6668 347.942 71.7347 347.521 71.7347 347.057C71.7347 346.59 71.6668 346.167 71.5309 345.79C71.3983 345.408 71.1961 345.105 70.9244 344.88C70.6526 344.654 70.3145 344.542 69.9102 344.542C69.4959 344.542 69.1512 344.654 68.8761 344.88C68.6043 345.105 68.4004 345.408 68.2646 345.79C68.132 346.167 68.0657 346.59 68.0657 347.057C68.0657 347.521 68.132 347.942 68.2646 348.32C68.4004 348.698 68.6043 348.999 68.8761 349.225C69.1512 349.447 69.4959 349.558 69.9102 349.558ZM76.3865 340.669V350.851H74.5868V340.669H76.3865ZM79.5369 340.669V350.851H77.7372V340.669H79.5369ZM83.085 351.005C82.6011 351.005 82.1653 350.919 81.7775 350.746C81.3931 350.571 81.0881 350.312 80.8627 349.971C80.6407 349.629 80.5297 349.208 80.5297 348.708C80.5297 348.277 80.6092 347.921 80.7683 347.639C80.9274 347.357 81.1445 347.132 81.4196 346.963C81.6947 346.794 82.0046 346.666 82.3493 346.58C82.6973 346.491 83.0569 346.426 83.4281 346.386C83.8755 346.34 84.2385 346.298 84.5169 346.262C84.7953 346.222 84.9975 346.162 85.1234 346.083C85.2527 346 85.3173 345.872 85.3173 345.7V345.67C85.3173 345.296 85.2063 345.006 84.9842 344.8C84.7621 344.595 84.4423 344.492 84.0247 344.492C83.5839 344.492 83.2342 344.588 82.9757 344.78C82.7205 344.973 82.5481 345.2 82.4586 345.461L80.7782 345.223C80.9108 344.759 81.1296 344.371 81.4345 344.059C81.7394 343.745 82.1123 343.509 82.5531 343.353C82.9939 343.194 83.4811 343.115 84.0147 343.115C84.3826 343.115 84.7489 343.158 85.1135 343.244C85.478 343.33 85.8111 343.473 86.1127 343.672C86.4144 343.867 86.6563 344.134 86.8386 344.472C87.0242 344.81 87.117 345.233 87.117 345.74V350.851H85.3869V349.802H85.3272C85.2179 350.014 85.0637 350.213 84.8649 350.398C84.6693 350.58 84.4224 350.728 84.1241 350.841C83.8291 350.95 83.4828 351.005 83.085 351.005ZM83.5524 349.682C83.9136 349.682 84.2269 349.611 84.492 349.468C84.7572 349.323 84.961 349.13 85.1035 348.892C85.2493 348.653 85.3223 348.393 85.3223 348.111V347.211C85.2659 347.258 85.1698 347.301 85.0339 347.341C84.9013 347.38 84.7522 347.415 84.5865 347.445C84.4208 347.475 84.2567 347.501 84.0943 347.525C83.9319 347.548 83.791 347.568 83.6717 347.584C83.4032 347.621 83.1629 347.68 82.9508 347.763C82.7387 347.846 82.5713 347.962 82.4487 348.111C82.3261 348.257 82.2647 348.446 82.2647 348.678C82.2647 349.009 82.3857 349.26 82.6277 349.429C82.8696 349.598 83.1779 349.682 83.5524 349.682ZM88.4267 350.851V343.214H90.1717V344.487H90.2512C90.3904 344.046 90.6291 343.706 90.9672 343.468C91.3085 343.226 91.698 343.105 92.1355 343.105C92.2349 343.105 92.3459 343.11 92.4686 343.12C92.5945 343.126 92.6989 343.138 92.7818 343.155V344.81C92.7056 344.784 92.5846 344.76 92.4189 344.741C92.2565 344.717 92.099 344.706 91.9466 344.706C91.6184 344.706 91.3234 344.777 91.0616 344.919C90.8031 345.059 90.5993 345.253 90.4501 345.501C90.301 345.75 90.2264 346.036 90.2264 346.361V350.851H88.4267ZM99.513 345.233L97.8723 345.412C97.8259 345.246 97.7447 345.09 97.6287 344.944C97.516 344.799 97.3636 344.681 97.1713 344.591C96.9791 344.502 96.7438 344.457 96.4654 344.457C96.0908 344.457 95.776 344.538 95.5208 344.701C95.2689 344.863 95.1446 345.074 95.1479 345.332C95.1446 345.554 95.2258 345.735 95.3915 345.874C95.5605 346.013 95.839 346.128 96.2267 346.217L97.5293 346.495C98.2518 346.651 98.7888 346.898 99.1401 347.236C99.4947 347.574 99.6737 348.017 99.677 348.564C99.6737 349.044 99.5328 349.468 99.2544 349.836C98.9793 350.201 98.5965 350.486 98.106 350.691C97.6155 350.897 97.052 351 96.4157 351C95.481 351 94.7286 350.804 94.1586 350.413C93.5885 350.019 93.2488 349.47 93.1394 348.767L94.8944 348.598C94.9739 348.943 95.1429 349.203 95.4015 349.379C95.66 349.555 95.9964 349.642 96.4107 349.642C96.8382 349.642 97.1813 349.555 97.4398 349.379C97.7016 349.203 97.8326 348.986 97.8326 348.728C97.8326 348.509 97.748 348.328 97.579 348.186C97.4133 348.043 97.1548 347.934 96.8034 347.858L95.5009 347.584C94.7684 347.432 94.2265 347.175 93.8752 346.814C93.5239 346.449 93.3498 345.988 93.3532 345.432C93.3498 344.961 93.4775 344.553 93.736 344.209C93.9978 343.861 94.3607 343.592 94.8248 343.403C95.2921 343.211 95.8307 343.115 96.4405 343.115C97.3354 343.115 98.0397 343.305 98.5534 343.687C99.0705 344.068 99.3903 344.583 99.513 345.233Z" fill="white"/>
<path d="M118 346.785C118 346.785 120.864 347.056 121.5 345.785C122 344.785 122.5 344.285 123 344.285C123.5 344.285 123.731 345.477 124.5 345.785C125.881 346.337 126.665 343.751 128 344.285C128.769 344.593 128.762 345.408 129.5 345.785C131.865 346.993 131 340.285 133.5 340.285C135.839 340.285 134 346.785 138 348.785C139 349.285 139.931 348.767 141 349.285C143.202 350.352 141.633 354.167 144 354.785C145.558 355.191 146.405 353.567 148 353.785C149.042 353.927 149.449 354.814 150.5 354.785C151.908 354.746 152.103 352.96 153.5 352.785C155.233 352.568 157.5 354.785 157.5 354.785" stroke="url(#paint8_linear_6001_13085)" stroke-linecap="round"/>
<path d="M189.621 352.123V339.396H190.437V352.123H189.621ZM192.172 343.343C192.119 342.873 191.9 342.508 191.516 342.25C191.131 341.988 190.647 341.857 190.064 341.857C189.646 341.857 189.285 341.923 188.98 342.056C188.675 342.185 188.438 342.364 188.269 342.593C188.103 342.818 188.021 343.075 188.021 343.363C188.021 343.605 188.077 343.814 188.19 343.99C188.306 344.165 188.456 344.313 188.642 344.432C188.831 344.548 189.033 344.646 189.249 344.726C189.464 344.802 189.671 344.865 189.87 344.915L190.864 345.173C191.189 345.253 191.522 345.36 191.864 345.496C192.205 345.632 192.522 345.811 192.813 346.033C193.105 346.255 193.34 346.53 193.519 346.858C193.701 347.187 193.793 347.579 193.793 348.037C193.793 348.613 193.643 349.125 193.345 349.573C193.05 350.02 192.621 350.373 192.058 350.632C191.497 350.89 190.82 351.02 190.024 351.02C189.262 351.02 188.602 350.899 188.045 350.657C187.489 350.415 187.053 350.072 186.738 349.628C186.423 349.18 186.249 348.65 186.216 348.037H187.757C187.787 348.405 187.906 348.711 188.115 348.956C188.327 349.198 188.597 349.379 188.925 349.498C189.257 349.614 189.62 349.672 190.014 349.672C190.448 349.672 190.835 349.604 191.173 349.468C191.514 349.329 191.782 349.137 191.978 348.892C192.174 348.643 192.271 348.353 192.271 348.022C192.271 347.72 192.185 347.473 192.013 347.281C191.844 347.089 191.613 346.93 191.322 346.804C191.033 346.678 190.707 346.567 190.342 346.471L189.139 346.142C188.324 345.92 187.678 345.594 187.2 345.163C186.726 344.732 186.489 344.162 186.489 343.453C186.489 342.866 186.648 342.354 186.967 341.917C187.285 341.479 187.716 341.139 188.259 340.897C188.803 340.652 189.416 340.53 190.099 340.53C190.788 340.53 191.396 340.651 191.923 340.892C192.454 341.134 192.871 341.468 193.176 341.892C193.481 342.313 193.64 342.797 193.653 343.343H192.172ZM198.43 350.99C197.717 350.99 197.087 350.867 196.54 350.622C195.997 350.377 195.571 350.039 195.263 349.608C194.954 349.177 194.802 348.686 194.805 348.136C194.802 347.705 194.89 347.309 195.069 346.948C195.251 346.583 195.498 346.28 195.809 346.038C196.121 345.793 196.469 345.637 196.854 345.571V345.511C196.346 345.388 195.94 345.117 195.635 344.696C195.331 344.275 195.18 343.791 195.183 343.244C195.18 342.724 195.317 342.26 195.596 341.852C195.877 341.441 196.264 341.118 196.754 340.883C197.245 340.647 197.803 340.53 198.43 340.53C199.049 340.53 199.603 340.649 200.09 340.888C200.581 341.123 200.967 341.446 201.248 341.857C201.53 342.265 201.673 342.727 201.676 343.244C201.673 343.791 201.517 344.275 201.209 344.696C200.9 345.117 200.499 345.388 200.006 345.511V345.571C200.387 345.637 200.73 345.793 201.035 346.038C201.343 346.28 201.588 346.583 201.77 346.948C201.956 347.309 202.05 347.705 202.054 348.136C202.05 348.686 201.895 349.177 201.586 349.608C201.278 350.039 200.851 350.377 200.304 350.622C199.76 350.867 199.135 350.99 198.43 350.99ZM198.43 349.732C198.85 349.732 199.215 349.662 199.523 349.523C199.831 349.381 200.07 349.183 200.239 348.932C200.408 348.676 200.494 348.378 200.498 348.037C200.494 347.682 200.402 347.369 200.219 347.097C200.04 346.825 199.797 346.611 199.488 346.456C199.18 346.3 198.827 346.222 198.43 346.222C198.028 346.222 197.672 346.3 197.361 346.456C197.049 346.611 196.804 346.825 196.625 347.097C196.446 347.369 196.358 347.682 196.361 348.037C196.358 348.378 196.439 348.676 196.605 348.932C196.774 349.183 197.014 349.381 197.326 349.523C197.637 349.662 198.005 349.732 198.43 349.732ZM198.43 344.994C198.768 344.994 199.068 344.926 199.329 344.79C199.591 344.654 199.797 344.465 199.946 344.223C200.098 343.982 200.176 343.698 200.18 343.373C200.176 343.055 200.1 342.777 199.951 342.538C199.805 342.299 199.601 342.116 199.339 341.986C199.077 341.854 198.774 341.787 198.43 341.787C198.078 341.787 197.77 341.854 197.505 341.986C197.243 342.116 197.039 342.299 196.893 342.538C196.747 342.777 196.676 343.055 196.68 343.373C196.676 343.698 196.749 343.982 196.898 344.223C197.047 344.465 197.253 344.654 197.515 344.79C197.78 344.926 198.085 344.994 198.43 344.994ZM206.721 340.53C207.175 340.533 207.622 340.616 208.063 340.778C208.504 340.941 208.901 341.206 209.256 341.574C209.614 341.941 209.899 342.439 210.111 343.065C210.327 343.688 210.436 344.464 210.439 345.392C210.439 346.283 210.35 347.077 210.171 347.773C209.992 348.466 209.735 349.051 209.4 349.528C209.069 350.005 208.666 350.368 208.192 350.617C207.718 350.866 207.185 350.99 206.591 350.99C205.985 350.99 205.446 350.87 204.975 350.632C204.505 350.393 204.122 350.063 203.827 349.642C203.532 349.218 203.348 348.731 203.275 348.181H204.792C204.891 348.618 205.093 348.973 205.398 349.245C205.706 349.513 206.104 349.647 206.591 349.647C207.337 349.647 207.919 349.323 208.336 348.673C208.754 348.02 208.964 347.109 208.968 345.939H208.888C208.716 346.224 208.5 346.469 208.242 346.674C207.987 346.88 207.7 347.039 207.382 347.152C207.064 347.264 206.724 347.321 206.363 347.321C205.776 347.321 205.242 347.177 204.762 346.888C204.281 346.6 203.898 346.204 203.613 345.7C203.328 345.196 203.186 344.621 203.186 343.975C203.186 343.332 203.332 342.749 203.623 342.225C203.918 341.701 204.329 341.287 204.856 340.982C205.386 340.674 206.008 340.523 206.721 340.53ZM206.725 341.822C206.338 341.822 205.988 341.918 205.676 342.111C205.368 342.299 205.125 342.556 204.946 342.881C204.767 343.203 204.677 343.561 204.677 343.955C204.677 344.349 204.763 344.707 204.936 345.029C205.111 345.347 205.35 345.601 205.652 345.79C205.957 345.975 206.305 346.068 206.696 346.068C206.987 346.068 207.259 346.012 207.511 345.899C207.763 345.786 207.983 345.63 208.172 345.432C208.361 345.229 208.509 345.001 208.615 344.745C208.721 344.49 208.774 344.222 208.774 343.94C208.774 343.566 208.684 343.218 208.505 342.896C208.33 342.575 208.088 342.316 207.779 342.12C207.471 341.922 207.12 341.822 206.725 341.822ZM213.32 349.459L213.245 350C213.196 350.398 213.111 350.812 212.992 351.243C212.876 351.678 212.755 352.08 212.629 352.451C212.506 352.823 212.405 353.118 212.326 353.336H211.272C211.315 353.131 211.374 352.852 211.451 352.501C211.527 352.153 211.601 351.764 211.674 351.333C211.747 350.902 211.802 350.463 211.838 350.015L211.888 349.459H213.32ZM214.899 350.851V349.737L218.345 346.167C218.713 345.78 219.016 345.44 219.254 345.148C219.496 344.853 219.677 344.573 219.796 344.308C219.916 344.043 219.975 343.761 219.975 343.463C219.975 343.125 219.896 342.833 219.737 342.588C219.578 342.339 219.36 342.149 219.085 342.016C218.81 341.88 218.5 341.812 218.156 341.812C217.791 341.812 217.473 341.887 217.201 342.036C216.929 342.185 216.721 342.396 216.575 342.667C216.429 342.939 216.356 343.257 216.356 343.622H214.889C214.889 343.002 215.032 342.46 215.317 341.996C215.602 341.532 215.993 341.173 216.49 340.917C216.987 340.659 217.552 340.53 218.186 340.53C218.825 340.53 219.389 340.657 219.876 340.912C220.366 341.164 220.749 341.509 221.024 341.946C221.299 342.381 221.437 342.871 221.437 343.418C221.437 343.796 221.366 344.165 221.223 344.527C221.084 344.888 220.84 345.291 220.492 345.735C220.144 346.176 219.66 346.711 219.041 347.341L217.017 349.459V349.533H221.601V350.851H214.899ZM226.371 340.53C226.825 340.533 227.272 340.616 227.713 340.778C228.154 340.941 228.552 341.206 228.906 341.574C229.264 341.941 229.549 342.439 229.762 343.065C229.977 343.688 230.086 344.464 230.09 345.392C230.09 346.283 230 347.077 229.821 347.773C229.642 348.466 229.385 349.051 229.051 349.528C228.719 350.005 228.316 350.368 227.843 350.617C227.369 350.866 226.835 350.99 226.242 350.99C225.635 350.99 225.097 350.87 224.626 350.632C224.155 350.393 223.772 350.063 223.477 349.642C223.182 349.218 222.999 348.731 222.926 348.181H224.442C224.541 348.618 224.744 348.973 225.048 349.245C225.357 349.513 225.754 349.647 226.242 349.647C226.987 349.647 227.569 349.323 227.987 348.673C228.404 348.02 228.615 347.109 228.618 345.939H228.539C228.366 346.224 228.151 346.469 227.892 346.674C227.637 346.88 227.35 347.039 227.032 347.152C226.714 347.264 226.374 347.321 226.013 347.321C225.426 347.321 224.893 347.177 224.412 346.888C223.932 346.6 223.549 346.204 223.264 345.7C222.979 345.196 222.836 344.621 222.836 343.975C222.836 343.332 222.982 342.749 223.274 342.225C223.569 341.701 223.98 341.287 224.507 340.982C225.037 340.674 225.658 340.523 226.371 340.53ZM226.376 341.822C225.988 341.822 225.638 341.918 225.327 342.111C225.019 342.299 224.775 342.556 224.596 342.881C224.417 343.203 224.328 343.561 224.328 343.955C224.328 344.349 224.414 344.707 224.586 345.029C224.762 345.347 225 345.601 225.302 345.79C225.607 345.975 225.955 346.068 226.346 346.068C226.638 346.068 226.91 346.012 227.161 345.899C227.413 345.786 227.634 345.63 227.823 345.432C228.012 345.229 228.159 345.001 228.265 344.745C228.371 344.49 228.424 344.222 228.424 343.94C228.424 343.566 228.335 343.218 228.156 342.896C227.98 342.575 227.738 342.316 227.43 342.12C227.122 341.922 226.77 341.822 226.376 341.822ZM234.93 350.99C234.248 350.99 233.638 350.872 233.101 350.637C232.567 350.401 232.145 350.075 231.833 349.657C231.525 349.236 231.359 348.749 231.336 348.196H232.897C232.917 348.497 233.018 348.759 233.2 348.981C233.386 349.2 233.628 349.369 233.926 349.488C234.224 349.608 234.556 349.667 234.92 349.667C235.321 349.667 235.676 349.598 235.984 349.459C236.296 349.319 236.54 349.125 236.715 348.877C236.891 348.625 236.979 348.335 236.979 348.007C236.979 347.665 236.891 347.366 236.715 347.107C236.543 346.845 236.289 346.64 235.955 346.491C235.623 346.341 235.222 346.267 234.751 346.267H233.891V345.014H234.751C235.129 345.014 235.461 344.946 235.746 344.81C236.034 344.674 236.259 344.485 236.422 344.243C236.584 343.998 236.665 343.711 236.665 343.383C236.665 343.068 236.594 342.795 236.452 342.563C236.313 342.328 236.114 342.144 235.855 342.011C235.6 341.879 235.298 341.812 234.95 341.812C234.619 341.812 234.309 341.874 234.021 341.996C233.736 342.116 233.504 342.288 233.325 342.513C233.146 342.735 233.049 343.002 233.036 343.314H231.55C231.566 342.763 231.729 342.28 232.037 341.862C232.348 341.444 232.759 341.118 233.27 340.883C233.78 340.647 234.347 340.53 234.97 340.53C235.623 340.53 236.187 340.657 236.661 340.912C237.138 341.164 237.506 341.501 237.764 341.922C238.026 342.343 238.155 342.803 238.152 343.304C238.155 343.874 237.996 344.358 237.675 344.755C237.357 345.153 236.932 345.42 236.402 345.556V345.635C237.078 345.738 237.602 346.007 237.973 346.441C238.348 346.875 238.533 347.414 238.53 348.057C238.533 348.617 238.377 349.119 238.062 349.563C237.751 350.007 237.325 350.357 236.785 350.612C236.245 350.864 235.626 350.99 234.93 350.99Z" fill="white"/>
<rect x="260.5" y="335.851" width="42" height="20" rx="10" fill="#FF0D00" fill-opacity="0.07"/>
<path d="M270.744 344.933V346.041H266.875V344.933H270.744ZM275.464 349.995C274.79 349.993 274.215 349.815 273.738 349.463C273.261 349.111 272.896 348.598 272.643 347.924C272.39 347.251 272.263 346.44 272.263 345.491C272.263 344.545 272.39 343.737 272.643 343.066C272.898 342.396 273.265 341.885 273.742 341.532C274.222 341.18 274.796 341.004 275.464 341.004C276.131 341.004 276.704 341.182 277.181 341.537C277.658 341.889 278.023 342.4 278.276 343.071C278.532 343.738 278.66 344.545 278.66 345.491C278.66 346.443 278.533 347.255 278.281 347.929C278.028 348.599 277.663 349.112 277.185 349.467C276.708 349.819 276.134 349.995 275.464 349.995ZM275.464 348.858C276.055 348.858 276.516 348.569 276.849 347.993C277.184 347.416 277.352 346.582 277.352 345.491C277.352 344.767 277.275 344.155 277.121 343.655C276.971 343.152 276.754 342.771 276.469 342.513C276.188 342.251 275.853 342.12 275.464 342.12C274.876 342.12 274.414 342.41 274.079 342.99C273.744 343.569 273.575 344.403 273.572 345.491C273.572 346.218 273.647 346.834 273.798 347.336C273.951 347.836 274.168 348.216 274.45 348.474C274.731 348.73 275.069 348.858 275.464 348.858ZM280.712 349.932C280.479 349.932 280.278 349.849 280.111 349.684C279.943 349.517 279.859 349.315 279.859 349.079C279.859 348.846 279.943 348.647 280.111 348.483C280.278 348.315 280.479 348.231 280.712 348.231C280.945 348.231 281.145 348.315 281.312 348.483C281.48 348.647 281.564 348.846 281.564 349.079C281.564 349.236 281.524 349.379 281.445 349.51C281.368 349.638 281.266 349.74 281.138 349.816C281.01 349.893 280.868 349.932 280.712 349.932ZM285.51 341.123V349.851H284.189V342.444H284.138L282.05 343.808V342.547L284.227 341.123H285.51ZM292.426 348.214V347.754C292.426 347.424 292.494 347.123 292.631 346.851C292.77 346.575 292.972 346.355 293.236 346.19C293.503 346.022 293.825 345.939 294.203 345.939C294.589 345.939 294.913 346.021 295.175 346.186C295.436 346.351 295.634 346.571 295.767 346.846C295.903 347.122 295.972 347.424 295.972 347.754V348.214C295.972 348.544 295.903 348.846 295.767 349.122C295.631 349.395 295.43 349.615 295.166 349.782C294.905 349.947 294.584 350.03 294.203 350.03C293.82 350.03 293.496 349.947 293.232 349.782C292.967 349.615 292.767 349.395 292.631 349.122C292.494 348.846 292.426 348.544 292.426 348.214ZM293.419 347.754V348.214C293.419 348.459 293.477 348.68 293.594 348.879C293.71 349.078 293.913 349.177 294.203 349.177C294.49 349.177 294.69 349.078 294.804 348.879C294.918 348.68 294.974 348.459 294.974 348.214V347.754C294.974 347.51 294.919 347.288 294.808 347.089C294.7 346.89 294.499 346.791 294.203 346.791C293.919 346.791 293.717 346.89 293.598 347.089C293.479 347.288 293.419 347.51 293.419 347.754ZM288.037 343.22V342.76C288.037 342.43 288.105 342.128 288.241 341.852C288.381 341.576 288.582 341.356 288.847 341.191C289.114 341.027 289.436 340.944 289.814 340.944C290.2 340.944 290.524 341.027 290.786 341.191C291.047 341.356 291.244 341.576 291.378 341.852C291.511 342.128 291.578 342.43 291.578 342.76V343.22C291.578 343.549 291.51 343.852 291.374 344.128C291.24 344.4 291.041 344.62 290.777 344.788C290.516 344.953 290.195 345.035 289.814 345.035C289.428 345.035 289.102 344.953 288.838 344.788C288.577 344.62 288.378 344.4 288.241 344.128C288.105 343.852 288.037 343.549 288.037 343.22ZM289.034 342.76V343.22C289.034 343.464 289.091 343.686 289.205 343.885C289.321 344.084 289.524 344.183 289.814 344.183C290.098 344.183 290.297 344.084 290.411 343.885C290.527 343.686 290.585 343.464 290.585 343.22V342.76C290.585 342.515 290.53 342.294 290.419 342.095C290.308 341.896 290.107 341.797 289.814 341.797C289.53 341.797 289.328 341.896 289.209 342.095C289.092 342.294 289.034 342.515 289.034 342.76ZM288.442 349.851L294.442 341.123H295.46L289.46 349.851H288.442Z" fill="#F62021"/>
<defs>
<linearGradient id="paint0_linear_6001_13085" x1="65.5039" y1="130.751" x2="80.6827" y2="193.335" gradientUnits="userSpaceOnUse">
<stop stop-color="#FEECE3"/>
<stop offset="0.25" stop-color="#FCD5BF"/>
<stop offset="0.5" stop-color="#FEAFAE"/>
<stop offset="0.75" stop-color="#FFA4BD"/>
<stop offset="1" stop-color="#FFA9CC"/>
</linearGradient>
<linearGradient id="paint1_linear_6001_13085" x1="46.3786" y1="173.548" x2="97.9016" y2="226.389" gradientUnits="userSpaceOnUse">
<stop stop-color="#FEECE3"/>
<stop offset="0.25" stop-color="#FCD5BF"/>
<stop offset="0.5" stop-color="#FEAFAE"/>
<stop offset="0.75" stop-color="#FFA4BD"/>
<stop offset="1" stop-color="#FFA9CC"/>
</linearGradient>
<linearGradient id="paint2_linear_6001_13085" x1="125.773" y1="173.548" x2="174.635" y2="208.692" gradientUnits="userSpaceOnUse">
<stop stop-color="#FEECE3"/>
<stop offset="0.25" stop-color="#FCD5BF"/>
<stop offset="0.5" stop-color="#FEAFAE"/>
<stop offset="0.75" stop-color="#FFA4BD"/>
<stop offset="1" stop-color="#FFA9CC"/>
</linearGradient>
<linearGradient id="paint3_linear_6001_13085" x1="450.951" y1="200.765" x2="438.364" y2="346.509" gradientUnits="userSpaceOnUse">
<stop stop-color="#040509" stop-opacity="0.14"/>
<stop offset="1" stop-color="white" stop-opacity="0"/>
</linearGradient>
<linearGradient id="paint4_linear_6001_13085" x1="180" y1="248.851" x2="180" y2="303.851" gradientUnits="userSpaceOnUse">
<stop stop-color="#FEE3D5" stop-opacity="0.07"/>
<stop offset="1" stop-color="#FFA5C1" stop-opacity="0.07"/>
</linearGradient>
<linearGradient id="paint5_linear_6001_13085" x1="151.229" y1="256.221" x2="115.29" y2="282.338" gradientUnits="userSpaceOnUse">
<stop stop-color="#FEECE3"/>
<stop offset="0.25" stop-color="#FCD5BF"/>
<stop offset="0.5" stop-color="#FEAFAE"/>
<stop offset="0.75" stop-color="#FFA4BD"/>
<stop offset="1" stop-color="#FFA9CC"/>
</linearGradient>
<linearGradient id="paint6_linear_6001_13085" x1="448.828" y1="274.388" x2="437.511" y2="412.281" gradientUnits="userSpaceOnUse">
<stop stop-color="#040509" stop-opacity="0.14"/>
<stop offset="1" stop-color="white" stop-opacity="0"/>
</linearGradient>
<linearGradient id="paint7_linear_6001_13085" x1="179.25" y1="319.851" x2="179.25" y2="371.851" gradientUnits="userSpaceOnUse">
<stop stop-color="#FEE3D5" stop-opacity="0.07"/>
<stop offset="1" stop-color="#FFA5C1" stop-opacity="0.07"/>
</linearGradient>
<linearGradient id="paint8_linear_6001_13085" x1="124.192" y1="334.162" x2="151.001" y2="361.276" gradientUnits="userSpaceOnUse">
<stop stop-color="#FEECE3"/>
<stop offset="0.25" stop-color="#FCD5BF"/>
<stop offset="0.5" stop-color="#FEAFAE"/>
<stop offset="0.75" stop-color="#FFA4BD"/>
<stop offset="1" stop-color="#FFA9CC"/>
</linearGradient>
</defs>
</svg>
