<svg width="24" height="25" viewBox="0 0 24 25" fill="none" xmlns="http://www.w3.org/2000/svg">
<path opacity="0.12" d="M9.51447 3.42543C8.90071 3.94847 8.1376 4.26456 7.33377 4.3287C5.45794 4.4784 3.96839 5.96795 3.8187 7.84378C3.75455 8.64761 3.43846 9.41072 2.91542 10.0245C1.69486 11.4567 1.69486 13.5633 2.91542 14.9955C3.43846 15.6093 3.75455 16.3724 3.8187 17.1762C3.96839 19.0521 5.45794 20.5416 7.33377 20.6913C8.1376 20.7555 8.90071 21.0716 9.51447 21.5946C10.9467 22.8151 13.0533 22.8151 14.4855 21.5946C15.0993 21.0716 15.8624 20.7555 16.6662 20.6913C18.5421 20.5416 20.0316 19.0521 20.1813 17.1762C20.2455 16.3724 20.5615 15.6093 21.0846 14.9955C22.3051 13.5633 22.3051 11.4567 21.0846 10.0245C20.5615 9.41072 20.2455 8.64761 20.1813 7.84378C20.0316 5.96795 18.5421 4.4784 16.6662 4.32871C15.8624 4.26456 15.0993 3.94847 14.4855 3.42543C13.0533 2.20487 10.9467 2.20487 9.51447 3.42543Z" fill="url(#paint0_linear_6001_13207)"/>
<path d="M9 12.51L11 14.51L15.5 10.01M7.33377 4.3287C8.1376 4.26456 8.90071 3.94847 9.51447 3.42543C10.9467 2.20487 13.0533 2.20487 14.4855 3.42543C15.0993 3.94847 15.8624 4.26456 16.6662 4.32871C18.5421 4.4784 20.0316 5.96795 20.1813 7.84378C20.2455 8.64761 20.5615 9.41072 21.0846 10.0245C22.3051 11.4567 22.3051 13.5633 21.0846 14.9955C20.5615 15.6093 20.2455 16.3724 20.1813 17.1762C20.0316 19.0521 18.5421 20.5416 16.6662 20.6913C15.8624 20.7555 15.0993 21.0716 14.4855 21.5946C13.0533 22.8151 10.9467 22.8151 9.51447 21.5946C8.90071 21.0716 8.1376 20.7555 7.33377 20.6913C5.45794 20.5416 3.96839 19.0521 3.8187 17.1762C3.75455 16.3724 3.43846 15.6093 2.91542 14.9955C1.69486 13.5633 1.69486 11.4567 2.91542 10.0245C3.43846 9.41072 3.75455 8.64761 3.8187 7.84378C3.96839 5.96795 5.45794 4.4784 7.33377 4.3287Z" stroke="url(#paint1_linear_6001_13207)" stroke-width="2" stroke-linecap="round" stroke-linejoin="round"/>
<defs>
<linearGradient id="paint0_linear_6001_13207" x1="5.13529" y1="-5.89693" x2="29.2413" y2="3.09319" gradientUnits="userSpaceOnUse">
<stop stop-color="#FEECE3"/>
<stop offset="0.25" stop-color="#FCD5BF"/>
<stop offset="0.5" stop-color="#FEAFAE"/>
<stop offset="0.75" stop-color="#FFA4BD"/>
<stop offset="1" stop-color="#FFA9CC"/>
</linearGradient>
<linearGradient id="paint1_linear_6001_13207" x1="5.13529" y1="-5.89693" x2="29.2413" y2="3.09319" gradientUnits="userSpaceOnUse">
<stop stop-color="#FEECE3"/>
<stop offset="0.25" stop-color="#FCD5BF"/>
<stop offset="0.5" stop-color="#FEAFAE"/>
<stop offset="0.75" stop-color="#FFA4BD"/>
<stop offset="1" stop-color="#FFA9CC"/>
</linearGradient>
</defs>
</svg>
