<svg width="364" height="229" viewBox="0 0 364 229" fill="none" xmlns="http://www.w3.org/2000/svg">
<rect x="0.027832" y="94.4438" width="343" height="42" rx="8" fill="url(#paint0_linear_6001_12531)" fill-opacity="0.7"/>
<rect x="0.027832" y="94.4438" width="343" height="42" rx="8" fill="url(#paint1_linear_6001_12531)" fill-opacity="0.5"/>
<rect x="0.527832" y="94.9438" width="342" height="41" rx="7.5" stroke="white" stroke-opacity="0.06"/>
<path d="M9.14644 119.944V109.762H10.6827V114.187H15.7587V109.762H17.2998V119.944H15.7587V115.504H10.6827V119.944H9.14644ZM22.7089 120.098C21.9566 120.098 21.3086 119.937 20.765 119.616C20.2248 119.291 19.8072 118.835 19.5122 118.249C19.2205 117.659 19.0747 116.968 19.0747 116.175C19.0747 115.393 19.2205 114.704 19.5122 114.107C19.8072 113.511 20.2182 113.045 20.7452 112.71C21.2755 112.375 21.8953 112.208 22.6045 112.208C23.0354 112.208 23.453 112.279 23.8574 112.422C24.2617 112.564 24.6247 112.788 24.9462 113.093C25.2677 113.398 25.5212 113.794 25.7068 114.281C25.8924 114.765 25.9852 115.353 25.9852 116.046V116.573H19.9149V115.459H24.5285C24.5285 115.068 24.449 114.722 24.2899 114.42C24.1308 114.115 23.9071 113.875 23.6187 113.7C23.3337 113.524 22.9989 113.436 22.6145 113.436C22.1969 113.436 21.8323 113.539 21.5207 113.744C21.2125 113.946 20.9739 114.212 20.8048 114.54C20.6391 114.865 20.5562 115.218 20.5562 115.599V116.469C20.5562 116.979 20.6457 117.413 20.8247 117.771C21.007 118.129 21.2605 118.403 21.5854 118.592C21.9102 118.777 22.2897 118.87 22.7239 118.87C23.0056 118.87 23.2624 118.83 23.4945 118.751C23.7265 118.668 23.927 118.545 24.096 118.383C24.265 118.22 24.3943 118.02 24.4838 117.781L25.8908 118.035C25.7781 118.449 25.5759 118.812 25.2842 119.124C24.9959 119.432 24.6329 119.672 24.1954 119.844C23.7613 120.013 23.2658 120.098 22.7089 120.098ZM29.121 109.762V119.944H27.6345V109.762H29.121ZM32.6074 109.762V119.944H31.1209V109.762H32.6074ZM37.8238 120.098C37.1079 120.098 36.4831 119.934 35.9495 119.606C35.4159 119.278 35.0016 118.819 34.7066 118.229C34.4117 117.639 34.2642 116.949 34.2642 116.16C34.2642 115.368 34.4117 114.676 34.7066 114.082C35.0016 113.489 35.4159 113.028 35.9495 112.7C36.4831 112.372 37.1079 112.208 37.8238 112.208C38.5397 112.208 39.1645 112.372 39.6981 112.7C40.2317 113.028 40.646 113.489 40.941 114.082C41.236 114.676 41.3835 115.368 41.3835 116.16C41.3835 116.949 41.236 117.639 40.941 118.229C40.646 118.819 40.2317 119.278 39.6981 119.606C39.1645 119.934 38.5397 120.098 37.8238 120.098ZM37.8288 118.85C38.2928 118.85 38.6773 118.727 38.9822 118.482C39.2871 118.237 39.5125 117.91 39.6583 117.503C39.8075 117.095 39.8821 116.646 39.8821 116.155C39.8821 115.668 39.8075 115.221 39.6583 114.813C39.5125 114.402 39.2871 114.072 38.9822 113.824C38.6773 113.575 38.2928 113.451 37.8288 113.451C37.3615 113.451 36.9737 113.575 36.6654 113.824C36.3605 114.072 36.1335 114.402 35.9843 114.813C35.8385 115.221 35.7656 115.668 35.7656 116.155C35.7656 116.646 35.8385 117.095 35.9843 117.503C36.1335 117.91 36.3605 118.237 36.6654 118.482C36.9737 118.727 37.3615 118.85 37.8288 118.85ZM49.1727 122.713C48.1453 122.713 47.2338 122.572 46.4383 122.29C45.6462 122.012 44.9784 121.601 44.4348 121.057C43.8912 120.517 43.4786 119.854 43.1969 119.069C42.9151 118.283 42.7743 117.387 42.7743 116.379C42.7743 115.398 42.9168 114.517 43.2018 113.734C43.4869 112.952 43.9012 112.286 44.4447 111.736C44.9916 111.182 45.6561 110.76 46.4383 110.468C47.2205 110.176 48.1088 110.03 49.1031 110.03C50.0543 110.03 50.8929 110.18 51.6187 110.478C52.3446 110.776 52.9544 111.186 53.4483 111.706C53.9454 112.226 54.32 112.823 54.5719 113.496C54.8238 114.169 54.9497 114.879 54.9497 115.629C54.9497 116.152 54.9166 116.664 54.8503 117.165C54.784 117.662 54.6614 118.113 54.4824 118.517C54.3067 118.918 54.0515 119.24 53.7168 119.481C53.3853 119.72 52.9544 119.844 52.4241 119.854C52.1424 119.864 51.869 119.831 51.6038 119.755C51.3387 119.679 51.1133 119.556 50.9277 119.387C50.7421 119.215 50.6294 118.996 50.5896 118.731H50.53C50.4504 118.926 50.3178 119.109 50.1322 119.278C49.9466 119.443 49.7097 119.576 49.4213 119.675C49.1363 119.771 48.8048 119.811 48.427 119.795C48.0094 119.778 47.6332 119.684 47.2984 119.511C46.9637 119.339 46.677 119.1 46.4383 118.795C46.203 118.49 46.0224 118.129 45.8964 117.712C45.7705 117.294 45.7075 116.83 45.7075 116.32C45.7075 115.829 45.7788 115.39 45.9213 115.002C46.0638 114.611 46.2577 114.275 46.503 113.993C46.7516 113.708 47.0366 113.482 47.3581 113.317C47.6796 113.151 48.0193 113.047 48.3773 113.004C48.7253 112.964 49.0451 112.974 49.3368 113.033C49.6284 113.093 49.8704 113.184 50.0626 113.307C50.2582 113.429 50.3808 113.564 50.4305 113.709H50.4952V113.153H51.7182V117.766C51.7182 118.028 51.7861 118.25 51.922 118.432C52.0612 118.615 52.2584 118.706 52.5136 118.706C52.8152 118.706 53.0506 118.595 53.2196 118.373C53.3919 118.151 53.5129 117.809 53.5825 117.349C53.6554 116.888 53.6919 116.298 53.6919 115.579C53.6919 115.075 53.6239 114.601 53.4881 114.157C53.3555 113.709 53.1583 113.305 52.8964 112.944C52.6379 112.579 52.3197 112.266 51.9419 112.004C51.5641 111.742 51.1332 111.54 50.6493 111.398C50.1687 111.255 49.6367 111.184 49.0534 111.184C48.2613 111.184 47.557 111.307 46.9405 111.552C46.324 111.794 45.8036 112.143 45.3794 112.601C44.9585 113.058 44.6386 113.607 44.4199 114.246C44.2044 114.883 44.0967 115.597 44.0967 116.389C44.0967 117.214 44.2078 117.947 44.4298 118.587C44.6519 119.223 44.98 119.76 45.4142 120.197C45.8484 120.635 46.3853 120.966 47.025 121.192C47.6647 121.42 48.4021 121.535 49.2373 121.535C49.6086 121.535 49.9731 121.502 50.3311 121.435C50.6891 121.372 51.0072 121.299 51.2856 121.217C51.5674 121.137 51.7778 121.072 51.917 121.023L52.265 122.111C52.0596 122.208 51.7861 122.302 51.4447 122.395C51.1067 122.488 50.7388 122.564 50.341 122.624C49.9466 122.683 49.5572 122.713 49.1727 122.713ZM48.7153 118.577C49.1462 118.577 49.4926 118.49 49.7544 118.318C50.0195 118.146 50.2101 117.889 50.3261 117.548C50.4454 117.203 50.5051 116.772 50.5051 116.255C50.5018 115.751 50.4372 115.35 50.3112 115.052C50.1886 114.75 49.9963 114.535 49.7345 114.405C49.476 114.273 49.1429 114.207 48.7352 114.207C48.3607 114.207 48.0409 114.298 47.7757 114.48C47.5139 114.662 47.3133 114.909 47.1741 115.221C47.0382 115.532 46.9686 115.879 46.9653 116.26C46.9686 116.661 47.025 117.039 47.1344 117.393C47.2471 117.745 47.4293 118.03 47.6812 118.249C47.9364 118.467 48.2811 118.577 48.7153 118.577ZM59.7933 122.967C59.1867 122.967 58.6647 122.887 58.2272 122.728C57.793 122.569 57.4384 122.358 57.1633 122.097C56.8882 121.835 56.6827 121.548 56.5468 121.236L57.8245 120.709C57.914 120.855 58.0333 121.009 58.1825 121.172C58.3349 121.338 58.5404 121.478 58.799 121.594C59.0608 121.71 59.3972 121.768 59.8082 121.768C60.3716 121.768 60.8373 121.631 61.2052 121.356C61.5731 121.084 61.7571 120.65 61.7571 120.053V118.552H61.6626C61.5731 118.714 61.4438 118.895 61.2748 119.094C61.1091 119.293 60.8804 119.465 60.5887 119.611C60.2971 119.757 59.9176 119.83 59.4502 119.83C58.847 119.83 58.3035 119.689 57.8196 119.407C57.339 119.122 56.9578 118.703 56.6761 118.149C56.3977 117.592 56.2585 116.908 56.2585 116.096C56.2585 115.284 56.396 114.588 56.6711 114.008C56.9495 113.428 57.3307 112.984 57.8146 112.675C58.2985 112.364 58.847 112.208 59.4602 112.208C59.9341 112.208 60.317 112.288 60.6086 112.447C60.9003 112.602 61.1273 112.785 61.2897 112.994C61.4554 113.202 61.5831 113.386 61.6725 113.545H61.7819V112.307H63.2386V120.113C63.2386 120.769 63.0861 121.308 62.7812 121.729C62.4763 122.15 62.0636 122.461 61.5433 122.663C61.0262 122.865 60.4429 122.967 59.7933 122.967ZM59.7784 118.597C60.2059 118.597 60.5672 118.497 60.8622 118.298C61.1605 118.096 61.3858 117.808 61.5383 117.433C61.6941 117.055 61.772 116.603 61.772 116.076C61.772 115.562 61.6957 115.11 61.5433 114.719C61.3908 114.328 61.1671 114.023 60.8721 113.804C60.5771 113.582 60.2126 113.471 59.7784 113.471C59.3309 113.471 58.9581 113.587 58.6598 113.819C58.3615 114.048 58.1361 114.359 57.9836 114.754C57.8345 115.148 57.7599 115.589 57.7599 116.076C57.7599 116.576 57.8361 117.016 57.9886 117.393C58.1411 117.771 58.3664 118.066 58.6647 118.278C58.9663 118.49 59.3376 118.597 59.7784 118.597ZM65.2322 119.944V112.307H66.659V113.55H66.7535C66.9126 113.129 67.1728 112.801 67.534 112.566C67.8953 112.327 68.3278 112.208 68.8316 112.208C69.342 112.208 69.7696 112.327 70.1143 112.566C70.4623 112.805 70.7192 113.133 70.8849 113.55H70.9644C71.1467 113.143 71.4367 112.818 71.8345 112.576C72.2322 112.331 72.7062 112.208 73.2563 112.208C73.9491 112.208 74.5142 112.425 74.9517 112.859C75.3925 113.294 75.6129 113.948 75.6129 114.823V119.944H74.1264V114.962C74.1264 114.445 73.9855 114.071 73.7038 113.839C73.4221 113.607 73.0857 113.491 72.6946 113.491C72.2107 113.491 71.8345 113.64 71.566 113.938C71.2975 114.233 71.1633 114.613 71.1633 115.077V119.944H69.6818V114.868C69.6818 114.454 69.5525 114.12 69.294 113.869C69.0355 113.617 68.6991 113.491 68.2848 113.491C68.003 113.491 67.7429 113.565 67.5042 113.714C67.2689 113.86 67.0783 114.064 66.9325 114.326C66.79 114.588 66.7187 114.891 66.7187 115.236V119.944H65.2322ZM79.8275 120.113C79.3436 120.113 78.9061 120.023 78.515 119.844C78.1239 119.662 77.8141 119.399 77.5854 119.054C77.36 118.709 77.2473 118.287 77.2473 117.786C77.2473 117.355 77.3302 117.001 77.4959 116.722C77.6616 116.444 77.8853 116.223 78.167 116.061C78.4488 115.899 78.7636 115.776 79.1116 115.693C79.4597 115.61 79.8143 115.547 80.1756 115.504C80.6329 115.451 81.0042 115.408 81.2892 115.375C81.5742 115.338 81.7814 115.28 81.9106 115.201C82.0399 115.121 82.1045 114.992 82.1045 114.813V114.778C82.1045 114.344 81.9819 114.008 81.7366 113.769C81.4947 113.53 81.1334 113.411 80.6528 113.411C80.1524 113.411 79.7579 113.522 79.4696 113.744C79.1846 113.963 78.9873 114.207 78.878 114.475L77.481 114.157C77.6467 113.693 77.8886 113.318 78.2068 113.033C78.5283 112.745 78.8979 112.536 79.3155 112.407C79.7331 112.274 80.1722 112.208 80.6329 112.208C80.9379 112.208 81.261 112.245 81.6024 112.317C81.9471 112.387 82.2686 112.516 82.5669 112.705C82.8685 112.894 83.1154 113.164 83.3077 113.516C83.4999 113.864 83.596 114.316 83.596 114.873V119.944H82.1443V118.9H82.0847C81.9885 119.092 81.8444 119.281 81.6521 119.467C81.4599 119.652 81.213 119.806 80.9114 119.929C80.6097 120.052 80.2485 120.113 79.8275 120.113ZM80.1507 118.92C80.5617 118.92 80.913 118.838 81.2047 118.676C81.4997 118.514 81.7234 118.302 81.8758 118.04C82.0316 117.775 82.1095 117.491 82.1095 117.19V116.205C82.0565 116.258 81.9537 116.308 81.8013 116.354C81.6521 116.397 81.4814 116.436 81.2892 116.469C81.097 116.499 80.9097 116.527 80.7274 116.553C80.5451 116.576 80.3927 116.596 80.27 116.613C79.9817 116.649 79.7182 116.711 79.4795 116.797C79.2442 116.883 79.0553 117.007 78.9128 117.17C78.7736 117.329 78.704 117.541 78.704 117.806C78.704 118.174 78.8399 118.452 79.1116 118.641C79.3834 118.827 79.7298 118.92 80.1507 118.92ZM85.5759 119.944V112.307H87.0625V119.944H85.5759ZM86.3267 111.129C86.0681 111.129 85.8461 111.043 85.6605 110.871C85.4782 110.695 85.387 110.486 85.387 110.244C85.387 109.999 85.4782 109.79 85.6605 109.618C85.8461 109.442 86.0681 109.354 86.3267 109.354C86.5852 109.354 86.8056 109.442 86.9879 109.618C87.1735 109.79 87.2663 109.999 87.2663 110.244C87.2663 110.486 87.1735 110.695 86.9879 110.871C86.8056 111.043 86.5852 111.129 86.3267 111.129ZM90.5488 109.762V119.944H89.0623V109.762H90.5488ZM93.528 120.038C93.2562 120.038 93.0226 119.942 92.827 119.75C92.6315 119.554 92.5337 119.319 92.5337 119.044C92.5337 118.772 92.6315 118.54 92.827 118.348C93.0226 118.152 93.2562 118.055 93.528 118.055C93.7998 118.055 94.0335 118.152 94.229 118.348C94.4246 118.54 94.5223 118.772 94.5223 119.044C94.5223 119.226 94.4759 119.394 94.3831 119.546C94.2936 119.695 94.1743 119.815 94.0252 119.904C93.876 119.994 93.7103 120.038 93.528 120.038ZM99.7301 120.098C98.991 120.098 98.3546 119.931 97.821 119.596C97.2907 119.258 96.883 118.792 96.598 118.199C96.3129 117.606 96.1704 116.926 96.1704 116.16C96.1704 115.385 96.3162 114.7 96.6079 114.107C96.8996 113.511 97.3106 113.045 97.8409 112.71C98.3712 112.375 98.9959 112.208 99.7152 112.208C100.295 112.208 100.812 112.316 101.266 112.531C101.72 112.743 102.087 113.042 102.365 113.426C102.647 113.811 102.814 114.26 102.867 114.773H101.42C101.341 114.415 101.159 114.107 100.874 113.849C100.592 113.59 100.214 113.461 99.74 113.461C99.3257 113.461 98.9628 113.57 98.6512 113.789C98.343 114.004 98.1027 114.313 97.9304 114.714C97.758 115.111 97.6718 115.582 97.6718 116.126C97.6718 116.682 97.7563 117.163 97.9254 117.567C98.0944 117.972 98.3331 118.285 98.6413 118.507C98.9528 118.729 99.3191 118.84 99.74 118.84C100.022 118.84 100.277 118.789 100.506 118.686C100.738 118.58 100.932 118.429 101.087 118.234C101.246 118.038 101.357 117.803 101.42 117.528H102.867C102.814 118.021 102.653 118.462 102.385 118.85C102.116 119.238 101.757 119.543 101.306 119.765C100.859 119.987 100.333 120.098 99.7301 120.098ZM107.673 120.098C106.958 120.098 106.333 119.934 105.799 119.606C105.266 119.278 104.851 118.819 104.556 118.229C104.261 117.639 104.114 116.949 104.114 116.16C104.114 115.368 104.261 114.676 104.556 114.082C104.851 113.489 105.266 113.028 105.799 112.7C106.333 112.372 106.958 112.208 107.673 112.208C108.389 112.208 109.014 112.372 109.548 112.7C110.081 113.028 110.496 113.489 110.791 114.082C111.086 114.676 111.233 115.368 111.233 116.16C111.233 116.949 111.086 117.639 110.791 118.229C110.496 118.819 110.081 119.278 109.548 119.606C109.014 119.934 108.389 120.098 107.673 120.098ZM107.678 118.85C108.142 118.85 108.527 118.727 108.832 118.482C109.137 118.237 109.362 117.91 109.508 117.503C109.657 117.095 109.732 116.646 109.732 116.155C109.732 115.668 109.657 115.221 109.508 114.813C109.362 114.402 109.137 114.072 108.832 113.824C108.527 113.575 108.142 113.451 107.678 113.451C107.211 113.451 106.823 113.575 106.515 113.824C106.21 114.072 105.983 114.402 105.834 114.813C105.688 115.221 105.615 115.668 105.615 116.155C105.615 116.646 105.688 117.095 105.834 117.503C105.983 117.91 106.21 118.237 106.515 118.482C106.823 118.727 107.211 118.85 107.678 118.85ZM112.892 119.944V112.307H114.319V113.55H114.414C114.573 113.129 114.833 112.801 115.194 112.566C115.555 112.327 115.988 112.208 116.492 112.208C117.002 112.208 117.43 112.327 117.774 112.566C118.122 112.805 118.379 113.133 118.545 113.55H118.625C118.807 113.143 119.097 112.818 119.495 112.576C119.892 112.331 120.366 112.208 120.917 112.208C121.609 112.208 122.174 112.425 122.612 112.859C123.053 113.294 123.273 113.948 123.273 114.823V119.944H121.787V114.962C121.787 114.445 121.646 114.071 121.364 113.839C121.082 113.607 120.746 113.491 120.355 113.491C119.871 113.491 119.495 113.64 119.226 113.938C118.958 114.233 118.823 114.613 118.823 115.077V119.944H117.342V114.868C117.342 114.454 117.213 114.12 116.954 113.869C116.696 113.617 116.359 113.491 115.945 113.491C115.663 113.491 115.403 113.565 115.164 113.714C114.929 113.86 114.738 114.064 114.593 114.326C114.45 114.588 114.379 114.891 114.379 115.236V119.944H112.892Z" fill="url(#paint2_linear_6001_12531)"/>
<g opacity="0.3" filter="url(#filter0_f_6001_12531)">
<rect x="294.528" y="84.4438" width="56" height="60" fill="url(#paint3_linear_6001_12531)"/>
</g>
<defs>
<filter id="filter0_f_6001_12531" x="210.528" y="0.443848" width="224" height="228" filterUnits="userSpaceOnUse" color-interpolation-filters="sRGB">
<feFlood flood-opacity="0" result="BackgroundImageFix"/>
<feBlend mode="normal" in="SourceGraphic" in2="BackgroundImageFix" result="shape"/>
<feGaussianBlur stdDeviation="42" result="effect1_foregroundBlur_6001_12531"/>
</filter>
<linearGradient id="paint0_linear_6001_12531" x1="485.501" y1="57.7242" x2="479.14" y2="169.488" gradientUnits="userSpaceOnUse">
<stop stop-color="#040509" stop-opacity="0.14"/>
<stop offset="1" stop-color="white" stop-opacity="0"/>
</linearGradient>
<linearGradient id="paint1_linear_6001_12531" x1="171.528" y1="94.4438" x2="171.528" y2="136.444" gradientUnits="userSpaceOnUse">
<stop stop-color="#FEE3D5" stop-opacity="0.07"/>
<stop offset="1" stop-color="#FFA5C1" stop-opacity="0.07"/>
</linearGradient>
<linearGradient id="paint2_linear_6001_12531" x1="66.5278" y1="104.944" x2="66.5278" y2="125.944" gradientUnits="userSpaceOnUse">
<stop stop-color="white" stop-opacity="0.64"/>
<stop offset="1" stop-color="white"/>
</linearGradient>
<linearGradient id="paint3_linear_6001_12531" x1="303.307" y1="59.223" x2="371.883" y2="83.0929" gradientUnits="userSpaceOnUse">
<stop stop-color="#FEECE3"/>
<stop offset="0.25" stop-color="#FCD5BF"/>
<stop offset="0.5" stop-color="#FEAFAE"/>
<stop offset="0.75" stop-color="#FFA4BD"/>
<stop offset="1" stop-color="#FFA9CC"/>
</linearGradient>
</defs>
</svg>
