<svg width="17" height="16" viewBox="0 0 17 16" fill="none" xmlns="http://www.w3.org/2000/svg">
<path d="M8 13.49C6.91221 13.49 5.84884 13.1674 4.94437 12.5631C4.0399 11.9587 3.33495 11.0998 2.91867 10.0948C2.50238 9.08976 2.39347 7.98389 2.60568 6.91699C2.8179 5.8501 3.34173 4.87009 4.11092 4.1009C4.8801 3.33171 5.86011 2.80789 6.92701 2.59567C7.9939 2.38345 9.09977 2.49237 10.1048 2.90865C11.1098 3.32493 11.9687 4.02988 12.5731 4.93435C13.1774 5.83882 13.5 6.90219 13.5 7.98999C13.4983 9.44817 12.9184 10.8462 11.8873 11.8773C10.8562 12.9084 9.45819 13.4883 8 13.49ZM12 7.98999C12 8.78112 11.7654 9.55447 11.3259 10.2123C10.8864 10.8701 10.2616 11.3828 9.53074 11.6855C8.79983 11.9883 7.99557 12.0675 7.21964 11.9131C6.44372 11.7588 5.73099 11.3778 5.17158 10.8184C4.61217 10.259 4.2312 9.54627 4.07686 8.77035C3.92252 7.99443 4.00173 7.19016 4.30448 6.45926C4.60724 5.72835 5.11993 5.10364 5.77772 4.66411C6.43552 4.22459 7.20888 3.98999 8 3.98999C9.06051 3.99115 10.0773 4.41295 10.8272 5.16284C11.577 5.91274 11.9988 6.92948 12 7.98999Z" fill="url(#paint0_linear_6001_12963)"/>
<defs>
<linearGradient id="paint0_linear_6001_12963" x1="3.38118" y1="-3.97452" x2="18.1109" y2="1.09621" gradientUnits="userSpaceOnUse">
<stop stop-color="#FEECE3"/>
<stop offset="0.25" stop-color="#FCD5BF"/>
<stop offset="0.5" stop-color="#FEAFAE"/>
<stop offset="0.75" stop-color="#FFA4BD"/>
<stop offset="1" stop-color="#FFA9CC"/>
</linearGradient>
</defs>
</svg>
