<svg width="24" height="24" viewBox="0 0 24 24" fill="none" xmlns="http://www.w3.org/2000/svg">
<path d="M13.8939 12.5908L16.5342 13.7224C16.6642 13.778 16.8143 13.8423 16.9397 13.9095C17.0808 13.9851 17.2866 14.1125 17.4539 14.3373C17.6655 14.6216 17.7696 14.9717 17.7477 15.3255C17.7304 15.6051 17.6276 15.8243 17.5506 15.9648C17.4823 16.0895 17.3917 16.2253 17.3132 16.3429C16.8225 17.0792 16.381 18.0966 15.6848 18.6688C15.5325 18.794 15.357 18.888 15.1683 18.9453C14.2961 19.2102 12.7076 19.2584 11.8114 18.9059C11.5777 18.814 11.3708 18.6649 11.2097 18.4723C10.6052 17.7494 10.4447 16.5069 10.1561 15.6406L10.1484 15.6179C10.12 15.5347 10.0614 15.3627 10.0454 15.1774C10.0318 15.0206 10.0431 14.8626 10.0787 14.7093C10.2262 14.0737 10.6368 13.4101 10.9664 12.8603C11.0351 12.7456 11.1415 12.591 11.3119 12.4537C11.5359 12.2731 11.8071 12.1607 12.0932 12.13C12.3108 12.1067 12.4953 12.1408 12.625 12.1733C13.051 12.2799 13.4916 12.4184 13.8939 12.5908Z" fill="url(#paint0_linear_6001_13071)"/>
<path fill-rule="evenodd" clip-rule="evenodd" d="M12 1.01001C5.92487 1.01001 1 5.93488 1 12.01C1 18.0851 5.92487 23.01 12 23.01C18.0751 23.01 23 18.0851 23 12.01C23 5.93488 18.0751 1.01001 12 1.01001ZM3.50553 9.0287C3.17808 9.96175 3 10.9651 3 12.01C3 16.9806 7.02944 21.01 12 21.01C16.9706 21.01 21 16.9806 21 12.01C21 8.17751 18.6045 4.90452 15.2291 3.60665C15.1462 4.85218 15.5812 6.81832 14.5371 7.77944C13.4421 8.78737 11.4822 9.22361 10.1439 9.81831L9.25538 11.003C9.18549 11.0963 9.10167 11.2081 9.01972 11.3008C8.92445 11.4085 8.77813 11.554 8.56315 11.6614C8.284 11.8007 7.96834 11.8496 7.66013 11.8011C7.42276 11.7638 7.23928 11.6692 7.11593 11.5954C7.00979 11.5318 6.89611 11.4506 6.80129 11.3828L3.50553 9.0287Z" fill="url(#paint1_linear_6001_13071)"/>
<defs>
<linearGradient id="paint0_linear_6001_13071" x1="4.44882" y1="-8.23763" x2="30.9655" y2="1.65151" gradientUnits="userSpaceOnUse">
<stop stop-color="#FEECE3"/>
<stop offset="0.25" stop-color="#FCD5BF"/>
<stop offset="0.5" stop-color="#FEAFAE"/>
<stop offset="0.75" stop-color="#FFA4BD"/>
<stop offset="1" stop-color="#FFA9CC"/>
</linearGradient>
<linearGradient id="paint1_linear_6001_13071" x1="4.44882" y1="-8.23763" x2="30.9655" y2="1.65151" gradientUnits="userSpaceOnUse">
<stop stop-color="#FEECE3"/>
<stop offset="0.25" stop-color="#FCD5BF"/>
<stop offset="0.5" stop-color="#FEAFAE"/>
<stop offset="0.75" stop-color="#FFA4BD"/>
<stop offset="1" stop-color="#FFA9CC"/>
</linearGradient>
</defs>
</svg>
