<svg width="120" height="46" viewBox="0 0 120 46" fill="none" xmlns="http://www.w3.org/2000/svg">
<path fill-rule="evenodd" clip-rule="evenodd" d="M63.0835 15.852C62.08 15.008 60.3673 14.5865 57.9445 14.5865H52.48V31.4738H56.5661V26.1811H58.3964C60.618 26.1811 62.2471 25.6922 63.2838 24.7134C64.4516 23.6169 65.0392 22.1567 65.0392 20.334C65.0392 18.4438 64.387 16.9495 63.0835 15.852ZM58.2949 22.3599H56.5661V18.4077H58.1192C60.0085 18.4077 60.9531 19.0704 60.9531 20.3957C60.9531 21.7039 60.0664 22.3599 58.2949 22.3599ZM72.0313 14.5856H67.7705V31.4729H76.9701V27.6508H72.0313V14.5856ZM85.3177 14.5856L78.625 31.4729H83.2124L84.0896 29.0179H89.905L90.707 31.4729H95.346L88.7005 14.5856H85.3177ZM85.2675 25.5991L87.0227 19.827L88.7506 25.5991H85.2675Z" fill="#404144"/>
<path fill-rule="evenodd" clip-rule="evenodd" d="M97.4742 31.4729H101.736V14.5856H97.4742V31.4729ZM118.282 17.7507C117.744 16.9702 117.052 16.3072 116.25 15.8017C114.964 14.991 113.209 14.5865 110.986 14.5865H105.371V31.4729H111.939C114.312 31.4729 116.217 30.6973 117.654 29.1441C119.092 27.5919 119.809 25.5318 119.809 22.9657C119.809 20.9245 119.3 19.1862 118.282 17.7507ZM111.463 27.6498H109.633V18.4087H111.488C112.792 18.4087 113.793 18.8169 114.496 19.6305C115.198 20.4441 115.549 21.5986 115.549 23.0929C115.549 26.1308 114.187 27.6498 111.463 27.6498ZM17.8832 0.407715L4.07274 4.0248L0.266718 17.9131L5.02685 22.8005L0.189819 27.6071L3.77179 41.5562L17.5224 45.3982L22.3604 40.5906L27.1205 45.477L40.931 41.86L44.7361 27.9707L39.9768 23.0853L44.8139 18.2786L41.2319 4.3286L27.4794 0.486512L22.6433 5.29315L17.8832 0.407715ZM9.40821 6.69632L16.6832 4.78999L19.8645 8.0558L15.2249 12.6659L9.40821 6.69632ZM25.3785 8.09948L28.611 4.88777L35.8547 6.91183L29.943 12.7856L25.3785 8.09948ZM4.62527 16.7729L6.62938 9.45806L12.4443 15.4277L7.80568 20.0378L4.62527 16.7729ZM32.6762 15.5929L38.588 9.7172L40.4734 17.0653L37.2418 20.278L32.6762 15.5929ZM17.9591 15.4723L22.5987 10.8621L27.1623 15.5482L22.5237 20.1583L17.9591 15.4723ZM10.5408 22.8441L15.1794 18.234L19.7458 22.9201L15.1053 27.5302L10.5408 22.8441ZM25.2588 22.9647L29.8974 18.3545L34.462 23.0406L29.8224 27.6507L25.2588 22.9647ZM4.52843 28.8195L7.76201 25.6058L12.3256 30.2929L6.41577 36.1656L4.52843 28.8195ZM17.8395 30.3365L22.4791 25.7264L27.0436 30.4125L22.405 35.0226L17.8395 30.3365ZM32.5566 30.4581L37.1962 25.8479L40.3775 29.1128L38.3743 36.4277L32.5566 30.4581ZM9.14899 38.9739L15.0598 33.0982L19.6262 37.7843L16.3927 40.9979L9.14899 38.9739ZM25.1392 37.8289L29.7778 33.2188L35.5937 39.1893L28.3196 41.0948L25.1392 37.8289Z" fill="#404144"/>
</svg>
