<svg width="120" height="32" viewBox="0 0 120 32" fill="none" xmlns="http://www.w3.org/2000/svg">
<path d="M0 18.1757C0 9.37591 6.93066 3.10179 16.7872 3.10179C19.7126 3.10179 22.9055 3.64677 24.6967 4.45916V9.95455H24.4962L17.6434 5.04886C17.2898 4.92621 16.5521 4.84691 15.8527 4.84691C10.6685 4.84691 7.00812 9.67651 7.00812 16.3402C7.00812 23.7827 11.5694 29.5782 17.3654 29.5782C17.758 29.5717 18.1492 29.5308 18.5347 29.4561L18.4231 29.4099V17.0521L16.6655 14.905V14.7049H26.9103V14.905L25.1527 17.0521V31.4253H24.9526L20.5135 30.0568C18.8007 30.9135 16.1528 31.5364 13.7723 31.5364C5.60696 31.5364 0 26.1184 0 18.1757ZM31.6495 14.4043L29.5803 12.3355V12.1778L36.9448 10.2325H37.334L37.6106 14.4043H37.8439C39.524 11.4451 41.0035 10.2325 42.8722 10.2325C43.651 10.2325 44.3186 10.4663 44.6635 10.778V17.0853H44.4634L40.5272 14.437C40.4102 14.4124 40.2908 14.4011 40.1713 14.4033C39.3594 14.4033 38.1911 15.1821 37.8019 16.1166V28.888L39.8592 30.7585V30.9586H29.8919V30.7585L31.6495 28.8894V14.4043ZM46.3339 30.9466V30.7908L48.0914 28.8774V14.4043L46.0226 12.3798V12.1778L53.8543 10.2307H54.2434V28.8885L56.0014 30.8019V30.9577H46.3339V30.9466ZM47.812 4.04743C47.812 2.13403 49.103 0.965698 51.1607 0.965698C53.2184 0.965698 54.5089 2.13403 54.5089 4.04743C54.5089 5.91657 53.23 7.08445 51.1607 7.08445C49.0915 7.08445 47.812 5.91657 47.812 4.04743ZM58.8604 30.9466V30.7465L60.618 28.8774V13.0363H57.8479V12.8805L60.651 10.4663C61.5078 4.8151 64.9788 0.965698 69.2172 0.965698C70.2738 0.965698 71.5224 1.19946 72.0204 1.47748L71.3976 6.58373H71.1972L65.6244 4.12535C64.4118 4.24753 63.3648 6.22779 63.3648 8.01901C63.3648 10.3216 65.1228 11.601 68.1138 11.601H73.2978C73.6098 5.6072 76.9578 0.965698 81.1296 0.965698C82.1088 0.965698 83.277 1.19946 83.8218 1.47748L83.1546 6.53947H82.9542L78.0054 4.20142C76.8708 4.31254 75.981 5.99218 75.981 7.82815C75.981 10.3179 77.6166 11.6088 80.7762 11.6088H92.691L92.3784 13.8376V28.9604L94.1364 30.7959V30.9517H84.447V30.7959L86.238 28.8825V13.0363H79.4184V28.8885L81.7548 30.7585V30.9586H71.4732V30.7585L73.2642 28.8451V13.0363H66.759V28.8885L69.0948 30.7585V30.9586H58.8595L58.8604 30.9466ZM85.971 4.04743C85.971 2.13403 87.2502 0.965698 89.3196 0.965698C91.422 0.965698 92.7126 2.13403 92.7126 4.04743C92.7126 5.91657 91.4214 7.08445 89.3196 7.08445C87.2502 7.08445 85.971 5.91657 85.971 4.04743ZM104.927 28.8885L106.685 30.7585V30.9586H97.0176V30.7585L98.7756 28.8894V14.4121L96.7062 12.3433V12.1428L104.071 10.2294H104.46L104.737 13.8892H105.004C107.139 11.4309 109.442 10.2294 112.012 10.2294C115.483 10.2294 117.896 12.4885 117.896 15.6805V28.8853L119.654 30.7544V30.9545H109.954V30.7544L111.745 28.7631V16.905C111.745 14.9916 110.577 13.8238 108.707 13.8238C107.463 13.8238 106.218 14.324 104.927 15.3365L104.927 28.8885Z" fill="#404144"/>
</svg>
