<svg width="160" height="41" viewBox="0 0 160 41" fill="none" xmlns="http://www.w3.org/2000/svg">
<g clip-path="url(#clip0_6001_14277)">
<path d="M43.9992 10.4999L43.9421 10.519V19.0331H35.866V10.519L35.8089 10.4999C34.6089 10.2523 33.428 10.2523 32.247 10.4999L32.1899 10.519V30.0996L32.247 30.1186C32.8375 30.2328 33.428 30.3091 34.0184 30.3091C34.6089 30.3091 35.1994 30.2519 35.8089 30.1186L35.866 30.0996V22.1568H43.9421V30.0996L43.9992 30.1186C45.1802 30.3662 46.3801 30.3662 47.561 30.1186L47.6182 30.0996V10.519L47.561 10.4999C46.361 10.2714 45.1802 10.2714 43.9992 10.4999ZM56.5133 16.0046C52.2847 16.0046 49.7705 18.6712 49.7705 23.1473C49.7705 25.4711 50.3038 27.3187 51.3705 28.5948C52.5324 29.9852 54.2657 30.69 56.5704 30.69C60.475 30.69 62.475 28.3662 62.7226 26.0616V26.0044L62.6655 25.9853C61.675 25.6616 60.7608 25.5853 59.6751 25.7377H59.637V25.7758C59.4084 27.1472 58.2656 27.9663 56.6085 27.9663C54.2847 27.9663 53.1418 26.6901 53.1038 24.0616H62.9322V24.0044C63.2179 21.414 62.7036 19.3188 61.4465 17.8903C60.2846 16.6712 58.5894 16.0046 56.5133 16.0046ZM56.4751 18.5379C57.4466 18.5379 58.2656 18.8426 58.818 19.4331C59.3894 20.0426 59.6751 20.9568 59.6179 22.0425H53.1038C53.161 19.814 54.399 18.5379 56.4751 18.5379ZM65.3131 10.4999L65.2559 10.519V30.0996L65.3131 30.1186C65.8654 30.2328 66.4178 30.3091 66.9893 30.3091C67.5416 30.3091 68.113 30.2519 68.6654 30.1186L68.7226 30.0996V10.519L68.6654 10.4999C67.5606 10.2523 66.4369 10.2714 65.3131 10.4999ZM78.3605 16.0046C76.8938 16.0046 75.351 16.576 73.8843 17.6616L73.6748 16.6332L73.6367 16.6141C72.7986 16.3664 72.113 16.3664 71.2939 16.6141L71.2558 16.6332V36.1184L71.313 36.1376C71.8654 36.2518 72.4177 36.328 72.9891 36.328C73.5606 36.328 74.1129 36.2709 74.6653 36.1376L74.7224 36.1184V29.6043C75.8843 30.3472 77.1224 30.69 78.5128 30.69C82.36 30.69 84.6648 27.9663 84.6648 23.3759C84.6464 18.7092 82.36 16.0046 78.3605 16.0046ZM74.6653 19.8712C75.6938 19.1664 76.6462 18.8426 77.6747 18.8426C80.0176 18.8426 81.2936 20.4616 81.2936 23.433C81.2936 26.3472 80.0368 27.89 77.6366 27.89C76.6081 27.89 75.6367 27.5663 74.6653 26.8805V19.8712ZM99.3504 19.5664C98.76 19.3378 98.2264 19.1474 97.7128 18.976C95.0456 18.0236 93.4456 17.4522 93.408 16.0046C93.3888 15.3379 93.5984 14.7665 94.0552 14.2903C94.7224 13.6046 95.8456 13.2427 97.2176 13.2427C98.5696 13.2427 99.6176 13.6046 100.246 14.2712C100.779 14.8427 101.008 15.6236 100.95 16.595V16.6522L101.008 16.6712C102.17 16.8998 103.331 16.8808 104.589 16.595L104.646 16.576V16.5188C104.722 14.8808 104.226 13.4522 103.217 12.3856C101.96 11.0523 99.9408 10.3475 97.3888 10.3285H97.3128C92.5696 10.3285 89.7128 12.4427 89.6744 15.9856C89.6552 19.5092 92.8936 20.6902 94.836 21.3759L95.1224 21.4902C95.7696 21.7188 96.3792 21.9283 96.9128 22.1188C99.5408 23.033 101.122 23.5854 101.179 24.9758C101.198 25.6996 100.989 26.2901 100.55 26.7472C99.9216 27.3948 98.8176 27.7186 97.3504 27.6996C95.7312 27.6996 94.4936 27.2805 93.7888 26.5187C93.2744 25.9472 93.0648 25.2235 93.1408 24.3472V24.2901L93.084 24.2711C91.9032 24.0425 90.7032 24.0616 89.5224 24.3282L89.484 24.3472V24.4044C89.3888 25.9853 89.8648 27.3948 90.8936 28.4805C92.2648 29.9472 94.5128 30.7091 97.408 30.69C100.246 30.69 104.912 29.9281 104.95 24.9758C104.894 21.6807 102.074 20.614 99.3504 19.5664ZM113.465 18.8426C115.807 18.8426 116.36 20.3664 116.474 21.2616V21.3188H116.531C117.617 21.4902 118.646 21.414 119.636 21.1283L119.693 21.1092V21.0521C119.598 19.6807 119.007 18.4426 118.036 17.5474C116.931 16.5379 115.35 15.9856 113.484 15.9856C109.026 15.9856 106.57 18.595 106.57 23.3378C106.57 28.0615 109.007 30.6709 113.426 30.6709C115.331 30.6709 116.931 30.1186 118.055 29.071C118.988 28.1948 119.56 27.0139 119.674 25.7377V25.6806L119.617 25.6616C118.683 25.3377 117.655 25.2806 116.531 25.4711H116.493V25.5092C116.188 27.6424 114.112 27.7948 113.484 27.7948C111.084 27.7948 109.96 26.3663 109.96 23.2996C109.941 20.2712 111.065 18.8426 113.465 18.8426ZM128.131 16.0046C123.75 16.0046 121.331 18.614 121.331 23.3568C121.331 28.0805 123.75 30.69 128.131 30.69C132.512 30.69 134.931 28.0805 134.931 23.3568C134.931 18.614 132.512 16.0046 128.131 16.0046ZM131.617 23.3759C131.617 26.4044 130.474 27.871 128.131 27.871C125.788 27.871 124.646 26.4044 124.646 23.3759C124.646 20.2902 125.75 18.8426 128.131 18.8426C130.474 18.8426 131.617 20.3283 131.617 23.3759ZM145.902 16.6332L145.845 16.6522V26.4044C144.74 27.3568 143.73 27.7758 142.569 27.7758C140.93 27.7758 140.226 26.8424 140.226 24.633V16.6332L140.169 16.6141C139.064 16.3474 137.94 16.3474 136.817 16.6141L136.759 16.6332V25.4139C136.759 28.7472 138.55 30.6709 141.693 30.6709C143.369 30.6709 144.835 30.0233 146.416 28.5757L146.74 30.0996L146.778 30.1186C147.578 30.3281 148.416 30.3281 149.216 30.1186L149.274 30.0996V16.6332L149.216 16.6141C148.15 16.3474 147.026 16.3474 145.902 16.6332ZM159.826 27.49L159.806 27.4329L159.75 27.452C158.416 27.7568 157.635 27.7376 157.178 27.3758C156.797 27.071 156.626 26.5377 156.626 25.6996V19.4521H159.33L159.35 19.395C159.54 18.4807 159.54 17.5474 159.35 16.6141L159.33 16.5569H156.626V12.8618L156.569 12.8428C155.464 12.5951 154.34 12.5951 153.235 12.8428L153.178 12.8618L153.197 16.5569H151.483L151.464 16.6141C151.254 17.5284 151.254 18.4807 151.464 19.395L151.483 19.4521H153.197L153.216 25.452C153.216 27.1282 153.311 28.8234 154.474 29.7948C155.102 30.3091 156.016 30.5757 157.197 30.5757C157.921 30.5757 158.759 30.4805 159.73 30.29H159.769L159.787 30.2519C160.054 29.3567 160.074 28.4234 159.826 27.49Z" fill="#404144"/>
<path d="M1.88568 23.0139L11.1426 13.757C12.3426 12.576 13.0854 10.9189 13.0854 9.10944C13.0854 7.31899 12.3617 5.68093 11.1998 4.5L1.94282 13.757C0.742843 14.9379 0 16.595 0 18.4045C0 20.214 0.723796 21.833 1.88568 23.0139ZM24.3043 17.6045L15.0474 26.8615C13.8474 28.0424 13.1045 29.6995 13.1045 31.509C13.1045 33.2994 13.8283 34.9375 14.9902 36.1185L24.2472 26.8615C25.4471 25.6806 26.19 24.0234 26.19 22.2139C26.19 20.4045 25.4662 18.7854 24.3043 17.6045ZM24.2472 13.776C25.4471 12.5951 26.19 10.938 26.19 9.12848C26.19 7.33804 25.4662 5.69998 24.3043 4.51905L1.94282 26.8615C0.742843 28.0614 0 29.6995 0 31.5281C0 33.3185 0.723796 34.9566 1.88568 36.1375L24.2472 13.776Z" fill="#404144"/>
</g>
<defs>
<clipPath id="clip0_6001_14277">
<rect width="160" height="40" fill="white" transform="translate(0 0.5)"/>
</clipPath>
</defs>
</svg>
