<svg width="32" height="31" viewBox="0 0 32 31" fill="none" xmlns="http://www.w3.org/2000/svg">
<g clip-path="url(#clip0_6001_13220)">
<rect x="0.5" width="31" height="31" rx="8" fill="url(#paint0_linear_6001_13220)"/>
<g filter="url(#filter0_i_6001_13220)">
<path fill-rule="evenodd" clip-rule="evenodd" d="M27.4422 16.3262C28.0222 15.1363 27.4935 13.7165 26.3984 12.973C22.5379 10.3523 20.149 5.98991 20.149 1.32077C20.149 -4.14562 23.4234 -9.19152 28.4929 -11.5214L26.4266 -15.7608C23.1529 -14.258 20.3766 -11.8936 18.4097 -8.92269C16.3928 -5.86889 15.3211 -2.32573 15.3211 1.32077C15.3211 4.96727 16.3928 8.51042 18.4169 11.5573C19.9627 13.8923 22.0085 15.8526 24.4027 17.3144C25.4951 17.9813 26.8814 17.4767 27.4422 16.3262Z" fill="url(#paint1_linear_6001_13220)"/>
</g>
<g filter="url(#filter1_i_6001_13220)">
<path fill-rule="evenodd" clip-rule="evenodd" d="M5.75439 42.719C10.831 40.396 14.1054 35.3501 14.1054 29.8837C14.1054 25.2143 11.7162 20.8516 7.85971 18.2266C6.76583 17.482 6.23864 16.0627 6.8184 14.8732C7.37964 13.7217 8.76718 13.2166 9.86043 13.8842C12.254 15.3459 14.2992 17.3058 15.8447 19.6403C17.8616 22.6941 18.9333 26.2372 18.9333 29.8837C18.9333 33.5302 17.8616 37.0734 15.8375 40.1203C13.8706 43.0913 11.0944 45.4557 7.8208 46.9584L5.75439 42.719Z" fill="url(#paint2_linear_6001_13220)"/>
</g>
</g>
<defs>
<filter id="filter0_i_6001_13220" x="15.3211" y="-17.046" width="13.1718" height="34.6586" filterUnits="userSpaceOnUse" color-interpolation-filters="sRGB">
<feFlood flood-opacity="0" result="BackgroundImageFix"/>
<feBlend mode="normal" in="SourceGraphic" in2="BackgroundImageFix" result="shape"/>
<feColorMatrix in="SourceAlpha" type="matrix" values="0 0 0 0 0 0 0 0 0 0 0 0 0 0 0 0 0 0 127 0" result="hardAlpha"/>
<feOffset dy="-2.57037"/>
<feGaussianBlur stdDeviation="0.642592"/>
<feComposite in2="hardAlpha" operator="arithmetic" k2="-1" k3="1"/>
<feColorMatrix type="matrix" values="0 0 0 0 1 0 0 0 0 1 0 0 0 0 1 0 0 0 0.1 0"/>
<feBlend mode="normal" in2="shape" result="effect1_innerShadow_6001_13220"/>
</filter>
<filter id="filter1_i_6001_13220" x="5.75439" y="13.5857" width="13.1789" height="34.6579" filterUnits="userSpaceOnUse" color-interpolation-filters="sRGB">
<feFlood flood-opacity="0" result="BackgroundImageFix"/>
<feBlend mode="normal" in="SourceGraphic" in2="BackgroundImageFix" result="shape"/>
<feColorMatrix in="SourceAlpha" type="matrix" values="0 0 0 0 0 0 0 0 0 0 0 0 0 0 0 0 0 0 127 0" result="hardAlpha"/>
<feOffset dy="2.57"/>
<feGaussianBlur stdDeviation="0.642592"/>
<feComposite in2="hardAlpha" operator="arithmetic" k2="-1" k3="1"/>
<feColorMatrix type="matrix" values="0 0 0 0 1 0 0 0 0 1 0 0 0 0 1 0 0 0 0.1 0"/>
<feBlend mode="normal" in2="shape" result="effect1_innerShadow_6001_13220"/>
</filter>
<linearGradient id="paint0_linear_6001_13220" x1="5.35971" y1="-13.0308" x2="26.6522" y2="44.0263" gradientUnits="userSpaceOnUse">
<stop stop-color="#FEECE3"/>
<stop offset="0.25" stop-color="#FCD5BF"/>
<stop offset="0.5" stop-color="#FEAFAE"/>
<stop offset="0.75" stop-color="#FFA4BD"/>
<stop offset="1" stop-color="#FFA9CC"/>
</linearGradient>
<linearGradient id="paint1_linear_6001_13220" x1="21.9105" y1="-15.7608" x2="21.9105" y2="18.3954" gradientUnits="userSpaceOnUse">
<stop/>
<stop offset="1" stop-opacity="0.9"/>
</linearGradient>
<linearGradient id="paint2_linear_6001_13220" x1="12.3438" y1="12.8022" x2="12.3438" y2="46.9584" gradientUnits="userSpaceOnUse">
<stop/>
<stop offset="1" stop-opacity="0.9"/>
</linearGradient>
<clipPath id="clip0_6001_13220">
<rect width="31" height="31" fill="white" transform="translate(0.5)"/>
</clipPath>
</defs>
</svg>
