<svg width="140" height="45" viewBox="0 0 140 45" fill="none" xmlns="http://www.w3.org/2000/svg">
<path d="M73.7835 11.4278C73.7835 13.0023 72.5151 14.2706 70.9401 14.2706C69.3658 14.2706 68.0975 13.0023 68.0975 11.4278C68.0975 9.85326 69.3221 8.58493 70.9401 8.58493C72.5585 8.62868 73.7835 9.89701 73.7835 11.4278ZM62.0619 17.1572C62.0619 17.4196 62.0619 17.857 62.0619 17.857C62.0619 17.857 60.706 16.1076 57.8195 16.1076C53.0522 16.1076 49.3346 19.7377 49.3346 24.7673C49.3346 29.7533 53.0084 33.4272 57.8195 33.4272C60.7498 33.4272 62.0619 31.634 62.0619 31.634V32.3775C62.0619 32.7274 62.3243 32.9898 62.6742 32.9898H66.2168V16.5449C66.2168 16.5449 62.9803 16.5449 62.6742 16.5449C62.3243 16.5449 62.0619 16.8511 62.0619 17.1572ZM62.0619 27.6977C61.4058 28.6599 60.0938 29.4909 58.5192 29.4909C55.7201 29.4909 53.577 27.7414 53.577 24.7673C53.577 21.7933 55.7201 20.0439 58.5192 20.0439C60.05 20.0439 61.4496 20.9186 62.0619 21.8371V27.6977ZM68.841 16.5449H73.0394V32.9898H68.841V16.5449ZM131.559 16.1076C128.673 16.1076 127.317 17.857 127.317 17.857V8.62868H123.118V32.9898C123.118 32.9898 126.354 32.9898 126.66 32.9898C127.01 32.9898 127.273 32.6836 127.273 32.3775V31.634C127.273 31.634 128.629 33.4272 131.515 33.4272C136.282 33.4272 140 29.7533 140 24.7673C140 19.7814 136.282 16.1076 131.559 16.1076ZM130.859 29.4472C129.241 29.4472 127.973 28.6161 127.317 27.654V21.7933C127.973 20.9186 129.372 20.0001 130.859 20.0001C133.658 20.0001 135.801 21.7496 135.801 24.7236C135.801 27.6977 133.658 29.4472 130.859 29.4472ZM120.931 23.2366V33.0336H116.732V23.7177C116.732 21.006 115.858 19.9126 113.496 19.9126C112.228 19.9126 110.915 20.5687 110.084 21.5309V32.9898H105.886V16.5449H109.21C109.56 16.5449 109.822 16.8511 109.822 17.1572V17.857C111.047 16.5887 112.665 16.1076 114.283 16.1076C116.12 16.1076 117.65 16.6324 118.875 17.6821C120.362 18.9067 120.931 20.4812 120.931 23.2366ZM95.6949 16.1076C92.8088 16.1076 91.4529 17.857 91.4529 17.857V8.62868H87.2543V32.9898C87.2543 32.9898 90.4904 32.9898 90.7963 32.9898C91.1463 32.9898 91.4088 32.6836 91.4088 32.3775V31.634C91.4088 31.634 92.7647 33.4272 95.6515 33.4272C100.419 33.4272 104.136 29.7533 104.136 24.7673C104.18 19.7814 100.463 16.1076 95.6949 16.1076ZM94.9956 29.4472C93.3772 29.4472 92.1088 28.6161 91.4529 27.654V21.7933C92.1088 20.9186 93.5081 20.0001 94.9956 20.0001C97.7942 20.0001 99.9376 21.7496 99.9376 24.7236C99.9376 27.6977 97.7942 29.4472 94.9956 29.4472ZM83.6241 16.1076C84.8925 16.1076 85.5484 16.3262 85.5484 16.3262V20.2188C85.5484 20.2188 82.0491 19.0379 79.8623 21.5309V33.0336H75.6637V16.5449C75.6637 16.5449 78.9005 16.5449 79.2064 16.5449C79.5564 16.5449 79.8189 16.8511 79.8189 17.1572V17.857C80.6064 16.9385 82.3116 16.1076 83.6241 16.1076ZM40.0187 31.5027C39.8001 30.9779 39.5814 30.4093 39.3627 29.9282C39.0128 29.141 38.6629 28.3975 38.3568 27.6977L38.313 27.654C35.2952 21.0935 32.0588 14.4456 28.6473 7.88514L28.5161 7.62271C28.1662 6.96666 27.8163 6.26688 27.4664 5.5671C27.029 4.77985 26.5917 3.94886 25.8919 3.1616C24.4924 1.41215 22.4805 0.449951 20.3374 0.449951C18.1506 0.449951 16.1825 1.41215 14.7391 3.07413C14.0831 3.86139 13.602 4.69238 13.1646 5.47963C12.8148 6.17941 12.4648 6.87919 12.115 7.53521L11.9837 7.79764C8.6161 14.3581 5.33585 21.006 2.31804 27.5665L2.2743 27.654C1.96815 28.3538 1.61826 29.0972 1.26836 29.8845C1.04968 30.3656 0.831004 30.8904 0.612322 31.459C0.0437494 33.0772 -0.131196 34.6081 0.087486 36.1826C0.568586 39.4628 2.7554 42.2182 5.77321 43.4428C6.91035 43.9239 8.09124 44.1426 9.31582 44.1426C9.66575 44.1426 10.1031 44.0988 10.453 44.055C11.8963 43.8801 13.3833 43.399 14.8266 42.568C16.6198 41.5621 18.3255 40.1188 20.25 38.0194C22.1743 40.1188 23.9238 41.5621 25.6732 42.568C27.1165 43.399 28.6036 43.8801 30.0469 44.055C30.3967 44.0988 30.8341 44.1426 31.184 44.1426C32.4086 44.1426 33.6333 43.9239 34.7267 43.4428C37.7882 42.2182 39.9313 39.419 40.4124 36.1826C40.7623 34.6517 40.5873 33.121 40.0187 31.5027ZM20.2936 33.777C17.9319 30.803 16.4012 28.0038 15.8763 25.6421C15.6576 24.6361 15.6139 23.7614 15.7451 22.9742C15.8325 22.2744 16.095 21.6621 16.4449 21.1373C17.2759 19.9564 18.6755 19.2128 20.2936 19.2128C21.9119 19.2128 23.3552 19.9126 24.1425 21.1373C24.4924 21.6621 24.7547 22.2744 24.8422 22.9742C24.9735 23.7614 24.9297 24.6799 24.7111 25.6421C24.1862 27.9601 22.6554 30.7593 20.2936 33.777ZM37.7444 35.8326C37.4383 38.1069 35.9076 40.0751 33.7644 40.9498C32.7148 41.3871 31.5776 41.5184 30.4405 41.3871C29.3471 41.256 28.2537 40.906 27.1165 40.25C25.542 39.3753 23.9675 38.0194 22.1306 36.0076C25.0172 32.4649 26.7667 29.2285 27.4227 26.3418C27.7288 24.9861 27.7726 23.7614 27.6414 22.6243C27.4664 21.5309 27.0728 20.5249 26.4605 19.6502C25.1047 17.6821 22.8304 16.5449 20.2936 16.5449C17.757 16.5449 15.4827 17.7258 14.1269 19.6502C13.5146 20.5249 13.1209 21.5309 12.946 22.6243C12.771 23.7614 12.8148 25.0298 13.1646 26.3418C13.8207 29.2285 15.6139 32.5087 18.4568 36.0513C16.6636 38.0632 15.0453 39.419 13.4708 40.2937C12.3337 40.9498 11.2403 41.2997 10.1469 41.4309C8.96596 41.5621 7.82881 41.3871 6.82288 40.9935C4.6798 40.1188 3.14903 38.1507 2.84287 35.8764C2.71167 34.783 2.79914 33.6896 3.2365 32.4649C3.36771 32.0276 3.58639 31.5902 3.80507 31.0654C4.11123 30.3656 4.46112 29.6221 4.81101 28.8786L4.85474 28.7911C7.87256 22.2744 11.109 15.6264 14.4767 9.15347L14.608 8.89104C14.9578 8.235 15.3078 7.53521 15.6576 6.87919C16.0075 6.17941 16.4012 5.52337 16.8823 4.95479C17.8007 3.90512 19.0253 3.33655 20.3811 3.33655C21.737 3.33655 22.9616 3.90512 23.88 4.95479C24.3611 5.52337 24.7547 6.17941 25.1047 6.87919C25.4545 7.53521 25.8045 8.235 26.1543 8.89104L26.2856 9.15347C29.6095 15.6702 32.846 22.3181 35.8638 28.8348V28.8786C36.2137 29.5784 36.5199 30.3656 36.8697 31.0654C37.0884 31.5902 37.3071 32.0276 37.4383 32.4649C37.7882 33.6021 37.9194 34.6955 37.7444 35.8326Z" fill="#404144"/>
</svg>
