<svg width="35" height="35" viewBox="0 0 35 35" fill="none" xmlns="http://www.w3.org/2000/svg">
<path d="M27.9486 29.4907L32.2079 26.9907L24.5227 15.0926L21.0968 17.1296L27.9023 29.4907H27.9486ZM12.2079 32.5926L16.5134 35L23.1338 22.5L19.6616 20.5556L12.2542 32.5926H12.2079ZM1.83749 20.5556V25.463L16.0505 24.8611L15.9579 20.9259L1.83749 20.5093V20.5556ZM33.2264 14.4444L33.1801 9.53704L18.9671 10.1389V14.1204L33.1801 14.4444H33.2264ZM7.02268 5.41667L2.80972 7.91667L10.4023 19.8611L13.7819 17.8704L7.02268 5.41667ZM22.7171 2.4537L18.4579 0L11.8838 12.5L15.2634 14.4907L22.6708 2.4537H22.7171Z" fill="url(#paint0_linear_6001_12910)"/>
<defs>
<linearGradient id="paint0_linear_6001_12910" x1="17.5319" y1="0" x2="17.5319" y2="65.3947" gradientUnits="userSpaceOnUse">
<stop stop-color="#100D11"/>
<stop offset="1" stop-color="#705B77"/>
</linearGradient>
</defs>
</svg>
