<svg width="35" height="37" viewBox="0 0 35 37" fill="none" xmlns="http://www.w3.org/2000/svg">
<path d="M17.5 36.0156C18.6413 36.0156 19.5766 35.1755 19.7351 33.9866C21.3043 23.3978 22.7468 21.9237 32.9236 20.7666C34.0964 20.6239 35 19.6411 35 18.4998C35 17.3426 34.1123 16.3915 32.9393 16.2171C22.8261 14.8064 21.5739 13.57 19.7351 2.99711C19.529 1.82408 18.6254 0.983887 17.5 0.983887C16.3429 0.983887 15.4234 1.82408 15.2333 3.01287C13.6957 13.5859 12.2532 15.06 2.09237 16.2171C0.887654 16.3757 0 17.3268 0 18.4998C0 19.6411 0.855963 20.5922 2.06068 20.7666C12.1897 22.209 13.4261 23.4295 15.2333 34.0025C15.471 35.1913 16.3904 36.0156 17.5 36.0156Z" fill="url(#paint0_linear_6001_12920)"/>
<defs>
<linearGradient id="paint0_linear_6001_12920" x1="17.5" y1="0.983887" x2="17.5" y2="66.4378" gradientUnits="userSpaceOnUse">
<stop stop-color="#100D11"/>
<stop offset="1" stop-color="#705B77"/>
</linearGradient>
</defs>
</svg>
