<svg width="37" height="37" viewBox="0 0 37 37" fill="none" xmlns="http://www.w3.org/2000/svg">
<path fill-rule="evenodd" clip-rule="evenodd" d="M26.5431 14.1691C28.9366 11.7755 32.8112 11.7755 35.2048 14.1691C37.5984 16.5627 37.5984 20.4373 35.2048 22.8309C32.8112 25.2245 28.9366 25.2245 26.5431 22.8309L24.687 20.9748L20.9748 24.687L22.8309 26.5431C25.2245 28.9366 25.2245 32.8112 22.8309 35.2048C20.4373 37.5984 16.5627 37.5984 14.1691 35.2048C11.7755 32.8112 11.7755 28.9366 14.1691 26.5431L16.0252 24.687L12.313 20.9748L10.4569 22.8309C8.06336 25.2245 4.18877 25.2245 1.79519 22.8309C-0.598396 20.4373 -0.598396 16.5627 1.79519 14.1691C4.18877 11.7755 8.06336 11.7755 10.4569 14.1691L12.313 16.0252L16.0252 12.313L14.1691 10.4569C11.7755 8.06336 11.7755 4.18877 14.1691 1.79519C16.5627 -0.598396 20.4373 -0.598396 22.8309 1.79519C25.2245 4.18877 25.2245 8.06336 22.8309 10.4569L20.9748 12.313L24.687 16.0252L26.5431 14.1691ZM32.73 20.3561C31.7053 21.3808 30.0426 21.3808 29.0178 20.3561L27.1618 18.5L29.0178 16.6439C30.0426 15.6192 31.7053 15.6192 32.73 16.6439C33.7547 17.6686 33.7547 19.3314 32.73 20.3561ZM16.6439 4.26997C17.6686 3.24526 19.3314 3.24526 20.3561 4.26997C21.3808 5.29469 21.3808 6.95744 20.3561 7.98215L18.5 9.83824L16.6439 7.98215C15.6192 6.95744 15.6192 5.29469 16.6439 4.26997ZM18.5 14.7878L14.7878 18.5L18.5 22.2122L22.2122 18.5L18.5 14.7878ZM4.26997 20.3561C3.24526 19.3314 3.24526 17.6686 4.26997 16.6439C5.29469 15.6192 6.95744 15.6192 7.98216 16.6439L9.83824 18.5L7.98216 20.3561C6.95744 21.3808 5.29469 21.3808 4.26997 20.3561ZM20.3561 32.73C19.3314 33.7547 17.6686 33.7547 16.6439 32.73C15.6192 31.7053 15.6192 30.0426 16.6439 29.0178L18.5 27.1618L20.3561 29.0178C21.3808 30.0426 21.3808 31.7053 20.3561 32.73Z" fill="url(#paint0_linear_6001_12938)"/>
<path fill-rule="evenodd" clip-rule="evenodd" d="M35.2048 14.1691C32.8112 11.7755 28.9366 11.7755 26.5431 14.1691L24.687 16.0252L20.9748 12.313L22.8309 10.4569C25.2245 8.06336 25.2245 4.18877 22.8309 1.79519C20.4373 -0.598396 16.5627 -0.598396 14.1691 1.79519C11.7755 4.18877 11.7755 8.06336 14.1691 10.4569L16.0252 12.313L12.313 16.0252L10.4569 14.1691C8.06336 11.7755 4.18877 11.7755 1.79519 14.1691C-0.598396 16.5627 -0.598396 20.4373 1.79519 22.8309C4.18877 25.2245 8.06336 25.2245 10.4569 22.8309L12.313 20.9748L16.0252 24.687L14.1691 26.5431C11.7755 28.9366 11.7755 32.8112 14.1691 35.2048C16.5627 37.5984 20.4373 37.5984 22.8309 35.2048C25.2245 32.8112 25.2245 28.9366 22.8309 26.5431L20.9748 24.687L24.687 20.9748L26.5431 22.8309C28.9366 25.2245 32.8112 25.2245 35.2048 22.8309C37.5984 20.4373 37.5984 16.5627 35.2048 14.1691ZM20.3561 32.73C19.3314 33.7547 17.6686 33.7547 16.6439 32.73C15.6192 31.7053 15.6192 30.0426 16.6439 29.0178L18.5 27.1618L20.3561 29.0178C21.3808 30.0426 21.3808 31.7053 20.3561 32.73ZM14.7878 18.5L18.5 14.7878L22.2122 18.5L18.5 22.2122L14.7878 18.5ZM16.6439 4.26997C17.6686 3.24526 19.3314 3.24526 20.3561 4.26997C21.3808 5.29469 21.3808 6.95744 20.3561 7.98215L18.5 9.83824L16.6439 7.98215C15.6192 6.95744 15.6192 5.29469 16.6439 4.26997ZM4.26997 16.6439C3.24526 17.6686 3.24526 19.3314 4.26997 20.3561C5.29469 21.3808 6.95744 21.3808 7.98216 20.3561L9.83824 18.5L7.98216 16.6439C6.95744 15.6192 5.29469 15.6192 4.26997 16.6439ZM32.73 20.3561C31.7053 21.3808 30.0426 21.3808 29.0178 20.3561L27.1618 18.5L29.0178 16.6439C30.0426 15.6192 31.7053 15.6192 32.73 16.6439C33.7547 17.6686 33.7547 19.3314 32.73 20.3561Z" fill="url(#paint1_linear_6001_12938)"/>
<defs>
<linearGradient id="paint0_linear_6001_12938" x1="18.5" y1="0" x2="18.5" y2="69.1316" gradientUnits="userSpaceOnUse">
<stop stop-color="#100D11"/>
<stop offset="1" stop-color="#705B77"/>
</linearGradient>
<linearGradient id="paint1_linear_6001_12938" x1="18.5" y1="0" x2="18.5" y2="69.1316" gradientUnits="userSpaceOnUse">
<stop stop-color="#100D11"/>
<stop offset="1" stop-color="#705B77"/>
</linearGradient>
</defs>
</svg>
