<svg width="24" height="24" viewBox="0 0 24 24" fill="none" xmlns="http://www.w3.org/2000/svg">
<path d="M12.6456 1.78567C12.2372 1.59097 11.7628 1.59097 11.3545 1.78567C11.0014 1.95399 10.8068 2.24623 10.7087 2.40655C10.6072 2.57229 10.503 2.78342 10.4015 2.9892L8.24576 7.35649L3.42371 8.0613C3.19672 8.09443 2.96381 8.12842 2.7749 8.17385C2.59214 8.2178 2.25423 8.31285 1.98531 8.59669C1.67422 8.92506 1.52792 9.37627 1.58714 9.82471C1.63833 10.2123 1.85618 10.4876 1.97838 10.6304C2.10469 10.7781 2.27334 10.9423 2.43771 11.1023L5.9255 14.4994L5.10254 19.2977C5.06369 19.5239 5.02383 19.756 5.00849 19.9498C4.99365 20.1372 4.97931 20.4881 5.16601 20.8318C5.38196 21.2294 5.76584 21.5083 6.21071 21.5907C6.59531 21.662 6.9246 21.5399 7.09823 21.4679C7.27778 21.3934 7.4862 21.2837 7.68936 21.1768L12 18.9099L16.3107 21.1768C16.5139 21.2837 16.7223 21.3934 16.9018 21.4679C17.0755 21.5399 17.4047 21.662 17.7893 21.5907C18.2342 21.5083 18.6181 21.2294 18.834 20.8318C19.0207 20.4881 19.0064 20.1372 18.9916 19.9498C18.9762 19.756 18.9364 19.5239 18.8975 19.2977L18.0745 14.4994L21.5624 11.1022C21.7267 10.9422 21.8954 10.778 22.0217 10.6304C22.1439 10.4876 22.3617 10.2123 22.4129 9.82471C22.4721 9.37627 22.3258 8.92506 22.0147 8.59669C21.7458 8.31285 21.4079 8.2178 21.2252 8.17385C21.0362 8.12842 20.8033 8.09443 20.5763 8.0613L15.7543 7.35649L13.5986 2.98928C13.4971 2.78348 13.3929 2.5723 13.2914 2.40655C13.1932 2.24623 12.9986 1.95399 12.6456 1.78567Z" fill="url(#paint0_linear_6001_13079)"/>
<defs>
<linearGradient id="paint0_linear_6001_13079" x1="4.84302" y1="-6.75581" x2="29.7025" y2="2.9233" gradientUnits="userSpaceOnUse">
<stop stop-color="#FEECE3"/>
<stop offset="0.25" stop-color="#FCD5BF"/>
<stop offset="0.5" stop-color="#FEAFAE"/>
<stop offset="0.75" stop-color="#FFA4BD"/>
<stop offset="1" stop-color="#FFA9CC"/>
</linearGradient>
</defs>
</svg>
